<?xml version="1.0" encoding="utf-8"?>
<!-- Generator: Adobe Illustrator 26.0.1, SVG Export Plug-In . SVG Version: 6.00 Build 0)  -->
<svg version="1.1" id="BD-Logo" xmlns="http://www.w3.org/2000/svg" xmlns:xlink="http://www.w3.org/1999/xlink" x="0px" y="0px"
	 viewBox="0 0 1024 768" style="enable-background:new 0 0 1024 768;" xml:space="preserve">
<style type="text/css">
	.st0{fill:none;}
	.st1{stroke:#000000;stroke-width:5;stroke-miterlimit:10;}
	.st2{display:none;fill:#8E8E8E;stroke:#221F1F;stroke-width:7;stroke-miterlimit:10;}
	.st3{fill:none;stroke:#000000;stroke-width:7;stroke-miterlimit:10;}
	.st4{stroke:#000000;stroke-miterlimit:10;}
	.st5{fill:#FFFFFF;stroke:#000000;stroke-miterlimit:10;}
	.st6{fill:#3A3A3A;}
	.st7{fill:#AFAFAF;stroke:#231F20;stroke-miterlimit:10;}
	.st8{fill:#999999;}
	.st9{fill:#FDFDFD;}
	.st10{fill:#333333;}
	.st11{fill:#191919;}
</style>
<g id="Bulldogs_Wrestling_Club_Logo">
	<rect id="Background" class="st0" width="1024" height="768"/>
	<g id="Banner">
		<path id="Banner_Background" class="st1" d="M29.1,234.8v247.1c0,0,409.3-98.7,965,0.2c0,0,0-160.5,0-246
			C438,325.9,29.1,234.8,29.1,234.8z"/>
		<path id="Banner_Border__x28_Gray_Fill_x29_" class="st2" d="M14.9,217c-0.1,36.6-0.1,197.7,0,281.3
			c492.7-107.8,993.8-0.4,993.8-0.4v-281C1008.7,216.9,507.6,320.9,14.9,217z"/>
		<path id="Banner_Border" class="st3" d="M15.2,217.7C15,254.3,15,415.4,15.2,499c492.5-108.6,993.8-0.4,993.8-0.4v-281
			C1009,217.6,507.6,320.9,15.2,217.7z"/>
		<g id="Wrestling_Club_Text">
			<g id="Wrestling_Club_Text_Black">
				<path id="B_00000026132432193586162720000014623581598586464905_" class="st4" d="M979.9,292.5l-9-32.1l-37,6.1V308l3.1-0.3V410
					l-3.1-0.3v41.5l37,6.5l9-31.9v-59l-4.1-10.8l4.1-13V292.5z M963.9,407l-3.9,5.6l-6.6-1.3v-34l6.6-0.7l3.9,6.1V407z M963.9,329.6
					l-3.9,4.3h-6.6v-27.4l6.6-1l3.9,5.9V329.6z"/>
				<polygon id="U_00000111874547503773334280000013978726062138037652_" class="st4" points="866.6,275.1 866.6,313.5 870.4,313.2 
					870.4,417.4 880.8,444.3 909.3,447.7 919.3,421.6 919.3,309.4 923.2,308.8 922.8,267.9 897.9,271.6 897.9,310.7 901.5,310.5 
					901.4,400.8 898.6,407.1 891.4,406.6 888.8,400.8 889,311.7 892.5,311.3 892.5,272 				"/>
				<polygon id="L_00000158723950455818536880000000791613935518923409_" class="st4" points="806.5,280.4 806.5,316.4 810.7,316.1 
					810.7,401.6 806.5,401.5 806.5,436.6 857.5,441.5 857.5,393.4 840.9,392.4 840.9,402.7 830.5,401.9 830.5,315.7 833.9,315.4 
					833.9,277.8 				"/>
				<polygon id="C_00000108295256478252071140000017639002741482886036_" class="st4" points="752.1,284.9 739.4,309.8 739.4,408.6 
					751.3,432.1 782.7,434.4 793.8,409.9 793.8,378 774.1,377.7 774.1,395.6 770.7,399.1 762.4,398.6 759.9,394.6 759.9,323.2 
					761.6,321.1 771,319.1 774.1,322.2 774.1,343 793.8,343 793.8,307.4 782.1,282.6 				"/>
				<polygon id="G_00000109716329967988781480000005338066187246015106_" class="st4" points="647.3,290.8 679.8,289.4 692,311.3 
					692,343.1 670.7,343.7 670.7,326.5 668.4,322.6 658.5,322.9 656.3,326.5 656.3,392.3 658.4,395.7 668.4,396 670.7,392.3 
					670.7,379.6 665.6,379.5 665.6,351.2 692,351.4 692,406 680.3,428.5 647.3,427.1 635.3,404.7 635.3,313.1 				"/>
				<polygon id="N_00000118357901063282217570000002096814104279375001_" class="st4" points="550.8,293.4 550.8,324.5 554.9,324.3 
					554.9,393.8 550.8,393.8 550.8,424 581.1,424.5 581.1,393.8 576.2,393.8 576.2,367.5 595.3,425 621.3,425.8 621.3,395 
					616.8,394.9 616.8,323.8 621.3,323.6 621.3,291.7 591.6,292.6 591.6,324.1 595.7,324.1 595.7,351.8 575.6,293 				"/>
				<polygon id="I_00000101089126215543717640000010795110972726304654_" class="st4" points="506.4,293.4 536.5,293.4 536.5,324.5 
					531.8,324.5 531.8,394 536.5,394 536.5,424 506.4,424 506.4,393.8 511.1,393.8 511.1,324.3 506.4,324.3 				"/>
				<polygon id="L_00000046301387111571194010000005303722547271075970_" class="st4" points="437.1,292.6 437.1,323.6 441.5,323.6 
					441.5,394.4 437.1,394.4 437.1,425 493.5,424 493.5,386 475.1,386.3 475.1,393.8 462.9,393.8 462.9,323.9 467.1,324.1 
					467.1,293.1 				"/>
				<polygon id="T_00000042694249289536452250000008732268400276868254_" class="st4" points="361.1,290 361.1,329.6 378.5,329.6 
					378.5,322.2 382.7,322.3 382.7,395.4 377.3,395.6 377.3,427.1 408.1,425.9 408.1,394.9 403.4,395 403.4,322.8 407.1,322.9 
					407.1,330.3 424.8,330.4 424.8,292.3 				"/>
				<polygon id="S_00000071552462707189724080000004096006574145635224_" class="st4" points="304.4,286.6 335.5,288.5 347.7,310.5 
					347.7,338.9 327,338.9 327,325.2 323.6,321 315.6,320.7 312.6,325.9 312.6,338.2 315.6,343.4 335.3,343.4 347.7,364.9 
					347.7,407 335.2,429.1 304.4,431.1 292,408.9 292,381 312.6,380.4 312.6,393 315.6,397.5 323.6,397.2 327,391.3 327,379 
					323.6,374.6 304,375.3 292,352.5 292,309.8 				"/>
				<polygon id="E_00000114046454999161673110000012118120832247439763_" class="st4" points="226.9,316.4 231,316.5 231,401.1 
					227.1,401.4 226.9,437 278.9,433 278.9,392.8 262,393.4 262,399.6 250.6,400.2 250.7,374.9 254.1,374.9 254.3,382.7 
					269.1,382.3 269.2,335.8 254,335.2 254,343.1 250.2,343.1 250.7,317.5 262.4,318.3 262.4,324.8 278.9,325.2 278.9,284.8 
					226.9,280.4 				"/>
				<path id="R" class="st4" d="M210.3,402.2v-36.1l-4.7-9.4l4.7-9.7v-42.7l-11-25.2l-41.4-4.3v38l3.7,0.3v92.2l-4.2,0.3v38.6
					l27.3-3v-37.4l-4,0.3v-29.3h7.5l3.1,5.9v60l22.8-2.3l0.1-36.1L210.3,402.2z M191.7,332.7l-3,4.9h-8.3v-23.4l7.6,0.6l3.7,3.8
					V332.7z"/>
				<polygon id="W_00000104674275449307690810000010141395597601347209_" class="st4" points="51.3,303.1 56.8,304.1 67.6,412.3 
					65,412.6 65,456.7 95.3,451.8 95.3,410.2 92.5,410.3 98.8,367.4 103,409.4 100.3,409.7 100.2,451.1 133.2,447 133.2,407.3 
					129.9,407.4 142.8,312.3 147,312.7 147,272 120.6,268.7 120.6,310 123.7,310.3 116.7,365.5 109.5,308.4 112.2,308.7 
					112.2,267.6 84.6,263.7 84.8,305.9 87.8,306.1 80.5,365.5 73.6,305 77.1,305.3 77.1,262.7 51.3,258.8 				"/>
			</g>
			<g id="Wrestling_Club_Text_White_00000114035843102221130390000001570001571695375794_">
				<path id="B_00000103962049014372268210000006778784270000339089_" class="st5" d="M976.4,289.1l-9-32.1l-37,6.1v41.4l3.1-0.3
					v102.3l-3.1-0.3v41.5l37,6.5l9-31.9v-59l-4.1-10.8l4.1-13V289.1z M960.5,403.6l-3.9,5.6l-6.6-1.3v-34l6.6-0.7l3.9,6.1V403.6z
					 M960.5,326.1l-3.9,4.3H950v-27.4l6.6-1l3.9,5.9V326.1z"/>
				<polygon id="U_00000083078328289521939890000007822644742349672359_" class="st5" points="863.2,271.6 863.2,310.1 867,309.8 
					867,414 877.4,440.8 905.8,444.3 915.9,418.2 915.9,306 919.8,305.4 919.4,264.4 894.5,268.2 894.5,307.2 898.1,307 898,397.3 
					895.2,403.7 888,403.1 885.4,397.3 885.5,308.3 889.1,307.9 889.1,268.6 				"/>
				<polygon id="L_00000162321025484193656840000007212174267994729644_" class="st5" points="803.1,277 803.1,313 807.3,312.7 
					807.3,398.2 803.1,398.1 803.1,433.2 854.1,438.1 854.1,390 837.5,389 837.5,399.2 827,398.5 827,312.2 830.5,311.9 
					830.5,274.4 				"/>
				<polygon id="C_00000001652175279307829240000012980046832427844241_" class="st5" points="748.7,281.5 736,306.3 736,405.2 
					747.9,428.7 779.2,431 790.4,406.5 790.4,374.5 770.7,374.2 770.7,392.1 767.3,395.6 759,395.2 756.4,391.1 756.4,319.8 
					758.1,317.7 767.6,315.7 770.7,318.8 770.7,339.6 790.4,339.6 790.4,304 778.7,279.2 				"/>
				<polygon id="G_00000025414205515153821670000004167688629574799253_" class="st5" points="643.8,287.4 676.4,286 688.6,307.9 
					688.6,339.7 667.2,340.3 667.2,323.1 665,319.2 655.1,319.5 652.8,323.1 652.8,388.8 655,392.3 665,392.6 667.2,388.8 
					667.2,376.2 662.2,376.1 662.2,347.8 688.6,348 688.6,402.6 676.9,425.1 643.8,423.6 631.8,401.2 631.8,309.7 				"/>
				<polygon id="N_00000095318972303003396170000010359365383045620140_" class="st5" points="547.4,290 547.4,321.1 551.5,320.9 
					551.5,390.4 547.4,390.4 547.4,420.6 577.7,421 577.7,390.4 572.8,390.4 572.8,364.1 591.8,421.6 617.9,422.3 617.9,391.6 
					613.4,391.4 613.4,320.3 617.9,320.2 617.9,288.3 588.1,289.1 588.1,320.6 592.2,320.6 592.2,348.4 572.2,289.6 				"/>
				<polygon id="I_00000155106524008958364160000000554330150170093459_" class="st5" points="503,290 533.1,290 533.1,321.1 
					528.4,321.1 528.4,390.6 533.1,390.6 533.1,420.6 503,420.6 503,390.4 507.6,390.4 507.6,320.9 503,320.9 				"/>
				<polygon id="L_00000003102131515770707080000017196687503516158900_" class="st5" points="433.7,289.1 433.7,320.2 438,320.2 
					438,391 433.7,391 433.7,421.6 490,420.6 490,382.6 471.7,382.9 471.7,390.4 459.5,390.4 459.5,320.5 463.7,320.6 463.7,289.7 
									"/>
				<polygon id="T_00000176750799815929683390000010054625752962497425_" class="st5" points="357.7,286.5 357.7,326.1 375,326.1 
					375,318.8 379.3,318.9 379.3,392 373.9,392.1 373.9,423.6 404.6,422.5 404.6,391.4 400,391.6 400,319.3 403.6,319.5 
					403.6,326.8 421.4,327 421.4,288.8 				"/>
				<polygon id="S_00000086678267124918541930000001129053282623181489_" class="st5" points="301,283.2 332,285.1 344.3,307.1 
					344.3,335.5 323.6,335.5 323.6,321.8 320.2,317.6 312.2,317.3 309.2,322.5 309.2,334.8 312.2,340 331.9,340 344.3,361.5 
					344.3,403.6 331.7,425.7 301,427.7 288.6,405.4 288.6,377.6 309.2,377 309.2,389.5 312.2,394 320.2,393.7 323.6,387.8 
					323.6,375.5 320.2,371.2 300.5,371.9 288.6,349.1 288.6,306.3 				"/>
				<polygon id="E_00000006669169744249299570000012728564503127097517_" class="st5" points="223.5,313 227.6,313.1 227.6,397.6 
					223.6,397.9 223.5,433.6 275.5,429.6 275.5,389.4 258.6,390 258.6,396.2 247.2,396.8 247.3,371.5 250.7,371.5 250.8,379.3 
					265.6,378.9 265.8,332.3 250.6,331.8 250.6,339.7 246.8,339.7 247.3,314.1 259,314.8 259,321.4 275.5,321.8 275.5,281.3 
					223.5,277 				"/>
				<path id="R_00000169531513897133594360000000177712090332524461_" class="st5" d="M206.9,398.8v-36.1l-4.7-9.4l4.7-9.7v-42.7
					l-11-25.2l-41.4-4.3v38l3.7,0.3v92.2l-4.2,0.3v38.6l27.3-3v-37.4l-4,0.3v-29.3h7.5l3.1,5.9v60l22.8-2.3l0.1-36.1L206.9,398.8z
					 M188.3,329.3l-3,4.9H177v-23.4l7.6,0.6l3.7,3.8V329.3z"/>
				<polygon id="W_00000034087020172671993090000014328759623451440794_" class="st5" points="47.9,299.7 53.4,300.7 64.2,408.9 
					61.5,409.2 61.5,453.2 91.8,448.3 91.8,406.7 89,406.9 95.4,364 99.6,406 96.9,406.3 96.8,447.6 129.8,443.6 129.8,403.9 
					126.5,404 139.3,308.9 143.6,309.3 143.6,268.6 117.2,265.3 117.2,306.6 120.3,306.9 113.3,362.1 106.1,305 108.8,305.3 
					108.8,264.1 81.1,260.2 81.4,302.4 84.4,302.7 77,362.1 70.1,301.6 73.7,301.8 73.7,259.2 47.9,255.3 				"/>
			</g>
		</g>
	</g>
	<g id="Bulldogs_Text">
		<g id="Bulldogs_Text_Dark">
			<path id="S_00000004546339839368448630000007185927902318700204_" class="st6" d="M825.8,131.9c2.4-10.3,4.9-20.5,7.2-29.5
				c6.4-22.4,20.5-34.9,31.3-35c5.2,0,60.7,0,60.7,0l-9.5,46.4h-34.3l2.7-11.4h-17.5l-5.6,23.4h25.4c19.1,0.7,23.4,11.6,19.1,30.5
				c0,0-5.1,20.9-6.6,27.7c-5.4,21.9-17.2,31.5-30.9,31.3c-19.6,0.3-28.9,0-38.7,0c-9.3,0-14.8-0.1-21.6,0c1.6-6.2,9.2-39.2,10.9-46
				l32,0.1l-3.5,14.8h19.3l6.4-26.5c0,0-20.3,0.4-25.4,0.4C825.8,157.7,823.5,141.5,825.8,131.9z"/>
			<path id="G_00000103238432996447080360000018154697045117432737_" class="st6" d="M796.7,215.3c-22.7,0.3-52.1,0-61.1,0
				c-9.6,0-21.9-4-15.5-31.6c6.5-25.7,13.5-57.2,19.8-81.4c6.2-25.5,18.8-34.4,27.1-35.3c10.9-0.4,47.5,0.4,65.3,0.4
				c-8.5,33.3-11.6,43.7-11.6,43.7l-32.3-0.4l2.3-8.5h-17.5l-19.8,81.9h17.9l6.4-27.5h-8.7l8-31.6l40.6,0.7L796.7,215.3z"/>
			<path id="O_00000088134212774854240650000013587612055927786681_" class="st6" d="M714.9,67.3c-17.8,0-37.5,0.4-42.6,0.4
				c-10.9,0.1-20.3,6.2-27,34.6c-6.2,24.1-13.3,56-19.8,81.6c-6.9,27.1,6.8,31.3,15.5,31.5c9.7,0.1,19.1,0.3,38.7,0
				c13.7,0.1,25.5-9.7,30.9-31.5c6.1-26,13.8-58,19.9-81.6C735.2,84.2,728.3,67.3,714.9,67.3z M676.6,184.1h-17.9l19.8-81.9h17.5
				L676.6,184.1z"/>
			<path id="D_00000006702405924172587300000017815303812820839838_" class="st6" d="M620.4,67.7c-17.9,0-64.9,0-70.4,0l-8.3,34.6
				h7.2l-19.8,81.9h-7.8l-6.6,31.2c0,0,50.4,0.3,70.1,0c13.8,0.1,25.7-8.5,31-30.5c6.2-26.1,14.4-58.7,20-82.6
				C640.2,84.9,633.9,67.7,620.4,67.7z M579.4,184.1h-17.9l19.8-81.9h17.5L579.4,184.1z"/>
			<path id="L_00000056386102673885029660000007111918231088763037_" class="st6" d="M452.7,67.7c5.5,0,51.4,0,51.4,0l-8.6,34.6
				h-8.5l-18.3,81.9h12.8l6.5-24.7l30-0.3l-12.8,56.2h-86.1l6.6-31.2h9.2l18.3-81.9h-8.6L452.7,67.7z"/>
			<path id="L_00000034054033382589050580000004397263983453981603_" class="st6" d="M359.8,67.7c5.5,0,48.5,0,48.5,0l-7.2,34.6
				h-8.6l-18.3,81.9H387l5.7-24.7l29.6-0.7l-12.5,56.6h-86.5l8-31.2h9.2l19.8-81.9h-8.7L359.8,67.7z"/>
			<path id="U_00000057116293265474259200000017225705484017856917_" class="st6" d="M248.2,67.7l-9.5,34.6h9.3
				c0,0-15.9,63.4-20.7,87.1c-2.3,10.9,0.4,26,12.4,26c12.1,0,36.3,0,48.3,0c20,0,25.7-24.7,25.7-24.7l21.6-88.2h7.6l8-34.6h-42.2
				l-27.8,116.4h-17.2l27.1-116.6H248.2L248.2,67.7z"/>
			<path id="B_00000025430119880610519190000016050450327695027076_" class="st6" d="M214.9,67.6c-25.5,0.3-72.8,0-72.8,0l-8.2,34.7
				h9.3l-19.6,81.9h-9.5l-8.3,31.2c0,0,53.5,0.3,73,0c18.8,0.1,26.1-12,29.1-22.3c1-4.5,7.5-30.9,8.6-35.3c3-9.7,0.6-16.7-11.7-18.8
				c12.6,0.1,16.5-2,18.9-10.9c2-6.8,4.9-17.9,6.8-25.8C234.6,85.3,235.9,68.5,214.9,67.6z M175.8,184.1h-17.2l6.2-27.2l17.2-0.3
				L175.8,184.1z M188.9,128.4h-17.4l6.4-26.1h17.5L188.9,128.4z"/>
		</g>
		<g id="Bulldogs_Text_Light_00000131368841772057814070000001757261180452183474_">
			<path id="S" class="st7" d="M817.6,124.1c2.4-10.3,4.9-20.5,7.2-29.5c6.4-22.4,20.5-34.7,31.3-34.9c5.2,0,60.7,0,60.7,0
				l-9.5,46.3h-34.3l2.7-11.4h-17.6l-5.6,23.4h25.4c19.1,0.7,23.4,11.6,19.1,30.5c0,0-5.1,20.9-6.6,27.7
				c-5.4,21.9-17.2,32.2-30.9,32c-19.6,0.3-28.9,0-38.7,0c-9.3,0-15.8-0.1-22.6,0c1.6-6.2,9.2-39.9,10.9-46.7l33,0.1l-3.5,14.8h19.3
				l6.4-26.5c0,0-20.3,0.4-25.4,0.4C817.6,150.1,815.3,133.7,817.6,124.1z"/>
			<path id="G" class="st7" d="M788.5,208.3c-22.7,0.3-52.1,0-61.1,0c-9.6,0-21.9-4.5-15.5-32.2c6.5-25.7,13.5-57.2,19.8-81.4
				c6.2-25.5,18.8-34,27.1-34.9c10.9-0.4,48.5,0,66.3,0c-8.5,33.3-11.6,43.7-11.6,43.7l-33.2-0.4l2.3-8.5h-17.5l-19.8,81.9h17.9
				l6.4-27.5h-8.7l8-31.6l41.5,0.6L788.5,208.3z"/>
			<path id="O" class="st7" d="M706.7,59.8c-17.8,0-37.5,0-42.6,0c-10.9,0.1-20.3,6.5-27,34.9c-6.2,24.1-13.3,56-19.8,81.6
				c-6.9,27.1,6.8,31.9,15.5,32c9.7,0.1,19.1,0.3,38.7,0c13.7,0.1,25.5-10.3,30.9-32c6.1-26,13.8-58,19.9-81.6
				C727,76.4,720.1,59.8,706.7,59.8z M668.4,176.5h-17.9l19.8-81.9h17.5L668.4,176.5z"/>
			<path id="D" class="st7" d="M612.3,59.8c-17.9,0-64.9,0-70.4,0l-8.3,34.9h7.2L521,176.5h-6.8l-7.6,31.8c0,0,50.4,0.3,70.1,0
				c13.8,0.1,25.7-9,31-31c6.2-26.1,14.5-58.7,20.2-82.6C632,77.3,625.7,59.8,612.3,59.8z M571.2,176.5h-17.9L573,94.7h17.5
				L571.2,176.5z"/>
			<path id="L" class="st7" d="M444.5,59.8c5.5,0,51.4,0,51.4,0l-8.6,34.9h-8.5l-18.3,81.9h12.8l5.5-24.7l32-0.3l-13.3,56.7h-86.5
				l7.6-31.8h8.2L445,94.7h-8.6L444.5,59.8z"/>
			<path id="L_00000005961750670012436270000000948459104063206293_" class="st7" d="M351.5,59.8c5.5,0,48.5,0,48.5,0l-7.2,34.9
				h-8.6l-18.5,81.9h12.8l5.6-24.7l30.4-0.3l-13.3,56.7h-86.5l8-31.8h9.2l19.8-81.9h-8.6L351.5,59.8z"/>
			<path id="U" class="st7" d="M239.8,59.8l-9.3,34.9h9.3c0,0-15.9,63.4-20.7,87.1c-2.3,10.9,0.4,26.5,12.4,26.5
				c12.1,0,36.3,0,48.3,0c20,0,25.7-25.3,25.7-25.3l21.3-88.3h7.6l8-34.9h-42.2l-27.9,116.7h-17.2l27.5-116.7H239.8z"/>
			<path id="B" class="st7" d="M206.7,59.8c-25.5,0.3-72.8,0-72.8,0l-8.2,34.9h9.3l-19.6,81.9h-9.5l-8.3,31.8c0,0,53.5,0.3,73,0
				c18.8,0.1,26.1-12.6,29.1-22.9c1-4.5,7.5-30.9,8.6-35.3c3-9.7,0.6-16.7-11.7-18.8c12.6,0.1,16.5-2,18.9-10.9
				c2-6.8,4.9-17.9,6.8-25.8C226.4,77.6,227.7,60.8,206.7,59.8z M167.6,176.5h-17.2l6.2-27.2l17.2-0.3L167.6,176.5z M180.7,120.8
				h-17.4l6.4-26.1h17.5L180.7,120.8z"/>
		</g>
	</g>
	<g id="BD-Body">
		<path id="Sillowette" d="M820.3,686.7c-1.6-1.8-2-4.1-2-6.4c0-6.2-1.6-12-4-17.7c-2.8-6.6-6.6-12.4-12.6-16.7
			c-4.8-3.5-6.7-9.1-8.4-14.5c-1.3-3.9-2.2-7.9-4.3-11.5c-7.1-12.5-17.4-21.7-29.9-28.4c-6.4-3.5-13.1-6.6-19.7-9.7
			c-3.1-1.5-5.3-3.5-6.8-6.7c-5.3-11.4-13.1-20.7-23.2-28.2c-3.4-2.5-7-4.8-10.7-7.1c2.3-2.2,5.1-2.3,7.8-2.3
			c4.6,0,9.1,0.7,13.7,0.2c7.7-0.9,11.2-7.9,7.3-14.6c-1.1-1.9-2.5-3.7-4.1-5.3c-10.9-10.5-23.8-15.2-38.9-13.2
			c-9.5,1.3-16.8,6-21.3,14.5c-1.6,3-1.6,3-4.6,1.6c-27.8-12.9-55.6-25.7-82.6-40.3c-0.7-0.4-1.3-0.8-1.8-1.5
			c-9.5-12.1-20.5-22.7-33.1-31.6c-25.9-18.3-54.3-26.9-86.1-21.7c-10.9,1.8-21.2,5.1-30.2,11.7c-0.6,0.4-1.1,0.4-1.6,0.3
			c-4-0.6-7.8,0.1-11.6,1.5c-8.9,3.2-15.5,9-19.9,17.4c-0.3,0.6-0.4,1.3-1.5,1.1c-3.9-0.5-7.8-0.4-11.8-0.2c-1.1,0.1-2-0.2-2.8-1
			c-7.8-7.3-17.1-9.6-27.6-8.2c-7.4,1-14.2,3.9-20.8,7.3c-5.3,2.7-10.2,5.9-14,10.5c-1.8,2.2-3.3,4.6-3.6,7.5
			c-0.4,5.1,3.1,8.7,9,9.8c2.5,0.4,5,0.3,7.7,0.5c-0.4,0.7-0.7,1.2-1,1.7c-2.4,4.1-4.4,8.4-5,13.1c-0.4,2.7-1.5,3.9-4,4.8
			c-7.5,2.8-12.7,7.9-14.5,15.9c-0.9,3.8-0.7,7.5-0.1,11.3c0.2,1.4-0.1,2-1.5,2.6c-8.3,3.7-12.5,11.3-11.1,20.2
			c0.4,2.6,0.6,4.9-0.6,7.3c-0.4,0.8-0.5,1.8-0.6,2.7c-0.7,5.1,1.1,9.4,4.4,13.2c1.7,2,1.7,1.9-0.4,3.6c-1.1,0.9-2.2,1.9-3.2,2.9
			c-8.6,8.7-9.4,22-1.6,31.2c1.2,1.4,1.3,2.4,0.2,3.8c-0.9,1.2-1.5,2.6-2.1,4c-8,17.9-9.2,36.4-4.5,55.2c1.8,7.2,5.1,13.8,11.8,17.9
			c0.9,0.5,0.4,1.1,0.3,1.7c-1.6,8.4-1,16.7,1.8,24.7c2.1,5.9,6,9.6,12.2,11c6,1.4,12.1,1.3,18.2,1c4.5-0.2,8.8-1,13-2.9
			c1.8-0.8,3-3.1,4.7-2.9c1.8,0.2,3.4,1.8,5.2,2.6c10.4,4.2,21.1,4.6,32,3c5.5-0.8,10.5-3.1,15.5-5.2c5.7-2.4,9.1-7,9.2-13.4
			c0.1-4.2-1.5-7.9-3.8-11.4c-7.1-10.9-16.8-18.8-28.8-23.6c-5.4-2.1-10.9-4.2-16.8-1.3c-0.2-2.9,0.1-5.7,1.2-8.4c1-2.6,3-4,5.8-4.2
			c3.3-0.2,6.5,0.5,9.7,1.4c9.2,2.8,18,6.8,27.1,9.8c11.1,3.6,22.3,6.6,34,7.7c12.5,1.1,25-0.1,37.3-2.5c7.4-1.5,14.7-3.4,22-5.9
			c0.1,0.3,0.2,0.3,0.2,0.4c-0.1,1-0.2,2-0.3,2.9c-0.5,7.8,2,14.3,8.8,18.7c4.4,2.9,9.4,3.6,14.7,3.4c4.6-0.1,9-1.8,13.8-0.3
			c5.1,1.6,10-0.8,14.3-3.8c0.6-0.5,1.1-0.9,2.1-0.5c1.9,0.9,4,1.1,6.1,1c1.3-0.1,1.9,0.1,1.6,1.6c-0.2,1.1-0.1,2.2,0,3.3
			c0.9,11.3,9,19.6,19.2,19c1-0.1,1.2,0.6,1.5,1.2c2.4,4.9,6.3,7.8,11.5,8.9c3.4,0.7,6.9,0.7,10.4,0.5c11.2-0.9,22.4-2,33.7-2.4
			c6.7-0.3,13.5-0.3,20.2,0.5c4.3,0.5,8.4,2.1,12.6,2.7c5.5,0.7,11,0.8,16.3-0.9c10.7-3.4,14-13.1,12.9-22.4
			c-0.8-7.5-5.1-12.9-11.2-17c-0.8-0.5-1.4-0.9-1.1-2.1c4-14.3,3.9-28.7,1.5-43.2c-0.4-2.6-0.9-5.1-1.4-8.1c5.3,3.7,10.4,7,15.5,10
			c8.3,5,17.1,8.3,27,8.2c7.7-0.1,15.4-0.8,23.1-2c0.7-0.1,1.4-0.6,1.9,0.4c2.1,4,4.2,8.1,6.4,12.3c-4,0.7-7.7,1.6-11.2,3.1
			c-0.6,0.3-1.1,0-1.7-0.2c-7.1-1.5-14.3-2.6-21.6-1.6c-8.2,1-14,5.5-15.6,13c-2.4,11.5-0.1,22.1,6.8,31.6
			c4.2,5.9,10.1,9.3,17.5,8.5c3.4-0.4,6.4-0.1,9.7,1c8.7,2.7,17.1,0.9,24.8-3.8c1-0.6,1.6-0.6,2.4,0.2c1.4,1.4,3.1,2.4,4.8,3.3
			c6.6,3.3,13.5,3.6,20.5,2.3c11-2,20.8-6.4,28.6-14.8C825.7,704.1,825.8,692.7,820.3,686.7z M585.5,668.4c-0.6,0.2-1.2,0-1.6-0.5
			c-0.3-0.4-0.6-0.7-0.8-1.1c-2.4-3.3-2.3-3.7,1.1-5.8c5.1-3.1,9.9-6.5,14.1-10.8c0.2-0.2,0.5-0.4,0.9-0.7
			c0.8,6.6,0.5,13.1,1.8,19.7C595.8,667.5,590.7,667,585.5,668.4z"/>
		<g id="Gray_Parts">
			<g id="Leg_and_Paw_Parts">
				<path id="Leg_and_Paw" class="st8" d="M352.2,688.7c0.1-0.1,0.2-0.1,0.3-0.2c3.8-5.4,6-6.2,12.3-4.7c8.9,2.1,16.3,7,22.9,13.1
					c4,3.7,7.5,7.7,9.8,12.6c2.9,6.4,0.4,12.1-6.3,14.3c-0.9,0.3-1.4,0.1-1.9-0.7c-5.1-7.9-11.4-14.7-18.4-20.8
					c-2.4-2-4.9-4-7.6-5.5c-0.7-0.4-1.4-0.7-2.1-0.9c-0.7-0.2-1.5-0.6-2,0.2c-0.5,0.8,0.2,1.4,0.6,1.8c2.2,2.1,4.4,4.3,6.7,6.4
					c6.6,6.1,12.5,12.9,17.2,20.6c0.7,1.2,0.7,1.7-0.8,2c-10.5,2.1-20.9,2.2-31.2-1.1c-4.1-1.3-7.6-3.6-10.2-7.2
					c-2.4-3.3-4.9-6.6-7.9-9.5c-0.5-0.4-1-1.2-1.6-0.9c-0.8,0.4-0.3,1.3-0.1,1.9c1.3,4.1,3.2,8,5.1,11.9c0.8,1.7,0.4,2.5-1.1,3.3
					c-2.7,1.4-5.5,2.1-8.5,2.3c-6.3,0.6-12.7,0.7-19-0.6c-4.1-0.8-7-3.1-8.3-7.2c-2.9-8.8-3.6-17.7,0.2-26.5
					c2.3-5.3,6.3-8.4,12.3-8.5c1.1,0,2.2-0.2,3.4-0.3c-4.6-3.8-11.6-3.6-16.4,0.4c-1.4,1.1-2.6,2.4-3.5,4c-0.6,1.1-1.1,1.1-2,0.3
					c-3.7-3.1-6-7.2-7.2-11.7c-5.1-19.1-3.9-37.7,5-55.5c1.2-2.5,1.3-2.4,3.9-1.4c3.7,1.5,7.6,2,11.5,2.1c1.3,0,1.8,0.3,2.1,1.6
					c4.6,17.3,21.2,29.4,37.2,31c2.6,0.3,5.2,0.1,7.8-0.3c0.6-0.1,1.1-0.2,1.6,0.4c1.3,1.6,2.7,3.1,4.2,4.8
					c-1.3,0.5-2.5,0.8-3.7,1.4c-3.5,1.8-5.4,4.9-6.4,8.5c-1.6,5.7-1,11.3,0.9,16.8C351.4,687.5,351.6,688.2,352.2,688.7z"/>
				<path id="Paw_Part" class="st8" d="M518.7,695.6c-5.1,0.7-9.9,0.7-14.3-1.8c-5.9-3.4-7.4-9.9-6.1-16.2c0.2-0.8,0.6-0.9,1.3-0.8
					c4.7,0.7,9.3,1.1,14,1.2c1,0,1.2,0.4,1.1,1.3C514.1,685.1,515.3,690.5,518.7,695.6z"/>
				<path id="Paw_Part_00000005254885933849666250000003107378698027715492_" class="st8" d="M734.2,676.5
					c-11.8,8.8-15.1,28.7-7.1,40.7c-3.5,0.4-6.4-0.7-8.9-2.8c-3.6-3-5.7-6.9-7.2-11.3c-1.8-5.3-2.7-10.7-2-16.4
					c0.8-6.3,3.8-9.5,10-10.7C723.9,675.1,728.9,675.5,734.2,676.5z"/>
				<path id="Paw_Part_00000147220389038550254280000011505495240346232962_" class="st8" d="M544.2,683.4c0.1-8,0.1-7.9,7.4-9.5
					c7.7-1.7,15-4.4,22.2-7.6c1.3-0.6,2.1-0.8,2.6,0.9c0.2,0.7,0.5,1.4,1,1.9c1.6,1.7,1.4,3-0.5,4.5c-1.9,1.5-3,3.8-3.7,6.1
					c-0.3,0.9-0.7,1.2-1.6,1.3c-6.7,0.8-11.8,4.2-15.3,10c-0.5,0.8-1,1.1-1.8,1.3c-1.7,0.3-3.4,0.4-5.1,0.2c-2.9-0.4-4.7-2.7-5-6.4
					C544.2,685,544.2,683.9,544.2,683.4z"/>
				<path id="Paw_Part_00000129177242370734486720000006181314005343418518_" class="st8" d="M520.5,682.1c0-4.1,0-4,4-4.3
					c4.3-0.3,8.6-0.7,12.9-1.2c1.5-0.2,1.4,0.3,1.3,1.4c-0.5,3.7-0.6,7.4,0.3,11.1c0.1,0.3,0.2,0.6,0.3,0.9c1.1,3.2,1.1,3.2-1.9,4.7
					c-7.9,3.9-15.7-0.7-16.7-10C520.6,683.8,520.6,682.9,520.5,682.1z"/>
			</g>
			<g id="Chest">
				<path id="Chest_Part" class="st8" d="M441.7,679.2c-10.8,0.2-21.1-1.9-31.4-4.7c-11.6-3.1-22.5-8.1-33.9-11.7
					c-5.4-1.8-9.7-4.9-13.7-8.7c-1.3-1.3-0.9-1.8,0.5-2.4c5.2-2.1,10.7-2.9,16.2-3.6c1.1-0.2,2.2-0.1,3.3-0.4
					c6-1.6,11.3,0.9,16.8,2.5c8.6,2.4,17.2,4.3,26,5.8c1,0.2,1.4,0.5,1.8,1.4c1.8,4.9,4,9.7,6.9,14.1
					C436.2,674.4,438.3,677.5,441.7,679.2z"/>
				<path id="Chest_Part_00000064354729281083990970000012564295147744032405_" class="st8" d="M444.3,679.4
					c6.5-4.4,7.3-11.5,9.5-18c8.9,5.1,18.4,8.9,28.7,12C469.7,676.9,457.3,678.9,444.3,679.4z"/>
			</g>
			<path id="Tail" class="st8" d="M711.9,531.7c-3.7-0.2-7.4-0.5-11.1,0.3c-2.8,0.6-5.2,1.8-7,3.9c-0.6,0.7-1.1,0.8-1.9,0.4
				c-7.8-3.7-15.6-7.4-23.4-11c-1.2-0.6-1.3-1.1-0.8-2.2c3.2-7.2,8.9-11.4,16.6-12.6c13.7-2.2,25.4,2.1,35.2,11.7
				c1.2,1.2,2.2,2.6,3,4.1c1.4,2.7,0.1,5-2.9,5.4c-1.3,0.1-2.6,0.2-3.9,0.2C714.4,531.9,713.2,531.7,711.9,531.7z"/>
			<path id="Body" class="st8" d="M815.1,689.7c-2.3-2.5-2.8-5.8-2.9-9.2c-0.1-7-2.2-13.4-5.4-19.5c-2.2-4.2-5.1-7.6-8.9-10.5
				c-5.6-4.2-8.2-10.5-10.3-17c-1.3-4-2.3-8.1-4.4-11.7c-5.9-10.1-14.2-17.8-24.2-23.6c-7.4-4.4-15.2-7.8-23-11.5
				c-3.7-1.8-6.8-4.2-8.5-8.1c-6.8-15.2-18.2-26.2-32.7-34c-13-7-26.6-12.8-40-19.1c-22.4-10.5-44.8-20.9-66.9-32
				c-1.5-0.8-3.1-1.6-4.6-2.4c-0.3,0.6,0,0.8,0.2,1.1c8,13,13.6,26.9,16.4,41.9c0.5,2.5,1,5.1,0.4,7.7c-1-0.5-1.1-1.3-1.4-2
				c-1.2-3.2-2.4-6.3-3.6-9.5c-10.5-28.8-26.7-53.6-50.9-73c-16.4-13.1-34.5-22.6-55.4-26.1c-13.9-2.3-27.6-1.9-41.2,1.8
				c-5.3,1.4-10.4,3.4-15.2,6.2c-0.4,0.2-2,0.5-0.5,1.5c3.4,2.3,6.8,4.6,10.3,6.9c3.2,2.1,6.7,3,10.6,2.6c3.5-0.4,7.1-0.4,10.6,0.2
				c5.6,0.9,8.5,5.1,7.5,10.6c-0.4,2.1-1.2,4-2.2,5.8c-0.3,0.5-1.2,1-0.6,1.7c0.7,0.8,1.3,0,1.9-0.3c4.3-2.1,8.4-4.5,13.1-5.7
				c4.2-1,6,0.7,5.2,4.9c-0.8,4.1-2.5,7.8-4.3,11.6c-0.6,1.1-0.5,1.8,0.5,2.7c11.1,10.3,20.5,22,28.4,34.9c0.5,0.9,1.1,1.1,2.1,1
				c2.8-0.2,5.6-0.5,8.4-0.5c3.5,0,7-0.2,10.3,1c2.1,0.7,2.7,2.5,1.5,4.4c-0.8,1.2-1.8,2.3-2.8,3.3c-2.6,2.4-5.3,4.7-8.2,6.6
				c-1.5,1-1.7,1.7-0.9,3.4c6.8,14.5,12,29.5,14.9,45.3c0.2,1.1,0.6,1.8,1.7,2.3c3.9,2.1,7.7,4.2,10.9,7.3c2.8,2.7,2.4,4.9-1.2,6.4
				c-3,1.2-6.1,1.9-9.3,2.3c-1,0.2-1.4,0.5-1.5,1.6c-2,14.7-9,26.7-20.1,36.4c-1.1,1-1.1,1.7-0.8,3c1.3,4.5,2.4,9,2.1,13.7
				c-0.2,3.7-2,5-5.6,4c-0.8-0.2-1.6-0.5-2.4-0.8c-4.3-1.8-8.3-4.1-12.2-6.7c-1-0.6-1.7-0.8-2.9-0.3c-6,2.5-12.3,4.3-18.7,5.7
				c-5.6,1.2-11.3,1.8-17.6,2.3c0.9,0.5,1.3,0.8,1.7,1c13.7,6.9,28.1,11,43.3,12.3c11.1,1,22.1,0.6,33.1-1.1
				c16.2-2.5,31.5-7.6,45.4-16.4c5.1-3.2,9.7-6.9,13.1-12c0.5-0.7,1-1.3,0.8-2.3c-0.7-3.7-1.7-7.4-3.1-10.9c-3.6-8.9-16.6-13-24-3.4
				c-0.6,0.7-1.2,1.4-1.7,2.1c-4,5.8-9.7,7.5-16.3,6.4c-4.7-0.7-8-3.4-10.5-7.3c-0.4-0.5-0.8-1.2-0.2-1.8c0.5-0.5,1.1,0,1.6,0.3
				c1.8,1,3.5,2,5.3,3.1c5.4,3.4,13,1.1,16-3.7c0.8-1.3,1.9-2.5,2.9-3.7c7-8.1,15.7-8.9,24.9-3.4c5.6,3.3,8,9,9.7,14.9
				c2.4,8.6,2.7,17.6,3.2,26.4c0.3,5.6,0.9,11.1,3,16.3c2.9,7.3,7.5,13.4,12.8,19.1c0.7,0.7,1.4,1.4,2,2.7c-0.7-0.3-1-0.4-1.2-0.5
				c-7.8-4.3-13.7-10.4-17.8-18.3c-0.4-0.7-0.7-1.4-1.5-1.7c-4.3-2.2-8.9-3.6-13.8-2.9c-4.1,0.6-7.6,2.3-9.9,6
				c-0.5,0.9-0.5,1.2,0.6,1.6c3.8,1.1,7,3.2,10,5.7c0.8,0.7,1.8,1.4,1.9,2.6c-0.7,0.4-1.3,0.1-1.9-0.1c-1.5-0.5-3.1-1.1-4.6-1.5
				c-5-1.5-10.2-2.2-15.3-0.7c-5.4,1.5-8.9,5.2-10.2,10.7c-1.3,5.9,0.1,11.2,4.4,15.5c1.7,1.7,3.7,2.6,6.1,3
				c1.1,0.2,1.8,0.1,1.7-1.4c-0.1-1.5,0.1-3,0.2-4.5c1-11.3,11.3-15.3,20.3-11.7c1.1,0.4,2.1,0.9,3.1,2.1c-1.5-0.1-2.7-0.3-3.8-0.3
				c-5.1-0.1-10,0.3-12.5,5.7c-2.9,6-1.8,11.7,1.8,17.1c1.4,2,3.6,3,6,3.4c3.5,0.7,7,0.5,10.6,0.2c11.7-1,23.3-2.1,35.1-2.4
				c8.9-0.2,17.8-0.1,26.5,2.4c4.8,1.4,9.8,1.8,14.8,1.1c6.3-0.9,10.5-4.3,11.8-9.9c1.8-7.7-0.5-13.9-6.7-18.7
				c-1.1-0.8-1.5-0.9-2.3,0.4c-2.6,4.2-5.9,7.6-9.9,10.5c-0.7,0.5-1.5,1.3-2.3,0.7c-0.8-0.7,0-1.6,0.4-2.3c0.8-1.4,1.6-2.7,2.5-4
				c4.9-7.6,7.8-16,9-24.9c1.9-14,0.4-27.8-3-41.4c-5.2-20.7-14.2-39.6-26.4-57c-0.6-0.9-1.4-1.8-1.5-3.2c1.1,0.2,1.7,0.7,2.4,1.3
				c3.1,2.5,5.6,5.6,8.1,8.8c9.4,12.4,16,26.2,20.9,40.9c0.3,1,0.7,1.9,1.6,2.6c6.2,4.4,12.4,8.8,18.9,12.6c5,2.9,10,5.8,15.7,7
				c6.3,1.4,12.6,1.1,19,0.6c5.4-0.4,10.8-1.1,16.1-2.2c1.5-0.3,2.4,0.1,3.2,1.7c3.4,6.8,7,13.5,10.5,20.2c1.4,2.7,1.4,2.8-1.7,2.8
				c-6,0.1-11.8,1.3-17.3,3.9c-11.4,5.5-15.1,15.9-14,27.1c0.5,5.4,2.7,10,7.9,12.3c7.9,3.5,15.5,1.9,22.7-2.2
				c0.9-0.5,0.7-1.1,0.3-1.8c-1.1-2.2-1.8-4.6-2.2-7.1c-2.2-11.5,2.6-20,13.3-23.7c2.3-0.8,4.6-1.4,7.1-1.3c0.5,0,1,0.1,1.1,0.6
				c0.1,0.6-0.4,0.7-0.8,0.9c-1.2,0.5-2.4,1-3.6,1.5c-6.6,3.3-10.9,8.1-11.5,15.8c-0.7,9.7,4.8,17.9,13.6,19.9
				c3.6,0.8,7.2,1,10.9,0.5c10-1.4,18.8-5.2,26.1-12.4C818.7,703.3,819.8,694.9,815.1,689.7z"/>
			<g id="Head">
				<path id="Chin" class="st8" d="M365.9,602.1c-11.1,1.5-22.4,1.3-32.7,6.9c-5.4,2.9-11,5.6-17,7c-5.1,1.2-10.2,1.4-15.4,0.3
					c-10.4-2.2-15.2-12.8-12-22.2c3.8-11.5,15.9-17.1,27.8-12.8c3.6,1.3,3.6,1.3,0.9,4c-5.6,5.4-8,10.8-8.9,19.7
					c1.1-1.4,1.7-2.9,2.4-4.3c1.9-3.7,3.8-7.3,6.4-10.6c3.6-4.7,8.4-7.1,14.4-7.3c7.1-0.3,13.7,1.5,20.2,4.1
					c9.1,3.7,18.2,7.6,27.6,10.6c10,3.1,20.4,4.1,30.8,1.4c2.4-0.6,4.6-1.8,7-2.9c0.3,5.5,0.8,10.7,2,15.9
					c1.8,7.6,4.6,14.7,9.2,21.1c1.2,1.6,0.7,2-0.9,2.6c-5.1,2-10.5,2.7-15.9,3.3c-10.8,1.2-21.6,2-32.4,3.2
					c-7.1,0.8-14.2,2.1-20.8,5.3c-6.6,3.2-13.4,2.4-20-0.2c-11.1-4.3-19-11.8-22.9-23.2c-0.5-1.6-0.3-2.1,1.4-2.4
					c2.8-0.5,5.5-1.3,8-2.5c1.3-0.6,2.1-0.4,3.1,0.5c5.9,4.7,12.4,7.7,20.7,7.2c-3-1.7-5.7-3-8.2-4.6c-2.6-1.7-5.1-3.6-7.5-5.7
					c-1.1-1-1.3-1.4,0.2-2.4c6.7-4.6,14.1-7.1,22.1-8.1c2.7-0.3,5.4-0.8,7.9-2C364.2,603.5,365.2,603,365.9,602.1
					C365.9,602.1,365.9,602.1,365.9,602.1z"/>
				<path id="Cheek" class="st8" d="M450.6,553.4c-1.8-5-5.2-8.6-8.1-12.6c1.3-0.3,2,0.5,2.8,0.9c12.9,7.7,25.2,16.2,34.8,28.1
					c5.7,7.1,9.8,14.9,10.9,24.2c1.6,14-3.7,24.2-16.2,30.7c-11.8,6.2-24.5,8.3-37.7,8.4c-1.2,0-1.7-0.8-2.3-1.5
					c-5.7-7.4-9-15.7-10.5-24.8c-1.3-7.6-1.1-15.2-0.3-22.9c1.2-11.1,0.8-22.1-3-32.7c-2.4-6.6-6.3-11.9-12.9-14.8
					c-6.9-3.1-14.1-1.5-19.1,4c-0.5,0.6-1.1,1.1-1.5,1.8c-3.3,6.7-9,8.3-15.9,7.9c-3.3-0.2-6.5-0.1-9.8,0c-5.3,0.3-9.3,2.6-12.3,7
					c-1.1,1.6-2.4,3.1-3.4,4.8c-4.6,7.5-13.8,6.1-18.4,0c-4.5-6-4.1-14.6,0.9-21c3.5-4.4,8-7.3,13.7-8.1c3.3-0.5,6.4,0.4,9.5,1.2
					c2.8,0.8,5.7,1.7,8.6,2c4.4,0.5,8.4-0.3,11.6-3.9c2.9-3.3,6-6.4,8.8-9.8c7.6-9.2,19.2-12.7,31.4-4.4
					c8.5,5.8,15.8,12.9,22.9,20.2c4.5,4.7,9,9.3,13.6,13.9C448.8,552.5,449.3,553.1,450.6,553.4z"/>
				<path id="Upper_Lip" class="st8" d="M306.4,560.9c-1.3,0-3.4-0.4-5.4-1.2c-4.1-1.5-6.2-4.3-6.1-8.7c0.1-5.1,2.3-9,6.6-11.7
					c0.6-0.4,1-0.6,1.5,0.3c3.4,7.3,9.5,11.2,16.9,13.4c0.9,0.3,1.2,2.3,0.3,3.3c-0.7,0.7-1.5,1.3-2.3,1.8
					C314.6,560,311.1,560.9,306.4,560.9z"/>
				<path id="Eye_Lid" class="st8" d="M379.5,499.9c3.3-3.6,6.4-6.9,10.6-8.7c3.2-1.4,6.4-1.3,9.5-0.2c1.9,0.6,3,2.3,3.7,4.1
					c1.8,4.5,1.3,8.9-0.9,13.2c-0.4,0.8-1,1-1.9,1c-2.3,0.1-3.8-0.4-5-2.7c-1.8-3.7-5.2-5.8-9.3-6.6
					C384.2,499.6,382,499.9,379.5,499.9z"/>
				<path id="Forehead" class="st8" d="M370.3,464.8c-3.8,3.2-6.6,6.5-8.7,10.4c-0.4,0.7-0.7,1.5-1.2,2.6c1.3-0.5,1.8-1.4,2.4-2.1
					c6.4-7.2,14.4-11,24-11.8c1.4-0.1,1.9,0.3,1.7,1.7c-0.1,0.6,0,1.3,0.1,1.9c0.3,1.4,0.8,2.8,1.2,4.3c0.9-1.2,1-2.6,1.4-3.9
					c3.3-10.7,10.2-18.3,20.4-22.8c7-3.1,13.7-2,19.9,2.2c2.8,1.9,5.5,3.8,8.3,5.6c4,2.5,8.4,3.4,13.1,3c3.1-0.3,6.1-0.4,9.2,0.1
					c2.8,0.5,3.5,1.7,2.7,4.5c-1.3,4.6-4.5,7.7-8.6,9.7c-6.6,3.3-13.4,3.8-20.5,1.3c-4.7-1.7-9.6-1.9-14.5-0.5
					c-0.8,0.2-1.7,0.4-2.2,1.4c1.2,0.6,2.6,0.5,3.8,0.5c4.2,0.1,7.6,2,11.2,3.8c0.6,0.3,0.7,0.7,0.6,1.3c-0.3,9.7,5,16.6,11.3,23.1
					c4.6,4.7,10.2,8.4,15.3,12.6c8.5,7.1,13.6,16.1,15.4,27c0.2,1.2,0.7,2.2,1.4,3.2c5.7,7.5,8.5,16.1,9.7,25.3c0,0.3,0,0.6-0.1,1.3
					c-4.3-6-9-11.1-14.3-15.7c-9.4-8.3-19.9-15.1-30.8-21.2c-3.6-2-7.1-4.2-11-5.7c-3.2-1.3-5.5-3.5-7.9-5.6
					c-2.8-2.4-5.7-4.8-8.8-6.8c-3.1-2.1-6.4-3.8-9.9-5.2c3.1-4.4,3.7-9.2,2.4-14.3c-1.8-7.4-6.7-10.3-14.5-9.7
					c-6.4,0.5-10.9,4.7-15.1,9.2c-5.4,5.8-9.6,12.6-14.9,18.5c-4.7,5.4-9.9,10.3-16.1,13.9c-2.1,1.2-4.3,0.5-6.5,1
					c-0.7,0.2-1-0.8-1.3-1.3c-4.3-6.7-4.7-15.3,2.4-22.6c3.1-3.2,6.8-6,9.5-9.6c1.9-2.4,3.6-4.9,4.3-8c-3.8,6.4-10,10.5-15.4,15.3
					c-2.3,2.1-4.4,4.3-6,7c-3,5-2.8,10.2-0.7,15.8c-8.8-2.8-17.4-3.3-26.1,0.7c-0.3-5.9,1.5-10.6,6.1-14.2c0.9-0.7,1.8-1.3,2.8-1.8
					c2.8-1.6,4.9-1.3,7.2,1.1c0.7,0.7,1.4,1.6,2.2,2.6c0.4-1.5,0.2-2.9,0.1-4.2c-1.1-10.8,2.7-19.8,9.8-27.6
					c7.5-8.3,17.4-12.8,28-15.8C365.5,465.6,367.6,464.8,370.3,464.8z"/>
				<path id="Ear" class="st8" d="M368.9,458.6c-4.4,1.1-8.3,2-12.2,3.4c-8.9,3.3-17.2,7.7-24,14.4c-0.4,0.4-0.8,0.9-1.5,0.9
					c-4.1,0.6-8.2,1-12.3,0.1c-3.5-0.8-4.3-2.8-2.3-5.9c1.9-2.9,4.4-5.2,7.3-7c7.7-5.1,16-8.9,25.2-10.3
					C356,453.1,362.6,454.2,368.9,458.6z"/>
			</g>
		</g>
		<g id="White_Parts">
			<g id="Spikes">
				<path id="Spike_00000041292950597516356200000002455401688892479400_" class="st9" d="M451,651.1c-0.3,6.9-1.8,13.5-4.5,19.8
					c-0.3,0.6-0.6,1.2-0.9,1.7c-2,3.3-3,3.4-5.4,0.3c-4.7-6-8-12.9-10.1-20.2c-1-3.5,0.1-6.1,3.2-8c4.4-2.6,9.1-3.2,14-1.7
					c2.4,0.7,3.5,2.3,3.5,4.8C450.8,648.8,450.9,650,451,651.1z"/>
				<path id="Spike_00000064318660959273555340000011029414718169988529_" class="st9" d="M516.2,652.7c0.1,2.3-0.2,2.5-2.2,1.5
					c-7.4-3.6-14.4-7.9-20.6-13.4c-2.6-2.4-2.8-4.3-1-7.3c2.1-3.4,5-6,8.7-7.6c3.5-1.5,4.7-1.2,7,1.9c2.4,3.3,3.9,6.9,5.1,10.7
					C514.6,643.1,515.9,647.8,516.2,652.7z"/>
				<path id="Spike_00000111175258037863882070000006061723647397937026_" class="st9" d="M547.8,593.3c-2.9,1.3-5.9,1.7-8.9,2.2
					c-7.6,1.2-15.1,2.1-22.8,1.8c-3-0.1-4.6-1.2-5.5-4.1c-1.2-3.9-1.1-7.7,0.4-11.5c1.2-3,2.4-3.7,5.6-3.2c4.5,0.7,8.8,2.3,13,4.1
					c5.8,2.5,11.5,5.3,16.7,9.1C546.7,592.2,547.4,592.5,547.8,593.3z"/>
				<path id="Spike" class="st9" d="M531.1,521.2c-1.8,2-3.6,3.5-5.4,4.8c-6.1,4.7-12.4,9.2-19.2,12.8c-3.6,1.9-5.6,1.5-8.3-1.5
					c-2-2.2-3.2-4.9-3.6-7.9c-0.2-1.9,0.3-3.2,2.2-4.1c4.9-2.2,10.1-3,15.4-3.7C518.3,520.9,524.4,520.7,531.1,521.2z"/>
				<path id="Spike_00000098943791795790263770000007251386862308892862_" class="st9" d="M484.6,466.1c-1.5,6.5-4.3,12-7.4,17.4
					c-2,3.4-4.2,6.7-7.2,9.5c-2.2,2.1-4.5,2.4-7.2,1.1c-3.4-1.6-5.9-4.1-7.4-7.5c-0.9-2-0.6-3.8,1-5.3c2.7-2.5,5.9-4.3,9.1-6.1
					c5.5-3.1,11-6.3,17-8.5C483.1,466.5,483.7,466.3,484.6,466.1z"/>
			</g>
			<g id="Teeth">
				<path id="Lower_Big_Teeth" class="st9" d="M418.4,556.6c2.2,9,2.3,17.7,1.6,26.5c-0.6,7.4-4.1,10.3-11.4,12.2
					c-8,2.1-16.1,1.4-24.1-0.5c-10.1-2.5-19.4-6.9-29-10.6c-4.7-1.8-9.4-3.6-14.4-4.5c-0.6-0.1-3.9-0.3-3.9-0.3
					c2-0.4,3.9-4.6,5.2-6.7c1.6-2.9,2.6-2.3,3.8-0.9c1.9,2.1,2.8,3.7,4.5,5.7c2.8,3.4,4.9,4,8.5-1.6c1.7-2.6,3.3-5.5,4.9-7.9
					c1-1.4,2.3-0.8,3.6,0.6c2.2,2.2,4.1,4.8,6.7,6.6c3.2,2.3,5.1,2,7.3-1.4c2-3.1,4.4-6.7,6.2-10c0.1-0.2,0.2-0.4,0.3-0.5
					c1.7-2.5,2.3-2,3.6-0.5c3.3,3.3,4.2,4.7,6.6,7.2c6.2,6.6,6.2,5.5,11-1.3c3.3-4.9,4.6-6.7,8.1-10.8
					C417.7,557.5,417.9,557.2,418.4,556.6z"/>
				<path id="Upper_Big_Teeth" class="st9" d="M370.1,553.7c2.4,0,4.7,0.1,7.1,0c5.2-0.4,9.1-2.9,11.9-7.3c1.3-2,2.7-3.9,4.6-5.3
					c6.4-4.8,14-2,18.6,3.1c2.1,2.3,3.3,5.1,4.6,7.9c0.3,0.8,0.2,1.3-0.3,1.9c-3.7,4.3-6.5,8.3-10.5,13.5c-1.3,1.9-1.8,3.4-3.4,2.3
					c-3.2-2.8-6.1-6.1-8.9-9.6c-3.2-3.7-5.2-3.1-7.2-0.4c-1.9,3.5-4.4,7-6.5,10.7c-1.8,3.6-1.9,3.5-5,1.1c-2.1-1.6-4.1-4.2-6-6
					c-3.9-3.7-4.6-3.1-7,0.1c-1.9,2.8-3.9,6.4-5.9,9.3c-0.9,1.2-1.8,1.9-2.7,1.2c-2.3-2.6-2.9-3.5-5.2-6.2c-0.8-0.9-1.2-1.5-2.7-2.4
					c0.6-0.3,3.5-2.4,6.2-7.1c2.9-4.8,7-6.8,12.4-6.7c2,0.1,4.1,0,6.1,0C370.1,553.8,370.1,553.8,370.1,553.7z"/>
				<path id="Small_Tooth" class="st9" d="M294.9,560.6c3.4,2.6,7.2,4.1,11.8,4.2c-2.1,0.5-4.4,5.9-5.9,8.7
					c-1.5,2.6-2.1,1.9-3.6,0.5C293.7,570.4,292.9,565.2,294.9,560.6z"/>
				<path id="Small_Tooth_00000176745456225691667590000008746361511290254734_" class="st9" d="M317.5,577.2c2.5-0.6,3.5-4.1,5.9-7
					c1.9-2.4,3.1-1.5,4.3,0.7c1.4,2.6,3.4,7.3,5.3,8.1c-0.9-0.1-0.6-0.1-2.8,0c-1.8,0.1-3.6,0.6-5.3,1.3c-0.6,0.3-1,0.1-1.4-0.2
					C321.7,579,319.5,578,317.5,577.2z"/>
				<path id="Small_Tooth_00000010275980468834045570000004816705062781485477_" class="st9" d="M308.9,564.8c5-0.5,9.3-2,13-4.8
					c0.1,0.1,0.2,0.1,0.2,0.1c0.9,1.6,2.3,4.1,3.6,5.5c-1.1,0.1-2.5,1.3-3.7,2.6c-1.1,1.3-2.4,3.6-3.5,5.2c-1,1.8-2.2,2.3-3.8-0.8
					C312,568.2,310.4,565.3,308.9,564.8z"/>
				<path id="Small_Tooth_00000161626082163409758430000011821844150332903344_" class="st9" d="M328.8,567.8
					c4.9,3.3,10.3,2.4,12.8,1.6c-0.8,0.5-2.6,4-3.8,5.9c-0.5,0.9-1.8,1.9-2.6,1.9c-0.9,0-1.7-1.3-2.3-2.4
					C331.4,572.6,329.8,568.8,328.8,567.8z"/>
				<path id="Small_Tooth_00000131366063733043193380000002377201516829066120_" class="st9" d="M314.2,576.2
					c-3.6-0.8-8.2-1.7-12.1-0.6c0.9-0.4,3.6-8.2,5.1-8.5C309.3,566.1,313.3,575.7,314.2,576.2z"/>
			</g>
			<g id="Eye">
				<path id="Eye_White" class="st9" d="M382.4,503.6c4.4,0,7.6,1.6,9.8,5c0.4,0.6,0.8,1.2-0.3,1.4c-7.3,1.8-12.4,6.7-16.9,12.4
					c-1.8,2.2-2.8,3.4-4.6,5.2c1.6-4.7-5-7.8-7.5-7.5c1.1-1.1,2.4-2.5,4.6-5.2c1.8-2.2,3.7-4.5,5.3-6.8c1.7-2.8,4.2-3.7,7.1-4.3
					C380.9,503.7,381.9,503.6,382.4,503.6z"/>
				<path id="Eye_White_Small" class="st9" d="M358.2,527.6c1.4,0,2.4,0.6,2.7,2.1c0.3,1.4-0.5,2.1-1.8,1.9c-0.5-0.1-1-0.2-1.5-0.3
					c-0.9-0.3-2.1-0.3-1.9-1.7C355.8,528.3,356.7,527.6,358.2,527.6z"/>
			</g>
		</g>
		<path id="Collar" class="st10" d="M454.1,477.9c-3.7,3.5-3.8,7.3-1.7,11.4c2.1,4,5.3,7,9.5,8.7c4,1.6,7.7,1,10.9-2.1
			c1.3-1.3,2.5-2.7,3.6-4.1c1.1-1.5,2.2-2.9,3.1-4.5c0.7-1.2,1.2-1.3,2.3-0.3c8.9,8.7,16.9,18.1,23.6,28.6c0.6,0.9,1.9,1.8,1.5,2.8
			c-0.3,0.9-1.8,0.6-2.8,0.9c-3,0.8-5.9,1.5-8.8,2.7c-3.3,1.4-5.1,4.4-4.6,8c0.5,3.3,1.6,6.3,3.7,9c3.4,4.4,8,7.3,14.8,3.1
			c2.2-1.4,4.5-2.6,6.7-4c1.1-0.7,1.7-0.8,2.3,0.7c5.2,11.5,9.6,23.3,12.4,35.6c0.3,1.3,0.7,2.5,1,3.8c0.2,1,0,1.5-1.2,1
			c-3.8-1.5-7.6-2.7-11.6-3.8c-6.9-1.8-10.6,0.8-12.2,7.5c-1.1,4.5-1.1,9.1,1,13.4c1.6,3.4,4.3,5.2,8.1,5.2
			c4.8,0.1,9.6,0.1,14.3-0.7c0.6-0.1,1.2-0.1,1.8-0.1c1.1-0.1,1.3,0.4,1.1,1.4c-1.7,8.8-5.2,16.6-10.9,23.5c-1.7,2-3.5,3.9-5.4,5.6
			c-1.2,1.1-1.8,0.8-2.3-0.5c-1-2.2-2.2-4.3-3.8-6.1c-3-3.5-5.3-4.2-9.5-2.6c-5.1,1.9-9.1,5.1-11.8,9.8c-2.8,5-2.4,8.3,2.3,12.5
			c1.3,1.2,1.3,1.5-0.4,2.2c-8.3,3-16.7,4.9-25.5,5.7c-2.9,0.3-5.7,0.3-8.6,0.4c-1.2,0-1.8-0.1-1.7-1.6c0.1-1.4,0-2.8-0.3-4.1
			c-0.8-4.6-1.7-5.6-7.3-8c2.4-0.4,4.5-0.8,6.6-1.2c11.2-1.9,21.8-5.3,30.8-12.5c7.2-5.6,11.2-13,11.9-22.1
			c0.6-6.6,0.3-13.2-2.2-19.5c-0.4-0.9-0.3-1.9-0.3-2.9c0.7-13.6-2-26.3-9.7-37.8c-1.2-1.8-1.8-3.6-2.3-5.7
			c-2.7-13.1-10.1-23.1-20.9-30.8c-6.7-4.9-13.1-10.1-17.6-17.3c-1.6-2.6-2.8-5.4-2.9-8.6c0-0.6-0.1-1.3,0.8-1.2
			C445.8,479.3,449.9,479,454.1,477.9z M424.7,649.8c0.9,0.2,1.1-0.3,1.2-1c0.6-3.2,2.5-5.6,5.2-7.4c1.6-1.1,3.6-1.5,5.3-2.5
			c-1.8-0.6-3.3,0-4.7,0.9c-2,1.3-4.2,2.2-6.4,2.7c-6.1,1.5-12.4,2.3-18.7,3.1C412.5,647.5,418.7,648.5,424.7,649.8z"/>
		<path id="Nose_Tip" class="st11" d="M321.5,547.2c0,0-13.2-1-14.1-15.2c-0.1-1.4,13.5-9.1,27.3-0.6
			C322.7,537.6,321.5,547.2,321.5,547.2z"/>
	</g>
</g>
</svg>
