<?xml version="1.0" encoding="utf-8"?>
<!-- Generator: Adobe Illustrator 26.0.1, SVG Export Plug-In . SVG Version: 6.00 Build 0)  -->
<svg version="1.1" id="Layer_1" xmlns="http://www.w3.org/2000/svg" xmlns:xlink="http://www.w3.org/1999/xlink" x="0px" y="0px"
	 viewBox="0 0 480 480" style="enable-background:new 0 0 480 480;" xml:space="preserve">
<style type="text/css">
	.st0{display:none;fill:#FF6699;}
	.st1{fill:#FFFFFF;}
</style>
<path class="st0" d="M0,0v479.3h479.3V0H0z"/>
<path d="M469.3,0H117.2c-5.5,0-10,4.5-10,10v38.4L8.7,68.1c-5.4,1.1-8.9,6.3-7.9,11.7l74.4,392.1c0.5,2.7,2.1,5,4.3,6.5
	c1.6,1.1,3.6,1.7,5.5,1.7c0.7,0,1.4-0.1,2.1-0.2l275.6-60.6h106.5c5.5,0,10-4.5,10-10V10C479.3,4.5,474.9,0,469.3,0z M459.3,218.6
	l-34.7-35.4c-1.9-1.9-4.4-3-7.1-3c-2.6,0-5.2,1-7.1,2.9l-96.2,96.2L244,200.2c-1.8-2.1-4.4-3.3-7.2-3.4c-2.8-0.1-5.4,1-7.4,2.9
	L127.2,302.1V20h332.2V218.6z"/>
<path id="Sky" class="st1" d="M127.2,302.1l102.3-102.3c1.9-1.9,4.6-3,7.4-2.9c2.8,0.1,5.4,1.3,7.2,3.4l70.2,79.1l96.2-96.2
	c1.9-1.9,4.5-3,7.1-2.9c2.7,0,5.2,1.1,7.1,3l34.7,35.4V20H127.2V302.1z"/>
<path id="Page_2" class="st1" d="M107.2,409.1V68.8l-84.9,17L93,458l176.8-38.9H117.2C111.7,419.1,107.2,414.6,107.2,409.1z"/>
<path id="Mountains" class="st1" d="M417.4,204.4L320.9,301c-1.9,1.9-4.6,3-7.4,2.9c-2.8-0.1-5.4-1.3-7.2-3.4l-70.2-79.1
	L127.2,330.3v68.8h234.4c0,0,0.1,0,0.1,0v0h97.7h0V247.2L417.4,204.4z"/>
<g id="Sun_00000075144489817258163240000005073331404152989829_">
	<circle id="Sun_Sillowette" cx="316.2" cy="132.5" r="71.6"/>
	<circle id="Sun" class="st1" cx="316.2" cy="132.5" r="51.6"/>
</g>
</svg>
