<?xml version="1.0" encoding="utf-8"?>
<!-- Generator: Adobe Illustrator 26.0.1, SVG Export Plug-In . SVG Version: 6.00 Build 0)  -->
<svg version="1.1" id="Videos_Layer" xmlns="http://www.w3.org/2000/svg" xmlns:xlink="http://www.w3.org/1999/xlink" x="0px"
	 y="0px" viewBox="0 0 480 480" style="enable-background:new 0 0 480 480;" xml:space="preserve">
<style type="text/css">
	.st0{display:none;fill:#FF6699;stroke:#000000;stroke-miterlimit:10;}
	.st1{fill:#FFFFFF;}
	.st2{fill:#222220;}
</style>
<rect id="Background" x="0.6" class="st0" width="479.4" height="479.4"/>
<g id="Videos">
	<path id="Sillowette" d="M469.3,0H117.2c-5.5,0-10,4.5-10,10v38.4L8.7,68.1c-5.4,1.1-8.9,6.3-7.9,11.7l74.4,392.1
		c0.5,2.7,2.1,5,4.3,6.5c1.6,1.1,3.6,1.7,5.5,1.7c0.7,0,1.4-0.1,2.1-0.2l275.6-60.6h106.5c5.5,0,10-4.5,10-10V10
		C479.3,4.5,474.9,0,469.3,0z"/>
	<path id="Page_2" class="st1" d="M107.2,409.2V68.8l-84.9,17L93,458l176.8-38.8H117.2C111.7,419.2,107.2,414.7,107.2,409.2z"/>
	<g id="Film_00000025405690382120828250000010675251576070601872_">
		<rect id="Film" x="196" y="15" class="st1" width="190" height="386"/>
		<g id="Perforations">
			<g id="Left_Perforations">
				<rect id="Left_Track" x="128" y="15" class="st1" width="47.5" height="386"/>
				<path class="st2" d="M151.6,60.1c2.9,0,5.7-1.3,7.8-3.6c2-2.3,3.2-5.5,3.2-8.8s-1.2-6.5-3.2-8.8s-4.9-3.6-7.8-3.6
					c-2.9,0-5.7,1.3-7.8,3.6c-2,2.3-3.2,5.5-3.2,8.8s1.2,6.5,3.2,8.8C145.9,58.8,148.7,60.1,151.6,60.1z"/>
				<path class="st2" d="M151.6,106.1c2.9,0,5.7-1.3,7.8-3.6c2-2.3,3.2-5.5,3.2-8.8s-1.2-6.5-3.2-8.8c-2.1-2.2-4.9-3.6-7.8-3.6
					c-2.9,0-5.7,1.3-7.8,3.6c-2,2.3-3.2,5.5-3.2,8.8s1.2,6.5,3.2,8.8S148.7,106.1,151.6,106.1z"/>
				<path class="st2" d="M151.6,152.2c2.9,0,5.7-1.3,7.8-3.6c2-2.3,3.2-5.5,3.2-8.8s-1.2-6.5-3.2-8.8c-2.1-2.3-4.9-3.6-7.8-3.6
					c-2.9,0-5.7,1.3-7.8,3.6c-2,2.3-3.2,5.5-3.2,8.8s1.2,6.5,3.2,8.8C145.8,150.9,148.7,152.2,151.6,152.2z"/>
				<path class="st2" d="M151.6,198.3c2.9,0,5.7-1.3,7.8-3.6c2-2.3,3.2-5.5,3.2-8.8c0-3.3-1.2-6.5-3.2-8.8c-2.1-2.3-4.9-3.6-7.8-3.6
					c-2.9,0-5.7,1.3-7.8,3.6c-2,2.3-3.2,5.5-3.2,8.8c0,3.3,1.2,6.5,3.2,8.8S148.7,198.3,151.6,198.3z"/>
				<path class="st2" d="M151.6,244.4c2.9,0,5.7-1.3,7.8-3.6c2-2.3,3.2-5.5,3.2-8.8s-1.2-6.5-3.2-8.8c-2.1-2.3-4.9-3.6-7.8-3.6
					c-2.9,0-5.7,1.3-7.8,3.6c-2,2.3-3.2,5.5-3.2,8.8s1.2,6.5,3.2,8.8C145.8,243.1,148.7,244.4,151.6,244.4z"/>
				<path class="st2" d="M151.6,290.4c2.9,0,5.7-1.3,7.8-3.6c2-2.3,3.2-5.5,3.2-8.8s-1.2-6.5-3.2-8.8c-2.1-2.3-4.9-3.6-7.8-3.6
					c-2.9,0-5.7,1.3-7.8,3.6c-2,2.3-3.2,5.5-3.2,8.8s1.2,6.5,3.2,8.8S148.7,290.4,151.6,290.4z"/>
				<path class="st2" d="M151.6,336.5c2.9,0,5.7-1.3,7.8-3.6c2-2.3,3.2-5.5,3.2-8.8s-1.2-6.5-3.2-8.8c-2.1-2.3-4.9-3.6-7.8-3.6
					c-2.9,0-5.7,1.3-7.8,3.6c-2,2.3-3.2,5.5-3.2,8.8s1.2,6.5,3.2,8.8S148.7,336.5,151.6,336.5z"/>
				<path class="st2" d="M151.6,382.6c2.9,0,5.7-1.3,7.8-3.6c2-2.3,3.2-5.5,3.2-8.8s-1.2-6.5-3.2-8.8c-2.1-2.3-4.9-3.6-7.8-3.6
					c-2.9,0-5.7,1.3-7.8,3.6c-2,2.3-3.2,5.5-3.2,8.8s1.2,6.5,3.2,8.8S148.7,382.6,151.6,382.6z"/>
			</g>
			<g id="Right_Perforations">
				<rect id="Right_Track" x="405.5" y="15" class="st1" width="54.5" height="386"/>
				<path class="st2" d="M429.6,60.1c2.9,0,5.7-1.3,7.8-3.6c2-2.3,3.2-5.5,3.2-8.8s-1.2-6.5-3.2-8.8s-4.9-3.6-7.8-3.6
					s-5.7,1.3-7.8,3.6c-2,2.3-3.2,5.5-3.2,8.8s1.2,6.5,3.2,8.8C423.9,58.8,426.8,60.1,429.6,60.1z"/>
				<path class="st2" d="M429.6,106.2c2.9,0,5.7-1.3,7.8-3.6c2-2.3,3.2-5.5,3.2-8.8s-1.2-6.5-3.2-8.8s-4.9-3.6-7.8-3.6
					s-5.7,1.3-7.8,3.6c-2,2.3-3.2,5.5-3.2,8.8s1.2,6.5,3.2,8.8C423.9,104.9,426.8,106.2,429.6,106.2z"/>
				<path class="st2" d="M429.6,152.2c2.9,0,5.7-1.3,7.8-3.6c2-2.3,3.2-5.5,3.2-8.8s-1.2-6.5-3.2-8.8s-4.9-3.6-7.8-3.6
					s-5.7,1.3-7.8,3.6c-2,2.3-3.2,5.5-3.2,8.8s1.2,6.5,3.2,8.8C423.9,150.9,426.8,152.2,429.6,152.2z"/>
				<path class="st2" d="M429.6,198.3c2.9,0,5.7-1.3,7.8-3.6c2-2.3,3.2-5.5,3.2-8.8s-1.2-6.5-3.2-8.8s-4.9-3.6-7.8-3.6
					s-5.7,1.3-7.8,3.6c-2,2.3-3.2,5.5-3.2,8.8s1.2,6.5,3.2,8.8C423.9,197,426.8,198.3,429.6,198.3z"/>
				<path class="st2" d="M429.6,244.4c2.9,0,5.7-1.3,7.8-3.6c2-2.3,3.2-5.5,3.2-8.8s-1.2-6.5-3.2-8.8s-4.9-3.6-7.8-3.6
					s-5.7,1.3-7.8,3.6c-2,2.3-3.2,5.5-3.2,8.8s1.2,6.5,3.2,8.8C423.9,243,426.8,244.4,429.6,244.4z"/>
				<path class="st2" d="M429.6,290.4c2.9,0,5.7-1.3,7.8-3.6c2-2.3,3.2-5.5,3.2-8.8s-1.2-6.5-3.2-8.8s-4.9-3.6-7.8-3.6
					s-5.7,1.3-7.8,3.6c-2,2.3-3.2,5.5-3.2,8.8s1.2,6.5,3.2,8.8C423.9,289.1,426.8,290.4,429.6,290.4z"/>
				<path class="st2" d="M429.6,336.5c2.9,0,5.7-1.3,7.8-3.6c2-2.3,3.2-5.5,3.2-8.8s-1.2-6.5-3.2-8.8s-4.9-3.6-7.8-3.6
					s-5.7,1.3-7.8,3.6c-2,2.3-3.2,5.5-3.2,8.8s1.2,6.5,3.2,8.8C423.9,335.2,426.8,336.5,429.6,336.5z"/>
				<path class="st2" d="M429.6,357.8c-2.9,0-5.7,1.3-7.8,3.6c-2,2.3-3.2,5.5-3.2,8.8s1.2,6.5,3.2,8.8s4.9,3.6,7.8,3.6
					s5.7-1.3,7.8-3.6c2-2.3,3.2-5.5,3.2-8.8s-1.2-6.5-3.2-8.8S432.5,357.8,429.6,357.8z"/>
			</g>
		</g>
	</g>
	<g id="Play_Button">
		<path id="Play_Ouline" d="M342.8,197.8L250,136.6c-3.4-2.2-7.6-2.3-11,0c-3.4,2.2-5.5,6.3-5.5,10.8v122.5c0,4.4,2.1,8.5,5.5,10.7
			c1.7,1.1,3.6,1.6,5.5,1.6c1.9,0,3.8-0.6,5.5-1.7l92.8-61.3c3.4-2.2,5.4-6.3,5.4-10.7C348.2,204.1,346.1,200,342.8,197.8z"/>
		<path id="Play" class="st1" d="M255.5,169c0,0,0,79.3,0,79.2l60.1-39.6L255.5,169z"/>
	</g>
</g>
</svg>
