<?xml version="1.0" encoding="utf-8"?>
<!-- Generator: Adobe Illustrator 26.0.1, SVG Export Plug-In . SVG Version: 6.00 Build 0)  -->
<svg version="1.1" id="BD-Logo" xmlns="http://www.w3.org/2000/svg" xmlns:xlink="http://www.w3.org/1999/xlink" x="0px" y="0px"
	 viewBox="0 0 1200.9 1200" style="enable-background:new 0 0 1200.9 1200;" xml:space="preserve">
<style type="text/css">
	.st0{display:none;fill:#ED1C24;}
	.st1{fill-rule:evenodd;clip-rule:evenodd;stroke:#000000;stroke-width:3;stroke-miterlimit:10;}
	.st2{fill-rule:evenodd;clip-rule:evenodd;fill:#999999;}
	.st3{fill-rule:evenodd;clip-rule:evenodd;fill:#FFFFFF;}
	.st4{fill-rule:evenodd;clip-rule:evenodd;fill:#FEFEFE;}
	.st5{fill-rule:evenodd;clip-rule:evenodd;fill:#333333;}
	.st6{stroke:#000000;stroke-width:5;stroke-miterlimit:10;}
	.st7{fill:#8E8E8E;stroke:#221F1F;stroke-width:7;stroke-miterlimit:10;}
	.st8{fill:none;stroke:#000000;stroke-width:7;stroke-miterlimit:10;}
	.st9{stroke:#000000;stroke-miterlimit:10;}
	.st10{fill:#FFFFFF;stroke:#000000;stroke-miterlimit:10;}
	.st11{fill:#3A3A3A;}
	.st12{fill:#AFAFAF;stroke:#231F20;stroke-miterlimit:10;}
</style>
<g id="Bulldogs_Wrestling_Club_Logo">
	<rect id="Background" x="0.9" class="st0" width="1200" height="1200"/>
	<g id="Bulldog">
		<path id="Sillowette_00000051377105102562720930000017066519321996059011_" class="st1" d="M1026.6,1043.7
			c-2-6.6-3.3-10.9-5.4-18.1c-2.7-9.2-8.1-18.8-10.4-23.2c-4.9-8.6-11.4-12.5-18.2-19.4c-4.4-4.6-7.9-12.1-9.5-18.3
			c-7.6-28.7-27-46.9-53.2-59.3c-7.6-3.6-15.1-7.6-23.1-10.2c-15.3-4.9-22.9-16.8-30.1-29.5c-5.1-8.9-12.7-16.4-21-22.7
			c-14.9-12.2-22.2-10.8-21.3-18.7c3.8-10.7,23.7-5.4,31.9-2.6c14.2,4.9,18.4-6.3,14.1-17.1c-2.3-5.8-7.6-10.2-12.8-13.8
			c-15.5-10.7-32.8-15.5-51.7-14.7c-14.2,0.7-25.7,4.9-34.1,17c-2.5,3.5-5.3,9.7-12.3,6.6c-22.4-9.7-45-19.4-67.5-29.3
			c-11.7-5.1-26.5-11.2-47.1-21.2c-12.7-6.1-19.2-15.4-30.5-26.1c-6.6-6.2-18.4-16.2-26.9-22.1c-23.3-16.3-42.6-29-70.1-36.9
			c-18.9-5.4-38.7-5.8-58.5-5.6c-19.3,0-36.9,5.1-54.2,12.7c-6.3,2.8-12,6.9-19.3,7.2c-16.1,0.7-29.1,6.9-39,19.4
			c-2,2.5-2.8,6.1-6.4,7.1c-10.5,2.6-20.9,3.8-30.3-3.1c-7.6-5.6-15.8-8.4-25.4-8.9c-15.6-0.8-29.6,4.1-43.1,10.7
			c-8.2,4.1-16.3,8.7-22.4,15.6c-8.4,9.6-12.7,21.9,5.4,25.9c3.6,0.8,9.1-0.2,10.9,3.8c1.6,3.8-1.6,7.7-2.3,11.7
			c-1.6,8.7-5.8,14.7-15,17c-3.1,0.8-6.3,2.8-8.9,5.3c-8.6,8.1-11,17.8-9.9,28.8c0.3,3.6,0.5,7.6-3.3,9.2
			c-12.5,5.6-16.5,16.5-17.6,28.3c-1,9.1-2.8,18.6,3.8,26.8c5.8,7.1,5.3,8.1-0.7,14.7c-13,14.3-19.4,23.7-6.1,43.3
			c3.3,4.8,3.3,9.6,0.8,14.7c-2.8,5.8-5.6,11.5-7.7,17.5c-5.1,13.8-6.4,28.2-5.4,42.6c1.2,17.3,4.8,33.6,19.1,45.4
			c3,2.5,3.8,5.3,4,9.1c0.3,7.9-3,15.6-0.3,23.7c4.1,12,10.4,20.9,23.4,22c15.6,1.5,32.4,1.6,47.4-3.6c3.6-2.1,7.6-4.3,12.2-1.5
			c5.1,3.3,10.7,5.1,17,5.6c22.6,2.1,44.8,4.5,65.4-7.2c4.3-2.5,8.1-3.9,9.9-9.4c3-9.4-0.2-17.3-4.6-24.9
			c-7.4-12.8-19.3-20.7-31.5-28.5c-9.9-6.3-20.4-10.2-32.3-10.4c-2.8,0-6.8,1.5-8.1-1c-1.6-3.1,0.8-6.3,2.6-9.4
			c2.6-4.4,5.3-8.1,9.7-6.1c1.8,0.8,3.6,1.3,5.6,1.6c30,6.8,59.4,15.3,89.4,21.9c13.3,3,26.2,3.8,39.8,2.1
			c21.2-2.8,34.5-4.3,55.4-8.9c5.5-1.4,12.2,2.5,13.8,8.8c1.5,4.9,5.2,9.7,8.5,12.9c5.3,5.2,14.3,8.7,25.4,9.5
			c7.1,0.5,10.3-1.5,17.8-0.3c9.4,1.5,11.8,5.1,20-0.5c4.3-2.2,7.3-5.6,11.1-4.2c8,5.5,14.9,1.3,17,13.6c1.6,9.6,4.9,16.6,12.1,18.6
			c7.3,1.9,14.2,4.6,20,9.2c0.5,0.4,0.9,1,1.2,1.6c1.8,4.6,10.4,7.4,17.4,7c5.4-0.3,11,2.5,16.5,2.8c14.8,0.8,29.8,0.5,44.6,1.2
			c24.9,1.3,63.8,0.5,74.8-1.7c2.6-0.5,9.6-3.8,12.1-5c6.6-4.9,10.9-6.4,13.9-22.3c-1-10.4-4.4-19.3-12.8-24.9
			c-6.6-4.4-7.6-9.1-5.4-15.3c3.6-11,2.7-23.2,2.9-34.7c-1.4-15.6-3.2-26,3.6-27.5c2.1-0.5,9.9,0.3,16.6,4.3
			c13.8,8.2,28.6,12.9,44.6,13.8c11,0.7,21.8-1.6,32.6-3.1c1.8-0.2,5.8,4,7.1,5.9c2.6,4.1,5.4,8.2,7.7,12.5c1.2,2.3-0.7,4.6-5,5.3
			c-3.3,0.3-6.4,1-9.7,1c-14.2,0.5-26.5-1.3-40.6,1.3c-10.2,2-15.1,6.6-18.9,16.8c-5.4,14.5-3.4,22.2,2.2,34.9
			c4.3,6.7,12.2,18.7,29.9,21c3.9,0.5,13.5,1.9,13.5,1.9c16.9,7,27.2,0.9,36.4-1.7c4-1.2,13.2-3.9,16.5-1.6
			c12.9,7.3,18.4,9,33.2,7.4c16.3-3.6,31.9-8,43.5-21C1030.8,1067.1,1030.9,1057.8,1026.6,1043.7z M681.5,1012.9
			c0,4.1-0.7,7.9-10.7,4.9c-3.3-0.5-6.1-0.5-17.8,2.1c0,0-0.2-2.1-3.6-5.6c-1.3-1.3-6.4-4.9-4.1-6.1c9.9-5.3,23.7-12.8,34.1-21.1
			C681,998.6,681.3,1002.1,681.5,1012.9z"/>
		<path id="body_00000013907705827169741480000007212644437454940333_" class="st2" d="M501.9,722.6c0.8-4,2-7.2,1-10.9
			c-3.3-3.5-8.1-0.8-11.7,0.5c-5.9,2.5-11.5,5.6-18.4,9.1c1.3-4.1,2.1-7.4,3.5-10.5c3.1-6.9-2.3-18.1-11.4-17.5
			c-3,0.2-5.9-0.5-8.7,0.2c-15.3,2.8-26.8-5.4-38.9-12.2c-2.6-1.5-2.5-2.8,0.5-4.3c14.3-7.7,29.6-11.9,45.9-12.5
			c9.1-0.5,17.8-1.2,27-0.3c16,1.5,31.3,5.1,46.1,10.5c19.6,7.1,37.5,17.1,54.3,29.3c17.6,12.8,33.6,27.5,46.1,45.4
			c15.8,22.7,27.3,47.6,40.5,71.8c0.3,0.7,0.2,1.6,0.2,3.3c4.1-4.1,1.5-8.2,0.7-11.5c-4.4-17.6-12.6-30.6-21.5-46.6
			c-2.5-4.7-0.7-8.7,1-8.9c1.8-0.2,3.9,0.8,5.1,1.3c33.9,14.3,66.7,28.2,100.3,43.3c19.6,8.9,39.4,17.3,58.3,27.3
			c14.2,7.4,27.5,15.3,39.2,26.2c7.9,7.2,12.5,16.5,17.3,25.5c4.6,8.9,12.8,13.3,21.2,17c14,6.1,28.3,11.5,40.7,20.7
			c15,11.4,27.8,24,32.8,43.1c3,12,9.7,23.4,19.4,31.3c16.5,13.2,20.4,31.6,25.9,49.9c0.7,2,0.8,4.1,1.3,6.3
			c3.1,13.8,0.7,19.1-11.5,27.5c-11.5,7.9-24.2,12.8-37.9,14c-19.1,1.5-35.9-11.6-36.6-31.5c-0.4-10,8.6-16.8,19.8-21.1
			c1.2-0.5,2.1-0.8,3.6-1.3c1-0.6,3-1.8,1.8-3.6c-0.8-1.5-2.3-2.1-4.1-1.6c-10.4,2.8-19.6,7.4-26,16.1c-5.1,6.9-4.6,15.3-1.5,22.2
			c4.9,11.2,3,13.5-9.7,17.6c-13,4.3-25.7,0.3-32.4-9.7c-9.9-14.8-3.6-34.4,10.2-44.8c11.5-8.7,25-11.7,39.8-10.7
			c-3.3-9.7-9.6-17.3-13.7-25.7c-0.5-1-1.2-1.8-1.6-2.8c-4.3-7.6-7.6-8.7-16.5-7.1c-9.7,1.8-19.3,3.6-29.3,4
			c-10.7,0.3-20.6-3.1-30.1-7.1c-12.8-5.3-25.2-11.9-37-19.4c-6.8-4.3-10.7-10.7-13.3-17.8c-4.3-11.7-7.7-23.9-14.8-34.2
			c-6.8-10-13.5-20.3-22.4-28.7c-1.6-1.6-3.5-2.6-5.9-3.5c-0.2,7.1,4.9,10.5,8.2,14.8c14.5,18.6,23.9,39.7,31,61.7
			c3.8,11.5,6.9,23.2,8.6,35.2c3.3,22.9,2.8,45.1-9.1,66c-3.1,5.6-6.1,11.2-9.9,16.3c-0.5,0.7-4.5,4.6-0.5,4
			c9.1-4.1,15.6-9.9,21.1-16.8c2-2.5,2.6-1.6,4.4-0.8c6.1,3.1,12.2,13.8,10.7,19.3c-4,14.7-11.5,15.4-19.8,19.1
			c-7.5,3.4-25,3.8-45.5,3.3c-20.7-0.4-44.5-1.1-62.5-1.5c-15.8-0.3-17.8-3.1-29.6-3.2c-10.6-0.1-10.7-5.9-12.7-11.2
			c-4.9-12.7,3.3-23.5,17.1-24.9c4.3-0.3,8.9,1.8,13.2-1c-15.3-8.7-32.8-6.3-37.9,7.7c-1.3,3.8-1.3,7.9-2.3,11.9
			c-0.7,3-1.6,4.4-5.8,3c-11.2-4.4-14-13.7-13-27.3c0.5-6.8,12.2-15,20.1-15.1c9.9-0.2,19.4,1.5,29,3.8c1.3-2.1-0.5-3-1.6-3.6
			c-3.5-2.3-6.9-4.3-10.5-6.4c-2.1-1.3-5.2-1.4-5.8-4.1c0.5-3.8,4-5.6,7.2-7.1c13.2-5.4,26.7-1.6,33.9,9.6
			c9.9,15.1,14.2,16.3,27.5,23.5c-1.8-6.9-7.4-10.4-11.2-14.7c-10.4-11.7-15.6-24.5-16.5-40c-0.8-14.2-1.2-28.5-5.3-42.2
			c-6.3-21.2-29.8-32.9-48.2-21.9c-6.1,3.6-10.5,9.1-14.8,14.3c-4.9,6.3-10.2,5.9-16.8,4.6c-5.6-1.2-10.7-4.1-17.9-4.6
			c8.2,6.9,15.1,12.8,25.9,12.2c5.9-0.3,10.7-2.5,14.8-5.9c4.4-3.6,8.9-7.2,12.8-11.4c7.6-7.7,20.7-4,26.5,1.3
			c5.8,5.1,9.1,12,10.7,19.4c1.5,6.6-4.3,10.9-8.6,14.3c-14.7,11.9-31.3,20.1-49.6,25.9c-23.5,7.4-47.8,11.2-72.1,11.2
			c-24.9,0-49.4-4.8-72.5-14.7c-4-1.6-7.9-3.3-12.7-5.3c7.6,0,12.8-1,18.6-1.6c11.4-1.3,24-7.2,34.2-11c5.6,2.8,8.6,4.9,16.5,7.6
			c4.3,2,9.1,3,13.2,4.3c6.1,2,9.9-0.3,10.5-6.8c0.7-6.4,0.7-5.9-0.3-12c-0.3-2.5-2.6-10.9-2.6-10.9s28.7-33.3,31.8-53.8
			c7.2-1.6,13.5-4.6,13.5-4.6c4-1.2,0.2,0,3.6-1.6c5.8-2.5,6.3-7.1,1.2-11c-2.5-1.8-3.1-2.8-7.2-5.4c-4-2.8-4-2.8-13.3-8.1
			c-3.3-17.6-14.8-49.2-24-64.7c5.1-3.5,8.4-7.7,10.7-9.4c4-3,5.6-4.9,9.2-8.6c2-2.1,2.3-1.8,0.8-5.4c-1.5-4-4.6-4.4-8.4-4.9
			c-5.1-0.7-9.1-2-15.3-2.6c-8.2-0.8-4.3-0.7-13.2-1.2c-6.1-10.9-16.5-25.2-26.3-32.9c-3.8-3-12.5-10.9-16.1-14"/>
		<g id="paws_00000092441128072467212480000002696648199779311518_">
			<path id="paw-right_00000038376607707895293240000001532017445204863925_" class="st2" d="M255.9,1071.9
				c3.1,6.9,5.9,13.8,9.4,20.6c1,2,1.5,2.8-0.7,3.8c-4.6,2-9.8,4.6-15,5c-7.9,0.6-15.9-0.1-24.2-0.2c-14.4-0.2-18.7-7-21-15.7
				c-2.3-8.6-0.8-17.6,0.5-26.3c1.8-12.3,6.6-17,19.6-19.4c2-0.3,4-1.3,6.1-2c-4.3-5.8-10.4-6.4-19.3-2.3c-3.1,1.5-6.1,3.3-8.6,5.8
				c-4.3,4-7.1,3.5-9.9-1.5c-2-3.5-3.1-7.4-4.6-11.2c-8.6-22.1-7.9-44-0.5-66c0.7-2,2-4.3,2.7-6.1c6-12.4,8.1-14.7,29.9-9.2
				c3,1.8,4.9,4.4,5.6,7.4c3,12.5,10.7,21.4,21.2,28.3c10.5,6.8,21.7,12.7,35.1,11.9c4.1-0.3,7.9-2,12,0c2.3,1.2,4.1,2.1,4.8,4.8
				c0.7,2.8-1.6,3.1-3.1,4.1c-12.3,9.9-15.1,21.7-9.2,35.2c1.2,2.5,2.5,2.6,3.8,1.6c9.2-7.4,18.8-5.4,28-0.8
				c15.1,7.7,29.8,16.1,39.4,30.6c6.8,10.2,5.3,17.8-5.1,24c-2.8,1.6-5.1,1-6.9-1.5c-4.9-6.6-9.1-14-15.1-19.4
				c-7.4-6.8-14.7-14.3-24.4-18.3c-1.5-0.7-3.1-1.8-4.3-0.5c-1.5,1.6,0.8,2.6,1.6,3.6c6.4,7.2,13.2,14.3,19.4,21.7
				c4.6,5.4,9.4,10.5,14.5,15.6c1.8,1.8,1,4-1.5,4.4c-10.4,1.8-20.7,2.5-31.1,1.2c-8.1-1-16.3-2.5-23.7-6.3c-4-2-7.1-4.6-9.6-8.6
				c-3.8-6.1-9.1-11-14.7-15.5C257,1071.2,256.5,1071.6,255.9,1071.9z"/>
			<g id="paw-toes_00000047030029552864662680000005376807253747256238_">
				<g id="paw-toes-left_00000122682841443805705350000012763492288742703763_">
					<path id="paw-toes-left-1_00000036248485556972423400000000837098078996501939_" class="st2" d="M888.3,1025
						c-9.4,8.2-14.3,17.8-16.5,28.3c-2.3,10.9-1,23.8,9.9,34.1c-22.8-3.2-28.3-15.9-32.8-28.6c-1.4-6.6-2-14,2-22.1
						c3.3-6.4,9.2-11.5,16.8-11.7c0.5,0,0.8,0,1.3,0C874.8,1025,880.8,1025,888.3,1025z"/>
				</g>
				<g id="paw-toes-right_00000084509558482019129000000013704815964530598831_">
					<path id="paw-toes-right-3_00000075857392263791441160000002876631792138438024_" class="st2" d="M609.9,1052.3
						c-12.5-0.8-16.7-6-18-10.6c-1.5-4.8-2.3-9.9-0.2-14.8c0.7-1.5,1.3-3,4-3.6c14-3.6,27.8-7.6,41.5-11.7c3.1-0.8,4.3,1.5,5.8,2.8
						c1.8,1.6,6,5.4,4.5,7.6c-13.2,11,2.3,10.1-19.3,14.4c-5.5,1.1-10.6,5.7-12.6,7.8C612.4,1047.6,610.9,1050.2,609.9,1052.3z"/>
					<path id="paw-toes-right-2_00000032610351453092376730000014914980746441384616_" class="st2" d="M583.2,1041.4
						c0.2,4.6,1,9.2-4.6,11.2c-6.1,2.1-11.7,2-17.1-2.1c-4.9-4-6.8-9.2-7.7-15c-1-5.6,0.2-9.2,7.2-8.1c6.2,0.4,11-1.7,17.1-1.3
						c2.5,0.3,3.7,0,4,3.5C582.9,1035.4,582.6,1038,583.2,1041.4z"/>
					<path id="paw-toes-right-1_00000061470648692540854070000011928694922226470836_" class="st2" d="M549.8,1053.5
						c-16,2-25.4-3-29.8-13c-1-3.9-1-7.7-1-11.5c0-2.5,2.3-3.5,4.3-2.8c5.9,2,11.9,1,17.8,1.2c2,0,3.8,0,3.3,2.6
						C542.9,1038.5,547.3,1045.5,549.8,1053.5z"/>
				</g>
			</g>
		</g>
		<path id="tail_00000111174609829595913010000011642395459761310353_" class="st2" d="M859.5,814.4c-8.2-1.8-12.5-2.1-15.1-2.3
			c-2.3-0.2-7.1,0.1-9.9,2.6c-8.7,8.2-6.5,9.3-23.9,0.8c-8.2-4.8-15.1-7.6-25.5-12.5c-1.8-1.1-1.3-2.4,0.8-4.9
			c9.3-13.5,19.6-17.2,33.1-17.2c19.6,0,40.4,8.3,52.4,20.2c4,4.6,3.9,12.7-1.7,14.9C865.7,816.7,862.3,814.9,859.5,814.4z"/>
		<g id="chest_00000026885449926032977850000010076055566580535218_">
			<path id="chest-2_00000165952253446638241890000008969043608305526668_" class="st2" d="M490.4,1021.8c0,1.1-22.1,3.6-33.1,5.9
				c-6.4,0.9-7.2,0.7-12.8,1.2c-8,0.6-7.5-2-5.7-4c4.4-5.1,6.9-11.2,9.9-17c0.8-1.6,1.3-3.3,4.3-2c11.5,4.6,23.2,8.9,34.7,13.3
				C490.4,1020.4,490.4,1020.4,490.4,1021.8z"/>
			<path id="chest-1_00000181771963485606630440000005887233539136595865_" class="st2" d="M428.1,1028.1
				c-10.3,2.4-14.7,1.9-34.6-2.6c-14.5-3.6-29-6.8-43.1-11.4c-15.1-4.9-31-9.1-43-20.3c-0.8-0.8-2.1-2.1-2-3c0.2-1.2,2-1.3,3.1-1.8
				c22.4-9.4,44.6-7.4,67.2-0.8c7.9,2.3,15.8,4.3,23.7,6.3c5.6,1.5,8.9,5.1,11.5,10c3.5,6.4,7.2,12.5,11.2,18.6
				C423.7,1025.3,425.3,1027.4,428.1,1028.1z"/>
		</g>
		<g id="face_00000177455204033984656170000009626555614290128542_">
			<path id="forehead_00000155840145733009905060000011039410694344309649_" class="st2" d="M402.9,725.6c2,0.7,3.8,1.5,5.8,2.1
				c8.7,3.5,15.1,8.2,13.3,19.1c-0.8,5.3,3.1,9.6,6.8,13.3c10.5,11.2,22.2,21.2,34.9,30c5.6,3.8,9.4,8.6,12.5,14
				c8.9,15.3,17,31,22.9,47.4c1.3,3.6,1.6,7.4,2.6,11.5c-5.6-0.5-8.2-4.8-11.4-7.4c-24.9-20.6-52.5-37-80.8-52.5
				c-10.5-5.8-21.6-10.7-31.1-18.1c-3.8-3-3.6-4.9-2.8-8.6c1.8-6.8,3.1-13.2-0.2-20.6c-2.6-5.6-6.9-8.1-11.4-9.4
				c-12-3.5-22.7,2.3-31.1,12c-14.3,16.6-28.5,33.8-46.9,46.4c-4.1,2.8-9.2,4.9-14.2,3c-5.6-2.1-6.4-8.1-7.2-13.2
				c-1.5-9.2,3.5-15.5,10.5-20.7c4.4-3.3,9.4-6.4,12.2-11.4c1.2-2.1,1.8-4.4,2.1-7.1c-11.9,10.2-28.8,17.7-31,31.4
				c0,0.2-0.7,3.9-0.4,7.1c0.4,4.9,1.4,5.9-1.8,7.5c-2.6,1.5-7.2-0.7-10.9-0.8c-7.7-0.5-15.5,0-22.6,3.3c-3.6,1.6-4.3,0.2-4.1-3
				c0.3-6.6,9.4-18.4,15.8-19.9c2.6-0.5,5.4-1,8.2,1.3c4.3,3.6,5.9,1.8,5.8-3.1c-1-27.8,18.3-46.4,40.5-55.3
				c8.1-3.3,16.1-5.8,24.9-7.9c-0.5,5.6-6.9,7.9-7.6,14c6.6-4.1,12.7-7.2,18.1-11.2c6.3-4.8,13.8-3,20.6-4.9
				c2.3-0.7,1.5,2.1,1.6,3.5c0.5,3.5-1,7.4,1.8,11c5.6-14.8,11.4-28.8,25.7-37c11.9-6.8,23.5-10.9,36.4-1.8
				c4.9,3.5,11.2,5.3,16.6,8.4c8.2,4.9,17.3,5.6,26.5,5.3c1.6,0,3.1-0.2,4.8,0c2.6,0.3,6.8-1.6,7.7,1.3c1,3,0.7,6.3-1.8,9.7
				c-5.4,7.6-13,11.2-21.7,12.5c-7.1,1-14.5,1.3-21.4-0.2c-6.1-1.3-12.2,0.5-17.8-2.3C403.1,724.5,402.9,725.1,402.9,725.6z"/>
			<path id="cheek-right_00000036244452293168381320000002161273620112944778_" class="st2" d="M436.7,830.2
				c9.6,3.5,17.5,7.9,25,12.8c11.9,7.7,22.4,17.3,30.5,28.7c12,17,21.1,34.7,11.9,56.5c-4.3,10.2-12.5,16.3-21.4,20.9
				c-16.6,8.6-34.7,13.2-54,12.3c-4.4-0.2-7.7,0-11-4.9c-5.9-9.2-12-18.1-15.3-28.8c-3.5-11.4-1.2-22.2-0.2-33.3
				c2-24,2.6-47.8-14.8-68c-11-12.7-31.5-12.5-41.2,1.5c-8.6,12.5-21.2,13.5-34.2,12c-13-1.5-22.6,3-30,13c-0.7,0.8-1.2,1.8-1.6,2.6
				c-3.3,5.9-8.2,10.4-15.1,9.4c-7.9-1-14.2-5.3-17.1-13.3c-4.1-11.4,0.2-22.6,9.7-30.1c12.2-9.7,24.9-8.4,38-4
				c5.3,1.8,10.9,2,16,2.5c6.1,0.5,9.4-5.8,13-9.9c6.6-7.7,13-16,22.1-20.7c11.2-6.1,22.4-3,33.1,2.1c9.7,4.8,17.3,12.3,25.7,18.9
				c12,9.4,21.4,21.6,33.6,30.8c0.7,0.5,0.3,2.1,2,0.8c0.8-0.8,0.5-1.3-0.2-2C438.5,837.3,438.2,834.1,436.7,830.2z"/>
			<path id="chin_00000129914079773397711610000014557996126624464809_" class="st2" d="M309.6,917.9c-6.6-2.6-13-0.3-19.3,0.3
				c-19.4,2-36.9,9.7-54.7,17.3c-14.5,6.3-28.5,4.3-39.8-6.4c-10.7-10-9.4-25.7,2.1-36.4c10.7-9.9,23.4-11.7,37-6.6
				c2.6,1,2.8,2.6-0.7,5.6c-6.9,5.9-9.7,13.7-11.5,22.1c5.3-3.3,8.6-8.6,11.9-13.3c9.4-13.7,22.2-14.5,37-11.4
				c22.9,4.9,44.6,12.8,66.2,21.4c15.8,6.4,31.9,5.4,47.6-0.8c5.3-2.1,7.6-1.3,7.6,4.9c0,15.3,4.8,29.3,13.3,42
				c4.1,6.1,4,5.9-3.1,7.2c-15.3,2.8-30.6,6.1-45.9,8.9c-16.6,3-33.6,5.4-50.2,8.2c-7.2,1.2-14.5,3.8-21.7,3.8
				c-18.1,0-32.8-8.1-44.1-21.7c-3.3-4-5.3-8.7-8.1-13c-2.3-3.6-0.5-4.8,2.6-6.1c8.6-3.6,16-3,23.7,2.5c6.9,4.9,16.6,6.9,22.4,5.9
				c-5.9-5.6-13-8.7-19.1-13.3c-4.6-3.5-2-4.6,0.2-6.6c6.6-5.6,15.1-7.1,23.1-8.9C293.8,922.1,301.6,919.6,309.6,917.9z"/>
			<path id="ear-left_00000145035805505775521710000011320170355788854958_" class="st2" d="M246.7,734.3c-2.8,0.3-5.6-0.2-8.2-1.2
				c-2.8-1.2-7.2-1.2-7.4-4.8c-0.2-3,3.1-5.1,5.4-7.2c15.1-13.2,33.6-19.9,53-23.2c7.7-1.3,16,2.8,23.4,6.1c1,0.5,1.5,1.3,1,2
				c-0.8,1.3-2.1,2-4,2c-6.4,0-12.2,2.3-18.3,4.1c-11.5,3.6-19.9,12.3-30.5,17.8C256.9,732.4,252.3,735.2,246.7,734.3z"/>
			<path id="cheek-left_00000157275383172021572860000001093684150265109419_" class="st2" d="M221,856c-21.1-1.5-25-11.9-18.4-25.5
				c2.8-5.6,7.4-5.6,11.7-1c5.3,5.8,10.9,11.4,19.1,13.2c2.5,0.5,5.8,1.3,5.6,5.3c-0.2,3.8-3.5,3.6-5.4,4.4
				C228.5,854.2,223.8,856.2,221,856z"/>
			<path id="eye-brow_00000150078990560721797480000000981936441674829759_" class="st2" d="M372,768.6c-0.2,2.3-1.7,6.3-3.1,9.9
				c-1,3.1-7.6,2.5-9.9-1c-5.1-7.7-12.2-11.4-21.2-11.4c-2.3,0-4.3-0.3-3.1-3.1c2-4.9,20.9-12.5,26.5-10.9
				C368.2,754.1,372.1,760,372,768.6z"/>
			<g id="Teeth_00000113332231940062772100000001402100256831319968_">
				<path id="tooth-6l_00000061451870237768258860000002679706345031106998_" class="st3" d="M310.1,865.1c4.6,3.6,9.2,7.5,13.5,11
					c7.4,5.7,7.8,5.7,12.3-1.8c3.1-5.6,6.2-11.2,9.2-16.8c1.1-2.1,0.8-2.9,4.4-0.2c5.4,4.1,10.1,7.6,15.5,11.9
					c6.1,3.7,3.7,3.6,8.3-0.1c5.7-5.5,10.2-9.7,16.2-15.6c0.8-0.9,1.9-2.2,2.6-2.1c1.1,0.1,2.4-0.3,2.8,1.2c2.3,7.4,2.8,12.7,2.8,22
					c0.2,16.4-6.9,33.1-28.3,34.1c-23.1,1.2-43.2-8.7-64.1-15.6c-10.3-3-17.3-5.3-28.6-8.6c-8.8-2.2-9.9-1-8.1-3.3
					c2.6-3.4,5.5-8.5,7.6-10.6c1.6-1.2,5.8,2.8,8.2,5.3c0.8,0.8,4.9,4.8,5.7,5.5c3.8,3.9,3,3.8,6.6-0.4
					C300.4,877.1,306.3,869.2,310.1,865.1z"/>
				<path id="tooth-6u_00000137128354568402637910000004953789283468164772_" class="st4" d="M316.5,845.2
					c3.7,0.5,11.5-0.4,16.4-1.3c8.4-1.6,14.6-7.5,18.4-13.1c7.1-10.3,23.8-13.3,35,2.3c7,9.8,6.8,10.7-1.9,19.2
					c-4,4-8.1,7.9-12,11.9c-3.7,3-1.7,3.6-5.9,0.7c-6.4-4.7-11.7-8.9-17.5-13.5c-5-3.7-4.1-3.8-6.9,1.2c-4,6.9-6.3,11.8-10.3,19
					c-1.4,2.4-1.4,4.2-6.7,0.3c-4.6-4.1-7.9-6.6-13-10.5c-2.3-2-3.5-1.3-4.8,0.5c-2.8,3.3-9.3,12.1-12.1,15.4
					c-2.1,2.2-1.5,2.9-4.6,0c-2.3-2.2-2.9-2.7-7.4-6.9c-2.7-1.9-3.1-2,0.3-8.1c3.4-5.9,6.4-10,11.5-13.9
					C300.1,844.1,308.7,844.1,316.5,845.2z"/>
				<path id="tooth-1" class="st4" d="M201.5,855.5c3.9,3.6,8.9,3.3,13.1,5.5c1.4,0.9,0.3,2-1.1,4c-1,1.5-3.6,6-3.9,6.5
					c-1.3,2.3-2.7,4.5-4.8,4.8c-2.3,0.8-5.5-6.5-7.7-10.9c-1.3-1.8-2.3-6.7-1.1-11.5C196.4,852.2,197.8,852.1,201.5,855.5z"/>
				<path id="tooth-4_00000039828959215540321100000008377642815147229349_" class="st4" d="M245.5,884.7c-0.2,0-1.9-1.8-4.5-2.5
					c-5.8-1.7-3.9-2.8-0.9-5.9c0.8-1,3.9-4.5,4.7-5.4c2.5-2.9,3.9-4.9,4.5-4.9c2.4,0,2,2.1,7,13.7
					C258.1,884.2,255.2,881.3,245.5,884.7z"/>
				<path id="tooth-3_00000036940557002536098050000008281444222795778967_" class="st4" d="M245.1,864c-2.9,4.4-7.5,9.6-9.5,11.9
					c-2.2,2.4-2.3-0.1-4.2-4.4c-1.3-2.5-2.4-4-4-6.9c-1.2-1.9-1.7-3.1,1.4-3.6c4.2-0.5,12.5-4,13.2-3.7
					C242.7,856.9,246.4,861.2,245.1,864z"/>
				<path id="tooth-5_00000098189625145229142810000010944889076856265602_" class="st4" d="M270.3,873.6c-0.6,1.4-3,3.5-5.1,6.7
					c-2.8,3.7-3,4.4-4.3,1.4c-1.3-4-4.8-9-4.2-10.5c0.9-2.2,2.5-0.6,8.2,0C268.7,871,272.4,869,270.3,873.6z"/>
				<path id="tooth-2_00000054947229185627745950000010507294449910758049_" class="st4" d="M229.5,876.6c0.6,3.6-0.7,2.3-7.4,1.7
					c-5.8-0.5-14.8,3.3-10.5-3.2c5.8-8.8,6.8-12.1,8.9-13.1C222.1,861.2,228.8,872.8,229.5,876.6z"/>
			</g>
			<g id="eye_00000072259997409892475340000008813713415222902165_">
				<path id="eye-white_00000181061965576766756040000011963357067078954404_" class="st4" d="M354.8,780.9
					c-4.4,0.5-9.4,1.4-18.8,8.2c-5.1,4.1-8.2,7.9-11.5,11.5c-3.1,3.3-7.2,10.7-7.1,0.8c0.2-13.2-19.4,0.7-8.7-9.9
					c7.6-7.6,22.7-24.2,36.2-18.8C348.4,774,351.1,775.4,354.8,780.9z"/>
				<path id="eye-white-sm_00000070808068883679698700000006733239468750148996_" class="st4" d="M293.1,807.8c4.3-3,10-0.8,9.2,4.9
					c-0.2,1-1,0.3-4.8-0.5C294.6,811.6,293.9,810.7,293.1,807.8z"/>
			</g>
		</g>
		<g id="collar_00000176035132441505447110000011235949398208499635_">
			<g id="collar-spikes_00000117658664115201232390000012488713534279656337_">
				<path id="spike-5_00000111877598068923292580000013079547129479818640_" class="st4" d="M444.7,989.7c-1,10.9-3.6,21.1-9.2,30.6
					c-3,4.9-4.3,4.9-7.9,0.5c-5.9-7.7-11.7-15.5-14.8-24.5c-5.1-14.2-1-17.5,14.3-21.6c3.3-0.8,7.2-0.5,10.5,0.5
					C444.7,977.5,445.7,983.3,444.7,989.7z"/>
				<path id="spike-3_00000080194431084880616640000001404381608824017849_" class="st4" d="M594.4,904.8
					c-16.6,3.6-28.8,5.9-44.8,5.3c-8.9-0.3-13.3-4.8-13.5-13.5c-0.2-3.3,0.8-6.6,1.8-9.4c1.5-4.3,4.9-8.1,10.5-6.3
					c15.1,4.9,30,10.5,44,18.3C594.4,900.5,598.2,903.4,594.4,904.8z"/>
				<path id="spike-4_00000085233072057058735600000014578272772658604954_" class="st4" d="M544.9,993.2c-4.9-0.7-8.4-2-11.9-4.1
					c-7.7-4.8-15.5-9.6-22.1-16c-3.5-3.3-4-6.8-1.5-10.4c2-3,4.4-5.8,7.2-7.9c10.5-8.2,14.5-6.9,21.1,4.6
					c5.1,9.1,7.6,18.9,10.4,28.7C549,990.6,549.6,994.5,544.9,993.2z"/>
				<path id="spike-2_00000024704070868414922670000015174697021652124331_" class="st4" d="M526.2,830.3
					c-4.6-0.2-16.3-8.9-16.5-18.3c-0.5-5.8,2.3-13.5,5.1-14.5c6.8-2.6,14-2.3,21.2-3c10.5-1,17.5-0.7,26.8,0.3
					c1.2,0.2,4.8,1,5.3,2.6c0.3,1,0.7,2-0.7,2.8c-10.9,10.2-21.9,18.8-36.7,27.3C528.9,828.9,527.6,830.2,526.2,830.3z"/>
				<path id="spike-1_00000112593506153219050130000002540187088222672309_" class="st4" d="M495.3,717c1.2,1.6-1,7.4-2.3,10.2
					c-5.1,11-9.6,22.6-19.9,30.3c-3.5,2.6-6.9,3-10.2,0.5c-17.8-13.7-16.8-14.8-0.2-25.7C472.6,725.8,492.5,716.2,495.3,717z"/>
			</g>
			<path id="collar_00000039109993591735694780000000425070608043292552_" class="st5" d="M425.6,733.2c0,0,5.3,4.4,3.8,11.2
				c-2.5,11,32.9,32.9,43.5,42.3c17.5,15.5,38.9,76.4,38.9,76.4s6.6,50.6,0,66.2c-4.1,9.9-13.7,22.1-29.8,28.8
				c-8.9,3.8-32.1,13.5-63.7,10.7c-7.6-0.7-34.9,6.8-54.7,8.7c15.6,4.9,25.4,8.4,38.2,9.9c4.3,0.5-0.5-1.8,4.3-7.9
				c14.5-18.9,42.5-6.1,44.5-3.3c2.8,4,1.6,17,1.6,17s23.2-0.5,30-2c6.1-1.3,23.7-8.7,23.7-8.7s-6.4-5.8-7.2-8.4
				c-0.7-2.1,0-6.9,0.8-8.9c2.1-4.4,8.4-12.7,12.3-15.8c3.6-3,11.7-9.1,16.5-9.7c3-0.3,9.6,0.8,11.9,2.8c2,1.6,4,6.4,4.9,8.7
				c1,2.1,3.5,9.6,3.5,9.6s8.6-7.6,16.5-21.1c6.3-10.7,8.7-22.7,8.7-22.7s-15.3,4-20.4,4.4c-3.3,0.3-10.2,0.8-13.2-0.5
				c-3.8-1.5-10-7.2-11.9-10.9c-2.3-4.6-3.1-15.3-2-20.4c1-4.6,6.4-12.7,9.7-16.1c2-2.1,6.9-5.9,9.7-4.9c4.9,1.8,9.2,3.6,12.3,4.9
				c4,1.6,10.4,5.4,10.4,5.4l-7.2-22.9l-7.9-21.7l-3.8-8.9c0,0-7.1,5.9-9.6,7.9c-2.3,2-6.4,6.8-9.4,7.7c-1.8,0.7-6.1,0.7-8.1,0
				c-3.3-1-8.6-5.4-11-7.7c-3.1-3.1-8.9-10.4-10.2-14.7c-1.5-4.6-1.3-14.3,0-18.9c0.8-2.8,3.8-8.1,6.3-9.6c2.3-1.5,8.2-1.3,10.9-1.8
				c2.5-0.3,10.2-0.8,10.2-0.8s-6.1-13-10.2-18.1c-8.7-10.7-17.8-17.5-24.4-20.6c0,0-2.8,6.3-4,8.2c-1.3,2.3-4,6.9-5.8,8.9
				c-1.5,1.5-4.8,4.4-6.8,5.1c-1.2,0.3-3.8,0.3-4.9,0c-3-0.7-8.2-3.5-10.7-5.1c-4.8-3-13.7-10-17.1-14.3c-2.5-3.1-4.6-9.6-1-12.3
				c5.8-4.4,4-9.4-3.6-6.3C437.5,734.5,425.6,733.2,425.6,733.2z"/>
		</g>
	</g>
	<g id="Banner">
		<path id="Banner_Background" class="st6" d="M37.2,293.5v288.3c0,0,477.5-115.2,1126,0.2c0,0,0-187.2,0-287
			C514.3,399.9,37.2,293.5,37.2,293.5z"/>
		<path id="Banner_Border__x28_Gray_Fill_x29_" class="st7" d="M20.6,272.8c-0.2,42.6-0.2,230.7,0,328.2
			c574.9-125.8,1159.5-0.5,1159.5-0.5V272.6C1180.1,272.6,595.5,394,20.6,272.8z"/>
		<path id="Banner_Border" class="st8" d="M20.9,273.6c-0.2,42.6-0.2,230.7,0,328.2c574.6-126.7,1159.5-0.5,1159.5-0.5V273.5
			C1180.4,273.5,595.5,394,20.9,273.6z"/>
		<g id="Wrestling_Club_Text">
			<g id="Wrestling_Club_Text_Black">
				<path id="B_00000026132432193586162720000014623581598586464905_" class="st9" d="M1146.5,360.9l-10.5-37.4l-43.2,7.1v48.3
					l3.6-0.3V498l-3.6-0.3V546l43.2,7.6l10.5-37.2v-68.9l-4.7-12.6l4.7-15.1V360.9z M1127.9,494.5l-4.6,6.5l-7.7-1.5v-39.6l7.7-0.8
					l4.6,7.1V494.5z M1127.9,404.1l-4.6,5.1h-7.7v-31.9l7.7-1.2l4.6,6.9V404.1z"/>
				<polygon id="U_00000111874547503773334280000013978726062138037652_" class="st9" points="1014.3,340.5 1014.3,385.4 
					1018.8,385 1018.8,506.6 1030.9,538 1064.1,542 1075.8,511.5 1075.8,380.6 1080.4,379.9 1079.9,332.1 1050.8,336.5 
					1050.8,382.1 1055.1,381.8 1054.9,487.2 1051.7,494.6 1043.3,494 1040.3,487.2 1040.4,383.3 1044.6,382.8 1044.6,337 				"/>
				<polygon id="L_00000158723950455818536880000000791613935518923409_" class="st9" points="944.3,346.8 944.3,388.8 949.2,388.4 
					949.2,488.2 944.3,488.1 944.3,529 1003.8,534.8 1003.8,478.6 984.4,477.4 984.4,489.4 972.2,488.6 972.2,387.9 976.2,387.6 
					976.2,343.8 				"/>
				<polygon id="C_00000108295256478252071140000017639002741482886036_" class="st9" points="880.8,352 866,381 866,496.3 
					879.8,523.8 916.4,526.5 929.4,497.9 929.4,460.6 906.4,460.3 906.4,481.1 902.5,485.2 892.8,484.7 889.8,480 889.8,396.7 
					891.8,394.3 902.8,392 906.4,395.5 906.4,419.8 929.4,419.8 929.4,378.3 915.8,349.3 				"/>
				<polygon id="G_00000109716329967988781480000005338066187246015106_" class="st9" points="758.4,358.9 796.4,357.2 810.7,382.8 
					810.7,420 785.7,420.6 785.7,400.6 783.1,396 771.6,396.4 768.9,400.6 768.9,477.3 771.4,481.3 783.1,481.7 785.7,477.3 
					785.7,462.5 779.8,462.4 779.8,429.4 810.7,429.6 810.7,493.3 797,519.6 758.4,517.9 744.4,491.8 744.4,384.9 				"/>
				<polygon id="N_00000118357901063282217570000002096814104279375001_" class="st9" points="645.9,362 645.9,398.2 650.7,398 
					650.7,479.1 645.9,479.1 645.9,514.4 681.3,514.9 681.3,479.1 675.5,479.1 675.5,448.4 697.7,515.5 728.2,516.4 728.2,480.5 
					722.9,480.3 722.9,397.4 728.2,397.2 728.2,359.9 693.4,361 693.4,397.7 698.2,397.7 698.2,430.1 674.8,361.5 				"/>
				<polygon id="I_00000101089126215543717640000010795110972726304654_" class="st9" points="594.1,362 629.2,362 629.2,398.2 
					623.7,398.2 623.7,479.3 629.2,479.3 629.2,514.4 594.1,514.4 594.1,479.1 599.5,479.1 599.5,398 594.1,398 				"/>
				<polygon id="L_00000046301387111571194010000005303722547271075970_" class="st9" points="513.2,361 513.2,397.2 518.3,397.2 
					518.3,479.8 513.2,479.8 513.2,515.5 579,514.4 579,470 557.6,470.4 557.6,479.1 543.3,479.1 543.3,397.5 548.2,397.7 
					548.2,361.6 				"/>
				<polygon id="T_00000042694249289536452250000008732268400276868254_" class="st9" points="424.6,357.9 424.6,404.1 444.8,404.1 
					444.8,395.5 449.7,395.7 449.7,481 443.5,481.1 443.5,517.9 479.3,516.5 479.3,480.3 473.9,480.5 473.9,396.2 478.2,396.4 
					478.2,405 498.9,405.1 498.9,360.6 				"/>
				<polygon id="S_00000071552462707189724080000004096006574145635224_" class="st9" points="358.4,354 394.6,356.2 408.9,381.9 
					408.9,415 384.7,415 384.7,399.1 380.8,394.1 371.4,393.8 368,399.9 368,414.2 371.4,420.3 394.4,420.3 408.9,445.4 
					408.9,494.5 394.3,520.3 358.4,522.6 343.9,496.7 343.9,464.1 368,463.5 368,478.1 371.4,483.3 380.8,483 384.7,476.1 
					384.7,461.8 380.8,456.7 357.9,457.5 343.9,430.9 343.9,381 				"/>
				<polygon id="E_00000114046454999161673110000012118120832247439763_" class="st9" points="268,388.7 272.8,388.9 272.8,487.6 
					268.1,487.9 268,529.5 328.7,524.8 328.7,477.9 308.9,478.6 308.9,485.9 295.6,486.5 295.7,457 299.7,457 299.9,466.1 
					317.1,465.6 317.3,411.4 299.5,410.7 299.5,420 295.1,420 295.7,390.1 309.4,390.9 309.4,398.5 328.7,399.1 328.7,351.8 
					268,346.8 				"/>
				<path id="R" class="st9" d="M248.6,488.9v-42.1l-5.4-11l5.4-11.3v-49.9l-12.8-29.4l-48.3-5.1v44.3l4.3,0.3v107.6l-4.9,0.3v45
					l31.9-3.5v-43.7l-4.6,0.3v-34.2h8.7l3.6,6.9v70l26.6-2.7l0.2-42.1L248.6,488.9z M226.9,407.8l-3.5,5.7h-9.7v-27.3l8.9,0.7
					l4.3,4.4V407.8z"/>
				<polygon id="W_00000104674275449307690810000010141395597601347209_" class="st9" points="63,373.3 69.5,374.4 82.1,500.7 
					79,501 79,552.4 114.4,546.7 114.4,498.2 111.1,498.3 118.5,448.3 123.4,497.3 120.3,497.7 120.1,545.9 158.6,541.2 
					158.6,494.8 154.8,495 169.8,384 174.7,384.5 174.7,337 144,333.1 144,381.3 147.6,381.7 139.4,446.1 131,379.5 134.1,379.8 
					134.1,331.8 101.9,327.2 102.2,376.5 105.6,376.8 97.1,446.1 89,375.4 93.1,375.8 93.1,326.1 63,321.5 				"/>
			</g>
			<g id="Wrestling_Club_Text_White_00000114035843102221130390000001570001571695375794_">
				<path id="B_00000103962049014372268210000006778784270000339089_" class="st10" d="M1142.5,356.9l-10.5-37.4l-43.2,7.1v48.3
					l3.6-0.3V494l-3.6-0.3V542l43.2,7.6l10.5-37.2v-68.9l-4.7-12.6l4.7-15.1V356.9z M1123.9,490.5l-4.6,6.5l-7.7-1.5v-39.6l7.7-0.8
					l4.6,7.1V490.5z M1123.9,400.1l-4.6,5.1h-7.7v-31.9l7.7-1.2l4.6,6.9V400.1z"/>
				<polygon id="U_00000083078328289521939890000007822644742349672359_" class="st10" points="1010.3,336.5 1010.3,381.4 
					1014.8,381 1014.8,502.6 1026.9,534 1060.1,538 1071.8,507.5 1071.8,376.6 1076.4,375.9 1075.9,328.1 1046.8,332.5 
					1046.8,378.1 1051.1,377.8 1050.9,483.2 1047.7,490.6 1039.3,490 1036.3,483.2 1036.4,379.3 1040.6,378.8 1040.6,333 				"/>
				<polygon id="L_00000162321025484193656840000007212174267994729644_" class="st10" points="940.3,342.8 940.3,384.8 
					945.2,384.4 945.2,484.2 940.3,484.1 940.3,525 999.8,530.8 999.8,474.6 980.4,473.4 980.4,485.4 968.2,484.6 968.2,383.9 
					972.2,383.6 972.2,339.8 				"/>
				<polygon id="C_00000001652175279307829240000012980046832427844241_" class="st10" points="876.8,348 862,377 862,492.3 
					875.8,519.8 912.4,522.5 925.4,493.9 925.4,456.6 902.4,456.3 902.4,477.1 898.5,481.2 888.8,480.7 885.8,476 885.8,392.7 
					887.8,390.3 898.8,388 902.4,391.5 902.4,415.8 925.4,415.8 925.4,374.3 911.8,345.3 				"/>
				<polygon id="G_00000025414205515153821670000004167688629574799253_" class="st10" points="754.4,354.9 792.4,353.2 
					806.7,378.8 806.7,416 781.7,416.6 781.7,396.6 779.1,392 767.6,392.4 764.9,396.6 764.9,473.3 767.4,477.3 779.1,477.7 
					781.7,473.3 781.7,458.5 775.8,458.4 775.8,425.4 806.7,425.6 806.7,489.3 793,515.6 754.4,513.9 740.4,487.8 740.4,380.9 				
					"/>
				<polygon id="N_00000095318972303003396170000010359365383045620140_" class="st10" points="641.9,358 641.9,394.2 646.7,394 
					646.7,475.1 641.9,475.1 641.9,510.4 677.3,510.9 677.3,475.1 671.5,475.1 671.5,444.4 693.7,511.5 724.2,512.4 724.2,476.5 
					718.9,476.3 718.9,393.4 724.2,393.2 724.2,355.9 689.4,357 689.4,393.7 694.2,393.7 694.2,426.1 670.8,357.5 				"/>
				<polygon id="I_00000155106524008958364160000000554330150170093459_" class="st10" points="590.1,358 625.2,358 625.2,394.2 
					619.7,394.2 619.7,475.3 625.2,475.3 625.2,510.4 590.1,510.4 590.1,475.1 595.5,475.1 595.5,394 590.1,394 				"/>
				<polygon id="L_00000003102131515770707080000017196687503516158900_" class="st10" points="509.2,357 509.2,393.2 514.3,393.2 
					514.3,475.8 509.2,475.8 509.2,511.5 575,510.4 575,466 553.6,466.4 553.6,475.1 539.3,475.1 539.3,393.5 544.2,393.7 
					544.2,357.6 				"/>
				<polygon id="T_00000176750799815929683390000010054625752962497425_" class="st10" points="420.6,353.9 420.6,400.1 
					440.8,400.1 440.8,391.5 445.7,391.7 445.7,477 439.5,477.1 439.5,513.9 475.3,512.5 475.3,476.3 469.9,476.5 469.9,392.2 
					474.2,392.4 474.2,401 494.9,401.1 494.9,356.6 				"/>
				<polygon id="S_00000086678267124918541930000001129053282623181489_" class="st10" points="354.4,350 390.6,352.2 404.9,377.9 
					404.9,411 380.7,411 380.7,395.1 376.8,390.1 367.4,389.8 364,395.9 364,410.2 367.4,416.3 390.4,416.3 404.9,441.4 
					404.9,490.5 390.3,516.3 354.4,518.6 339.9,492.7 339.9,460.1 364,459.5 364,474.1 367.4,479.3 376.8,479 380.7,472.1 
					380.7,457.8 376.8,452.7 353.9,453.5 339.9,426.9 339.9,377 				"/>
				<polygon id="E_00000006669169744249299570000012728564503127097517_" class="st10" points="264,384.7 268.8,384.9 268.8,483.6 
					264.1,483.9 264,525.5 324.7,520.8 324.7,473.9 304.9,474.6 304.9,481.9 291.6,482.5 291.7,453 295.7,453 295.9,462.1 
					313.1,461.6 313.3,407.4 295.5,406.7 295.5,416 291.1,416 291.7,386.1 305.4,386.9 305.4,394.5 324.7,395.1 324.7,347.8 
					264,342.8 				"/>
				<path id="R_00000169531513897133594360000000177712090332524461_" class="st10" d="M244.6,484.9v-42.1l-5.4-11l5.4-11.3v-49.9
					l-12.8-29.4l-48.3-5.1v44.3l4.3,0.3v107.6l-4.9,0.3v45l31.9-3.5v-43.7l-4.6,0.3v-34.2h8.7l3.6,6.9v70l26.6-2.7l0.2-42.1
					L244.6,484.9z M222.9,403.8l-3.5,5.7h-9.7v-27.3l8.9,0.7l4.3,4.4V403.8z"/>
				<polygon id="W_00000034087020172671993090000014328759623451440794_" class="st10" points="59,369.3 65.5,370.4 78.1,496.7 
					75,497 75,548.4 110.4,542.7 110.4,494.2 107.1,494.3 114.5,444.3 119.4,493.3 116.3,493.7 116.1,541.9 154.6,537.2 
					154.6,490.8 150.8,491 165.8,380 170.7,380.5 170.7,333 140,329.1 140,377.3 143.6,377.7 135.4,442.1 127,375.5 130.1,375.8 
					130.1,327.8 97.9,323.2 98.2,372.5 101.6,372.8 93.1,442.1 85,371.4 89.1,371.8 89.1,322.1 59,317.5 				"/>
			</g>
		</g>
	</g>
	<g id="Bulldogs_Text">
		<g id="Bulldogs_Text_Dark">
			<path id="S_00000004546339839368448630000007185927902318700204_" class="st11" d="M966.7,173.5c2.8-12,5.8-23.9,8.4-34.4
				c7.4-26.2,23.9-40.7,36.6-40.8c6.1,0,70.8,0,70.8,0l-11,54.2h-40l3.1-13.3h-20.4l-6.6,27.3h29.6c22.2,0.8,27.3,13.5,22.2,35.6
				c0,0-5.9,24.4-7.7,32.3c-6.3,25.5-20.1,37.5-36.1,37.4c-22.9,0.3-33.8,0-45.1,0c-10.9,0-17.3,0-25.2,0.2
				c1.8-7.2,10.7-46.8,12.7-54.7l37.4,0.2l-4.1,17.3h22.6l7.4-31c0,0-23.7,0.5-29.6,0.5C966.7,203.6,964.1,184.7,966.7,173.5z"/>
			<path id="G_00000103238432996447080360000018154697045117432737_" class="st11" d="M932.8,271.5c-26.5,0.3-60.8,0-71.3,0
				c-11.2,0-25.5-5.3-18.1-37.5c7.6-30,15.8-66.7,23.1-95c7.2-29.8,21.9-40.2,31.6-41.2c12.7-0.5,56.6,0.5,77.4,0.5
				c-9.9,38.9-13.5,51-13.5,51l-38.9-0.5l2.6-9.9h-20.4l-23.1,95.5h20.9l7.4-32.1h-10.2l9.4-36.9l48.6,0.8L932.8,271.5z"/>
			<path id="O_00000088134212774854240650000013587612055927786681_" class="st11" d="M837.3,98.1c-20.7,0-43.8,0.5-49.7,0.5
				c-12.7,0.2-23.7,7.2-31.5,40.3c-7.2,28.2-15.5,65.4-23.1,95.2c-8.1,31.6,7.9,37.2,18.1,37.4c11.4,0.2,22.2,0.3,45.1,0
				c16,0.2,29.8-12,36.1-37.4c7.1-30.3,16.1-67.7,23.2-95.2C861,117.8,852.9,98.1,837.3,98.1z M792.7,234.4h-20.9l23.1-95.5h20.4
				L792.7,234.4z"/>
			<path id="D_00000006702405924172587300000017815303812820839838_" class="st11" d="M727.1,98.6c-20.9,0-75.7,0-82.2,0l-9.7,40.3
				h8.4l-23.1,95.5h-9.1l-7.7,37c0,0,58.8,0.3,81.8,0c16.1,0.2,30-10.5,36.2-36.2c7.2-30.5,16.8-68.5,23.4-96.3
				C750.2,118.7,742.8,98.6,727.1,98.6z M679.2,234.4h-20.9l23.1-95.5h20.4L679.2,234.4z"/>
			<path id="L_00000056386102673885029660000007111918231088763037_" class="st11" d="M531.4,98.6c6.4,0,59.9,0,59.9,0l-10,40.3
				h-9.9L550,234.4h15l5.8-28.8l36.7-0.3l-14.3,66.2H492.2l7.7-37h10.7l21.4-95.5h-10L531.4,98.6z"/>
			<path id="L_00000034054033382589050580000004397263983453981603_" class="st11" d="M423,98.6c6.4,0,56.6,0,56.6,0l-8.4,40.3h-10
				l-21.4,95.5h15l5.8-28.8l35.1-0.3l-14.3,66.2H380.4l9.4-37h10.7l23.1-95.5h-10.2L423,98.6z"/>
			<path id="U_00000057116293265474259200000017225705484017856917_" class="st11" d="M292.8,98.6l-11,40.3h10.9
				c0,0-18.6,73.9-24.2,101.6c-2.6,12.7,0.5,31.1,14.5,31.1c14.2,0,42.3,0,56.3,0c23.4,0,30-29.6,30-29.6l25.2-102.9h8.9l9.4-40.3
				h-49.2L331,234.6h-20.1l31.6-136H292.8L292.8,98.6z"/>
			<path id="B_00000025430119880610519190000016050450327695027076_" class="st11" d="M253.9,98.4c-29.8,0.3-85,0-85,0l-9.6,40.5
				h10.9l-22.9,95.5h-11l-9.7,36.4c0,0,62.4,1,85.1,0.7c21.9,0.2,30.5-14.7,33.9-26.7c1.2-5.3,8.7-36.1,10-41.2
				c3.5-11.4,0.7-19.4-13.7-21.9c14.7,0.2,19.3-2.3,22.1-12.7c2.3-7.9,5.8-20.9,7.9-30.1C277,119.2,278.4,99.6,253.9,98.4z
				 M208.3,234.4h-20.1l7.2-31.8l20.1-0.3L208.3,234.4z M223.6,169.4h-20.3l7.4-30.5h20.4L223.6,169.4z"/>
		</g>
		<g id="Bulldogs_Text_Light_00000131368841772057814070000001757261180452183474_">
			<path id="S" class="st12" d="M957.2,164.4c2.8-12,5.8-23.9,8.4-34.4c7.4-26.2,23.9-40.7,36.6-40.8c6.1,0,70.8,0,70.8,0l-11,54.2
				h-40l3.1-13.3h-20.6l-6.6,27.3h29.6c22.2,0.8,27.3,13.5,22.2,35.6c0,0-5.9,24.4-7.7,32.3c-6.3,25.5-20.1,37.5-36.1,37.4
				c-22.9,0.3-33.8,0-45.1,0c-10.9,0-17.3,0-25.2,0.2c1.8-7.2,10.7-46.8,12.7-54.7l37.4,0.2l-4.1,17.3h22.6l7.4-31
				c0,0-23.7,0.5-29.6,0.5C957.2,194.7,954.5,175.6,957.2,164.4z"/>
			<path id="G" class="st12" d="M923.2,262.6c-26.5,0.3-60.8,0-71.3,0c-11.2,0-25.5-5.3-18.1-37.5c7.6-30,15.8-66.7,23.1-95
				c7.2-29.8,21.9-40.2,31.6-41.2c12.7-0.5,56.6,0.5,77.4,0.5c-9.9,38.9-13.5,51-13.5,51l-38.7-0.5l2.6-9.9h-20.4l-23.1,95.5h20.9
				l7.4-32.1H891l9.4-36.9l48.4,0.7L923.2,262.6z"/>
			<path id="O" class="st12" d="M827.7,89.2c-20.7,0-43.8,0.5-49.7,0.5c-12.7,0.2-23.7,7.2-31.5,40.3c-7.2,28.2-15.5,65.4-23.1,95.2
				c-8.1,31.6,7.9,37.2,18.1,37.4c11.4,0.2,22.2,0.3,45.1,0c16,0.2,29.8-12,36.1-37.4c7.1-30.3,16.1-67.7,23.2-95.2
				C851.5,108.8,843.4,89.2,827.7,89.2z M783.1,225.5h-20.9l23.1-95.5h20.4L783.1,225.5z"/>
			<path id="D" class="st12" d="M717.6,89.7c-20.9,0-75.7,0-82.2,0l-9.7,40.3h8.4l-23.1,95.5H602l-7.7,37c0,0,58.8,0.3,81.8,0
				c16.1,0.2,30-10.5,36.2-36.2c7.2-30.5,17-68.5,23.5-96.3C740.6,109.8,733.2,89.7,717.6,89.7z M669.7,225.5h-20.9l23.1-95.5h20.4
				L669.7,225.5z"/>
			<path id="L" class="st12" d="M521.8,89.7c6.4,0,59.9,0,59.9,0l-10,40.3h-9.9l-21.4,95.5h15l5.8-28.8l36.7-0.3l-14.3,66.2H482.6
				l7.7-37h10.7l21.4-95.5h-10L521.8,89.7z"/>
			<path id="L_00000005961750670012436270000000948459104063206293_" class="st12" d="M413.3,89.7c6.4,0,56.6,0,56.6,0l-8.4,40.3
				h-10l-21.6,95.5h15l5.8-28.8l35.1-0.3l-14.3,66.2H370.5l9.4-37h10.7l23.1-95.5h-10L413.3,89.7z"/>
			<path id="U" class="st12" d="M283,89.7L272.2,130H283c0,0-18.6,73.9-24.2,101.6c-2.6,12.7,0.5,31.1,14.5,31.1
				c14.2,0,42.3,0,56.3,0c23.4,0,30-29.6,30-29.6L384.5,130h8.9l9.4-40.3h-49.2l-32.6,135.8h-20.1l32.1-135.8H283z"/>
			<path id="B" class="st12" d="M244.3,89.5c-29.8,0.3-85,0-85,0l-9.6,40.5h10.9l-22.9,95.5h-11l-9.7,36.4c0,0,62.4,1,85.1,0.7
				c21.9,0.2,30.5-14.7,33.9-26.7c1.2-5.3,8.7-36.1,10-41.2c3.5-11.4,0.7-19.4-13.7-21.9c14.7,0.2,19.3-2.3,22.1-12.7
				c2.3-7.9,5.8-20.9,7.9-30.1C267.4,110.1,268.9,90.7,244.3,89.5z M198.7,225.5h-20.1l7.2-31.8l20.1-0.3L198.7,225.5z M214.1,160.5
				h-20.3l7.4-30.5h20.4L214.1,160.5z"/>
		</g>
	</g>
</g>
</svg>
