<?xml version="1.0" encoding="utf-8"?>
<!-- Generator: Adobe Illustrator 26.0.1, SVG Export Plug-In . SVG Version: 6.00 Build 0)  -->
<svg version="1.1" id="Banner_00000002370928143762477440000003144886751426026925_"
	 xmlns="http://www.w3.org/2000/svg" xmlns:xlink="http://www.w3.org/1999/xlink" x="0px" y="0px" viewBox="0 0 5184 3456"
	 style="enable-background:new 0 0 5184 3456;" xml:space="preserve">
<style type="text/css">
	.st0{fill:#010101;}
	.st1{fill:#FFFFFF;stroke:#010101;stroke-miterlimit:10;}
	.st2{fill:#FFFFFF;}
	.st3{fill:#3A3B3A;stroke:#989898;stroke-miterlimit:10;}
	.st4{fill:#B0B0B0;stroke:#231F20;stroke-miterlimit:10;}
	.st5{fill:#989898;}
	.st6{fill:#333333;}
	.st7{fill:#191919;}
</style>
<g id="Background_00000092454181532816580240000017887235835523703961_">
	<rect id="Background" class="st0" width="5184" height="3456"/>
</g>
<g id="BD_Wrestling_Logo">
	<g id="Banner">
		<g id="Wrestling_Club_Text_White_00000114035843102221130390000001570001571695375794_">
			<path id="B_00000103962049014372268210000006778784270000339089_" class="st1" d="M4745.3,1224.4l-41.8-150.7l-171.7,28.4v194.7
				l14.4-1.4v481l-14.4-1.4V1970l171.7,30.5l41.8-149.8v-277.4l-18.9-50.9l18.9-61V1224.4z M4671.4,1762.3l-18.2,26.3l-30.7-6V1623
				l30.7-3.3l18.2,28.4V1762.3z M4671.4,1398.3l-18.2,20.4h-30.7V1290l30.7-4.8l18.2,27.8V1398.3z"/>
			<polygon id="U_00000083078328289521939890000007822644742349672359_" class="st1" points="4220,1142.2 4220,1322.8 
				4237.6,1321.4 4237.6,1811.1 4286,1937.4 4417.8,1953.7 4464.4,1830.8 4464.4,1303.7 4482.5,1300.7 4480.6,1108.4 4365.1,1126.1 
				4365.1,1309.5 4381.8,1308.5 4381.4,1733 4368.3,1762.9 4335,1760.2 4323.1,1733 4323.7,1314.6 4340.2,1312.6 4340.2,1127.9 			
				"/>
			<polygon id="L_00000162321025484193656840000007212174267994729644_" class="st1" points="3941.6,1167.4 3941.6,1336.5 
				3961.1,1335.1 3961.1,1737.1 3941.6,1736.4 3941.6,1901.4 4178.1,1924.5 4178.1,1698.4 4101.1,1693.7 4101.1,1741.9 
				4052.5,1738.5 4052.5,1333 4068.4,1331.7 4068.4,1155.2 			"/>
			<polygon id="C_00000001652175279307829240000012980046832427844241_" class="st1" points="3689.3,1188.4 3630.5,1305.2 
				3630.5,1769.7 3685.4,1880.4 3830.9,1891.3 3882.7,1776.1 3882.7,1625.8 3791.3,1624.5 3791.3,1708.6 3775.6,1725 3737,1722.9 
				3725.2,1703.8 3725.2,1368.4 3733.1,1358.7 3776.9,1349.3 3791.3,1363.6 3791.3,1461.4 3882.7,1461.4 3882.7,1294.4 
				3828.5,1177.6 			"/>
			<polygon id="G_00000025414205515153821670000004167688629574799253_" class="st1" points="3203.1,1216.3 3354,1209.5 
				3410.8,1312.6 3410.8,1462.1 3311.7,1464.7 3311.7,1384 3301.1,1365.7 3255.4,1367 3244.9,1384 3244.9,1693 3254.7,1709.3 
				3301.1,1710.6 3311.7,1693 3311.7,1633.7 3288.1,1633 3288.1,1500.2 3410.8,1500.9 3410.8,1757.6 3356.5,1863.3 3203.1,1856.5 
				3147.6,1751.4 3147.6,1320.9 			"/>
			<polygon id="N_00000095318972303003396170000010359365383045620140_" class="st1" points="2756.1,1228.5 2756.1,1374.5 
				2775.1,1373.8 2775.1,1700.4 2756.1,1700.4 2756.1,1842.4 2896.5,1844.4 2896.5,1700.4 2873.7,1700.4 2873.7,1576.9 
				2962.1,1847.1 3082.9,1850.4 3082.9,1705.9 3062,1705.2 3062,1371.1 3082.9,1370.4 3082.9,1220.4 2945,1224.4 2945,1372.5 
				2963.9,1372.5 2963.9,1503 2871,1226.5 			"/>
			<polygon id="I_00000155106524008958364160000000554330150170093459_" class="st1" points="2550.2,1228.5 2689.5,1228.5 
				2689.5,1374.5 2667.8,1374.5 2667.8,1701.1 2689.5,1701.1 2689.5,1842.4 2550.2,1842.4 2550.2,1700.4 2571.7,1700.4 
				2571.7,1373.8 2550.2,1373.8 			"/>
			<polygon id="L_00000003102131515770707080000017196687503516158900_" class="st1" points="2228.7,1224.4 2228.7,1370.4 
				2249,1370.4 2249,1703.2 2228.7,1703.2 2228.7,1847.1 2490.1,1842.4 2490.1,1663.8 2405.2,1665.1 2405.2,1700.4 2348.3,1700.4 
				2348.3,1371.8 2367.9,1372.5 2367.9,1227.2 			"/>
			<polygon id="T_00000176750799815929683390000010054625752962497425_" class="st1" points="1876.6,1212.2 1876.6,1398.3 
				1956.9,1398.3 1956.9,1363.6 1976.5,1364.3 1976.5,1707.9 1951.6,1708.6 1951.6,1856.6 2094.1,1851.2 2094.1,1705.2 
				2072.5,1705.9 2072.5,1366.4 2089.5,1367 2089.5,1401.7 2171.9,1402.3 2171.9,1223.1 			"/>
			<polygon id="S_00000086678267124918541930000001129053282623181489_" class="st1" points="1613.7,1196.6 1757.5,1205.4 
				1814.4,1308.6 1814.4,1442.3 1718.2,1442.3 1718.2,1377.9 1702.6,1358.1 1665.4,1356.8 1651.7,1381.1 1651.7,1439 1665.4,1463.5 
				1756.9,1467.5 1814.4,1564.6 1814.4,1762.2 1756.2,1866.1 1613.7,1875.6 1556.2,1771.1 1556.2,1640.1 1651.7,1637.4 
				1651.7,1696.4 1665.4,1717.4 1702.6,1716.1 1718.2,1688.4 1718.2,1630.5 1702.6,1610.1 1611.5,1609.4 1556.2,1506.2 
				1556.2,1305.2 			"/>
			<polygon id="E_00000006669169744249299570000012728564503127097517_" class="st1" points="1254.3,1336.4 1273.4,1337.1 
				1273.4,1734.4 1255,1735.8 1254.3,1903.5 1495.5,1884.5 1495.5,1695.7 1417,1698.4 1417,1727.6 1364,1730.3 1364.7,1611.5 
				1380.5,1611.5 1381.1,1648.2 1449.7,1646.1 1450.4,1427.5 1379.8,1424.8 1379.8,1462.1 1362.2,1462.1 1364.7,1341.8 1419,1345.2 
				1419,1375.9 1495.5,1377.9 1495.5,1187.8 1254.3,1167.4 			"/>
			<path id="R_00000169531513897133594360000000177712090332524461_" class="st1" d="M1177.2,1739.8v-169.8l-21.7-44.3l21.7-45.4
				v-200.9l-51.1-118.3l-192-20.4v178.6l17,1.4v433.4l-19.6,1.4v181.3l126.8-14.3v-175.9l-18.4,1.4v-137.9h34.7l14.3,27.7v282
				l105.9-10.9l0.7-169.8L1177.2,1739.8z M1090.9,1413.2l-13.7,23.1h-38.6v-110.2l35.3,2.7l17,17.8V1413.2z"/>
			<polygon id="W_00000034087020172671993090000014328759623451440794_" class="st1" points="440,1274 465.3,1276.9 515.8,1787.4 
				503.4,1788.7 503.4,1995.8 643.9,1972.7 643.9,1777.2 630.9,1777.9 660.3,1576.2 679.9,1773.8 667.5,1775.1 666.8,1969.3 
				819.7,1950.3 819.7,1763.6 804.7,1764.3 864.2,1317.2 883.8,1319.3 883.8,1128 761.6,1112.4 761.6,1306.5 775.9,1307.8 
				743.3,1567.4 709.9,1299.1 722.4,1300.4 722.4,1107 594.3,1088.6 594.3,1286.9 609.3,1288.3 575.3,1567.4 543.3,1282.8 
				559.6,1284.2 559.6,1083.9 440,1065.5 			"/>
		</g>
		<path id="White_Banner_Rim" class="st2" d="M274.5,2228.1l0-17.4c-0.7-395.4-0.7-1149,0-1322l0.1-17.2l16.8,3.6
			c771,163.8,1546.6,214.6,2211.9,214.6c350.9,0,671-14.1,943.7-33.2c447.1-31.4,816.5-79.2,1047.7-113.8
			c250.5-37.5,397-67.9,398.5-68.2l16.9-3.5V2226l-17-3.7c-1.5-0.3-148-32.2-398.5-71.4c-231.1-36.2-600.5-86.1-1047.6-118.7
			c-270.7-19.8-588.4-34.3-936.4-34.3c-666.9,0-1445.2,53.5-2219,226.4L274.5,2228.1z M302.4,906c-0.6,197.8-0.6,899.8,0,1287.2
			c516.9-114.3,1078.2-185.7,1668.6-212.1c477.4-21.4,974.8-13.5,1478.4,23.3c448.1,32.7,818.2,82.8,1049.8,119
			c202.4,31.7,337.2,58.6,382.7,68V905.2c-45.3,9-180.2,34.7-382.8,65.1c-231.6,34.7-601.7,82.6-1049.8,114
			c-503.6,35.3-1001,43.1-1478.4,23C1380.6,1082.4,819.4,1014.7,302.4,906z"/>
	</g>
	<g id="Bulldogs_Text">
		<g id="Bulldogs_Text_Dark">
			<path id="S_00000004546339839368448630000007185927902318700204_" class="st3" d="M4046.7,485.5c11.1-48.4,22.9-96.2,33.4-138.6
				c29.4-105.5,94.9-163.8,145.3-164.5c24.2,0,281.3,0,281.3,0l-43.8,218.2h-159l12.4-53.7h-81.1L4209,457h117.8
				c88.3,3.3,108.6,54.4,88.3,143.3c0,0-23.6,98.2-30.8,130c-24.9,102.8-79.8,151.2-143.3,150.6c-90.9,1.3-134.1,0-179.3,0
				c-43.2,0-68.7,0-100.1,0.7c7.2-29.2,42.5-188.4,50.4-220.2l148.5,0.7l-16.4,69.6h89.6l29.4-124.7c0,0-94.2,2-117.8,2
				C4046.7,606.9,4036.3,530.6,4046.7,485.5z"/>
			<path id="G_00000103238432996447080360000018154697045117432737_" class="st3" d="M3911.9,880.1c-105.3,1.3-241.4,0-283.3,0
				c-44.5,0-101.4-21.2-72-151.2c30.1-120.7,62.8-268.6,91.6-382.7c28.8-120.1,87-161.8,125.6-165.8c50.4-2,225.1,2,307.5,2
				c-39.3,156.5-53.7,205.6-53.7,205.6l-154.4-2l10.5-39.8h-81.1l-91.6,384.7h83.1l29.4-129.3h-40.6l37.3-148.6l193,3.3
				L3911.9,880.1z"/>
			<path id="O_00000088134212774854240650000013587612055927786681_" class="st3" d="M3532.5,181.7c-82.4,0-174,2-197.6,2
				c-50.4,0.7-94.2,29.2-125,162.5c-28.8,113.4-61.5,263.3-91.6,383.4c-32.1,127.3,31.4,149.9,72,150.6c45.1,0.7,88.3,1.3,179.3,0
				c63.5,0.7,118.4-48.4,143.3-150.6c28.1-122,64.1-272.6,92.3-383.4C3626.7,261.3,3594.6,181.7,3532.5,181.7z M3355.1,730.9h-83.1
				l91.6-384.7h81.1L3355.1,730.9z"/>
			<path id="D_00000006702405924172587300000017815303812820839838_" class="st3" d="M3094.7,183.7c-83.1,0-301,0-326.5,0
				l-38.6,162.5h33.4l-91.6,384.7h-36l-30.8,149.2c0,0,233.6,1.3,325.2,0c64.1,0.7,119.1-42.4,143.9-145.9
				c28.8-122.7,66.7-275.9,92.9-388C3186.3,264.6,3156.9,183.7,3094.7,183.7z M2904.3,730.9h-83.1l91.6-384.7h81.1L2904.3,730.9z"/>
			<path id="L_00000056386102673885029660000007111918231088763037_" class="st3" d="M2316.8,183.7c25.5,0,238.2,0,238.2,0
				L2515,346.2h-39.3l-85.1,384.7h59.5l22.9-116.1l145.9-1.3l-56.9,266.6h-401.1l30.8-149.2h42.5l85.1-384.7h-39.9L2316.8,183.7z"/>
			<path id="L_00000034054033382589050580000004397263983453981603_" class="st3" d="M1886.3,183.7c25.5,0,225.1,0,225.1,0
				L2078,346.2h-39.9L1953,730.9h59.5l22.9-116.1l139.4-1.3l-56.9,266.6h-401.1l37.3-149.2h42.5l91.6-384.7h-40.6L1886.3,183.7z"/>
			<path id="U_00000057116293265474259200000017225705484017856917_" class="st3" d="M1368.7,183.7l-43.8,162.5h43.2
				c0,0-73.9,297.8-96.2,409.2c-10.5,51.1,2,125.4,57.6,125.4c56.3,0,168.2,0,223.8,0c92.9,0,119.1-119.4,119.1-119.4l100.1-414.5
				h35.3l37.3-162.5h-195.6l-128.9,547.2h-79.8l127.9-547.9H1368.7L1368.7,183.7z"/>
			<path id="B_00000025430119880610519190000016050450327695027076_" class="st3" d="M1214.3,183c-118.4,1.3-337.6,0-337.6,0
				l-37.9,163.2h43.2L791,730.9h-43.8l-38.6,146.6c0,0,248,4,338.3,2.7c87,0.7,121-59,134.8-107.4c4.6-21.2,34.7-145.3,39.9-165.8
				c13.7-45.8,2.6-78.3-54.3-88.2c58.2,0.7,76.6-9.3,87.7-51.1c9.2-31.8,22.9-84.2,31.4-121.4C1305.9,266.6,1311.8,187.7,1214.3,183
				z M1033.1,730.9h-79.8l28.8-128l79.8-1.3L1033.1,730.9z M1093.9,468.9h-80.5l29.4-122.7h81.1L1093.9,468.9z"/>
		</g>
		<g id="Bulldogs_Text_Light_00000131368841772057814070000001757261180452183474_">
			<path id="S" class="st4" d="M4008.8,449c11.1-48.4,22.9-96.2,33.4-138.6c29.4-105.5,94.9-163.8,145.3-164.5
				c24.2,0,281.3,0,281.3,0l-43.8,218.2h-159l12.4-53.7h-81.8l-26.2,110.1h117.8c88.3,3.3,108.6,54.4,88.3,143.3
				c0,0-23.6,98.2-30.8,130c-24.9,102.8-79.8,151.2-143.3,150.6c-90.9,1.3-134.1,0-179.3,0c-43.2,0-78.8,0-110.2,0.7
				c7.2-29.2,44.7-188.4,52.6-220.2l156.5,0.7l-16.4,69.6h89.6l29.4-124.7c0,0-94.2,2-117.8,2C4008.8,571,3998.3,494.1,4008.8,449z"
				/>
			<path id="G" class="st4" d="M3874,844.3c-105.3,1.3-241.4,0-283.3,0c-44.5,0-101.4-21.2-72-151.2
				c30.1-120.7,62.8-268.6,91.6-382.7c28.8-120.1,87-161.8,125.6-165.8c50.4-2,225.1,2,307.5,2c-39.3,156.5-53.7,205.6-53.7,205.6
				l-153.8-2l10.5-39.8h-81.1l-91.6,384.7h83.1l29.4-129.3h-40.6l37.3-148.6l192.4,2.7L3874,844.3z"/>
			<path id="O" class="st4" d="M3494.5,145.9c-82.4,0-174,2-197.6,2c-50.4,0.7-94.2,29.2-125,162.5
				c-28.8,113.4-61.5,263.3-91.6,383.4c-32.1,127.3,31.4,149.9,72,150.6c45.1,0.7,88.3,1.3,179.3,0c63.5,0.7,118.4-48.4,143.3-150.6
				c28.1-122,64.1-272.6,92.3-383.4C3588.7,224.8,3556.7,145.9,3494.5,145.9z M3317.2,695.1h-83.1l91.6-384.7h81.1L3317.2,695.1z"/>
			<path id="D" class="st4" d="M3056.8,147.9c-83.1,0-301,0-326.5,0l-38.6,162.5h33.4l-91.6,384.7h-36l-31.8,150.1
				c0,0,234.7,0.4,326.3-0.9c64.1,0.7,119.1-42.4,143.9-145.9c28.8-122.7,67.4-275.9,93.6-388
				C3148.4,228.8,3118.9,147.9,3056.8,147.9z M2866.4,695.1h-83.1l91.6-384.7h81.1L2866.4,695.1z"/>
			<path id="L" class="st4" d="M2278.8,147.9c25.5,0,238.2,0,238.2,0l-39.9,162.5h-39.3l-85.1,384.7h59.5l22.9-116.1l145.9-1.3
				l-56.9,266.6h-402.6l31.4-149.2h43.4l85.1-384.7h-39.9L2278.8,147.9z"/>
			<path id="L_00000005961750670012436270000000948459104063206293_" class="st4" d="M1847.7,147.9c25.5,0,225.1,0,225.1,0
				l-33.4,162.5h-39.9l-85.7,384.7h59.5l22.9-116.1l139.4-1.3l-56.9,266.6h-401.1l37.3-149.2h42.5l91.6-384.7h-39.9L1847.7,147.9z"
				/>
			<path id="U" class="st4" d="M1330.1,147.9l-43.2,162.5h43.2c0,0-73.9,297.8-96.2,409.2c-10.5,51.1,2,125.4,57.6,125.4
				c56.3,0,168.2,0,223.8,0c92.9,0,119.1-119.4,119.1-119.4l98.8-415.2h35.3l37.3-162.5h-195.6l-129.5,547.2h-79.8l127.6-547.2
				H1330.1z"/>
			<path id="B" class="st4" d="M1176.4,147.2c-118.4,1.3-337.6,0-337.6,0l-37.9,163.2H844L753,695.1h-43.8l-38.6,146.6
				c0,0,248,4,338.3,2.7c87,0.7,121-59,134.8-107.4c4.6-21.2,34.7-145.3,39.9-165.8c13.7-45.8,2.6-78.3-54.3-88.2
				c58.2,0.7,76.6-9.3,87.7-51.1c9.2-31.8,22.9-84.2,31.4-121.4C1268,230.1,1273.9,151.9,1176.4,147.2z M995.1,695.1h-79.8l28.8-128
				l79.8-1.3L995.1,695.1z M1056,433.1h-80.5l29.4-122.7h81.1L1056,433.1z"/>
		</g>
	</g>
	<g id="BD-Body">
		<path id="Sillowette" class="st0" d="M4026.3,3086.8c-7.5-8.4-9.1-19.2-9.2-30.3c-0.2-29.2-7.3-56.9-18.7-83.4
			c-13.2-31-30.9-58.3-58.7-78.8c-22.4-16.5-31-42.9-39.3-68.5c-5.9-18.5-10.4-37.5-20-54.5c-33.1-58.9-80.9-102.4-139.3-134.1
			c-30-16.3-61-30.9-91.7-45.9c-14.3-6.9-24.9-16.5-31.8-31.5c-24.6-53.8-61.2-97.7-108-133.2c-15.8-12-32.6-22.4-49.7-33.4
			c10.8-10.2,23.6-10.7,36.4-10.9c21.3-0.2,42.6,3.2,64,0.7c35.7-4.1,52.3-37.5,34.1-68.9c-5.3-9.1-11.4-17.6-18.9-24.9
			c-50.7-49.4-110.8-71.7-181-62.3c-44.1,5.9-78,28.2-99.4,68.5c-7.5,14.2-7.4,14.3-21.4,7.6c-129.3-61.1-259.2-121.3-384.8-190.1
			c-3.3-1.8-6-3.9-8.4-6.9c-44.3-57.3-95.7-107.2-154.3-149.3c-120.5-86.5-252.8-126.9-400.9-102.6c-50.6,8.3-98.8,23.9-140.7,55.4
			c-2.6,2-5,1.7-7.6,1.3c-18.6-2.7-36.5,0.6-53.9,6.9c-41.4,15.1-72.2,42.6-92.6,82.2c-1.4,2.7-1.7,6.1-6.9,5.4
			c-18.2-2.4-36.5-2.1-54.8-1.1c-5.2,0.3-9.2-1-13.1-4.7c-36.4-34.7-79.9-45.6-128.4-38.6c-34.5,5-66.1,18.6-96.8,34.5
			c-24.5,12.7-47.4,27.9-65.2,49.8c-8.5,10.4-15.5,21.6-16.6,35.4c-1.8,23.9,14.4,41.1,41.9,46.1c11.6,2.1,23.4,1.5,36,2.4
			c-1.9,3.3-3.2,5.6-4.6,8c-11,19.4-20.3,39.7-23.3,61.9c-1.7,12.8-6.9,18.2-18.5,22.6c-35,13-59.2,37.2-67.7,75.2
			c-4,17.7-3.5,35.6-0.3,53.4c1.1,6.5-0.7,9.6-6.9,12.4c-38.5,17.5-58,53.2-51.6,95.4c1.8,12.2,2.6,23.3-2.8,34.7
			c-1.8,3.8-2.3,8.3-2.9,12.6c-3.2,24,5.3,44.2,20.3,62.2c7.8,9.3,7.7,9.1-1.7,17.1c-5.1,4.3-10.2,8.9-14.9,13.7
			c-40.1,41.2-43.6,103.7-7.6,147.2c5.6,6.8,5.8,11.2,1.1,17.9c-4.1,5.7-7.1,12.2-10,18.7c-37,84.4-42.9,171.7-21.1,260.7
			c8.3,34.1,23.7,65,55,84.3c4,2.5,1.8,5.2,1.3,8c-7.5,39.7-4.8,78.6,8.4,116.8c9.6,27.9,28.1,45.4,56.7,52
			c28,6.4,56.3,6.1,84.6,4.9c20.8-0.9,41-4.9,60.3-13.5c8.3-3.7,14.1-14.7,22.1-13.8c8.2,0.9,15.8,8.6,24.3,12.1
			c48.3,19.7,98.3,21.7,149.2,14.2c25.6-3.7,49.1-14.5,72.4-24.6c26.5-11.5,42.3-33,43-63.5c0.5-19.9-7.1-37.5-17.5-53.7
			c-33.1-51.6-78.1-88.9-134.3-111.4c-24.9-10-50.9-19.8-78.3-6.1c-0.8-13.9,0.4-27,5.4-39.6c4.9-12.5,13.9-19,27.1-19.8
			c15.5-0.9,30.3,2.2,45,6.8c42.8,13.3,83.7,32.1,126.2,46.2c51.6,17.2,103.9,31.3,158.2,36.2c58.4,5.3,116.3-0.4,173.7-11.9
			c34.6-7,68.7-16.3,102.3-27.9c0.6,1.3,0.9,1.6,0.8,1.9c-0.4,4.6-1.1,9.2-1.3,13.8c-2.2,36.9,9.3,67.6,40.8,88.3
			c20.7,13.6,44,17,68.3,16.2c21.3-0.7,41.7-8.4,64.3-1.3c23.9,7.6,46.6-3.6,66.6-18c3-2.1,5.2-4.4,9.7-2.3c9,4.2,18.8,5.4,28.6,4.5
			c6-0.5,8.9,0.4,7.6,7.7c-0.9,5.1-0.4,10.5,0,15.7c4.1,53.4,42,92.7,89.3,89.8c4.6-0.3,5.4,2.6,6.9,5.7
			c11.1,22.9,29.2,36.6,53.7,41.9c16,3.4,32.2,3.4,48.3,2.1c52.3-4.2,104.5-9.5,156.9-11.6c31.4-1.2,62.8-1.5,94.1,2.3
			c20,2.5,38.9,9.9,58.9,12.6c25.7,3.4,51.1,3.7,76-4.3c50-16.1,65.2-61.7,60.3-105.7c-3.9-35.2-23.5-60.8-52-80.1
			c-3.8-2.6-6.6-4-5-9.9c18.6-67.4,18.3-135.5,7.1-204c-2-12.1-4.2-24.3-6.6-38.3c24.9,17.5,48.3,32.9,72.4,47.4
			c38.9,23.5,79.7,39.4,125.9,38.8c36.1-0.5,71.9-3.5,107.4-9.3c3.1-0.5,6.3-2.6,8.6,1.9c9.8,19.1,19.7,38.1,29.9,57.8
			c-18.6,3.4-35.8,7.5-52.1,14.4c-2.9,1.2-5.3-0.2-8-0.8c-33.2-7.3-66.5-12.2-100.7-7.7c-38.2,4.9-65.2,26.1-72.6,61.5
			c-11.3,54.2-0.3,104.4,31.6,149.3c19.8,27.8,46.9,43.9,81.4,40.2c15.9-1.7,29.8-0.3,45.2,4.5c40.6,12.7,79.5,4.1,115.6-17.8
			c4.9-2.9,7.4-2.9,11.3,1.1c6.5,6.6,14.2,11.5,22.5,15.7c30.5,15.4,62.7,16.9,95.5,11c51.4-9.3,96.9-30.4,133-69.9
			C4051.5,3169.2,4051.8,3115.3,4026.3,3086.8z M2932.5,3000.5c-3,0.8-5.4,0.2-7.3-2.3c-1.3-1.7-2.7-3.4-3.9-5.1
			c-11.2-15.8-10.8-17.7,5.2-27.5c23.8-14.5,46.2-30.9,65.6-51.2c1-1,2.2-1.8,4.2-3.4c3.5,31.1,2.4,61.7,8.3,92.9
			C2980.5,2996.1,2956.7,2993.7,2932.5,3000.5z"/>
		<g id="Gray_Parts">
			<g id="Leg_and_Paw_Parts">
				<path id="Leg_and_Paw" class="st5" d="M1846,3096.2c0.5-0.4,1-0.7,1.3-1.1c17.6-25.4,27.7-29.3,57.4-22.2
					c41.6,10,75.8,33.1,106.6,62c18.4,17.3,35.1,36.2,45.6,59.7c13.6,30.4,1.9,57.1-29.2,67.6c-4.1,1.4-6.6,0.6-9-3.1
					c-23.7-37.1-52.9-69.3-85.9-98.1c-11.1-9.7-22.7-18.7-35.5-26c-3.2-1.8-6.5-3.3-10-4.5c-3.1-1.1-6.9-2.7-9.3,0.8
					c-2.5,3.7,0.8,6.5,3,8.7c10.3,10.1,20.6,20.2,31.2,30c30.9,28.8,58.1,60.7,79.9,97.3c3.3,5.6,3.5,8.2-3.5,9.6
					c-48.9,10.1-97.4,10.3-145.3-5.3c-19.3-6.3-35.4-16.9-47.6-34.1c-11.2-15.7-22.8-31.4-36.6-45c-2.1-2.1-4.5-5.9-7.3-4.3
					c-3.5,1.9-1.3,6-0.3,9c6.2,19.4,15,37.8,23.9,56.1c3.9,7.9,1.7,12-5.1,15.5c-12.4,6.4-25.7,9.7-39.4,11
					c-29.5,2.9-59,3.1-88.3-2.7c-19.2-3.8-32.4-14.8-38.6-34c-13.3-41.7-16.7-83.6,0.7-124.9c10.5-25,29.4-39.6,57.3-40.2
					c5.1-0.1,10.1-0.8,15.9-1.3c-21.3-17.9-54.3-16.8-76.5,2c-6.4,5.4-12.1,11.4-16.2,18.7c-2.9,5.1-5.2,5.3-9.5,1.6
					c-17.2-14.7-27.9-33.9-33.5-55.2c-23.8-90.1-18.2-177.9,23.4-262.1c5.8-11.6,6.1-11.5,18-6.5c17.2,7.2,35.3,9.6,53.6,9.7
					c5.9,0,8.4,1.5,10,7.4c21.2,81.8,98.8,139,173.5,146.3c12.3,1.2,24.4,0.3,36.4-1.4c2.8-0.4,5.1-0.8,7.3,1.9
					c6.2,7.6,12.7,14.9,19.4,22.6c-5.9,2.3-11.8,3.9-17.1,6.6c-16.4,8.3-25.1,22.9-29.9,40.2c-7.4,26.8-4.5,53.2,4.4,79.2
					C1842.3,3090.6,1843.1,3094.1,1846,3096.2z"/>
				<path id="Paw_Part" class="st5" d="M2621.7,3128.8c-23.8,3.5-46.1,3.3-66.6-8.6c-27.4-16-34.4-46.6-28.6-76.6
					c0.8-3.9,3-4.1,5.9-3.7c21.7,3.3,43.5,5.4,65.4,5.7c4.4,0.1,5.7,1.9,5.2,6.3C2600,3079.2,2605.6,3104.6,2621.7,3128.8z"/>
				<path id="Paw_Part_00000005254885933849666250000003107378698027715492_" class="st5" d="M3625.1,3038.5
					c-55.1,41.8-70.3,135.6-33.3,192.1c-16.1,2-29.6-3.2-41.3-13.1c-16.6-14.1-26.7-32.6-33.7-53.1c-8.5-25.1-12.8-50.8-9.4-77.4
					c3.7-29.5,17.7-45.1,46.5-50.4C3577.2,3032.2,3600.4,3034.1,3625.1,3038.5z"/>
				<path id="Paw_Part_00000147220389038550254280000011505495240346232962_" class="st5" d="M2740.2,3071.2
					c0.6-37.7,0.7-37.3,34.4-44.8c35.7-8,70-20.6,103.3-36c6.1-2.8,9.8-3.6,12,4.1c0.9,3.2,2.5,6.6,4.7,8.9
					c7.6,8.1,6.6,14.2-2.1,21.1c-9,7.2-14.1,17.7-17.4,28.8c-1.3,4.3-3.2,5.7-7.4,6.2c-31.3,4-55.1,20-71.3,47.3
					c-2.1,3.6-4.4,5.3-8.3,6.1c-7.9,1.6-15.8,1.9-23.6,0.8c-13.3-1.9-21.7-12.9-23.5-30.1
					C2740.3,3078.6,2740.3,3073.6,2740.2,3071.2z"/>
				<path id="Paw_Part_00000129177242370734486720000006181314005343418518_" class="st5" d="M2630.1,3065.2c0-19.5,0-19,18.4-20.3
					c20-1.4,40.1-3.1,60-5.8c7.1-0.9,6.7,1.6,6,6.7c-2.5,17.5-2.9,35,1.5,52.4c0.4,1.5,0.7,3,1.2,4.5c5,14.9,5,14.9-8.9,22
					c-36.7,18.6-73.1-3.5-77.6-47.3C2630.4,3073,2630.3,3068.7,2630.1,3065.2z"/>
			</g>
			<g id="Chest">
				<path id="Chest_Part" class="st5" d="M2262.9,3051.5c-50.1,0.9-98.3-9-146.1-22.1c-53.9-14.8-104.8-38.2-157.8-55.5
					c-25.4-8.3-45.3-23-63.9-41.2c-6.1-6-4.3-8.4,2.5-11.2c24.3-9.9,49.9-13.6,75.5-17.2c5.1-0.7,10.5-0.6,15.4-2
					c27.8-7.8,52.6,4.3,78.1,11.6c39.9,11.4,80.3,20.2,121.1,27.2c4.5,0.8,6.6,2.3,8.2,6.8c8.3,23.3,18.6,45.7,32,66.4
					C2237.3,3028.9,2246.8,3043.2,2262.9,3051.5z"/>
				<path id="Chest_Part_00000064354729281083990970000012564295147744032405_" class="st5" d="M2274.9,3052.2
					c30.4-20.7,33.8-54.3,44.1-85.1c41.6,24.1,85.7,42.1,133.7,56.5C2393.4,3040.6,2335.4,3050.2,2274.9,3052.2z"/>
			</g>
			<path id="Tail" class="st5" d="M3521.7,2354.9c-17.3-1.1-34.6-2.1-51.8,1.5c-12.9,2.8-24.2,8.4-32.8,18.6c-2.9,3.4-4.9,4-9.1,2
				c-36.2-17.5-72.5-34.9-109-52c-5.7-2.6-6.2-5.1-3.8-10.4c15.1-34.2,41.7-53.7,77.2-59.5c63.7-10.4,118.2,10,164.1,55.1
				c5.7,5.6,10.5,12.1,14.1,19.3c6.4,12.7,0.6,23.7-13.4,25.4c-6,0.7-12.2,0.8-18.2,0.8C3533.2,2355.7,3527.4,2355.2,3521.7,2354.9z
				"/>
			<path id="Body" class="st5" d="M4002.1,3101.2c-10.6-11.8-13.1-27.5-13.3-43.3c-0.4-32.8-10.1-63.2-25-92
				c-10.2-19.7-23.9-35.9-41.7-49.5c-26.2-20-38.3-49.7-48.1-80.3c-6-18.7-10.5-38-20.6-55.3c-27.6-47.5-66.3-83.8-112.6-111.6
				c-34.3-20.6-71-36.9-106.9-54.5c-17.2-8.4-31.5-20-39.5-38.2c-31.9-72-84.9-123.9-152.5-160.7c-60.7-33.1-124-60.6-186.4-90.2
				c-104.3-49.4-208.8-98.5-311.5-151.3c-7.1-3.7-14.3-7.4-21.4-11.1c-1.3,2.9,0,4,0.7,5.2c37.4,61.3,63.5,127.1,76.2,198.1
				c2.1,11.8,4.6,23.9,1.8,36.5c-4.7-2.1-5.2-6.1-6.4-9.4c-5.7-14.9-11.3-29.9-16.7-45c-48.9-136.1-124.5-253.2-236.9-344.5
				c-76.5-62.1-160.7-106.8-258.3-123.3c-64.6-10.9-128.7-9-192.1,8.3c-24.8,6.8-48.6,16.1-70.9,29c-1.8,1-9.3,2.1-2.5,6.8
				c15.9,10.9,31.8,21.8,47.9,32.4c15,9.9,31.3,14.4,49.5,12.4c16.4-1.8,32.9-1.9,49.3,0.9c26,4.4,39.5,24.1,34.8,50.1
				c-1.8,9.9-5.6,18.8-10.2,27.6c-1.3,2.5-5.4,4.7-2.9,7.9c3.1,3.9,6.1-0.2,8.7-1.6c19.8-10.1,39.2-21.4,61-26.8
				c19.5-4.9,28.1,3.5,24.2,23.3c-3.8,19.3-11.6,37.1-19.9,54.5c-2.6,5.4-2.2,8.5,2.1,12.5c51.9,48.6,95.3,104.1,132.2,165
				c2.5,4,5.1,5.2,9.6,4.8c13.1-1.1,26.1-2.4,39.2-2.5c16.1-0.1,32.4-0.8,48,4.6c9.7,3.4,12.4,11.8,7,20.7
				c-3.5,5.8-8.2,10.7-13.1,15.4c-12,11.4-24.8,22-38.4,31.4c-6.8,4.7-8,8.2-4.3,16.1c31.8,68.4,56,139.4,69.5,213.9
				c0.9,5.2,3,8.4,8,11.1c18,9.8,35.9,19.9,50.9,34.3c13.1,12.5,11.1,23.3-5.5,30.2c-13.9,5.7-28.5,8.8-43.3,11.1
				c-4.6,0.7-6.5,2.4-7.2,7.5c-9.2,69.6-41.7,126.3-93.8,171.9c-5.2,4.5-5.3,8.2-3.5,14.2c6.2,21.1,11.1,42.4,10,64.7
				c-0.9,17.4-9.4,23.6-26.1,19c-3.8-1-7.6-2.3-11.2-3.9c-20.1-8.3-38.8-19.4-56.8-31.5c-4.5-3-8.1-3.6-13.3-1.4
				c-28.2,11.9-57.4,20.4-87.1,27.1c-26.2,5.9-52.7,8.3-82,10.8c4.3,2.6,6,3.8,7.9,4.7c63.6,32.4,130.9,51.8,201.8,58
				c51.5,4.5,102.9,2.8,154.1-5.4c75.5-12,146.7-35.7,211.5-77.5c23.5-15.2,45.1-32.8,61-56.6c2.1-3.2,4.5-6.2,3.6-10.9
				c-3.4-17.6-7.9-34.7-14.6-51.4c-16.8-41.9-77.4-61.2-111.8-16c-2.6,3.4-5.6,6.6-8,10.1c-18.7,27.3-45,35.2-76.1,30.3
				c-21.7-3.4-37-16.2-48.7-34.3c-1.6-2.5-3.7-5.8-0.9-8.4c2.4-2.2,5.2,0.1,7.5,1.4c8.2,4.7,16.5,9.4,24.5,14.5
				c25.1,16.1,60.3,5,74.4-17.6c3.9-6.2,8.8-11.8,13.6-17.4c32.7-38,73-41.8,115.9-16.2c26.2,15.6,37.3,42.3,45,70.6
				c11.1,40.8,12.4,83,14.9,124.9c1.5,26.3,4.4,52.2,14,77.1c13.3,34.6,34.9,63.5,59.7,90.2c3.2,3.4,6.7,6.5,9.3,12.7
				c-3.1-1.3-4.4-1.7-5.7-2.4c-36.3-20.3-63.9-49.1-82.9-86.4c-1.7-3.3-3.3-6.4-6.9-8.2c-20.2-10.5-41.3-16.9-64.2-13.6
				c-19.2,2.8-35.4,10.9-45.9,28.4c-2.5,4.2-2.4,5.8,3,7.4c17.5,5.2,32.7,15,46.4,27c3.8,3.3,8.2,6.5,8.8,12.4
				c-3.2,1.9-5.9,0.7-8.8-0.3c-7.2-2.5-14.4-5-21.6-7.3c-23.4-7.3-47.3-10.2-71.2-3.5c-25.3,7.1-41.6,24.5-47.4,50.3
				c-6.3,27.7,0.3,52.7,20.3,73.3c7.7,8,17.5,12.2,28.2,14.2c5.3,1,8.5,0.3,8-6.8c-0.5-7,0.4-14.2,1.1-21.2
				c4.7-53.2,52.5-72.3,94.5-55.5c4.9,2,9.9,4,14.5,9.8c-7-0.7-12.3-1.6-17.7-1.6c-23.5-0.2-46.5,1.6-58.4,26.9
				c-13.4,28.4-8.6,55.4,8.2,80.6c6.4,9.6,16.8,14,27.9,16.2c16.3,3.3,32.8,2.2,49.2,0.8c54.4-4.6,108.7-10.1,163.3-11.5
				c41.5-1,82.7-0.3,123.3,11.5c22.3,6.5,45.4,8.4,68.8,5c29.2-4.2,48.9-20.3,54.9-46.8c8.2-36.2-2.5-65.6-31.4-88.5
				c-5-4-7-4-10.6,1.9c-12,19.6-27.6,36-46.2,49.5c-3.1,2.2-7,6.3-10.5,3.3c-3.8-3.2,0.1-7.4,2-10.7c3.6-6.4,7.6-12.7,11.6-18.9
				c23-35.9,36.1-75.4,41.8-117.5c8.9-66.2,2-131.3-13.9-195.7c-24.1-97.6-66.4-186.8-123.1-269.1c-3-4.4-6.4-8.6-6.9-15.1
				c5.1,1,8.1,3.4,11.2,5.9c14.6,11.9,26.3,26.6,37.5,41.7c43.7,58.5,74.5,123.7,97.1,193c1.5,4.7,3.1,8.9,7.5,12.1
				c28.7,21,57.6,41.6,88.2,59.6c23.2,13.6,46.4,27.4,73,33.2c29.3,6.4,58.8,5,88.3,2.8c25.2-1.8,50.3-5.3,75.1-10.2
				c7.2-1.4,11.3,0.7,14.9,7.8c16,32,32.7,63.5,49.1,95.3c6.7,13,6.6,13.1-8,13.2c-28.1,0.3-54.9,6.3-80.4,18.6
				c-53.3,25.8-70.5,75-65.2,128.1c2.5,25.4,12.5,47.2,36.7,57.9c36.8,16.3,72,9,105.7-10.6c4.1-2.4,3.1-5.1,1.4-8.5
				c-5.2-10.6-8.3-21.9-10.4-33.4c-10-54.3,12-94.2,61.8-111.7c10.7-3.7,21.6-6.5,33-6.1c2.1,0.1,4.8,0.4,5.3,2.7
				c0.6,2.6-2,3.5-3.9,4.3c-5.6,2.5-11.3,4.6-16.8,7.3c-30.7,15.3-51,38.4-53.7,74.7c-3.4,46,22.4,84.6,63.3,93.8
				c16.8,3.8,33.7,4.9,50.9,2.4c46.5-6.8,87.7-24.5,121.6-58.4C4018.9,3165.2,4024,3125.7,4002.1,3101.2z"/>
			<g id="Head">
				<path id="Chin" class="st5" d="M1909.8,2687.4c-51.6,6.9-104.5,6.2-152.5,32.4c-25.1,13.7-51,26.5-79.2,33
					c-23.7,5.5-47.4,6.5-71.5,1.3c-48.5-10.4-70.7-60.5-56.1-105c17.8-54.5,74.1-80.6,129.6-60.5c17,6.2,17,6.2,4.1,18.9
					c-25.9,25.7-37.4,51.1-41.6,93.1c5.2-6.6,7.8-13.6,11.1-20.1c8.9-17.3,17.9-34.5,29.7-49.9c16.9-22.1,39.2-33.5,66.9-34.5
					c33-1.2,64,7,94.1,19.5c42.5,17.7,84.9,36,128.7,49.9c46.8,14.8,94.8,19.5,143.3,6.8c11.2-2.9,21.4-8.3,32.5-13.6
					c1.2,25.8,3.5,50.6,9.2,75c8.3,35.8,21.4,69.6,42.9,99.4c5.6,7.7,3.3,9.5-4,12.4c-23.8,9.4-48.9,12.8-74,15.6
					c-50.3,5.5-100.7,9.5-151,15.2c-33.3,3.8-66.1,9.9-96.9,24.9c-30.8,14.9-62.4,11.3-93.2-0.8c-51.6-20.3-88.4-55.7-106.8-109.6
					c-2.5-7.3-1.6-10.1,6.6-11.5c12.9-2.2,25.6-6,37.3-11.9c5.9-3,9.6-1.7,14.4,2.3c27.4,22.2,57.9,36.1,96.3,34.2
					c-14-8-26.7-14-38.3-21.8c-12.2-8.2-23.9-17-34.8-27c-4.9-4.6-5.8-6.8,0.7-11.3c31.2-21.6,65.5-33.6,102.7-38.3
					c12.7-1.6,25.3-3.8,37-9.5c4.6-2.3,9.3-4.5,12.5-9C1909.7,2687.3,1909.8,2687.3,1909.8,2687.4z"/>
				<path id="Cheek" class="st5" d="M2304.2,2457.5c-8.6-23.5-24.1-40.6-37.9-59.3c5.8-1.4,9.5,2.4,12.9,4.4
					c60.1,36.6,117.5,76.6,162.1,132.5c26.7,33.4,45.8,70.5,50.6,114.1c7.2,66.1-17.2,114.1-75.5,145
					c-55,29.1-114.3,39.3-175.8,39.5c-5.8,0-7.9-3.7-10.6-7.2c-26.4-34.8-41.8-74.3-49-117.3c-6.1-35.9-5.2-71.9-1.3-108
					c5.6-52.4,3.7-104.3-14.1-154.5c-11-31-29.3-56.1-60-70c-32-14.5-65.5-7.3-89.2,18.8c-2.5,2.7-5.3,5.4-6.9,8.6
					c-15.4,31.5-42.1,39.3-74.1,37.5c-15.2-0.9-30.4-0.6-45.7,0.2c-24.8,1.4-43.5,12.3-57.2,32.9c-5.1,7.7-11.1,14.8-15.9,22.7
					c-21.6,35.5-64.4,29-85.8-0.1c-20.8-28.3-19.3-69.1,4.1-99c16.3-20.8,37.3-34.3,63.6-38.4c15.3-2.4,29.7,1.9,44.1,5.7
					c13.2,3.5,26.3,7.8,40,9.3c20.6,2.3,39.2-1.5,53.9-18.2c13.6-15.4,27.8-30.3,40.8-46.3c35.6-43.6,89.6-60,146.3-20.9
					c39.6,27.4,73.6,60.8,106.8,95.5c21,22,42.1,43.9,63.2,65.7C2295.9,2453.1,2298.3,2456.1,2304.2,2457.5z"/>
				<path id="Upper_Lip" class="st5" d="M1632.4,2492.9c-6,0.2-15.6-1.9-25.2-5.6c-19-7.2-28.8-20.3-28.3-41.3
					c0.6-24.1,10.5-42.7,30.8-55.5c3-1.9,4.8-2.9,6.8,1.4c15.9,34.3,44.2,52.9,78.8,63.3c4.4,1.3,5.8,11,1.6,15.6
					c-3.1,3.3-6.8,6.2-10.7,8.5C1670.9,2488.4,1654.4,2493,1632.4,2492.9z"/>
				<path id="Eye_Lid" class="st5" d="M1972.9,2204.7c15.6-17,29.6-32.4,49.2-41.1c14.8-6.6,29.7-6,44.5-1
					c8.9,3,13.9,10.7,17.2,19.3c8.4,21.5,6,42.3-4.1,62.6c-1.9,3.8-4.5,4.5-8.7,4.8c-10.7,0.7-17.8-1.7-23.3-12.9
					c-8.6-17.3-24.2-27.3-43.1-31.1C1994.8,2203.2,1984.8,2204.6,1972.9,2204.7z"/>
				<path id="Forehead" class="st5" d="M1930.4,2039.1c-17.8,15.2-31,30.8-40.6,49.3c-1.8,3.5-3.1,7.2-5.4,12.5
					c6.3-2.6,8.5-6.7,11.3-9.9c29.8-34.1,67.3-52,111.9-55.6c6.4-0.5,8.9,1.2,8.1,7.8c-0.4,3-0.1,6.2,0.6,9.2
					c1.6,6.6,3.6,13.1,5.6,20.3c4.4-5.9,4.8-12.5,6.6-18.5c15.3-50.7,47.7-86.2,95-107.5c32.4-14.5,63.6-9.6,92.8,10.3
					c12.9,8.8,25.5,18,38.7,26.3c18.7,11.8,39.1,16.2,61.2,14.2c14.2-1.3,28.6-2,42.9,0.6c12.8,2.4,16.4,8.2,12.8,21.1
					c-6.1,21.6-20.8,36.1-39.9,45.9c-30.8,15.8-62.6,18.1-95.5,6.3c-22-7.9-44.7-8.8-67.4-2.5c-3.7,1-7.7,2-10.3,6.8
					c5.8,2.8,11.9,2.2,17.6,2.3c19.4,0.3,35.6,9.7,52.2,18.2c2.8,1.4,3,3.4,3,6c-1.3,45.6,23.1,78.6,52.5,109
					c21.6,22.4,47.6,39.5,71.2,59.5c39.5,33.3,63.2,76.2,72,127.4c1,5.8,3.1,10.5,6.4,15c26.5,35.4,39.7,76,45.1,119.6
					c0.2,1.4-0.1,2.8-0.3,5.9c-19.9-28.3-42-52.5-66.5-74.4c-43.9-39.3-92.6-71.3-143.5-100.3c-16.7-9.5-33.2-19.7-51.1-26.9
					c-14.7-5.9-25.5-16.6-37-26.6c-13.2-11.5-26.7-22.5-41.2-32.3c-14.4-9.8-29.6-18.1-46.1-24.4c14.4-21,17.1-43.5,11.3-67.5
					c-8.4-35.1-31.3-48.8-67.7-45.8c-30,2.5-50.7,22.3-70.1,43.2c-25.4,27.3-44.8,59.4-69.3,87.4c-22.1,25.3-45.9,48.7-75.1,65.7
					c-9.6,5.6-20.3,2.3-30.2,4.8c-3.1,0.8-4.6-3.6-6.2-6.1c-20.1-31.6-22-72,11.2-106.5c14.7-15.3,31.5-28.3,44.4-45.3
					c8.7-11.5,16.7-23.3,19.8-37.9c-17.9,30.3-46.4,49.4-71.5,72.2c-10.7,9.7-20.5,20.3-27.9,32.9c-14,23.6-13.2,48.1-3.4,74.4
					c-41.2-13.2-81.3-15.4-121.5,3.2c-1.4-27.8,7.2-50.3,28.4-67.2c4.1-3.2,8.5-6,13-8.5c13.2-7.5,23-6,33.7,5
					c3.4,3.5,6.3,7.4,10.3,12.1c1.8-7.3,1.1-13.7,0.4-19.8c-5.2-50.8,12.7-93.5,45.6-130.3c35.2-39.3,81-60.4,130.3-74.7
					C1908.1,2042.6,1917.6,2039.1,1930.4,2039.1z"/>
				<path id="Ear" class="st5" d="M1923.7,2009.6c-20.3,5.1-38.8,9.6-56.8,16.2c-41.7,15.4-80,36.2-112,67.9c-2,2-3.9,4-6.8,4.5
					c-19.1,2.8-38.2,4.8-57.2,0.3c-16.4-3.9-19.9-13.4-10.7-28c8.7-13.8,20.6-24.4,33.9-33.2c36-23.9,74.6-42,117.4-48.6
					C1863.9,1983.7,1894.5,1989,1923.7,2009.6z"/>
			</g>
		</g>
		<g id="White_Parts">
			<g id="Spikes">
				<path id="Spike_00000041292950597516356200000002455401688892479400_" class="st2" d="M2306.1,2918.6
					c-1.5,32.4-8.2,63.6-21.1,93.4c-1.2,2.8-2.6,5.6-4.2,8.2c-9.2,15.5-13.8,16-25,1.5c-22.1-28.5-37.3-60.7-47-95.5
					c-4.6-16.6,0.3-29,15-37.9c20.4-12.4,42.3-15,65.1-8.1c11,3.3,16.4,11,16.4,22.7C2305.2,2908.1,2305.8,2913.3,2306.1,2918.6z"/>
				<path id="Spike_00000064318660959273555340000011029414718169988529_" class="st2" d="M2609.7,2926.1c0.4,10.8-0.7,12-10.4,7.2
					c-34.6-17-67.3-37.2-95.9-63.5c-12.2-11.1-13.1-20.2-4.7-34.3c9.8-16.2,23.5-28.2,40.6-35.9c16.3-7.3,21.9-5.6,32.4,9.1
					c11,15.4,18,32.8,23.8,50.7C2602.6,2881.1,2608.5,2903.1,2609.7,2926.1z"/>
				<path id="Spike_00000111175258037863882070000006061723647397937026_" class="st2" d="M2757,2646c-13.3,5.9-27.4,8.1-41.4,10.4
					c-35.2,5.8-70.6,10.1-106.4,8.7c-14.1-0.6-21.5-5.8-25.8-19.2c-5.8-18.3-5.1-36.6,1.7-54.4c5.4-14.2,11.3-17.3,26.1-14.9
					c21.2,3.4,41.1,10.8,60.7,19.4c27.1,11.9,53.5,25.3,77.6,42.8C2752.2,2640.7,2755.2,2642.3,2757,2646z"/>
				<path id="Spike" class="st2" d="M2679.1,2305.6c-8.2,9.7-16.6,16.3-24.9,22.9c-28.4,22.3-57.6,43.5-89.5,60.4
					c-16.6,8.8-26,6.9-38.7-7.2c-9.5-10.6-15.1-23.1-17-37.2c-1.1-8.7,1.5-15.3,10.3-19.4c22.8-10.5,47.1-14.3,71.5-17.3
					C2619.5,2304.2,2648.2,2303,2679.1,2305.6z"/>
				<path id="Spike_00000098943791795790263770000007251386862308892862_" class="st2" d="M2462.9,2045
					c-7.2,30.7-20.1,56.7-34.7,82.1c-9.3,16.3-19.8,31.8-33.3,45c-10.1,9.9-21.1,11.2-33.4,5.4c-15.8-7.5-27.4-19.2-34.7-35.2
					c-4.4-9.6-2.8-17.7,4.9-25.1c12.6-12,27.4-20.5,42.2-29c25.6-14.8,51.1-29.9,79-40C2455.6,2047.1,2458.5,2046.3,2462.9,2045z"/>
			</g>
			<g id="Teeth">
				<path id="Lower_Big_Teeth" class="st2" d="M2154.3,2472.6c10,42.3,10.6,83.4,7.5,125c-2.6,35-19.1,48.6-53.1,57.5
					c-37.4,9.9-75.1,6.8-112.2-2.4c-46.9-11.6-90.5-32.5-135.2-50.2c-21.8-8.6-43.7-17.1-66.9-21.3c-3-0.5-18.2-1.6-18.2-1.6
					c9.4-1.9,18.4-21.6,24.3-31.7c7.5-13.9,12-10.9,17.5-4.4c8.8,9.9,13.1,17.3,21,26.9c13.2,15.9,22.9,18.8,39.8-7.6
					c8.1-12.4,15.4-26,22.7-37.3c4.7-6.5,10.6-3.6,17,2.9c10.3,10.5,19.2,22.4,31.2,31.2c15,10.9,23.7,9.3,33.8-6.6
					c9.5-14.8,20.3-31.8,28.7-47.2c0.4-0.8,0.7-1.7,1.2-2.5c7.8-11.6,10.5-9.2,16.8-2.3c15.2,15.5,19.8,22.1,30.6,33.8
					c28.7,31.3,29.1,25.9,51.3-6c15.5-23.4,21.4-31.8,37.5-50.9C2150.8,2476.6,2152,2475.3,2154.3,2472.6z"/>
				<path id="Upper_Big_Teeth" class="st2" d="M1929.4,2458.9c11,0,22,0.7,32.9-0.1c24.1-1.8,42.5-13.7,55.5-34.3
					c5.9-9.4,12.4-18.3,21.3-25.1c30-22.8,65.3-9.4,86.4,14.5c9.6,10.9,15.4,24.3,21.3,37.5c1.6,3.6,1.2,6.2-1.3,9.2
					c-17,20.2-30.1,39-49.1,63.8c-6.3,8.8-8.5,16.2-15.7,11c-15.1-13.3-28.6-29-41.6-45.2c-15.1-17.6-24.3-14.4-33.5-2.1
					c-8.9,16.5-20.3,33-30.2,50.5c-8.5,16.9-8.6,16.6-23.1,5c-9.7-7.7-19.3-19.9-28.1-28.4c-18.2-17.6-21.5-14.6-32.6,0.4
					c-8.9,13-18.2,30.4-27.5,43.7c-4.2,5.8-8.3,9.1-12.6,5.9c-10.5-12.3-13.7-16.4-24-29.4c-3.5-4.2-5.5-7-12.7-11.4
					c2.9-1.4,16.1-11.3,28.7-33.4c13.4-22.5,32.5-32.3,57.8-31.4c9.4,0.3,18.9,0,28.3,0C1929.4,2459.3,1929.4,2459.1,1929.4,2458.9z
					"/>
				<path id="Small_Tooth" class="st2" d="M1579.1,2491.3c16,12.2,33.7,19.2,55,19.7c-9.8,2.3-20.4,27.8-27.5,41.1
					c-7.1,12.2-9.6,9.1-16.8,2.3C1573.6,2537.6,1569.6,2513.1,1579.1,2491.3z"/>
				<path id="Small_Tooth_00000176745456225691667590000008746361511290254734_" class="st2" d="M1684.2,2569.6
					c11.9-2.7,16.5-19.3,27.3-32.8c8.7-11.3,14.6-7.2,20.1,3.1c6.5,12.3,16.1,34.3,24.7,38.1c-4.4-0.3-2.8-0.6-13.2-0.1
					c-8.5,0.4-16.8,2.7-24.6,6.2c-2.7,1.2-4.6,0.4-6.7-1C1704,2578.3,1693.8,2573.6,1684.2,2569.6z"/>
				<path id="Small_Tooth_00000010275980468834045570000004816705062781485477_" class="st2" d="M1644.4,2511.4
					c23.3-2.3,43.1-9.5,60.7-22.5c0.4,0.3,0.7,0.4,0.8,0.6c4.3,7.4,10.9,19.2,16.6,25.8c-5.2,0.5-11.7,6-17.2,12.1
					c-5.3,5.9-11.2,17.2-16.3,24.4c-4.8,8.4-10,10.7-17.9-3.8C1658.9,2527.5,1651.1,2513.4,1644.4,2511.4z"/>
				<path id="Small_Tooth_00000161626082163409758430000011821844150332903344_" class="st2" d="M1736.8,2525.5
					c22.9,15.4,47.8,11.5,59.5,7.8c-3.5,2.2-12.2,18.8-17.8,28c-2.5,4-8.2,9.2-12,9.1c-4.1-0.1-7.7-6.4-10.8-11.3
					C1749.1,2548.2,1741.6,2530.2,1736.8,2525.5z"/>
				<path id="Small_Tooth_00000131366063733043193380000002377201516829066120_" class="st2" d="M1669.1,2565.1
					c-16.6-3.7-38.3-8.2-56.2-2.7c4.1-2.1,16.7-38.9,23.9-40.1C1646.2,2517.6,1664.9,2562.5,1669.1,2565.1z"/>
			</g>
			<g id="Eye">
				<path id="Eye_White" class="st2" d="M1986.8,2222.2c20.7,0,35.4,7.7,45.7,23.8c1.7,2.7,3.7,5.5-1.5,6.8
					c-34.2,8.5-57.8,31.6-78.6,58.5c-8.2,10.6-13.3,16.3-21.4,24.5c7.4-22-23.2-36.7-35.1-35.4c5.1-5.3,11.2-11.6,21.6-24.6
					c8.5-10.5,17.1-21.1,24.6-32.2c7.8-13.2,19.6-17.5,33-20.1C1979.6,2222.6,1984.2,2222.5,1986.8,2222.2z"/>
				<path id="Eye_White_Small" class="st2" d="M1873.9,2335.8c6.5,0.1,11.2,2.9,12.5,9.8c1.3,6.6-2.1,10-8.6,8.9
					c-2.4-0.4-4.8-0.8-7.1-1.6c-4-1.5-9.6-1.3-8.8-8.3C1862.6,2338.8,1866.9,2335.6,1873.9,2335.8z"/>
			</g>
		</g>
		<path id="Collar" class="st6" d="M2320.4,2100.9c-17.3,16.3-17.8,34.6-8,53.7c9.7,18.9,24.6,33,44.2,40.9
			c18.6,7.5,35.8,4.6,50.6-9.9c6.2-6,11.8-12.5,16.8-19.5c5.1-6.9,10.2-13.9,14.4-21.4c3.3-5.9,5.7-6.3,10.5-1.5
			c41.5,41,78.8,85.5,110.1,135.1c2.7,4.3,8.6,8.4,6.9,13.3c-1.6,4.4-8.6,2.9-13.1,4.1c-13.8,3.6-27.6,7.2-40.9,12.7
			c-15.6,6.5-23.8,20.9-21.3,37.7c2.3,15.6,7.6,29.7,17.1,42.3c15.8,20.8,37.5,34.5,69.2,14.8c10.4-6.4,21-12.5,31.2-19.1
			c5.2-3.3,7.9-3.6,10.9,3.1c24,54.4,44.6,110,57.7,168.2c1.4,6,3.5,11.8,4.7,17.8c0.9,4.5,0.2,7.1-5.7,4.8
			c-17.6-7.1-35.6-12.9-54-17.9c-31.9-8.6-49.2,3.8-57.1,35.4c-5.3,21.4-5,42.8,4.5,63.3c7.4,16,19.9,24.5,37.5,24.7
			c22.3,0.3,44.5,0.5,66.6-3.2c2.7-0.4,5.5-0.2,8.2-0.5c5.2-0.4,6,2,5.1,6.8c-7.7,41.4-24.2,78.6-50.9,111
			c-7.8,9.5-16.3,18.3-25.3,26.7c-5.7,5.3-8.2,3.7-10.9-2.5c-4.6-10.4-10.3-20.3-17.7-29c-13.9-16.3-24.5-19.8-44.3-12.3
			c-23.5,8.8-42.6,24.2-55,46.3c-13.2,23.7-10.9,39.1,10.8,58.9c6.1,5.6,6.2,7.1-2.1,10.2c-38.5,14.2-78,23.4-118.9,27.1
			c-13.4,1.2-26.8,1.4-40.2,1.9c-5.4,0.2-8.5-0.7-8.1-7.4c0.4-6.4-0.2-13-1.3-19.4c-3.6-21.5-7.9-26.2-34.1-38
			c11.1-2,20.9-3.9,30.8-5.6c52.2-8.8,101.4-25.1,143.7-58.9c33.3-26.7,52-61.6,55.5-104.1c2.6-31.2,1.6-62.3-10.3-92.1
			c-1.7-4.2-1.4-8.9-1.2-13.6c3.2-64.2-9.3-124.4-45.3-178.4c-5.6-8.4-8.6-17.2-10.6-27c-12.8-61.9-47.2-109-97.2-145.6
			c-31.4-22.9-61.2-47.7-81.8-81.7c-7.5-12.5-13.2-25.7-13.6-40.6c-0.1-2.8-0.5-6.1,3.7-5.9C2282,2107.3,2301,2106.2,2320.4,2100.9z
			 M2183.8,2912.6c4.2,0.9,5.1-1.2,5.8-4.9c2.9-15.3,11.5-26.4,24.2-35c7.6-5.1,16.6-7.1,24.5-11.8c-8.4-2.8-15.2-0.2-22.1,4.3
			c-9.1,5.9-19.3,10.3-29.8,12.9c-28.6,7.1-57.7,10.7-87.1,14.7C2127,2901.7,2155.6,2906.5,2183.8,2912.6z"/>
		<path id="Nose_Tip" class="st7" d="M1702.8,2427.9c0,0-61.7-4.9-65.9-71.7c-0.4-6.7,63-43,127.3-3
			C1708.5,2382.8,1702.8,2427.9,1702.8,2427.9z"/>
	</g>
</g>
</svg>
