<?xml version="1.0" encoding="utf-8"?>
<!-- Generator: Adobe Illustrator 26.0.1, SVG Export Plug-In . SVG Version: 6.00 Build 0)  -->
<svg version="1.1" id="Banner_00000002370928143762477440000003144886751426026925_"
	 xmlns="http://www.w3.org/2000/svg" xmlns:xlink="http://www.w3.org/1999/xlink" x="0px" y="0px" viewBox="0 0 5184 3456"
	 style="enable-background:new 0 0 5184 3456;" xml:space="preserve">
<style type="text/css">
	.st0{fill:#010101;}
	.st1{fill:#010101;stroke:#010101;stroke-width:5;stroke-miterlimit:10;}
	.st2{fill:none;stroke:#FFFFFF;stroke-width:28;stroke-miterlimit:10;}
	.st3{fill:#FFFFFF;stroke:#010101;stroke-miterlimit:10;}
	.st4{fill:#3A3B3A;stroke:#989898;stroke-miterlimit:10;}
	.st5{fill:#B0B0B0;stroke:#231F20;stroke-miterlimit:10;}
	.st6{fill:#989898;}
	.st7{fill:#FFFFFF;}
	.st8{fill:#333333;}
	.st9{fill:#191919;}
</style>
<g id="Background_00000092454181532816580240000017887235835523703961_">
	<rect id="Background" class="st0" width="5184" height="3456"/>
</g>
<g id="BD_Wrestling_Logo">
	<g id="Banner">
		<path id="Banner_Background" class="st1" d="M323.7,969.1v1161.1c0,0,1923.1-463.8,4534.4,0.8c0,0,0-754,0-1155.8
			C2245,1397.4,323.7,969.1,323.7,969.1z"/>
		<path id="Banner_Border" class="st2" d="M258.1,888.9c-0.7,171.7-0.7,929,0,1321.6c2314-510.1,4669.7-2,4669.7-2V888.3
			C4927.7,888.3,2572.1,1373.9,258.1,888.9z"/>
		<g id="Wrestling_Club_Text">
			<g id="Wrestling_Club_Text_White_00000114035843102221130390000001570001571695375794_">
				<path id="B_00000103962049014372268210000006778784270000339089_" class="st3" d="M4775,1224.5l-42.4-150.6l-174,28.4V1297
					l14.6-1.4v480.9l-14.6-1.4V1970l174,30.5l42.4-149.7v-277.4l-19.1-50.9l19.1-61V1224.5z M4700.1,1762.3l-18.5,26.3l-31.1-6
					v-159.5l31.1-3.3l18.5,28.4V1762.3z M4700.1,1398.3l-18.5,20.4h-31.1v-128.6l31.1-4.8l18.5,27.8V1398.3z"/>
				<polygon id="U_00000083078328289521939890000007822644742349672359_" class="st3" points="4242.6,1142.3 4242.6,1322.8 
					4260.5,1321.5 4260.5,1811.1 4309.5,1937.4 4443.1,1953.7 4490.3,1830.8 4490.3,1303.8 4508.7,1300.8 4506.8,1108.5 
					4389.7,1126.2 4389.7,1309.6 4406.6,1308.6 4406.2,1733 4393,1762.9 4359.2,1760.2 4347.1,1733 4347.8,1314.7 4364.4,1312.7 
					4364.4,1128.1 				"/>
				<polygon id="L_00000162321025484193656840000007212174267994729644_" class="st3" points="3960.5,1167.5 3960.5,1336.6 
					3980.3,1335.2 3980.3,1737.1 3960.5,1736.4 3960.5,1901.4 4200.1,1924.5 4200.1,1698.4 4122.1,1693.7 4122.1,1741.9 
					4072.9,1738.5 4072.9,1333.1 4089,1331.7 4089,1155.3 				"/>
				<polygon id="C_00000001652175279307829240000012980046832427844241_" class="st3" points="3704.8,1188.6 3645.2,1305.3 
					3645.2,1769.7 3700.8,1880.4 3848.3,1891.2 3900.8,1776.1 3900.8,1625.8 3808.1,1624.5 3808.1,1708.6 3792.2,1725 
					3753.2,1722.9 3741.1,1703.8 3741.1,1368.5 3749.2,1358.8 3793.6,1349.4 3808.1,1363.7 3808.1,1461.5 3900.8,1461.5 
					3900.8,1294.5 3845.8,1177.7 				"/>
				<polygon id="G_00000025414205515153821670000004167688629574799253_" class="st3" points="3212,1216.4 3364.9,1209.6 
					3422.5,1312.7 3422.5,1462.2 3322.1,1464.8 3322.1,1384.1 3311.4,1365.8 3265,1367.1 3254.3,1384.1 3254.3,1693 3264.4,1709.3 
					3311.4,1710.6 3322.1,1693 3322.1,1633.7 3298.1,1633 3298.1,1500.3 3422.5,1500.9 3422.5,1757.5 3367.5,1863.3 3212,1856.5 
					3155.7,1751.4 3155.7,1321 				"/>
				<polygon id="N_00000095318972303003396170000010359365383045620140_" class="st3" points="2759,1228.6 2759,1374.6 
					2778.2,1373.9 2778.2,1700.4 2759,1700.4 2759,1842.3 2901.3,1844.4 2901.3,1700.4 2878.2,1700.4 2878.2,1576.9 2967.7,1847.1 
					3090.2,1850.4 3090.2,1705.9 3069,1705.2 3069,1371.2 3090.2,1370.5 3090.2,1220.5 2950.4,1224.6 2950.4,1372.5 2969.6,1372.5 
					2969.6,1503 2875.5,1226.6 				"/>
				<polygon id="I_00000155106524008958364160000000554330150170093459_" class="st3" points="2550.3,1228.6 2691.5,1228.6 
					2691.5,1374.6 2669.5,1374.6 2669.5,1701.1 2691.5,1701.1 2691.5,1842.3 2550.3,1842.3 2550.3,1700.4 2572.1,1700.4 
					2572.1,1373.9 2550.3,1373.9 				"/>
				<polygon id="L_00000003102131515770707080000017196687503516158900_" class="st3" points="2224.5,1224.6 2224.5,1370.5 
					2245,1370.5 2245,1703.2 2224.5,1703.2 2224.5,1847.1 2489.4,1842.3 2489.4,1663.8 2403.3,1665.1 2403.3,1700.4 2345.7,1700.4 
					2345.7,1371.9 2365.6,1372.5 2365.6,1227.3 				"/>
				<polygon id="T_00000176750799815929683390000010054625752962497425_" class="st3" points="1867.6,1212.3 1867.6,1398.3 
					1949,1398.3 1949,1363.7 1968.8,1364.4 1968.8,1707.9 1943.7,1708.6 1943.7,1856.6 2088,1851.2 2088,1705.2 2066.2,1705.9 
					2066.2,1366.4 2083.4,1367.1 2083.4,1401.7 2166.9,1402.4 2166.9,1223.2 				"/>
				<polygon id="S_00000086678267124918541930000001129053282623181489_" class="st3" points="1601.1,1196.7 1746.9,1205.5 
					1804.6,1308.7 1804.6,1442.4 1707.1,1442.4 1707.1,1378 1691.3,1358.2 1653.6,1356.9 1639.6,1381.2 1639.6,1439.1 
					1653.6,1463.5 1746.3,1467.5 1804.6,1564.7 1804.6,1762.2 1745.6,1866.1 1601.1,1875.6 1542.9,1771.1 1542.9,1640.1 
					1639.6,1637.4 1639.6,1696.4 1653.6,1717.4 1691.3,1716.1 1707.1,1688.4 1707.1,1630.5 1691.3,1610.1 1599,1609.4 
					1542.9,1506.3 1542.9,1305.3 				"/>
				<polygon id="E_00000006669169744249299570000012728564503127097517_" class="st3" points="1236.9,1336.5 1256.2,1337.2 
					1256.2,1734.4 1237.6,1735.8 1236.9,1903.4 1481.3,1884.4 1481.3,1695.7 1401.9,1698.4 1401.9,1727.6 1348.1,1730.3 
					1348.8,1611.5 1364.8,1611.5 1365.4,1648.2 1435,1646.1 1435.6,1427.5 1364.1,1424.8 1364.1,1462.2 1346.2,1462.2 
					1348.8,1341.9 1403.8,1345.3 1403.8,1375.9 1481.3,1378 1481.3,1187.9 1236.9,1167.5 				"/>
				<path id="R_00000169531513897133594360000000177712090332524461_" class="st3" d="M1158.8,1739.8v-169.7l-21.9-44.3l21.9-45.4
					v-200.9l-51.7-118.3l-194.6-20.4v178.5l17.2,1.4v433.3l-19.9,1.4v181.3l128.5-14.3v-175.8l-18.6,1.4v-137.9h35.2l14.5,27.7v282
					l107.3-10.9l0.7-169.7L1158.8,1739.8z M1071.4,1413.3l-13.9,23.1h-39.1v-110.1l35.8,2.7l17.2,17.8V1413.3z"/>
				<polygon id="W_00000034087020172671993090000014328759623451440794_" class="st3" points="411.7,1274.1 437.5,1278.8 
					488.5,1787.3 475.9,1788.7 475.9,1995.7 618.3,1972.7 618.3,1777.2 605.1,1777.8 634.9,1576.2 654.7,1773.8 642.2,1775.1 
					641.5,1969.3 796.5,1950.3 796.5,1763.6 781.3,1764.3 841.5,1317.3 861.4,1319.4 861.4,1128.2 737.5,1112.5 737.5,1306.6 
					752.1,1307.9 719,1567.4 685.2,1299.2 697.8,1300.5 697.8,1107.1 568,1088.8 569.3,1287 583.2,1288.4 548.8,1567.4 
					516.3,1282.9 532.9,1284.3 532.9,1084 411.7,1065.7 				"/>
			</g>
		</g>
	</g>
	<g id="Bulldogs_Text">
		<g id="Bulldogs_Text_Dark">
			<path id="S_00000004546339839368448630000007185927902318700204_" class="st4" d="M4067,485.8c11.3-48.4,23.2-96.2,33.8-138.6
				c29.8-105.4,96.2-163.8,147.2-164.5c24.5,0,285.1,0,285.1,0l-44.4,218.2h-161.1l12.6-53.7H4258l-26.5,110.1h119.4
				c89.5,3.3,110.1,54.4,89.5,143.2c0,0-23.9,98.1-31.2,130C4384,833.2,4328.3,881.6,4264,881c-92.2,1.3-135.9,0-181.7,0
				c-43.8,0-69.6,0-101.5,0.7c7.3-29.2,43.1-188.3,51.1-220.2l150.5,0.7l-16.6,69.6h90.8l29.8-124.7c0,0-95.5,2-119.4,2
				C4067,607.1,4056.4,530.9,4067,485.8z"/>
			<path id="G_00000103238432996447080360000018154697045117432737_" class="st4" d="M3930.4,880.3c-106.8,1.3-244.7,0-287.1,0
				c-45.1,0-102.8-21.2-72.9-151.2c30.5-120.7,63.7-268.6,92.8-382.6c29.2-120,88.2-161.8,127.3-165.8c51.1-2,228.1,2,311.7,2
				c-39.8,156.5-54.4,205.6-54.4,205.6l-156.5-2l10.6-39.8h-82.2l-92.8,384.6h84.2l29.8-129.3h-41.1l37.8-148.5l195.6,3.3
				L3930.4,880.3z"/>
			<path id="O_00000088134212774854240650000013587612055927786681_" class="st4" d="M3545.8,182.1c-83.6,0-176.4,2-200.3,2
				c-51.1,0.7-95.5,29.2-126.7,162.5c-29.2,113.4-62.3,263.3-92.8,383.3c-32.5,127.3,31.8,149.9,72.9,150.5
				c45.8,0.7,89.5,1.3,181.7,0c64.3,0.7,120-48.4,145.2-150.5c28.5-122,65-272.5,93.5-383.3C3641.3,261.6,3608.8,182.1,3545.8,182.1
				z M3366.1,731.1h-84.2l92.8-384.6h82.2L3366.1,731.1z"/>
			<path id="D_00000006702405924172587300000017815303812820839838_" class="st4" d="M3102.2,184.1c-84.2,0-305,0-330.9,0
				l-39.1,162.5h33.8l-92.8,384.6h-36.5l-31.2,149.2c0,0,236.7,1.3,329.6,0c65,0.7,120.7-42.4,145.9-145.9
				c29.2-122.7,67.6-275.9,94.2-387.9C3195,265,3165.2,184.1,3102.2,184.1z M2909.2,731.1H2825l92.8-384.6h82.2L2909.2,731.1z"/>
			<path id="L_00000056386102673885029660000007111918231088763037_" class="st4" d="M2313.7,184.1c25.9,0,241.4,0,241.4,0
				l-40.5,162.5h-39.8l-86.2,384.6h60.3l23.2-116l147.9-1.3l-57.7,266.6h-406.5l31.2-149.2h43.1l86.2-384.6h-40.5L2313.7,184.1z"/>
			<path id="L_00000034054033382589050580000004397263983453981603_" class="st4" d="M1877.4,184.1c25.9,0,228.1,0,228.1,0
				l-33.8,162.5h-40.5L1945,731.1h60.3l23.2-116l141.2-1.3l-57.7,266.6h-406.5l37.8-149.2h43.1l92.8-384.6h-41.1L1877.4,184.1z"/>
			<path id="U_00000057116293265474259200000017225705484017856917_" class="st4" d="M1352.9,184.1l-44.4,162.5h43.8
				c0,0-74.9,297.7-97.5,409.1c-10.6,51.1,2,125.3,58.4,125.3c57,0,170.4,0,226.8,0c94.2,0,120.7-119.4,120.7-119.4L1762,347.2h35.8
				l37.8-162.5h-198.3l-130.6,547.1h-80.9l129.7-547.7H1352.9L1352.9,184.1z"/>
			<path id="B_00000025430119880610519190000016050450327695027076_" class="st4" d="M1196.4,183.4c-120,1.3-342.2,0-342.2,0
				l-38.5,163.1h43.8l-92.2,384.6h-44.4l-39.1,146.5c0,0,251.3,4,342.8,2.7c88.2,0.7,122.7-59,136.6-107.4
				c4.6-21.2,35.1-145.2,40.5-165.8c13.9-45.8,2.7-78.2-55-88.2c59,0.7,77.6-9.3,88.9-51.1c9.3-31.8,23.2-84.2,31.8-121.4
				C1289.2,266.9,1295.2,188,1196.4,183.4z M1012.7,731.1h-80.9l29.2-128l80.9-1.3L1012.7,731.1z M1074.4,469.2h-81.6l29.8-122.7
				h82.2L1074.4,469.2z"/>
		</g>
		<g id="Bulldogs_Text_Light_00000131368841772057814070000001757261180452183474_">
			<path id="S" class="st5" d="M4028.6,449.3c11.3-48.4,23.2-96.2,33.8-138.6c29.8-105.4,96.2-163.8,147.2-164.5
				c24.5,0,285.1,0,285.1,0l-44.4,218.2h-161.1l12.6-53.7h-82.9l-26.5,110.1h119.4c89.5,3.3,110.1,54.4,89.5,143.2
				c0,0-23.9,98.1-31.2,130c-25.2,102.8-80.9,151.2-145.2,150.5c-92.2,1.3-135.9,0-181.7,0c-43.8,0-79.9,0-111.7,0.7
				c7.3-29.2,45.3-188.3,53.3-220.2l158.6,0.7l-16.6,69.6h90.8l29.8-124.7c0,0-95.5,2-119.4,2
				C4028.6,571.3,4017.9,494.4,4028.6,449.3z"/>
			<path id="G" class="st5" d="M3892,844.5c-106.8,1.3-244.7,0-287.1,0c-45.1,0-102.8-21.2-72.9-151.2
				c30.5-120.7,63.7-268.6,92.8-382.6c29.2-120,88.2-161.8,127.3-165.8c51.1-2,228.1,2,311.7,2c-39.8,156.5-54.4,205.6-54.4,205.6
				l-155.8-2l10.6-39.8h-82.2L3689,695.3h84.2l29.8-129.3H3762l37.8-148.5l195,2.7L3892,844.5z"/>
			<path id="O" class="st5" d="M3507.3,146.3c-83.6,0-176.4,2-200.3,2c-51.1,0.7-95.5,29.2-126.7,162.5
				c-29.2,113.4-62.3,263.3-92.8,383.3c-32.5,127.3,31.8,149.9,72.9,150.5c45.8,0.7,89.5,1.3,181.7,0c64.3,0.7,120-48.4,145.2-150.5
				c28.5-122,65-272.5,93.5-383.3C3602.8,225.2,3570.3,146.3,3507.3,146.3z M3327.6,695.3h-84.2l92.8-384.6h82.2L3327.6,695.3z"/>
			<path id="D" class="st5" d="M3063.7,148.2c-84.2,0-305,0-330.9,0l-39.1,162.5h33.8l-92.8,384.6h-36.5l-32.3,150.1
				c0,0,237.8,0.4,330.7-0.9c65,0.7,120.7-42.4,145.9-145.9c29.2-122.7,68.3-275.9,94.8-387.9
				C3156.6,229.1,3126.7,148.2,3063.7,148.2z M2870.8,695.3h-84.2l92.8-384.6h82.2L2870.8,695.3z"/>
			<path id="L" class="st5" d="M2275.3,148.2c25.9,0,241.4,0,241.4,0l-40.4,162.5h-39.8l-86.2,384.6h60.3l23.2-116l147.9-1.3
				l-57.7,266.6h-408.1l31.8-149.2h44l86.2-384.6h-40.5L2275.3,148.2z"/>
			<path id="L_00000005961750670012436270000000948459104063206293_" class="st5" d="M1838.3,148.2c25.9,0,228.1,0,228.1,0
				l-33.8,162.5h-40.5l-86.9,384.6h60.3l23.2-116l141.2-1.3l-57.7,266.6h-406.5l37.8-149.2h43.1l92.8-384.6h-40.5L1838.3,148.2z"/>
			<path id="U" class="st5" d="M1313.8,148.2L1270,310.7h43.8c0,0-74.9,297.7-97.5,409.1c-10.6,51.1,2,125.3,58.4,125.3
				c57,0,170.4,0,226.8,0c94.2,0,120.7-119.4,120.7-119.4l100.1-415.1h35.8l37.8-162.5h-198.3l-131.3,547.1h-80.9l129.3-547.1
				H1313.8z"/>
			<path id="B" class="st5" d="M1157.9,147.6c-120,1.3-342.2,0-342.2,0l-38.5,163.1h43.8l-92.2,384.6h-44.4l-39.1,146.5
				c0,0,251.3,4,342.8,2.7c88.2,0.7,122.7-59,136.6-107.4c4.6-21.2,35.1-145.2,40.5-165.8c13.9-45.8,2.7-78.2-55-88.2
				c59,0.7,77.6-9.3,88.9-51.1c9.3-31.8,23.2-84.2,31.8-121.4C1250.8,230.5,1256.7,152.2,1157.9,147.6z M974.2,695.3h-80.9l29.2-128
				l80.9-1.3L974.2,695.3z M1035.9,433.4h-81.6l29.8-122.7h82.2L1035.9,433.4z"/>
		</g>
	</g>
	<g id="BD-Body">
		<path id="Sillowette" class="st0" d="M4046.3,3086.5c-7.6-8.4-9.3-19.2-9.3-30.3c-0.2-29.2-7.4-56.9-18.9-83.4
			c-13.4-31-31.3-58.3-59.5-78.8c-22.7-16.5-31.5-42.8-39.8-68.5c-6-18.5-10.6-37.5-20.3-54.5c-33.5-58.9-82-102.3-141.2-134.1
			c-30.4-16.3-61.8-30.9-92.9-45.9c-14.5-6.9-25.2-16.5-32.2-31.5c-24.9-53.8-62.1-97.7-109.4-133.2c-16-12-33-22.4-50.4-33.4
			c11-10.2,23.9-10.7,36.9-10.8c21.6-0.2,43.2,3.2,64.8,0.7c36.2-4.1,53-37.5,34.5-68.8c-5.3-9.1-11.6-17.6-19.2-24.9
			c-51.4-49.4-112.3-71.7-183.5-62.2c-44.7,5.9-79.1,28.2-100.8,68.5c-7.6,14.2-7.5,14.3-21.7,7.6c-131.1-61.1-262.7-121.2-390-190
			c-3.3-1.8-6.1-3.9-8.5-6.9c-44.9-57.3-97-107.2-156.4-149.2c-122.1-86.5-256.3-126.9-406.3-102.6c-51.3,8.3-100.2,23.9-142.6,55.4
			c-2.7,2-5,1.7-7.7,1.3c-18.8-2.7-37,0.6-54.6,6.9c-41.9,15.1-73.2,42.6-93.8,82.2c-1.4,2.7-1.7,6.1-7,5.4
			c-18.4-2.4-37-2.1-55.5-1.1c-5.3,0.3-9.3-1-13.3-4.7c-36.9-34.6-80.9-45.6-130.1-38.6c-34.9,5-67,18.6-98.1,34.5
			c-24.9,12.7-48,27.9-66.1,49.8c-8.6,10.4-15.7,21.6-16.8,35.4c-1.8,23.9,14.6,41.1,42.4,46.1c11.8,2.1,23.7,1.5,36.5,2.4
			c-1.9,3.3-3.3,5.6-4.6,8c-11.2,19.4-20.6,39.7-23.6,61.9c-1.7,12.8-6.9,18.2-18.7,22.6c-35.5,13-60,37.2-68.6,75.2
			c-4,17.7-3.5,35.6-0.3,53.4c1.2,6.5-0.7,9.6-7,12.4c-39,17.5-58.8,53.1-52.3,95.3c1.9,12.2,2.6,23.3-2.8,34.7
			c-1.8,3.8-2.3,8.3-2.9,12.6c-3.3,24,5.4,44.2,20.6,62.1c7.9,9.3,7.8,9.1-1.7,17.1c-5.2,4.3-10.3,8.9-15.1,13.7
			c-40.6,41.2-44.2,103.7-7.7,147.2c5.7,6.8,5.9,11.2,1.1,17.9c-4.1,5.7-7.2,12.2-10.1,18.7c-37.5,84.4-43.5,171.6-21.4,260.7
			c8.4,34.1,24,65,55.8,84.3c4.1,2.5,1.8,5.2,1.3,8c-7.6,39.7-4.8,78.6,8.5,116.8c9.7,27.9,28.5,45.4,57.5,52
			c28.4,6.4,57.1,6.1,85.8,4.9c21.1-0.9,41.6-4.9,61.1-13.5c8.5-3.7,14.3-14.7,22.4-13.8c8.3,0.9,16,8.6,24.6,12.1
			c49,19.7,99.7,21.6,151.2,14.2c25.9-3.7,49.7-14.5,73.3-24.6c26.9-11.5,42.9-33,43.6-63.4c0.5-19.9-7.2-37.5-17.8-53.7
			c-33.5-51.6-79.1-88.8-136.2-111.3c-25.3-10-51.6-19.8-79.4-6.1c-0.8-13.9,0.4-27,5.4-39.6c5-12.5,14-19,27.5-19.8
			c15.7-0.9,30.7,2.2,45.6,6.7c43.4,13.3,84.8,32.1,127.9,46.2c52.3,17.2,105.3,31.3,160.3,36.2c59.2,5.3,117.9-0.4,176-11.9
			c35.1-7,69.6-16.3,103.7-27.9c0.6,1.3,0.9,1.6,0.8,1.9c-0.4,4.6-1.1,9.2-1.3,13.8c-2.2,36.9,9.4,67.6,41.4,88.3
			c21,13.6,44.6,17,69.2,16.2c21.6-0.7,42.3-8.4,65.2-1.3c24.2,7.6,47.2-3.6,67.5-17.9c3-2.1,5.3-4.4,9.8-2.3c9.1,4.2,19,5.4,29,4.5
			c6-0.5,9,0.4,7.7,7.7c-0.9,5.1-0.4,10.5,0,15.7c4.2,53.4,42.6,92.6,90.5,89.8c4.7-0.3,5.5,2.6,7,5.7
			c11.2,22.9,29.6,36.6,54.4,41.9c16.2,3.4,32.6,3.4,48.9,2.1c53-4.2,105.9-9.5,159-11.6c31.9-1.2,63.6-1.5,95.3,2.3
			c20.3,2.5,39.4,9.9,59.7,12.6c26,3.4,51.8,3.7,77-4.3c50.7-16.1,66.1-61.7,61.1-105.7c-4-35.2-23.9-60.8-52.7-80.1
			c-3.8-2.6-6.7-4-5-9.9c18.8-67.4,18.5-135.5,7.2-204c-2-12.1-4.2-24.3-6.7-38.3c25.2,17.5,49,32.9,73.4,47.4
			c39.4,23.5,80.8,39.3,127.6,38.7c36.6-0.5,72.8-3.5,108.9-9.3c3.1-0.5,6.4-2.6,8.8,1.9c9.9,19.1,20,38.1,30.3,57.8
			c-18.8,3.4-36.2,7.5-52.8,14.4c-3,1.2-5.4-0.2-8.1-0.8c-33.7-7.3-67.4-12.1-102-7.7c-38.7,4.9-66,26-73.6,61.5
			c-11.5,54.2-0.3,104.4,32.1,149.3c20,27.8,47.5,43.9,82.5,40.2c16.2-1.7,30.2-0.3,45.8,4.5c41.2,12.7,80.6,4.1,117.2-17.8
			c4.9-2.9,7.5-2.9,11.5,1.1c6.6,6.6,14.4,11.5,22.8,15.7c30.9,15.3,63.6,16.9,96.8,11c52.1-9.3,98.2-30.4,134.8-69.8
			C4071.8,3168.8,4072.2,3114.9,4046.3,3086.5z M2937.8,3000.2c-3,0.8-5.5,0.2-7.4-2.3c-1.3-1.7-2.7-3.4-4-5.1
			c-11.4-15.8-10.9-17.7,5.3-27.5c24.1-14.5,46.8-30.9,66.5-51.2c1-1,2.3-1.8,4.3-3.4c3.6,31.1,2.4,61.7,8.5,92.9
			C2986.5,2995.8,2962.3,2993.4,2937.8,3000.2z"/>
		<g id="Gray_Parts">
			<g id="Leg_and_Paw_Parts">
				<path id="Leg_and_Paw" class="st6" d="M1836.7,3095.9c0.5-0.4,1-0.7,1.4-1.1c17.9-25.4,28.1-29.3,58.2-22.2
					c42.1,10,76.8,33.1,108,62c18.7,17.3,35.6,36.1,46.2,59.7c13.7,30.4,1.9,57.1-29.6,67.5c-4.2,1.4-6.7,0.6-9.1-3.1
					c-24-37.1-53.6-69.3-87-98.1c-11.3-9.7-23-18.7-36-25.9c-3.2-1.8-6.6-3.3-10.1-4.5c-3.1-1.1-7-2.7-9.4,0.8
					c-2.6,3.7,0.8,6.5,3.1,8.7c10.4,10.1,20.9,20.2,31.6,30c31.3,28.8,58.9,60.7,81,97.2c3.4,5.6,3.5,8.2-3.6,9.6
					c-49.5,10.1-98.7,10.3-147.3-5.3c-19.5-6.3-35.9-16.9-48.3-34.1c-11.4-15.7-23.1-31.4-37.1-45c-2.2-2.1-4.5-5.9-7.4-4.3
					c-3.6,1.9-1.3,6-0.3,9c6.3,19.4,15.2,37.8,24.2,56c3.9,7.9,1.8,12-5.1,15.5c-12.6,6.4-26,9.7-39.9,11
					c-29.9,2.9-59.8,3.1-89.5-2.7c-19.4-3.8-32.9-14.8-39.1-34c-13.5-41.7-16.9-83.6,0.7-124.9c10.7-25,29.8-39.6,58.1-40.2
					c5.1-0.1,10.2-0.8,16.1-1.3c-21.6-17.9-55-16.8-77.5,2c-6.5,5.4-12.3,11.4-16.5,18.7c-2.9,5.1-5.3,5.3-9.7,1.6
					c-17.5-14.7-28.2-33.9-34-55.2c-24.1-90.1-18.5-177.8,23.7-262.1c5.8-11.6,6.2-11.5,18.3-6.5c17.4,7.2,35.7,9.6,54.3,9.7
					c6,0,8.5,1.5,10.1,7.4c21.5,81.7,100.1,139,175.8,146.2c12.4,1.2,24.7,0.3,36.9-1.4c2.8-0.4,5.2-0.8,7.4,1.9
					c6.3,7.6,12.9,14.9,19.6,22.5c-6,2.3-11.9,3.9-17.3,6.6c-16.7,8.3-25.4,22.9-30.3,40.2c-7.5,26.8-4.6,53.2,4.4,79.2
					C1832.9,3090.3,1833.7,3093.7,1836.7,3095.9z"/>
				<path id="Paw_Part" class="st6" d="M2622.7,3128.5c-24.2,3.5-46.7,3.3-67.5-8.6c-27.8-16-34.9-46.6-29-76.5c0.8-3.9,3-4.1,6-3.7
					c22,3.3,44,5.4,66.3,5.7c4.5,0.1,5.8,1.9,5.3,6.3C2600.8,3078.9,2606.5,3104.2,2622.7,3128.5z"/>
				<path id="Paw_Part_00000005254885933849666250000003107378698027715492_" class="st6" d="M3639.7,3038.2
					c-55.8,41.8-71.2,135.6-33.7,192c-16.3,2-30-3.2-41.9-13.1c-16.8-14.1-27.1-32.6-34.1-53.1c-8.6-25.1-13-50.7-9.6-77.4
					c3.8-29.5,18-45.1,47.1-50.4C3591.1,3031.9,3614.7,3033.8,3639.7,3038.2z"/>
				<path id="Paw_Part_00000147220389038550254280000011505495240346232962_" class="st6" d="M2742.9,3070.9
					c0.6-37.7,0.7-37.3,34.8-44.8c36.2-8,71-20.6,104.7-36c6.1-2.8,9.9-3.6,12.2,4.1c0.9,3.2,2.5,6.6,4.7,8.9
					c7.7,8.1,6.7,14.2-2.2,21.1c-9.2,7.1-14.3,17.7-17.7,28.7c-1.3,4.3-3.2,5.7-7.5,6.2c-31.7,4-55.8,20-72.3,47.3
					c-2.2,3.6-4.5,5.3-8.4,6.1c-8,1.6-16,1.9-23.9,0.8c-13.5-1.9-22-12.9-23.8-30.1C2743,3078.3,2743,3073.3,2742.9,3070.9z"/>
				<path id="Paw_Part_00000129177242370734486720000006181314005343418518_" class="st6" d="M2631.3,3064.9c0-19.5,0-19,18.7-20.3
					c20.3-1.4,40.6-3.1,60.8-5.8c7.2-0.9,6.8,1.6,6.1,6.7c-2.5,17.5-2.9,35,1.6,52.4c0.4,1.5,0.8,3,1.2,4.5c5.1,14.9,5.1,14.9-9,22
					c-37.2,18.6-74.1-3.5-78.6-47.3C2631.6,3072.7,2631.5,3068.4,2631.3,3064.9z"/>
			</g>
			<g id="Chest">
				<path id="Chest_Part" class="st6" d="M2259.1,3051.2c-50.8,0.9-99.7-9-148.1-22.1c-54.6-14.8-106.2-38.2-159.9-55.5
					c-25.7-8.3-45.9-23-64.8-41.1c-6.2-6-4.3-8.4,2.6-11.2c24.6-9.9,50.5-13.6,76.5-17.2c5.2-0.7,10.6-0.6,15.6-2
					c28.1-7.8,53.4,4.3,79.2,11.6c40.4,11.4,81.4,20.2,122.8,27.2c4.6,0.8,6.7,2.3,8.3,6.8c8.4,23.3,18.8,45.7,32.4,66.4
					C2233.2,3028.6,2242.8,3042.9,2259.1,3051.2z"/>
				<path id="Chest_Part_00000064354729281083990970000012564295147744032405_" class="st6" d="M2271.3,3051.9
					c30.8-20.7,34.2-54.3,44.7-85.1c42.2,24.1,86.9,42.1,135.5,56.4C2391.4,3040.3,2332.6,3049.9,2271.3,3051.9z"/>
			</g>
			<path id="Tail" class="st6" d="M3534.9,2354.7c-17.6-1.1-35.1-2.1-52.5,1.5c-13.1,2.8-24.5,8.4-33.2,18.6c-2.9,3.4-5,4-9.2,2
				c-36.7-17.5-73.5-34.9-110.5-52c-5.7-2.6-6.2-5.1-3.9-10.4c15.3-34.2,42.2-53.7,78.3-59.5c64.6-10.4,119.8,10,166.3,55
				c5.8,5.6,10.6,12.1,14.3,19.3c6.5,12.7,0.6,23.7-13.6,25.4c-6.1,0.7-12.3,0.8-18.5,0.8C3546.6,2355.5,3540.7,2355,3534.9,2354.7z
				"/>
			<path id="Body" class="st6" d="M4021.7,3100.9c-10.7-11.8-13.3-27.4-13.5-43.3c-0.4-32.8-10.2-63.1-25.3-92
				c-10.3-19.7-24.2-35.9-42.2-49.5c-26.5-20-38.8-49.7-48.8-80.3c-6.1-18.7-10.7-38-20.8-55.3c-28-47.5-67.2-83.8-114.1-111.6
				c-34.8-20.6-72-36.8-108.4-54.5c-17.4-8.4-31.9-20-40.1-38.2c-32.3-72-86-123.8-154.5-160.7c-61.5-33.1-125.7-60.6-188.9-90.2
				c-105.7-49.4-211.6-98.5-315.7-151.2c-7.2-3.7-14.4-7.4-21.7-11.1c-1.3,2.9,0,4,0.7,5.2c37.9,61.3,64.4,127,77.2,198
				c2.1,11.8,4.7,23.9,1.9,36.5c-4.7-2.1-5.3-6.1-6.5-9.4c-5.8-14.9-11.5-29.9-17-45c-49.5-136.1-126.1-253.2-240.1-344.4
				c-77.5-62.1-162.9-106.8-261.8-123.2c-65.5-10.9-130.4-9-194.7,8.3c-25.1,6.8-49.2,16.1-71.9,29c-1.8,1-9.4,2.1-2.5,6.8
				c16.1,10.9,32.2,21.8,48.5,32.4c15.2,9.9,31.7,14.4,50.2,12.4c16.6-1.8,33.3-1.9,49.9,0.9c26.4,4.4,40,24.1,35.3,50.1
				c-1.8,9.9-5.7,18.8-10.3,27.6c-1.3,2.5-5.5,4.7-2.9,7.9c3.1,3.9,6.1-0.2,8.8-1.6c20.1-10.1,39.7-21.4,61.8-26.8
				c19.8-4.9,28.4,3.5,24.5,23.3c-3.8,19.3-11.7,37-20.2,54.5c-2.6,5.4-2.3,8.5,2.1,12.5c52.6,48.5,96.6,104.1,134,164.9
				c2.5,4,5.2,5.2,9.7,4.8c13.2-1.1,26.5-2.4,39.8-2.5c16.3-0.1,32.9-0.8,48.7,4.6c9.8,3.4,12.6,11.8,7.1,20.7
				c-3.6,5.8-8.3,10.7-13.3,15.4c-12.2,11.4-25.1,22-38.9,31.4c-6.9,4.7-8.1,8.2-4.4,16.1c32.2,68.4,56.8,139.3,70.4,213.9
				c0.9,5.2,3.1,8.4,8.1,11.1c18.2,9.8,36.4,19.9,51.6,34.3c13.3,12.5,11.2,23.3-5.6,30.1c-14.1,5.7-28.9,8.8-43.9,11.1
				c-4.7,0.7-6.6,2.4-7.3,7.5c-9.3,69.6-42.3,126.3-95,171.8c-5.3,4.5-5.4,8.2-3.6,14.2c6.3,21.1,11.3,42.4,10.1,64.7
				c-0.9,17.4-9.5,23.6-26.4,19c-3.9-1-7.7-2.3-11.4-3.9c-20.4-8.3-39.3-19.4-57.6-31.5c-4.6-3-8.2-3.6-13.5-1.4
				c-28.5,11.8-58.1,20.4-88.3,27.1c-26.5,5.8-53.4,8.3-83.1,10.8c4.3,2.6,6.1,3.8,8,4.7c64.5,32.4,132.7,51.8,204.5,58
				c52.2,4.5,104.3,2.8,156.2-5.4c76.5-12,148.7-35.7,214.3-77.5c23.8-15.2,45.7-32.8,61.8-56.5c2.2-3.2,4.6-6.2,3.7-10.9
				c-3.4-17.6-8-34.7-14.8-51.4c-17-41.9-78.5-61.2-113.3-16c-2.6,3.4-5.7,6.6-8.1,10.1c-19,27.3-45.6,35.2-77.1,30.3
				c-22-3.4-37.5-16.2-49.4-34.3c-1.7-2.5-3.7-5.8-1-8.4c2.4-2.2,5.3,0.1,7.6,1.4c8.3,4.7,16.7,9.4,24.8,14.5
				c25.4,16.1,61.1,5,75.4-17.6c3.9-6.2,9-11.8,13.8-17.4c33.2-38,74-41.8,117.5-16.2c26.5,15.6,37.8,42.3,45.6,70.6
				c11.3,40.8,12.6,82.9,15.1,124.9c1.6,26.3,4.5,52.2,14.2,77c13.5,34.6,35.4,63.4,60.6,90.2c3.2,3.4,6.8,6.5,9.5,12.7
				c-3.1-1.3-4.5-1.7-5.7-2.4c-36.8-20.2-64.7-49.1-84-86.3c-1.7-3.3-3.3-6.4-7-8.2c-20.5-10.5-41.8-16.9-65.1-13.6
				c-19.4,2.8-35.9,10.9-46.6,28.4c-2.5,4.2-2.5,5.8,3,7.4c17.7,5.2,33.1,15,47,27c3.9,3.3,8.3,6.5,8.9,12.4c-3.2,1.9-6,0.7-9-0.3
				c-7.3-2.5-14.6-5-21.9-7.3c-23.7-7.3-48-10.2-72.1-3.5c-25.6,7.1-42.1,24.5-48,50.3c-6.3,27.7,0.3,52.7,20.6,73.3
				c7.8,8,17.7,12.2,28.6,14.2c5.4,1,8.6,0.3,8.1-6.8c-0.5-7,0.4-14.2,1.1-21.2c4.8-53.2,53.2-72.3,95.8-55.5c5,2,10,4,14.7,9.8
				c-7.1-0.7-12.5-1.6-17.9-1.6c-23.9-0.2-47.1,1.6-59.2,26.9c-13.6,28.4-8.7,55.4,8.3,80.6c6.5,9.6,17,14,28.3,16.2
				c16.6,3.3,33.2,2.2,49.9,0.8c55.1-4.6,110.2-10.1,165.5-11.5c42-1,83.9-0.3,124.9,11.5c22.6,6.5,46,8.4,69.8,5
				c29.5-4.2,49.6-20.3,55.7-46.8c8.3-36.2-2.5-65.6-31.9-88.5c-5.1-4-7.1-4-10.8,1.9c-12.2,19.6-28,36-46.8,49.5
				c-3.1,2.2-7.1,6.3-10.6,3.3c-3.9-3.2,0.1-7.4,2-10.7c3.7-6.4,7.7-12.7,11.7-18.9c23.3-35.9,36.6-75.4,42.4-117.5
				c9.1-66.2,2-131.3-14.1-195.6c-24.5-97.6-67.2-186.7-124.7-269.1c-3-4.4-6.4-8.6-7-15.1c5.2,1,8.2,3.4,11.4,5.9
				c14.8,11.9,26.6,26.6,38,41.6c44.3,58.5,75.5,123.6,98.4,193c1.6,4.7,3.2,8.9,7.6,12.1c29.1,21,58.4,41.6,89.4,59.6
				c23.5,13.6,47,27.4,74,33.2c29.6,6.4,59.6,5,89.5,2.8c25.6-1.8,51-5.3,76.2-10.2c7.3-1.4,11.5,0.7,15.1,7.8
				c16.2,32,33.2,63.5,49.8,95.2c6.8,13,6.7,13-8.1,13.2c-28.5,0.3-55.7,6.3-81.4,18.6c-54,25.8-71.5,75-66.1,128.1
				c2.6,25.4,12.7,47.2,37.2,57.9c37.3,16.3,73,9,107.1-10.6c4.1-2.4,3.1-5.1,1.5-8.5c-5.2-10.6-8.4-21.8-10.6-33.4
				c-10.2-54.2,12.2-94.2,62.6-111.7c10.8-3.7,21.9-6.5,33.5-6.1c2.1,0.1,4.8,0.4,5.4,2.7c0.7,2.6-2.1,3.5-4,4.3
				c-5.6,2.5-11.5,4.6-17,7.3c-31.2,15.3-51.7,38.4-54.4,74.7c-3.4,45.9,22.7,84.6,64.1,93.8c17,3.8,34.2,4.9,51.6,2.4
				c47.1-6.8,88.9-24.5,123.3-58.4C4038.9,3164.9,4044,3125.4,4021.7,3100.9z"/>
			<g id="Head">
				<path id="Chin" class="st6" d="M1901.3,2687.2c-52.3,6.9-105.9,6.2-154.5,32.4c-25.4,13.7-51.7,26.5-80.3,33
					c-24,5.5-48.1,6.5-72.5,1.3c-49.2-10.4-71.6-60.5-56.9-104.9c18.1-54.5,75.1-80.6,131.3-60.5c17.2,6.2,17.2,6.2,4.2,18.9
					c-26.3,25.7-37.9,51.1-42.1,93.1c5.3-6.6,7.9-13.6,11.3-20.1c9-17.3,18.1-34.5,30.1-49.9c17.1-22.1,39.7-33.4,67.8-34.5
					c33.4-1.2,64.8,7,95.4,19.5c43.1,17.7,86,36,130.4,49.9c47.4,14.8,96.1,19.5,145.2,6.8c11.4-2.9,21.7-8.3,33-13.6
					c1.2,25.8,3.6,50.6,9.3,74.9c8.4,35.8,21.7,69.6,43.5,99.4c5.6,7.7,3.3,9.5-4.1,12.4c-24.2,9.4-49.6,12.8-75,15.6
					c-51,5.5-102.1,9.5-153,15.2c-33.7,3.8-67,9.9-98.2,24.9c-31.2,14.9-63.3,11.3-94.5-0.8c-52.3-20.3-89.6-55.7-108.2-109.5
					c-2.5-7.3-1.6-10.1,6.6-11.5c13-2.2,25.9-6,37.8-11.9c6-3,9.7-1.7,14.6,2.3c27.8,22.2,58.7,36.1,97.6,34.2
					c-14.2-8-27-14-38.8-21.8c-12.4-8.2-24.3-17-35.2-27c-5-4.6-5.9-6.8,0.7-11.3c31.6-21.5,66.4-33.6,104.1-38.3
					c12.8-1.6,25.7-3.8,37.5-9.5c4.7-2.3,9.5-4.5,12.7-9C1901.2,2687.1,1901.2,2687.1,1901.3,2687.2z"/>
				<path id="Cheek" class="st6" d="M2300.9,2457.3c-8.7-23.5-24.4-40.6-38.4-59.3c5.9-1.4,9.6,2.4,13,4.4
					c60.9,36.6,119.1,76.6,164.3,132.4c27.1,33.4,46.4,70.5,51.2,114.1c7.3,66.1-17.5,114.1-76.6,144.9
					c-55.7,29.1-115.8,39.3-178.1,39.5c-5.9,0-8-3.7-10.7-7.2c-26.8-34.8-42.3-74.3-49.7-117.3c-6.2-35.9-5.3-71.9-1.3-108
					c5.7-52.4,3.7-104.3-14.3-154.5c-11.2-31-29.7-56.1-60.8-70c-32.4-14.5-66.4-7.3-90.4,18.8c-2.5,2.7-5.4,5.4-7,8.6
					c-15.6,31.5-42.7,39.3-75.1,37.5c-15.4-0.9-30.8-0.6-46.3,0.2c-25.1,1.4-44.1,12.3-58,32.9c-5.2,7.7-11.3,14.8-16.1,22.7
					c-21.9,35.5-65.3,29-86.9-0.1c-21.1-28.3-19.6-69.1,4.1-99c16.5-20.8,37.8-34.3,64.5-38.4c15.5-2.4,30.1,1.9,44.7,5.7
					c13.4,3.5,26.7,7.8,40.5,9.3c20.9,2.3,39.7-1.5,54.7-18.2c13.8-15.4,28.1-30.3,41.3-46.3c36.1-43.6,90.8-60,148.2-20.9
					c40.1,27.4,74.6,60.8,108.2,95.4c21.3,22,42.6,43.9,64,65.7C2292.6,2452.9,2295,2455.9,2300.9,2457.3z"/>
				<path id="Upper_Lip" class="st6" d="M1620.1,2492.7c-6.1,0.2-15.8-1.9-25.5-5.6c-19.2-7.2-29.2-20.3-28.7-41.3
					c0.6-24.1,10.7-42.6,31.2-55.5c3-1.9,4.9-2.9,6.9,1.4c16.1,34.3,44.8,52.8,79.9,63.3c4.5,1.3,5.8,11,1.6,15.6
					c-3.1,3.3-6.9,6.2-10.9,8.5C1659.2,2488.2,1642.4,2492.9,1620.1,2492.7z"/>
				<path id="Eye_Lid" class="st6" d="M1965.3,2204.5c15.8-17,30-32.4,49.8-41.1c15-6.6,30.1-6,45.1-1c9.1,3,14.1,10.7,17.5,19.3
					c8.5,21.5,6,42.3-4.1,62.5c-1.9,3.8-4.6,4.5-8.8,4.8c-10.9,0.7-18-1.7-23.6-12.9c-8.7-17.3-24.6-27.3-43.7-31.1
					C1987.4,2203.1,1977.3,2204.5,1965.3,2204.5z"/>
				<path id="Forehead" class="st6" d="M1922.1,2039.1c-18,15.2-31.4,30.8-41.1,49.3c-1.8,3.5-3.2,7.2-5.5,12.5
					c6.4-2.6,8.6-6.7,11.5-9.9c30.2-34.1,68.2-52,113.4-55.5c6.5-0.5,9,1.2,8.2,7.8c-0.4,3-0.1,6.2,0.6,9.2
					c1.6,6.6,3.6,13.1,5.7,20.3c4.4-5.9,4.9-12.5,6.7-18.5c15.5-50.7,48.3-86.2,96.3-107.4c32.9-14.5,64.5-9.6,94,10.3
					c13.1,8.8,25.9,18,39.2,26.3c18.9,11.8,39.7,16.2,62,14.2c14.4-1.3,29-2,43.4,0.6c13,2.4,16.6,8.2,12.9,21.1
					c-6.2,21.6-21,36.1-40.4,45.9c-31.2,15.8-63.4,18.1-96.8,6.3c-22.3-7.9-45.3-8.8-68.3-2.5c-3.8,1-7.8,2-10.5,6.8
					c5.9,2.8,12,2.2,17.8,2.3c19.7,0.3,36.1,9.7,52.9,18.2c2.8,1.4,3.1,3.4,3,6c-1.3,45.6,23.5,78.6,53.2,109
					c21.9,22.4,48.2,39.5,72.2,59.4c40,33.3,64,76.2,72.9,127.4c1,5.8,3.1,10.5,6.5,14.9c26.9,35.4,40.3,76,45.7,119.6
					c0.2,1.4-0.1,2.8-0.3,5.9c-20.2-28.3-42.6-52.4-67.4-74.3c-44.5-39.2-93.9-71.3-145.4-100.3c-17-9.5-33.7-19.7-51.8-26.8
					c-14.9-5.9-25.8-16.6-37.5-26.6c-13.3-11.5-27.1-22.5-41.8-32.3c-14.6-9.8-30-18.1-46.8-24.4c14.6-21,17.3-43.5,11.5-67.5
					c-8.5-35.1-31.7-48.7-68.6-45.8c-30.4,2.5-51.4,22.3-71.1,43.2c-25.7,27.3-45.4,59.4-70.2,87.4c-22.4,25.3-46.5,48.6-76.1,65.7
					c-9.7,5.6-20.5,2.3-30.6,4.8c-3.1,0.8-4.7-3.6-6.3-6.1c-20.4-31.6-22.2-72,11.4-106.5c14.9-15.3,32-28.3,45-45.3
					c8.8-11.5,16.9-23.3,20.1-37.9c-18.1,30.3-47.1,49.4-72.5,72.2c-10.9,9.7-20.8,20.3-28.3,32.9c-14.1,23.6-13.4,48.1-3.4,74.4
					c-41.7-13.2-82.4-15.4-123.2,3.2c-1.4-27.8,7.3-50.3,28.8-67.2c4.1-3.2,8.7-6,13.2-8.5c13.3-7.5,23.3-6,34.1,5
					c3.4,3.5,6.4,7.4,10.5,12.1c1.8-7.3,1.1-13.7,0.4-19.8c-5.3-50.8,12.8-93.5,46.2-130.2c35.6-39.2,82.1-60.4,132-74.7
					C1899.6,2042.5,1909.2,2039,1922.1,2039.1z"/>
				<path id="Ear" class="st6" d="M1915.4,2009.5c-20.6,5.1-39.4,9.6-57.6,16.2c-42.2,15.4-81.1,36.2-113.5,67.9c-2,2-3.9,4-6.9,4.5
					c-19.3,2.8-38.7,4.8-58,0.3c-16.7-3.9-20.1-13.4-10.9-28c8.8-13.8,20.9-24.4,34.4-33.2c36.5-23.9,75.6-42,119-48.6
					C1854.7,1983.6,1885.8,1989,1915.4,2009.5z"/>
			</g>
		</g>
		<g id="White_Parts">
			<g id="Spikes">
				<path id="Spike_00000041292950597516356200000002455401688892479400_" class="st7" d="M2302.9,2918.3
					c-1.5,32.4-8.3,63.6-21.4,93.3c-1.2,2.8-2.6,5.6-4.2,8.2c-9.3,15.5-14,16-25.4,1.5c-22.4-28.5-37.8-60.7-47.7-95.5
					c-4.7-16.6,0.3-29,15.2-37.9c20.6-12.4,42.8-15,66-8.1c11.2,3.3,16.6,11,16.6,22.7C2302,2907.8,2302.6,2913.1,2302.9,2918.3z"/>
				<path id="Spike_00000064318660959273555340000011029414718169988529_" class="st7" d="M2610.6,2925.8c0.5,10.8-0.7,12-10.5,7.2
					c-35.1-17-68.2-37.2-97.2-63.5c-12.3-11.1-13.3-20.2-4.7-34.3c9.9-16.2,23.8-28.2,41.2-35.9c16.5-7.3,22.2-5.6,32.9,9.1
					c11.1,15.4,18.3,32.8,24.1,50.6C2603.5,2880.8,2609.4,2902.9,2610.6,2925.8z"/>
				<path id="Spike_00000111175258037863882070000006061723647397937026_" class="st7" d="M2759.8,2645.7
					c-13.5,5.9-27.8,8.1-41.9,10.4c-35.7,5.8-71.5,10.1-107.8,8.7c-14.3-0.6-21.8-5.8-26.1-19.2c-5.9-18.3-5.2-36.6,1.7-54.4
					c5.5-14.2,11.5-17.3,26.4-14.9c21.5,3.4,41.7,10.8,61.5,19.4c27.5,11.9,54.2,25.3,78.6,42.8
					C2755,2640.5,2758.1,2642.1,2759.8,2645.7z"/>
				<path id="Spike" class="st7" d="M2681,2305.4c-8.3,9.7-16.8,16.3-25.3,22.9c-28.8,22.3-58.4,43.5-90.8,60.4
					c-16.9,8.8-26.3,6.9-39.2-7.2c-9.7-10.6-15.3-23.1-17.2-37.2c-1.2-8.7,1.5-15.3,10.4-19.4c23.1-10.5,47.7-14.3,72.5-17.3
					C2620.5,2304,2649.7,2302.8,2681,2305.4z"/>
				<path id="Spike_00000098943791795790263770000007251386862308892862_" class="st7" d="M2461.8,2044.9
					c-7.3,30.7-20.4,56.7-35.1,82.1c-9.5,16.3-20,31.8-33.8,45c-10.3,9.9-21.4,11.2-33.9,5.4c-16-7.5-27.7-19.1-35.1-35.2
					c-4.4-9.6-2.9-17.7,4.9-25.1c12.7-12,27.8-20.5,42.7-29c26-14.8,51.8-29.9,80.1-40C2454.5,2047,2457.4,2046.3,2461.8,2044.9z"/>
			</g>
			<g id="Teeth">
				<path id="Lower_Big_Teeth" class="st7" d="M2149,2472.5c10.2,42.3,10.8,83.3,7.6,124.9c-2.6,35-19.4,48.6-53.8,57.5
					c-37.9,9.9-76.1,6.8-113.7-2.4c-47.5-11.6-91.7-32.5-137.1-50.2c-22.1-8.6-44.3-17.1-67.8-21.3c-3-0.5-18.5-1.6-18.5-1.6
					c9.5-1.9,18.6-21.6,24.6-31.7c7.6-13.9,12.2-10.9,17.7-4.4c9,9.9,13.3,17.3,21.3,26.9c13.4,15.9,23.2,18.8,40.3-7.6
					c8.2-12.4,15.6-26,23-37.3c4.8-6.5,10.8-3.6,17.2,2.9c10.4,10.5,19.5,22.4,31.6,31.2c15.2,10.9,24,9.3,34.3-6.6
					c9.6-14.8,20.6-31.8,29.1-47.2c0.4-0.8,0.7-1.7,1.2-2.5c7.9-11.6,10.6-9.2,17-2.3c15.4,15.5,20.1,22.1,31,33.8
					c29.1,31.3,29.5,25.9,52-6c15.7-23.4,21.7-31.8,38-50.8C2145.6,2476.5,2146.7,2475.1,2149,2472.5z"/>
				<path id="Upper_Big_Teeth" class="st7" d="M1921.2,2458.7c11.1,0,22.3,0.7,33.3-0.1c24.4-1.8,43.1-13.7,56.2-34.2
					c6-9.4,12.6-18.3,21.6-25.1c30.4-22.8,66.2-9.4,87.6,14.5c9.8,10.9,15.6,24.3,21.6,37.5c1.6,3.5,1.2,6.2-1.4,9.2
					c-17.2,20.2-30.6,39-49.8,63.8c-6.4,8.8-8.6,16.2-15.9,11c-15.3-13.3-29-29-42.2-45.2c-15.3-17.6-24.7-14.4-34-2.1
					c-9,16.5-20.6,33-30.6,50.5c-8.6,16.9-8.7,16.6-23.4,5c-9.8-7.7-19.5-19.9-28.5-28.4c-18.4-17.6-21.7-14.6-33.1,0.4
					c-9,13-18.4,30.4-27.9,43.7c-4.3,5.8-8.4,9.1-12.7,5.9c-10.7-12.3-13.9-16.4-24.3-29.4c-3.6-4.2-5.6-7-12.8-11.4
					c2.9-1.4,16.4-11.3,29.1-33.4c13.5-22.5,32.9-32.3,58.6-31.4c9.6,0.3,19.1,0,28.7,0C1921.2,2459.1,1921.2,2458.9,1921.2,2458.7z
					"/>
				<path id="Small_Tooth" class="st7" d="M1566.1,2491.1c16.2,12.2,34.2,19.2,55.7,19.7c-9.9,2.3-20.7,27.8-27.8,41
					c-7.2,12.2-9.7,9.1-17,2.3C1560.5,2537.4,1556.5,2512.9,1566.1,2491.1z"/>
				<path id="Small_Tooth_00000176745456225691667590000008746361511290254734_" class="st7" d="M1672.6,2569.4
					c12-2.7,16.7-19.2,27.7-32.8c8.9-11.3,14.8-7.2,20.4,3.1c6.6,12.3,16.3,34.3,25,38.1c-4.4-0.3-2.8-0.6-13.4-0.1
					c-8.6,0.4-17,2.7-25,6.2c-2.7,1.2-4.7,0.4-6.8-1C1692.7,2578.1,1682.4,2573.4,1672.6,2569.4z"/>
				<path id="Small_Tooth_00000010275980468834045570000004816705062781485477_" class="st7" d="M1632.3,2511.2
					c23.7-2.3,43.7-9.5,61.5-22.5c0.4,0.3,0.7,0.4,0.8,0.6c4.3,7.4,11,19.2,16.8,25.8c-5.2,0.5-11.8,6-17.5,12.1
					c-5.4,5.9-11.4,17.2-16.5,24.4c-4.9,8.4-10.2,10.7-18.1-3.8C1647,2527.3,1639.1,2513.2,1632.3,2511.2z"/>
				<path id="Small_Tooth_00000161626082163409758430000011821844150332903344_" class="st7" d="M1725.9,2525.3
					c23.2,15.4,48.4,11.5,60.3,7.8c-3.6,2.2-12.3,18.8-18,28c-2.5,4-8.3,9.2-12.1,9.1c-4.2-0.1-7.8-6.4-10.9-11.3
					C1738.4,2548,1730.8,2530,1725.9,2525.3z"/>
				<path id="Small_Tooth_00000131366063733043193380000002377201516829066120_" class="st7" d="M1657.3,2564.9
					c-16.8-3.7-38.8-8.2-57-2.7c4.1-2.1,16.9-38.9,24.2-40.1C1634.1,2517.4,1653.1,2562.3,1657.3,2564.9z"/>
			</g>
			<g id="Eye">
				<path id="Eye_White" class="st7" d="M1979.3,2222.1c21,0,35.9,7.7,46.3,23.8c1.8,2.7,3.7,5.5-1.5,6.8
					c-34.6,8.5-58.6,31.6-79.7,58.5c-8.3,10.6-13.4,16.3-21.6,24.5c7.5-22-23.5-36.7-35.6-35.3c5.2-5.3,11.3-11.6,21.9-24.6
					c8.6-10.5,17.3-21.1,24.9-32.2c7.9-13.2,19.9-17.5,33.4-20.1C1972,2222.5,1976.6,2222.3,1979.3,2222.1z"/>
				<path id="Eye_White_Small" class="st7" d="M1864.9,2335.6c6.6,0.1,11.3,2.9,12.7,9.8c1.3,6.6-2.2,10-8.7,8.9
					c-2.4-0.4-4.9-0.8-7.2-1.6c-4.1-1.5-9.7-1.3-8.9-8.3C1853.5,2338.7,1857.7,2335.5,1864.9,2335.6z"/>
			</g>
		</g>
		<path id="Collar" class="st8" d="M2317.4,2100.8c-17.5,16.3-18,34.6-8.1,53.7c9.8,18.9,24.9,33,44.8,40.9
			c18.8,7.5,36.2,4.6,51.3-9.9c6.2-6,11.9-12.5,17.1-19.5c5.1-6.9,10.3-13.9,14.6-21.4c3.4-5.9,5.8-6.3,10.7-1.5
			c42.1,41,79.9,85.5,111.6,135.1c2.7,4.3,8.8,8.4,7,13.3c-1.6,4.4-8.7,2.9-13.3,4.1c-14,3.6-28,7.2-41.4,12.7
			c-15.8,6.5-24.1,20.9-21.5,37.7c2.3,15.6,7.7,29.7,17.3,42.3c16,20.8,38,34.5,70.1,14.8c10.5-6.4,21.2-12.5,31.6-19.1
			c5.2-3.3,8-3.6,11,3.1c24.3,54.4,45.2,109.9,58.5,168.1c1.4,6,3.5,11.8,4.8,17.8c1,4.5,0.2,7.1-5.7,4.8
			c-17.9-7.1-36.1-12.9-54.7-17.9c-32.4-8.6-49.9,3.8-57.8,35.4c-5.4,21.4-5.1,42.8,4.6,63.3c7.5,16,20.2,24.5,38,24.7
			c22.6,0.3,45.1,0.5,67.5-3.2c2.7-0.4,5.6-0.2,8.3-0.5c5.3-0.4,6.1,2,5.2,6.8c-7.8,41.4-24.5,78.6-51.5,111
			c-7.9,9.5-16.5,18.3-25.6,26.7c-5.8,5.3-8.3,3.7-11.1-2.5c-4.7-10.4-10.4-20.3-17.9-29c-14.1-16.3-24.8-19.7-44.9-12.3
			c-23.9,8.8-43.2,24.2-55.7,46.3c-13.4,23.7-11.1,39,10.9,58.9c6.2,5.6,6.3,7.1-2.1,10.2c-39,14.2-79.1,23.3-120.5,27.1
			c-13.6,1.2-27.1,1.4-40.7,1.9c-5.5,0.2-8.6-0.7-8.2-7.4c0.4-6.4-0.2-13-1.3-19.4c-3.6-21.5-8-26.2-34.6-38
			c11.2-2,21.2-3.9,31.2-5.6c52.9-8.8,102.8-25.1,145.6-58.9c33.8-26.7,52.7-61.6,56.3-104.1c2.6-31.2,1.6-62.3-10.4-92.1
			c-1.7-4.2-1.4-8.9-1.2-13.6c3.3-64.2-9.5-124.4-46-178.3c-5.7-8.4-8.7-17.2-10.8-27c-13-61.9-47.8-109-98.5-145.6
			c-31.8-22.9-62-47.7-82.9-81.7c-7.6-12.5-13.4-25.7-13.8-40.6c-0.1-2.8-0.5-6.1,3.8-5.9
			C2278.5,2107.3,2297.8,2106.1,2317.4,2100.8z M2179,2912.3c4.2,0.9,5.1-1.2,5.8-4.9c2.9-15.3,11.6-26.4,24.5-35
			c7.7-5.1,16.9-7.1,24.8-11.8c-8.5-2.8-15.4-0.2-22.4,4.3c-9.3,5.9-19.6,10.3-30.2,12.9c-29,7.1-58.5,10.7-88.3,14.7
			C2121.4,2901.4,2150.4,2906.2,2179,2912.3z"/>
		<path id="Nose_Tip" class="st9" d="M1691.5,2427.8c0,0-62.5-4.9-66.8-71.7c-0.4-6.7,63.8-42.9,129-3
			C1697.2,2382.6,1691.5,2427.8,1691.5,2427.8z"/>
	</g>
</g>
</svg>
