<svg xmlns="http://www.w3.org/2000/svg" xmlns:xlink="http://www.w3.org/1999/xlink" id="BD-Head-R" x="0" y="0" version="1.1" viewBox="0 0 1200.9 1200" xml:space="preserve" style="enable-background:new 0 0 1200.9 1200"><style type="text/css">.st0{fill:#fefefe}.st1{fill:#999}.st2{fill:#fff}.st3{fill:#343434}</style><g><rect id="Background" width="1200" height="1200" x=".9" class="st0"/><path d="M1180,834.8c3.3-20.6,2.1-41.3-1.8-61.6c-6-31.3-18.4-60.2-34.6-87.6c-14.5-24.6-25.6-50.5-30.7-78.7 c-2.6-14.6-11.3-24.5-25-30.5c-9.6-4.2-18.7-9.4-28.2-14.2c0.7-1.2,1-2.3,1.7-3.1c9.2-11.6,9.5-24.2,2.8-36.8 c-3.6-6.7-8.8-12.6-13.7-18.5c-2.1-2.5-3.1-4.2-1.9-7.8c3.3-10,0.5-18.9-7.6-25.5c-8-6.5-17.1-10.6-27.8-10.4 c-2.4,0-6.8-0.5-6.9-1.1c-0.3-2.9-0.1-6.3,1.1-9c8.9-19,9.3-38-1.1-56.2c-8.7-15.3-31.6-21.1-45.9-12.6c-0.4-0.1-0.9-0.1-1.2-0.4 c-16.3-15.4-35.1-26.6-56.1-34.6c-2.6-1-4.1-4.9-6.2-7.5c0.5-0.5,1-0.9,1.5-1.4c3.8,1.1,7.6,2.5,11.5,3.4c12.4,2.9,25,4.6,37.6,2 c7.5-1.5,9.8-8.5,4.7-14.2c-3.2-3.6-7.3-7.4-11.7-8.7c-11.6-3.5-19-11.9-27.4-19.6c-7.2-6.7-14.9-13-23.2-18.3 c-9.3-6-16.2-5.6-23.8,2.2c-6,6.2-10.2,14.2-15.1,21.4c-3,4.3-5.9,8.7-8.8,13.1c-1.8-0.8-2.6-1.1-3.3-1.6 c-28.5-18.2-60.1-28.1-93-34.4c-2.2-0.4-4.8-3.2-5.8-5.5c-3.6-8.9-7.1-17.9-15.7-22.9c-10.6-6.2-23.4-4-32.9,5.8 c-5.1,5.2-10.7,8.4-17.7,9.5c-3.2,0.5-6.4,0.8-9.5,1.4c-10.2,1.9-19.7,0.8-29.3-4.2c-8.4-4.5-17.6-8-26.8-10.4 c-6.8-1.8-10.5,2.3-10.6,9.3c-0.1,3,0,5.9,0,9.4c-3.2,0.4-6.4,0.9-9.5,1.2c-28.7,3.2-55.9,11.2-81.5,24.5 c-22.1,11.5-40.1,27.9-57.4,45.5C428.8,367,410,388.9,396,414.7c-3.4,6.4-6.9,13.2-12.1,18c-17.4,16.2-37.2,29.1-59.1,38.4 c-22.3,9.5-44.6,19-67,28.2c-2.1,0.9-5.8,0.6-7.6-0.7c-7.4-5.4-14.3-11.6-21.5-17.3c-8.2-6.5-16.1-13.6-25-19 c-13.2-8-25.8-6.5-37.4,3.8c-4.6,4.1-8.8,9-11.7,14.4c-3.3,6.3-7.8,6.6-13.4,5.2c-2.7-0.7-5-2.6-7.7-3.4c-5.7-1.7-12-2.3-16.3,2.3 c-2.5,2.6-4.4,7.4-3.9,10.8c1.6,9.9,6.7,18.4,15.9,23c17.9,8.9,36.2,11.5,55,1.9c1.6-0.8,4.6-0.3,6.1,0.7c2.4,1.7,4.2,4.3,5.9,6.7 c2.9,4.1,3.6,7.9-1.5,11.4c-3.1,2.2-5.7,5.3-8,8.4c-15.6,21-28.3,43.6-37.9,67.9c-5.7,14.4-8.6,30.1-24.3,38.2 c-3.6,1.8-6.2,5.4-9.6,7.5c-8,5-16.2,9.5-24.3,14.3c-9.4,5.6-19.1,10.7-27.9,17.1c-7.5,5.5-12,13.6-12.4,23.2 c-0.4,12,0.1,24.1-0.1,36.1c-0.1,3.2-0.7,6.9-2.3,9.6c-14.7,23.7-23.7,49.6-28,77c-4.7,30.2,7.5,64.9,46,71.8 c8.4,1.5,15.7,5.4,23.2,10c18.3,11.5,38,13.9,57.6,1.8c1.2-0.7,3.4-0.9,4.5-0.3c13.2,7.2,27.2,8.9,41.8,6 c9.1-1.8,18.5-3.7,24.5-11.6c3.2-4.1,6.3-7.2,11.7-7.7c1.9-0.2,3.7-1,5.6-1.5c13-3.8,20.1-12.9,19.8-25.3 c-0.5-18.7-10-31.4-28-36.1c-10.7-2.8-21.1-5.6-30.7-12.1c-9-6.1-19.3-10.4-30.7-10.1c-1.2,0-2.5-0.6-3.5-1.4 c-8-6.2-12.2-21.2-8.8-31.1c4-11.7,15.1-20,26.2-20c5.1,0,10.4-0.1,15.4-0.9c32.5-5.1,61.4-18.8,88.1-37.5c4.5-3.2,9-6.3,13.9-9.7 c3.2,14.6,5.9,28.4,9.3,42.1c6.5,26.7,15,52.8,28.1,77.2c1.3,2.4,2.3,5.1,2.8,7.8c1.8,8.3,2.8,16.9,5.2,25.1 c9.2,30.7,31,48.6,61.4,55.3c28.6,6.3,57.7,9.3,87.1,6.8c1.7-0.1,3.8,0.7,5.3,1.7c22.8,15.1,46,12.6,69.2,1.6 c8.7-4.1,15.1-10.6,15.6-21.2c0.1-1.3,0.8-3.2,1.8-3.8c8.9-5.5,13.3-13.7,15.1-24.9c12.1,4.4,21.9,1.1,31.3-5.4 c1.6-1.1,4.6-0.9,6.7-0.3c16.1,4.9,29.1,0.6,39.5-12.5c1.3-1.6,3.6-2.8,5.7-3.5c10.4-3.1,19.4-8,22.5-19.1 c2.9-10.7-1.8-19.2-9.5-26.4c-1.3-1.2-2.3-2.7-3.5-4c64.4,10.9,125.1-3,183.9-23.3c5.5,10.8,9.5,20.8,15.4,29.7 c17,25.4,45.7,28,65.4,6.3c10-11,16-24.5,16.6-39.1c0.6-12.8,4.8-21.4,16.7-25.9c1.9-0.7,4.3-1.8,6-1.3c10.8,3.3,21,8,27.8,17.6 c8.6,12.1,4.3,25.7-9.1,31.1c-10.3,4.2-19.9,9.4-23.5,21.2c-0.3,1.1-2.1,2-3.4,2.4c-11.9,3.2-17.9,11.7-21,23 c-5.4,19.6,4.7,35.5,24.7,39c3.5,0.6,7.2,2.5,10,4.8c14.7,12.3,31.1,19.9,50.4,15.6c9.1-2,17.7-7,25.9-11.8 c8.2-4.7,15.1-7.9,24.8-2.1c14,8.4,29.7,10.7,46,7.1c18.9-4.3,30.6-23.7,25.6-42.4c-0.4-1.3-0.4-2.9-0.1-4.3 C1174.9,856,1178.2,845.5,1180,834.8z M485.3,823.4c-3-0.6-7.3-0.1-8.7-1.9c-3.5-4.3-6.9-9.4-7.9-14.7c-1.7-8.7-1.5-17.9-2-25.4 c0.2-5.3,0-9.3,0.7-13c0.4-2,2.3-3.7,3.5-5.5c1.2,1.9,3.2,3.6,3.6,5.7c1.5,7.8,2.2,15.7,3.9,23.4c1.7,7.7,4.5,15.1,6.5,22.7 C485.6,817.6,485.2,820.6,485.3,823.4z"/><path d="M1009.2,475.9c1.8,3,3.2,7.1,6,8.6c7.1,3.8,14.8,6.4,23.5,10c-0.4-2.4-0.4-4.1-0.9-5.6 c-3.7-10.6-11.9-16.4-21.9-20c-3.5-1.3-7.5-1.4-11.2-2.1C1006.1,469.8,1007.5,472.9,1009.2,475.9z" class="st1"/><path d="M892.2,340.2c-2.7-3.5-5-7.4-8.2-10.3c-4.3-4-8.6-7.6-9.9-13.3c11.3,5.4,22,11.1,33,15.7 c11.4,4.7,23.5,6.1,36,3.9c-0.4-1.7-0.4-2.3-0.6-2.5c-1.2-0.8-2.5-1.5-3.9-2c-11.4-4.5-21.4-11-29.6-20.1c-3.8-4.3-7.6-8.8-11.6-13 c-8.2-8.6-18.1-9.6-26-0.8c-10.1,11.2-19,23.6-28.5,35.5c16,2.9,31.8,5.8,47.5,8.7C891.2,341.4,891.7,340.8,892.2,340.2z" class="st1"/><path d="M760.9,318.1c23-1.4,45.5,0.8,67.4,8.2c1.8,0.6,3.8,0.4,5.7,0.6c0.2-0.8,0.4-1.6,0.5-2.4 c-28.4-13.8-57.5-25.7-91.6-30.2c4.2,7.8,7.2,14.3,11,20.2C755.2,316.4,758.6,318.3,760.9,318.1z" class="st1"/><path d="M243.8,506.2c-1-0.9-1.7-1.7-2.5-2.3c-10.8-8.3-21.8-16.5-32.4-25.1c-12.2-9.9-33.8-15.6-46.4,1.2 c-2.4,3.2-3.9,7.1-6.3,10.4c-1,1.4-3.3,3.1-4.8,2.9c-8.8-1-17.6-2.7-26.4-3.7c-4.7-0.5-7.5,2.9-5.2,6c8.1,11.2,18,20.7,32.5,22.1 c17.1,1.8,30.3-7.4,42.6-17.9c1.1-1,2.4-1.8,3.6-2.7c0.7,0.5,1.4,0.9,2,1.4c-2.6,5.5-5.3,11.1-7.6,15.9c4.3,5,8.5,9.9,12.9,14.9 C218,522,230.7,514.2,243.8,506.2z" class="st1"/><path d="M692.1,836.5c-6.4-12-17.4-16.5-29.9-18.9c-2.9-0.6-6.7,0.7-7.5-4.1c-0.1-0.7-2.5-1.2-3.9-1.5 c-26.2-6.5-52.5-13.1-78.8-19.4c-2.5-0.6-5.7-0.8-8,0.2c-10.8,4.7-21.4,9.9-32.1,14.7c-2,0.9-4.5,0.8-6.8,1.1c1-2.2,1.3-5.3,3-6.4 c6-4,12.5-7.3,18.8-10.8c2.3-1.2,4.7-2.2,7.9-3.6c-24.9-7.8-48.6-15.2-73.5-23c1.9,17,5.3,32,11.3,46.4 c9.3-6.2,17.8-11.8,26.3-17.5c0.5,0.7,1,1.3,1.5,2c-1.4,1.3-2.8,2.5-4.1,3.8c-5.6,5.6-11.2,11.2-16.7,17c-0.8,0.9-0.9,2.7-0.7,4 c0.1,0.4,2.1,0.7,3.3,0.8c10.8,0.6,21.9,0,32.5,2c13.3,2.5,24.2,9.6,30.6,22.4c1.2,2.3,3.6,4.2,5.8,5.7c10.8,6.9,19.8,15,23.6,27.9 c0.5,1.9,2.9,4.3,4.7,4.5c5.7,0.6,11.8,1.4,17.1-0.1c11.1-3,15.8-18,10.6-31c-6.1-15.3-19.1-20.8-33.9-23c-7.2-1.1-14.6-1-21.9-1.5 c3-6.3,21.4-7.7,38.2-2.4c9.2,2.9,17.2,8,22.4,16.4c6.6,10.6,7.5,22,4.1,34.6c10.7,1.6,20.5,1.5,28.8-5.9 c8.5-7.5,9.6-11.5,4.2-21.4c-9.4-17.1-23.4-27.8-43.9-28c-2.3,0-4.6-0.4-7-0.6c0-0.8,0-1.6,0-2.5c7.1-1.5,14.5-2,21.5-0.3 c22.5,5.4,36.4,19.6,40.5,43.6c3.5-2.7,6.4-4.6,8.9-6.9C695.7,848.8,696.3,844.3,692.1,836.5z" class="st1"/><path d="M615.4,495.8c-0.7-7-9.7-16.5-15.1-15.8c-12.5,1.5-25.1,2.9-37.6,4.5c-1.8,0.2-4.7,1.1-4.9,2.1 c-0.3,1.7,0.5,4.5,1.8,5.6c11.7,9.2,23.7,18.2,35.7,27.1c1.3,0.9,3.8,1.2,5.4,0.6c5.8-2.2,16.3-11.9,14.7-20.9 C615.4,497.9,615.5,496.8,615.4,495.8z" class="st2"/><path d="M581.4,640.9c9.5,3.2,19.1,5.9,28.7,8.8c7.7-1.1,10.3-2.4,13.9-7.9c5.6-8.7,2.1-27.4-6.9-32.5 c-2.7-1.5-8.2-1.5-10.4,0.3c-9.3,7.5-17.9,16-26.7,24.1C576.5,636.8,577.5,639.6,581.4,640.9z" class="st2"/><path d="M685.3,379.5c-52.1,32.6-75.3,106.9-60.5,167.6C618.7,481.8,637.9,425.6,685.3,379.5z" class="st2"/><path d="M642.4,401.4c8-2.3,14.7-7,18.5-14.8c4.6-9.4,2.2-15.5-7.4-19.5c-3-1.2-5.9-2.5-8.8-3.8 c-7.5-3.4-14.9-6.9-22.4-10.3c-0.5,0.4-1.1,0.7-1.6,1.1c4.7,15,9.2,30,14.4,44.8C635.6,400.4,640.2,402,642.4,401.4z" class="st2"/><path d="M659,729.7c-0.5,0.1-1,0.2-1.6,0.3c-0.5,3.3-1,6.7-1.6,11.1c3.3-0.7,5.6-1.2,9-1.9L659,729.7z" class="st2"/><path d="M870.8,783.4c-0.4-5.7-0.8-10.4-1.2-15c-1-11.8-1.7-23.6-3.4-35.2c-0.6-3.7-3.4-7.8-6.4-10.2 c-8.2-6.6-14-14.2-16-24.8c-1.1-5.5-3-10.9-5.3-16c-3.9-8.5-8.8-16.7-12.8-25.2c-12.6-27.3-20.3-56-23.5-85.9 c-0.3-2.4-0.8-4.7-1.1-7c-0.6,0-1.2,0-1.8,0c-3.8,17.1-7.6,34.3-11.4,51.4c-1.2-9.7-2.1-19.1-1.1-28.4 c3.4-29.9,11.8-58.4,24.8-85.5c3.3-6.9,2.6-8.2-4.8-9.8c-2.4-0.5-5.1-0.5-7.5,0.1c-11.1,2.8-18.2,10.8-24.7,19.6 c-1.4,1.9-3,3.6-4.5,5.4c-0.7-0.3-1.4-0.6-2-1c1.4-6.2,2-12.7,4.2-18.5c7-18.2,29.9-25.1,48.4-22.4c11.2,1.6,21.8,5.5,28.3,15.8 c2.2,3.5,4.1,7.3,1,12.3c-5.5-7.7-11.9-13.3-22.1-15c1.1,2.3,1.5,3.9,2.4,4.8c7.9,7.9,15.1,16.7,24,23.2 c20.8,15.2,45.2,23.5,68.9,33c18.3,7.3,37.2,12,57.2,10.3c8.6-0.7,16.3-3.5,23.1-8.7c1.1-0.8,2.3-1.5,3.7-2.3 c0.5,9.2,4.3,13.7,13.4,14c6.1,0.2,12.6-0.5,18.2-2.6c14.6-5.3,19.3-17,13.8-31.5c-5.9-15.6-17.5-25.7-31.4-33.8 c-3.8-2.2-7.7-4.1-11.9-6.2c2.8,7.8,6.2,14.5,7.6,21.6c1.5,7.4,1.5,15.3-5.5,21.2c-1.1-1.2-1.9-2-2.5-2.8 c-7.5-11.1-17-18.7-30.8-21.1c-10-1.7-18.7-7.3-11.1-19.8c0.3-0.5,0.1-1.2,0.1-2.2c-15.9-4.4-30.2,0.4-44.2,7.8 c0.8-2.5,2-4.1,3.5-5.3c13.1-10.5,27.5-13.4,43.5-7.6c1.7,0.6,4,1.3,5.4,0.6c7.9-3.6,15.4-2.5,23,1c1.9,0.8,4.3,0.4,6.5,0.5 c0.3-1,0.6-2,1-3c-5.1-2.7-10-6.3-15.4-7.8c-21.5-5.8-44-6-64.5,1.4c-9.1,3.3-13.3,7.5-38.3,4.3c-27.5-3.5-54.3-32.2-54.2-59.7 c0-3.9-1.1-5.8-4.8-7c-1.9-0.6-3.1-3.2-4.6-4.9c2-0.8,4-2.4,6-2.2c15,0.9,27.5,7.1,38.3,17.6c15.6,15.1,31.7,29.7,47.6,44.4 c1.2,1.1,3.1,2.3,4.4,2.1c8.1-1.8,16.3-3.5,24.2-6.1c4.6-1.5,7.8-5.5,6.2-10.6c-2.1-6.6-4.1-13.9-8.2-19.2 c-13-16.8-27-32.8-40.6-49.2c-1.2-1.4-2-3.2-3-4.8c0.5-0.3,1-0.6,1.6-0.9c22.4,17,40.3,38,55,63.6c2.5-10.5,4.6-19.6,6.7-28.7 c0.7,0.1,1.4,0.3,2.1,0.4c0,1.4,0,2.8,0,4.1c-0.3,12.2-0.7,24.4-1,36.5c-0.1,4.3,0.4,8.9,5.7,9.3c3.4,0.2,6.9-1.7,10.3-2.7 c-0.6-0.6-1.3-1.2-1.9-1.8c-0.3-3.3-1.1-6.6-0.7-9.8c1.5-12.8,3-25.6,5.5-38.2c0.8-3.8,4.5-7.3,7.6-10.2c0.9-0.8,4.3,1.2,6.6,1.8 c-0.6,1.8-1.1,3.7-1.9,5.4c-1,1.8-3.1,3.3-3.4,5.1c-2,11.1-3.7,22.3-5.5,33.5c7.8-5.8,4-18,14.2-22.6c-0.1,4.6-0.6,9.2-2.3,13.3 c-2,4.9-0.2,7.1,4.4,9.2c1-3.7,2-6.9,2.7-10.2c4.1-18.4-1.9-34.1-16.8-43.9c-6.3-4.2-12.7-4.4-19.5,0c1.2,2.5,2.3,4.8,3.3,7.1 c-56.2-52-125.6-58.5-196.8-59.8c1,2.4,2.5,3.8,4.1,4.9c3.4,2.3,7.1,4.1,10.3,6.6c1.3,1.1,1.6,3.5,2.4,5.2c-2,0.3-4.3,1.2-6.1,0.6 c-2.6-0.8-4.8-2.7-7.2-4.3c-20.7-13.8-37-31-45.5-55.1c-3.2-9.2-7.5-18.3-13-26.3c-6.3-9.1-14.8-9.1-23.3-2.1 c-6.5,5.3-12.8,10.9-19.6,15.7c-7.3,5.2-13.6,6.6-19.3,5c3.4-2.6,6.5-5,9.6-7.4c-1.6-1.2-2.4-1.3-3.2-1.2 c-15.9,2.1-30.7-1-44.5-9.4c-3.1-1.9-7.2-2.2-10.9-3.2c-0.5,4-1.1,8.1-1.4,12.1c-0.1,1.2,0.6,2.5,1.1,3.7 c9.6,21.7,24.5,38.4,46.5,47.9c12.2,5.3,25.2,7.7,38.3,2.7c17-6.4,23-20.8,25.6-37.3c0.4-2.3,0.7-4.6,1-6.9 c0.6-0.1,1.3-0.1,1.9-0.2c0.7,1.6,2,3.3,1.9,4.8c-1.2,14.2,0.3,28.2,2.4,42.2c0.4,2.6-0.5,5.6-1.1,8.3c-0.3,1.1-1.5,2-2.3,3 c-0.7-8-1.2-15.5-6.4-21.5c-6.9,6.1-13.2,11.8-19.4,17.3c2,7.9,4.7,15.7,5.8,23.7c1.1,8,0.9,16.3,0.5,24.5 c-0.1,1.8-3.3,3.4-5.1,5.2c-0.9-1.8-1.8-3.6-2.6-5.4c-0.4-0.9-0.5-1.8-0.9-3.5c-9.7,11.1-19.1,21.4-27.9,32.1 c-3.1,3.7-5.6,8.1-7.5,12.6c-10.1,23.7-9.7,47.7-1.1,71.7c3.3,9.3,5.1,18.7,3.2,29.6l-20.4-49.8c-8.3,29.1-4.9,57.4,4.5,86.6 c1.6-1.9,2.7-2.9,3.3-4.1c11.9-28,32-49.6,54-69.8c7.2-6.6,14.9-13.3,19.9-21.5c12.4-20.1,28.5-34.1,52.6-37.5 c4.6-0.7,9.8-0.6,13.6-2.8c10.2-6,21-5.7,31.9-4.2c3.8,0.5,7.4,3.2,10.7,5.5c1.4,1,1.8,3.6,2.6,5.5c-1.9,0.6-3.8,1.6-5.8,1.6 c-3,0.1-5.9-0.6-8.9-0.9c2.9,2.8,6.3,4.4,9.7,6c15.9,7.7,29.8,18,40.5,32.1c4.1,5.4,6.5,11.6,6.4,20.1c-2.2-1.9-3.4-2.5-4-3.5 c-18.8-31.1-46.8-46.9-82.5-50c-20.4-1.8-38.2,3.3-50.1,21.2c-4.8,7.3-8.9,15.2-12.2,23.3c-3.8,9.5-6.9,19.4-9.4,29.4 c-5.3,21.4-10.1,43-14.7,64.6c-1.4,6.7-1.6,13.7-2.3,20.6c-0.6,0-1.2-0.1-1.7-0.1c0-13.9,0-27.8,0-41.7c-3.4,1.2-4.4-0.3-3.4-4.1 c3.3-12.9,6.4-25.8,9.8-38.6c2.4-8.8,5.3-17.4,7.9-26.1c-0.5-0.1-0.8-0.3-0.9-0.2c-2.8,2.6-5.4,5.3-8.2,7.9 c-20.3,19-36.8,40.7-49.4,65.5c-14.8,28.9-19.2,58.7-11.1,90.3c8.9,34.9,26.3,65.1,48.3,93c13.4,17,29.8,30.4,50.2,38.1 c23.3,8.8,40.6,1.3,50-21.7c8.4-20.7,6.8-42.6,3.3-63.6c-3.8-22.6-6.4-45.1-6.6-67.9c0-3.3,0.7-6.6,1-9.9c0.6,0.1,1.2,0.1,1.8,0.2 c0.2,0.8,0.6,1.5,0.7,2.3c4.1,30.4,8.1,60.9,12.3,91.3c3.2,23,1.4,45-12.6,64.7c-0.4,0.6-0.4,1.5-0.7,3c12.2-2.3,22.7,1.7,33.4,5.8 c10.7,4,21.2-0.5,32-2.4c-13.3-6.9-23.6-16.4-30.5-29c-6.9-12.6-10.3-26.2-8.1-41.1C827.3,749.3,843.7,770.3,870.8,783.4z" class="st1"/><path d="M991.5,448.1c-2.2,1.9-4.5,3.9-5.7,4.9c-4.4,12.2,8.3-2.6,12,14.4C1001.1,460.8,998.9,454.2,991.5,448.1z" class="st2"/><path d="M887.4,452.8c2.4-0.2,4.8,0,8.7,0c-18-15-32.7-32-56-38.1c5.8,32.7,18.8,53.1,53.9,59.7 c8.4,1.6,20.1-5.1,20.1-5.1c-1-2-3.5-3.3-6.3-5.8c0.6,7.2-3.1,9.1-7.7,9.9c-5.7,1-16.1-4.1-19-9.1C878,458.8,881,453.2,887.4,452.8 z" class="st2"/><path d="M991,485.2c11.4,7.1,16.3,18.5,20.1,32C1015.5,505.2,1004.5,486.6,991,485.2z" class="st2"/><path d="M1037.3,564.5c-6.7,1.1-13.5,2.2-20.8,3.4c2.6,10.8,6.9,21.1,0.5,33C1032.5,593.6,1042.8,573.3,1037.3,564.5z" class="st2"/><path d="M973.2,579.9c3.6-3.5,7.3-6.9,12.2-11.5c-8,0-14.1,0.4-20.1-0.1c-4.4-0.4-6.6,1.3-8.5,5 c-6.4,12.1-14,23.7-19.6,36.2c-4.4,9.8-5.2,20.5,0.4,30.9c6.2,11.5,12.9,22.9,17.3,35.1c2.8,7.8,7.1,8.5,13.3,7.7 c2.1-0.3,4.7-1.4,6-3c6.1-7.2,11.7-14.8,17.7-22.1c2.6-3.2,1.9-5.9,0.3-9.3c-5-10.9-10.1-21.8-14.2-33c-2.6-7.1-3.4-14.8-5.3-24.1 c-3.5,5.6-6.8,9.6-8.6,14.2c-8,19.9-3.2,38.7,6,57c1.1,2.1,2.3,4.2,2.9,6.4c0.3,1.2-0.4,3.2-1.4,3.9c-0.8,0.6-3,0.2-3.9-0.6 c-2.4-2.1-5-4.3-6.5-7.1c-8.4-14.9-10.7-31.3-8.9-47.9C953.8,602.4,962.5,590.4,973.2,579.9z" class="st1"/><path d="M958.3,693.5c2.3,4.8,3.6,11,5.9,11.8c13.2,4.8,7.3,4.2,19.1-0.8l9.3-5.9l9.9-40.4c-1-0.4-1.9-0.8-2.9-1.2 c-1.1,1.7-2.2,3.4-3.3,5.1c-4.3,6.7-8.3,13.6-12.9,20.1C977.7,690.3,969.4,693.7,958.3,693.5z" class="st2"/><path d="M940.5,577.2c6.1-12.1,5.8-13.7-6.2-19.2c-8.4-3.8-17.3-6.6-25.9-9.9c-0.4,0.6-0.7,1.1-1.1,1.7 c6.4,16,10.6,32.3,6.5,49.8C924.9,596.2,935.5,587.2,940.5,577.2z" class="st2"/><path d="M863.5,718.2c1.3,0.9,4.6,1.1,5.7,0.1c7.5-6.2,15.4-12.1,21.7-19.5c3.6-4.2,4.2-10.9,6.2-16.5 c-0.8-0.3-1.7-0.7-2.5-1c-1.1,0.6-2.2,1.2-3.3,1.9c-11,7-22.2,13-35.9,11.2c-3.9-0.5-4.1,2-3.9,4.9 C852.3,707.6,857,713.6,863.5,718.2z" class="st2"/><path d="M945.6,668.5c-23.7-53.5-63.5-87-122.4-95.7c-2.3-0.3-4.9,0.9-7.3,1.4c2.2,1.4,4.3,3.7,6.7,4.1 c11.8,1.9,22.2,6.6,31.4,14c26,20.9,42.2,48.8,55.4,78.8c0.5,1.2,0.1,2.9,0.1,4.3c-0.6,0.3-1.2,0.6-1.8,0.8 c-15.3-45.2-47.5-73.3-90.8-91.6c0,2.7-0.3,4.6,0.1,6.4c3.6,16.5,7.4,33,11.1,49.5c1.1,4.6,4.1,7.2,8.1,9.9 c5.3,3.5,9.3,9.1,13.8,13.8c0.7,0.8,0.9,2.2,1.3,3.3c0.8-0.6,1.7-1.2,2.5-1.8c-1.5-4.1-2.3-8.6-4.5-12.3 c-6.1-9.8-12.9-19.1-19.3-28.8c-1.1-1.6-1-4-1.4-6c2.3,0.2,4.7,0,6.8,0.8c1.4,0.5,2.4,2.4,3.5,3.7c12.6,16,19.3,34.4,22.1,54.3 c1.9,13.4,1.9,11.2,13.5,8.1c0.8-0.2,1.6-0.6,2.3-1c7.9-4.6,15.8-9.2,25.5-14.9c-0.7,6.8-0.5,12.8-2,18.4 c-3.7,13-12.2,23.1-21.9,32.1c-3.5,3.2-5.3,6.6-5,11.2c1.4,21.8,0.7,43.9,8.1,64.9c5.3,15.2,11.7,29.7,25.5,39.3 c6.6,4.5,14.1,6.7,22,4.7c11.3-2.9,20-9.6,26.1-19.6c9.7-16,12.2-33.9,11.8-52.1C966.2,733.9,959.7,700.3,945.6,668.5z" class="st3"/><path d="M1003.5,700.4c-1.4-1.4-3.9-0.5-5.9-0.8l-14.3,8.8c-2.5,5-8.4,7.4-15.9,6.4c1.9,13.9,3.6,26.8,5.3,39.8 c1.1,8.3,2.2,9.3,9.8,5.3c14-7.4,23.3-19.4,27.5-34.3C1012.4,716.8,1010.4,707.4,1003.5,700.4z" class="st1"/><path d="M1016.5,707.7c5.2-10.4,0.3-27.8-9.4-34.6c-0.4,0.7-1.1,1.3-1.3,2c-2,7.6-5.7,15.2,4.2,21.1 C1013.3,698.1,1014.3,703.5,1016.5,707.7z" class="st1"/><path d="M1137.9,845.8c-1.3-1.3-2.8-2.6-4.2-3.8c0.4-0.7,0.9-1.3,1.3-2c6,3.3,12,6.7,18.1,9.9c1.4,0.7,3.3,1.7,4.5,1.3 c3.9-1.5,5.6-13.1,2.7-16.2c-21.9-23.1-49.1-33-80.6-31.8c-6,0.2-12,1.3-18,2c13.9,4.7,29.7,1.3,41.1,12.9 c-36-3.7-71.7-7.4-104.4,15.2c5.6,5.3,2.6,8.5-1.5,10.8c-5,2.8-10.7,4.5-15.6,7.5c-7.9,4.8-10.2,12.7-10.1,21.6 c0,7.9,4.9,11.6,11.2,15c7.2,3.8,14.3,5.4,22.1,0.7c3.1,9.3,8.8,15.2,17.2,18.2c13.6,5,27.2,3.9,40.3-1.1 c15.3-5.9,18.9-23.8,7.9-36c-1.2-1.4-2.1-3.1-3.1-4.6c0.6-0.5,1.2-1.1,1.8-1.6c3.8,3.5,8,6.7,11.2,10.7c5.4,6.7,3.3,14.4,0.7,22.4 c3.9-0.4,6.9-0.8,9.2-1c0-7.4-0.9-14.1,0.2-20.4c1.2-6.7,5.7-11.5,13.4-13.1c-0.2,3.7-0.8,7.2-2.4,10.1c-2.9,5.2-2,9.7,0.6,14.5 c6.8,12.4,28.3,22.4,41.7,17.9c16.9-5.7,29.6-19.9,14.2-39.6C1151.6,858.3,1144.4,852.3,1137.9,845.8z" class="st1"/><path d="M1126.2,676.8c-7-14.9-15.6-29-18.3-45.8c-1.7-10.3-5.4-20.3-9.1-30.1c-1.3-3.4-4.8-6.5-8.1-8.4 c-8.5-4.9-17.6-9-26.2-13.7c-6.7-3.6-13.2-7.7-19.7-11.6c-0.4,0.7-0.7,1.1-0.7,1.5c-1.8,20-12.7,33.3-30.6,41.2 c-2.3,1-5.3,0.5-7.9,0.7c0.7-2.2,1-4.6,2.2-6.5c7.3-11.8,7.1-24,1.9-36.4c-0.5-1.3-3-2.7-4.4-2.5c-13.8,1.3-26.1,17.4-24.2,31 c2.3,16.7,9.6,31.5,17.2,46.2c0.3,0.6,1.4,0.8,2.2,1.3c1.4-1.9,2.6-3.5,3.8-5.3c0.9,0.6,1.6,0.9,1.8,1.4c0.5,0.9,1,2,1,3 c-0.2,10,4.4,17.8,10.9,25.1c7.9,9,9.8,20.1,9.5,32c-0.2,8.6-3.3,15.3-9.8,20.7c-0.6,0.5-0.9,1.5-1,2.3c-1.2,11.7-6.5,21.6-14.3,31 c22.2,11.9,37.7,27.4,31.1,55c4.6-0.3,8-0.3,11.4-0.8c1.5-0.2,3-1.2,4.3-2.2c2.6-2.1,4.6-5,7.4-6.4c20.7-10.1,41.4-7,61.7,1.3 c17.2,7,32.6,17,47.4,31c1-6.9,2.4-12.5,2.5-18c0.3-29.9-8.1-58.2-17.2-86.1C1144.7,710.1,1134.3,693.9,1126.2,676.8z" class="st1"/><path d="M823.1,801.1c-6.8-1.4-13.7-2.5-20.4-4.3c-6.8-1.9-13-0.7-19.5,1.5c-9.1,3.1-18.2,7.6-27.5,8.2 c-21.2,1.3-39.7-7.4-54.7-21.8c-10.5-10.1-19.3-21.8-28.5-33.1c-2.6-3.1-4.5-5.2-9-4c-5.3,1.3-10.8,1.7-17.1,2.7 c0.2-2.6,0.1-4.4,0.6-6.2c1.6-7.1,3.3-14.2,5.1-21.3c1.8-7.2-0.4-13.7-6.6-17.5c-18.3-11.5-32.5-26.7-41.4-46.5 c-2.5-5.5-6.3-8-11.9-9.5c-7.9-2.1-15.6-5.1-25.1-8.3c7.1-7.8,12.6-14.4,18.7-20.2c3.5-3.4,3.7-6.4,2.5-10.9 c-8.1-29.7-14.3-59.7-11.9-90.9c0.1-1.8-1.1-4-2.4-5.4c-8-8.9-16.3-17.7-24.4-26.5c-0.9-1-1.2-2.5-2.3-4.8c10-2,19.1-4.5,28.3-5.5 c5.4-0.6,7.4-2.7,8.5-7.4c6.8-28.3,17.7-54.8,36.8-77.2c2.9-3.5,3.1-6.5,2-10.5c-2.9-10.5-5.5-21.2-8-31.8 c-0.4-1.7,0.2-3.6,0.3-5.4c2,0.2,4.2-0.1,6,0.6c9.1,3.9,18,8.2,27,12.1c1.9,0.8,4.7,2,5.9,1.2c6.2-4.3,12-9.2,18-13.9 c-1.3-1.1-1.6-1.5-1.9-1.6c-30.8-6.7-54.2-23-67-52.6c-1.6-3.8-3.3-5.2-7.5-4.8c-22.4,2.4-43.7,8.4-64.3,17.6 c-22.1,9.9-41,24.5-58.8,40.4C424.1,386.6,389.1,439,368,500.5c-0.5,1.3-1.2,2.6-1.9,3.8c-0.8-0.3-1.6-0.6-2.4-0.9 c5.3-18,10.5-36.1,15.9-54.7c-1,0.6-1.8,0.8-2.4,1.3c-16.3,13.7-34.7,23.9-54,32.4c-25.3,11.2-51,21.5-76,33.4 C225.7,526.2,206.3,540,190,558c-16.7,18.5-25.1,41.3-34.2,63.8c-6.7,16.6-14,32.8-24.8,47.2c-1.2,1.6-3,2.8-4.5,4.2 c-0.5-0.5-0.9-1-1.4-1.5c1.7-4,3.4-7.9,5.6-13.1c-9.3,6-16.9,11.2-24.7,15.9c-8.8,5.3-18.3,9.7-26.7,15.5 c-6.5,4.5-13.4,9.8-17.5,16.4c-6.5,10.5-6.3,23-5.1,35.1c0.1,0.8,0.9,1.6,1.5,2.9c3.1-3.8,5.7-7.2,8.6-10.7 c0.9,1.4,1.3,1.8,1.3,2.1c-0.2,1-0.5,2.1-1,2.9c-16.5,29.1-29.5,59.6-37.3,92.2c-3.3,14-5.1,28,0.4,41.9 c7.2,18.2,22.1,27.5,40.1,32.1c8.8,2.2,17,3.8,24.6,10.2c11.3,9.4,26,7.3,39.6,4.9c17.4-3.1,22-28.2,9.3-37.7 c-7.1-5.3-15.3-9.3-23.2-13.4c-3.8-1.9-8.3-2.6-13.3-4c5.1-4.2,10.2-3.8,14.7-2.1c6.4,2.3,12.8,5,18.8,8.3 c14.5,7.9,20.1,22.8,14.8,38.2c-1.2,3.5-0.6,5.2,2.9,7c9.2,4.6,18.9,5.2,28.9,4.8c11.5-0.5,21-5.3,27.3-14.7 c2.6-3.8,4.1-9.8,3.2-14.3c-3.8-19.7-19.5-31.5-39.9-31.1c-2.1,0-4.2-0.3-7.5-0.6c6.6-4.9,15.2-5.6,25.7-1.3 c19.7,8.1,33.1,20.8,28.6,44.6c16.5-0.6,24.8-13.3,20.1-29.5c-4.3-14.7-16.7-20.1-30.1-23.1c-7.2-1.6-13.7-3.9-20.3-7.5 c-7.4-4-15.8-7.5-24-8.3c-17.1-1.6-34.4-0.6-50.9,5.4c-1.5,0.6-3.2,0.6-4.8,0.9c-0.2-0.6-0.3-1.2-0.5-1.8 c8.7-7.1,19.9-8.1,31.1-11.2c-14.7-23-6-40.7,12.5-57.2c-6.6-1.6-12.5-2.6-18-4.5c-5.5-1.9-12.1-1.9-16.9-9.4 c3.6,0.9,5.3,1.4,7.1,1.8c1.9,0.5,3.7,1.1,5.6,1.3c25.4,3.8,50.4,2.4,75.2-4.9c30-8.8,56.3-24.2,79.9-44.4c1.9-1.7,3.3-5.7,2.8-8.2 c-1.5-8.6-4.6-16.9-6-25.6c-3-19.4,4.3-36.3,14.3-52.2c15.9-25.2,36.6-46.2,58.9-65.5c9.1-7.9,16.1-15.8,20.4-27.5 c10.8-29.5,29.1-54.9,47.9-79.9c0.8-1.1,2.2-1.8,3.4-2.6c0.5,0.4,1,0.8,1.4,1.2c-17.9,26.4-30.9,55.2-42.4,85.1 c7.9-5.6,15.9-11.2,25.2-17.8c-0.9,3-0.9,4.6-1.7,5.5c-4.6,5.1-8.7,10.9-14.1,14.8c-34.9,24.8-65.1,54.3-88.3,90.3 c-11.1,17.2-17.1,36.1-12.5,56.9c1,4.4,3,8.6,4.7,13.4c5.4-7.3,9.6-13.1,13.8-18.8c0.6,0.4,1.2,0.8,1.7,1.2 c-0.7,2.3-1.4,4.6-2.5,8.2c6.5-4.7,11.7-8.4,16.9-12.1c0.6,0.6,1.1,1.2,1.7,1.8c-5.4,6.6-10.9,13.1-17.1,20.7 c45.5-0.5,84,13.5,119,37.9c-1.6,0.6-3,0.3-4.2-0.2c-15.3-6.8-30.2-14.8-45.9-20.2c-27.6-9.5-55.8-17.1-85.8-6.3 c2.9,13,5.2,25.9,8.6,38.4c10.5,39.3,24.6,77.3,44.6,112.9c2.7,4.9,5.6,9.7,8,14.7c0.6,1.3-0.2,3.4-0.3,5.1 c-1.4-0.5-3.3-0.7-4.2-1.7c-1.1-1.3-1.4-3.3-2.1-5.1c-1.3,1.1-2.6,2.1-3.9,3.2c4.2,6.8,7.5,14.3,12.7,20.2 c17.2,19.3,41,25.6,65.2,28.7c21.4,2.7,43.3,2.4,64.9,3.5c2.2,0.1,4.7,0.4,6.6,1.5c18.5,10.5,37,9.8,55.4,0.3 c7.1-3.7,11-9.8,10.9-18.3c-0.2-11.2-4.4-20.5-13.4-26.6c-9.7-6.5-20.5-11.5-30.8-17.2c-1.6-0.9-3.2-1.8-6.3-3.6 c2.9-0.8,3.9-1.3,4.8-1.2c21.9,1.8,44,8.7,53.3,35.2c1.8,5.2,3.5,5.4,6.8,1.2c8.1-10,5.8-26.1-5.2-35.9 c-14.7-13.2-31.6-21.3-51.7-21.5c-1.8,0-3.6-1.1-5.3-1.6c0.1-0.6,0.2-1.3,0.3-1.9c10,0,20.1,0,30.9,0c-2-1.5-3.3-2.5-4.8-3.4 c-20.7-12.1-42.5-10.5-64.3-4.4c-12.4,3.5-12.3,3.9-12.8,16.9c0,0.9,0,1.7-0.1,2.6c-1.4,9.4-3.1,18.8-9.5,26.3 c-1.9,2.3-4.8,3.7-7.3,5.5c-0.5-0.5-1-1-1.4-1.5c10.4-11.8,10.4-26,10.3-40.3c-6.2,7.4-11.1,15.5-19.9,19.9 c0.5-1.9,1.7-3.2,2.8-4.5c8.6-11,15-24.1,13-37.4c-3.3-21.7-3.8-43.2-1.9-64.8c1.2-13.6,4.1-26.8,12.2-38.2 c0.6-0.8,0.6-2.1,0.9-3.3c-6.9,1.7-13.3,3.3-19.6,4.9c14.1-9.3,28.4-17.2,41.9-26.2c14-9.2,24-22.5,33-36.7 c-0.3,15.4-6.8,27.7-18,37.9c13.6-4.1,23-14.1,33.6-22.4c-1.2,14.2-11.7,20.9-22.6,27.8c17.3,1.6,34.2,3.3,51,2.6 c18.6-0.8,30-13.6,31.1-32.4c0.2-3.4,0-6.9,0-10.3c0.7-0.1,1.4-0.2,2.1-0.4c1.3,3.7,2.7,7.4,3.7,11.1c4.2,15.6-2,29.8-17.3,34.9 c-10,3.3-21,4.8-31.5,4.7c-17.2-0.1-34.3-2.6-51.5-3c-20.1-0.5-27.7,5.8-33.3,25c-1,3.5-1.4,7.2-2.5,10.6c-1.4,4.2-0.4,6.1,3.9,7.5 c17.8,5.7,35.3,12,53.2,17.5c32.2,9.9,64.5,19.2,96.6,29.1c30,9.3,60.6,13.7,91.9,14.6c28.9,0.8,57.6-1.4,86.1-5.5 c7.2-1,14.4-2.6,21.5-4C823.2,802.3,823.1,801.7,823.1,801.1z" class="st1"/><path d="M368.3,887.3c-1.1-0.4-2.6,0.6-3.9,0.9c0.3,1.2,0.3,2.7,1,3.5c1.1,1.2,2.7,2.2,4.3,2.7c22.3,6.9,54.7-4.3,68.8-23.6 c0.3-0.4,0.1-1.2,0.3-3.8c-2.8,2.2-4.4,3.5-6,4.7C413.5,885.8,393.1,895.7,368.3,887.3z"/><path d="M884.5,409.9c-6-7-12.5-13.7-19.5-19.6c-17.1-14.5-36.9-20.3-59.3-17.4c-5.5,0.7-7.3,3.6-8.2,8.2 c-2.4,13.1,8.5,34.3,22.7,41.6c-1.3-3.1-1.9-4.6-2.5-6c-3.4-7.4-7-14.7-10.1-22.3c-2.6-6.1-1.4-7.9,5.4-7.4 c7.4,0.6,15,1.6,22.2,3.4c18.8,4.8,32,17.1,43.6,32.2c10.4,13.6,21.8,26.7,37.5,34.8c2.3,1.2,5.1,1.4,9.1,2.4 C910.9,442,898,425.7,884.5,409.9z"/><path d="M924.3,519.3c3.8,3.7,8.1,7.1,11.2,11.3c1.8,2.4,0.5,5.5-3.6,5.4c-4.3-0.1-11.8-5.7-12.4-9.9c-0.3-1.9,1.3-4.1,2-6.1 C922.4,519.7,923.3,519.5,924.3,519.3z"/><path d="M963,528.3c7.9,0.1,14.1,4.8,13.1,9c-0.4,1.7-3.2,3.9-5.1,4.1c-5.5,0.7-12.5-5-11.7-9.3C959.7,530.3,962.4,528.9,963,528.3 z"/><path d="M947.8,519.5c-6.5-1-10.3-3.8-11.4-8.9c-0.2-1.2,3.9-4.5,6.1-4.7c5.6-0.4,12.1,4.7,11.2,8.4 C953.3,516.5,949.9,517.8,947.8,519.5z"/><path d="M1028.1,526.9c3.3,3.8,5.8,6.6,8.2,9.6c0.1,0.1-2.7,2.9-2.9,2.8c-3.1-2.3-6-4.7-8.7-7.4 C1024.5,531.7,1026.3,529.5,1028.1,526.9z"/><path d="M983.6,522.4c-3.3,1.8-5.4,3.6-6,3.2c-3.1-2.2-5.7-4.9-8.5-7.5c1.1-1,2.8-3,3.3-2.7C975.7,517.1,978.8,519.3,983.6,522.4z"/><path d="M1033.3,511.2c3.2,3.5,5.8,6.1,8,9c0.2,0.3-1.7,2.2-2.6,3.4c-2.9-2.4-5.9-4.8-8.7-7.4 C1029.8,516,1031.6,513.8,1033.3,511.2z"/><path d="M959.1,739.6c12.1,30-1.1,82.9-24.2,93.3C955.4,804.1,959.7,772.5,959.1,739.6z"/><path d="M1030.1,849.5c-2.2,1.7-4.5,3.4-7.2,5.4c1.7,1.1,2.9,2,5.3,3.5c-16.6,3.2-20.9,17.7-28.8,29.6 C994.2,870.1,1011.6,850.6,1030.1,849.5z"/></g></svg>