<?xml version="1.0" encoding="utf-8"?>
<!-- Generator: Adobe Illustrator 26.0.1, SVG Export Plug-In . SVG Version: 6.00 Build 0)  -->
<svg version="1.1" id="BD-Body_00000173149472693030331960000001532728153068939708_"
	 xmlns="http://www.w3.org/2000/svg" xmlns:xlink="http://www.w3.org/1999/xlink" x="0px" y="0px" viewBox="0 0 1200 1200"
	 style="enable-background:new 0 0 1200 1200;" xml:space="preserve">
<style type="text/css">
	.st0{fill-rule:evenodd;clip-rule:evenodd;fill:none;}
	.st1{fill:#999999;}
	.st2{fill:#FDFDFD;}
	.st3{fill:#333333;}
	.st4{fill:#191919;}
</style>
<rect id="_x31_200x1200_Background" class="st0" width="1200" height="1200"/>
<g id="BD-Body">
	<path id="Sillowette" d="M1165.3,825.6c-3.4-3.7-4.1-8.5-4.2-13.5c-0.1-13-3.3-25.3-8.4-37.1c-6-13.8-13.9-25.9-26.5-35.1
		c-10.1-7.4-14-19.1-17.7-30.5c-2.7-8.2-4.7-16.7-9-24.3c-14.9-26.2-36.5-45.5-62.8-59.7c-13.5-7.3-27.5-13.8-41.4-20.4
		c-6.4-3.1-11.2-7.4-14.3-14c-11.1-23.9-27.6-43.5-48.7-59.3c-7.1-5.3-14.7-10-22.4-14.9c4.9-4.5,10.7-4.8,16.4-4.8
		c9.6-0.1,19.2,1.4,28.9,0.3c16.1-1.8,23.6-16.7,15.4-30.6c-2.4-4.1-5.2-7.8-8.5-11.1c-22.9-22-50-31.9-81.6-27.7
		c-19.9,2.6-35.2,12.6-44.9,30.5c-3.4,6.3-3.3,6.3-9.7,3.4c-58.3-27.2-116.9-54-173.6-84.6c-1.5-0.8-2.7-1.7-3.8-3.1
		c-20-25.5-43.2-47.7-69.6-66.4c-54.4-38.5-114-56.5-180.8-45.7c-22.8,3.7-44.6,10.7-63.5,24.7c-1.2,0.9-2.2,0.8-3.4,0.6
		c-8.4-1.2-16.5,0.3-24.3,3.1c-18.7,6.7-32.6,19-41.7,36.6c-0.6,1.2-0.8,2.7-3.1,2.4c-8.2-1.1-16.5-0.9-24.7-0.5
		c-2.3,0.1-4.2-0.4-5.9-2.1c-16.4-15.4-36-20.3-57.9-17.2c-15.6,2.2-29.8,8.3-43.7,15.4c-11.1,5.7-21.4,12.4-29.4,22.1
		c-3.8,4.6-7,9.6-7.5,15.7c-0.8,10.6,6.5,18.3,18.9,20.5c5.2,0.9,10.5,0.7,16.2,1.1c-0.9,1.5-1.5,2.5-2.1,3.5
		c-5,8.6-9.2,17.7-10.5,27.5c-0.8,5.7-3.1,8.1-8.3,10c-15.8,5.8-26.7,16.6-30.5,33.4c-1.8,7.9-1.6,15.9-0.1,23.8
		c0.5,2.9-0.3,4.3-3.1,5.5c-17.4,7.8-26.2,23.6-23.3,42.4c0.8,5.4,1.2,10.4-1.3,15.4c-0.8,1.7-1,3.7-1.3,5.6
		c-1.5,10.7,2.4,19.7,9.2,27.7c3.5,4.1,3.5,4.1-0.8,7.6c-2.3,1.9-4.6,3.9-6.7,6.1c-18.1,18.3-19.7,46.1-3.4,65.5c2.5,3,2.6,5,0.5,8
		c-1.8,2.5-3.2,5.4-4.5,8.3c-16.7,37.6-19.3,76.4-9.5,116C36,821.3,42.9,835,57,843.6c1.8,1.1,0.8,2.3,0.6,3.6
		c-3.4,17.7-2.1,35,3.8,52c4.3,12.4,12.7,20.2,25.6,23.1c12.6,2.9,25.4,2.7,38.2,2.2c9.4-0.4,18.5-2.2,27.2-6
		c3.8-1.6,6.3-6.6,10-6.1c3.7,0.4,7.1,3.8,10.9,5.4c21.8,8.8,44.4,9.6,67.3,6.3c11.5-1.7,22.1-6.5,32.6-10.9
		c12-5.1,19.1-14.7,19.4-28.2c0.2-8.8-3.2-16.7-7.9-23.9c-14.9-22.9-35.2-39.5-60.6-49.5c-11.3-4.4-23-8.8-35.3-2.7
		c-0.3-6.2,0.2-12,2.4-17.6c2.2-5.5,6.2-8.5,12.2-8.8c7-0.4,13.7,1,20.3,3c19.3,5.9,37.7,14.3,56.9,20.6
		c23.3,7.6,46.9,13.9,71.3,16.1c26.4,2.4,52.5-0.2,78.3-5.3c15.6-3.1,31-7.2,46.2-12.4c0.3,0.6,0.4,0.7,0.4,0.8
		c-0.2,2.1-0.5,4.1-0.6,6.2c-1,16.4,4.2,30.1,18.4,39.3c9.3,6.1,19.8,7.6,30.8,7.2c9.6-0.3,18.8-3.7,29-0.6c10.8,3.4,21-1.6,30.1-8
		c1.3-1,2.4-2,4.4-1c4.1,1.9,8.5,2.4,12.9,2c2.7-0.2,4,0.2,3.4,3.4c-0.4,2.3-0.2,4.7,0,7c1.9,23.8,18.9,41.2,40.3,39.9
		c2.1-0.1,2.5,1.2,3.1,2.5c5,10.2,13.2,16.3,24.2,18.6c7.2,1.5,14.5,1.5,21.8,0.9c23.6-1.9,47.1-4.2,70.8-5.1
		c14.2-0.5,28.3-0.7,42.4,1c9,1.1,17.6,4.4,26.6,5.6c11.6,1.5,23,1.7,34.3-1.9c22.6-7.2,29.4-27.4,27.2-47
		c-1.8-15.7-10.6-27.1-23.4-35.6c-1.7-1.1-3-1.8-2.2-4.4c8.4-30,8.2-60.3,3.2-90.8c-0.9-5.4-1.9-10.8-3-17.1
		c11.2,7.8,21.8,14.6,32.6,21.1c17.5,10.5,36,17.5,56.8,17.2c16.3-0.2,32.4-1.6,48.5-4.1c1.4-0.2,2.9-1.2,3.9,0.8
		c4.4,8.5,8.9,17,13.5,25.7c-8.4,1.5-16.1,3.3-23.5,6.4c-1.3,0.5-2.4-0.1-3.6-0.4c-15-3.2-30-5.4-45.4-3.4
		c-17.2,2.2-29.4,11.6-32.7,27.4c-5.1,24.1-0.1,46.5,14.3,66.4c8.9,12.4,21.1,19.5,36.7,17.9c7.2-0.8,13.4-0.1,20.4,2
		c18.3,5.6,35.9,1.8,52.1-7.9c2.2-1.3,3.3-1.3,5.1,0.5c2.9,2.9,6.4,5.1,10.1,7c13.8,6.8,28.3,7.5,43.1,4.9
		c23.2-4.1,43.7-13.5,60-31.1C1176.6,862.3,1176.8,838.3,1165.3,825.6z M672,787.3c-1.3,0.4-2.4,0.1-3.3-1c-0.6-0.8-1.2-1.5-1.8-2.3
		c-5.1-7-4.9-7.9,2.4-12.2c10.7-6.5,20.8-13.8,29.6-22.8c0.4-0.5,1-0.8,1.9-1.5c1.6,13.8,1.1,27.4,3.8,41.3
		C693.6,785.3,682.9,784.2,672,787.3z"/>
	<g id="Gray_Parts">
		<g id="Leg_and_Paw_Parts">
			<path id="Leg_and_Paw" class="st1" d="M181.9,829.9c0.2-0.2,0.5-0.3,0.6-0.5c8-11.3,12.5-13,25.9-9.9
				c18.7,4.4,34.2,14.7,48.1,27.6c8.3,7.7,15.8,16.1,20.6,26.6c6.1,13.5,0.8,25.4-13.2,30.1c-1.9,0.6-3,0.3-4.1-1.4
				c-10.7-16.5-23.9-30.8-38.7-43.6c-5-4.3-10.3-8.3-16-11.5c-1.4-0.8-2.9-1.5-4.5-2c-1.4-0.5-3.1-1.2-4.2,0.4
				c-1.1,1.6,0.4,2.9,1.4,3.9c4.6,4.5,9.3,9,14.1,13.3c13.9,12.8,26.2,27,36,43.3c1.5,2.5,1.6,3.6-1.6,4.3
				c-22,4.5-43.9,4.6-65.5-2.4c-8.7-2.8-16-7.5-21.5-15.2c-5.1-7-10.3-14-16.5-20c-1-0.9-2-2.6-3.3-1.9c-1.6,0.9-0.6,2.7-0.1,4
				c2.8,8.6,6.7,16.8,10.8,24.9c1.7,3.5,0.8,5.3-2.3,6.9c-5.6,2.8-11.6,4.3-17.8,4.9c-13.3,1.3-26.6,1.4-39.8-1.2
				c-8.6-1.7-14.6-6.6-17.4-15.1c-6-18.6-7.5-37.2,0.3-55.6c4.8-11.1,13.3-17.6,25.8-17.9c2.3-0.1,4.6-0.4,7.2-0.6
				c-9.6-8-24.5-7.5-34.5,0.9c-2.9,2.4-5.5,5.1-7.3,8.3c-1.3,2.3-2.3,2.3-4.3,0.7c-7.8-6.5-12.6-15.1-15.1-24.6
				c-10.7-40.1-8.2-79.1,10.6-116.6c2.6-5.2,2.8-5.1,8.1-2.9c7.7,3.2,15.9,4.3,24.2,4.3c2.7,0,3.8,0.6,4.5,3.3
				c9.6,36.4,44.6,61.8,78.2,65.1c5.5,0.5,11,0.1,16.4-0.6c1.3-0.2,2.3-0.4,3.3,0.8c2.8,3.4,5.7,6.6,8.7,10c-2.7,1-5.3,1.7-7.7,2.9
				c-7.4,3.7-11.3,10.2-13.5,17.9c-3.3,11.9-2,23.7,2,35.2C180.3,827.3,180.6,828.9,181.9,829.9z"/>
			<path id="Paw_Part" class="st1" d="M531.8,844.4c-10.8,1.6-20.8,1.5-30-3.8c-12.4-7.1-15.5-20.7-12.9-34.1
				c0.3-1.7,1.3-1.8,2.7-1.6c9.8,1.4,19.6,2.4,29.5,2.5c2,0,2.6,0.9,2.3,2.8C522,822.3,524.5,833.6,531.8,844.4z"/>
			<path id="Paw_Part_00000005254885933849666250000003107378698027715492_" class="st1" d="M984.3,804.2
				c-24.8,18.6-31.7,60.4-15,85.5c-7.3,0.9-13.3-1.4-18.6-5.8c-7.5-6.3-12.1-14.5-15.2-23.6c-3.8-11.2-5.8-22.6-4.3-34.4
				c1.7-13.1,8-20.1,21-22.4C962.7,801.4,973.2,802.2,984.3,804.2z"/>
			<path id="Paw_Part_00000147220389038550254280000011505495240346232962_" class="st1" d="M585.2,818.7
				c0.3-16.8,0.3-16.6,15.5-19.9c16.1-3.5,31.6-9.2,46.6-16c2.7-1.2,4.4-1.6,5.4,1.8c0.4,1.4,1.1,2.9,2.1,4c3.4,3.6,3,6.3-1,9.4
				c-4.1,3.2-6.4,7.9-7.9,12.8c-0.6,1.9-1.4,2.5-3.4,2.8c-14.1,1.8-24.8,8.9-32.2,21.1c-1,1.6-2,2.4-3.7,2.7
				c-3.5,0.7-7.1,0.9-10.7,0.4c-6-0.8-9.8-5.8-10.6-13.4C585.3,822,585.3,819.8,585.2,818.7z"/>
			<path id="Paw_Part_00000129177242370734486720000006181314005343418518_" class="st1" d="M535.6,816c0-8.7,0-8.5,8.3-9
				c9-0.6,18.1-1.4,27.1-2.6c3.2-0.4,3,0.7,2.7,3c-1.1,7.8-1.3,15.6,0.7,23.3c0.2,0.7,0.3,1.3,0.6,2c2.3,6.6,2.3,6.6-4,9.8
				c-16.5,8.3-33-1.6-35-21C535.7,819.5,535.6,817.6,535.6,816z"/>
		</g>
		<g id="Chest">
			<path id="Chest_Part" class="st1" d="M369.9,810c-22.6,0.4-44.4-4-65.9-9.8c-24.3-6.6-47.3-17-71.2-24.7
				c-11.4-3.7-20.4-10.2-28.8-18.3c-2.7-2.6-1.9-3.7,1.1-5c10.9-4.4,22.5-6,34.1-7.6c2.3-0.3,4.7-0.3,6.9-0.9
				c12.5-3.4,23.7,1.9,35.2,5.1c18,5.1,36.2,9,54.6,12.1c2,0.3,3,1,3.7,3c3.8,10.4,8.4,20.3,14.4,29.6
				C358.4,799.9,362.7,806.3,369.9,810z"/>
			<path id="Chest_Part_00000064354729281083990970000012564295147744032405_" class="st1" d="M375.4,810.3
				c13.7-9.2,15.2-24.2,19.9-37.9c18.8,10.7,38.7,18.7,60.3,25.1C428.8,805.1,402.7,809.4,375.4,810.3z"/>
		</g>
		<path id="Tail" class="st1" d="M937.7,500c-7.8-0.5-15.6-0.9-23.4,0.7c-5.8,1.2-10.9,3.7-14.8,8.3c-1.3,1.5-2.2,1.8-4.1,0.9
			c-16.3-7.8-32.7-15.5-49.2-23.1c-2.6-1.2-2.8-2.3-1.7-4.6c6.8-15.2,18.8-23.9,34.8-26.5c28.7-4.6,53.3,4.4,74,24.5
			c2.6,2.5,4.7,5.4,6.4,8.6c2.9,5.7,0.3,10.6-6,11.3c-2.7,0.3-5.5,0.4-8.2,0.4C942.9,500.4,940.3,500.1,937.7,500z"/>
		<path id="Body" class="st1" d="M1154.3,832.1c-4.8-5.3-5.9-12.2-6-19.3c-0.2-14.6-4.5-28.1-11.3-40.9c-4.6-8.8-10.8-16-18.8-22
			c-11.8-8.9-17.3-22.1-21.7-35.7c-2.7-8.3-4.7-16.9-9.3-24.6c-12.5-21.1-29.9-37.3-50.8-49.7c-15.5-9.2-32-16.4-48.2-24.3
			c-7.7-3.8-14.2-8.9-17.8-17c-14.4-32-38.3-55.1-68.8-71.5c-27.4-14.7-55.9-27-84.1-40.1c-47-22-94.2-43.8-140.5-67.3
			c-3.2-1.6-6.4-3.3-9.6-4.9c-0.6,1.3,0,1.8,0.3,2.3c16.8,27.3,28.7,56.5,34.4,88.1c1,5.3,2.1,10.6,0.8,16.2
			c-2.1-0.9-2.3-2.7-2.9-4.2c-2.6-6.6-5.1-13.3-7.5-20c-22-60.6-56.1-112.7-106.8-153.3c-34.5-27.6-72.5-47.5-116.5-54.8
			c-29.1-4.8-58-4-86.6,3.7c-11.2,3-21.9,7.2-32,12.9c-0.8,0.5-4.2,0.9-1.1,3c7.2,4.9,14.3,9.7,21.6,14.4c6.8,4.4,14.1,6.4,22.3,5.5
			c7.4-0.8,14.8-0.8,22.2,0.4c11.7,1.9,17.8,10.7,15.7,22.3c-0.8,4.4-2.5,8.4-4.6,12.3c-0.6,1.1-2.4,2.1-1.3,3.5
			c1.4,1.7,2.7-0.1,3.9-0.7c8.9-4.5,17.7-9.5,27.5-11.9c8.8-2.2,12.7,1.6,10.9,10.4c-1.7,8.6-5.2,16.5-9,24.3c-1.2,2.4-1,3.8,1,5.6
			c23.4,21.6,43,46.3,59.6,73.4c1.1,1.8,2.3,2.3,4.3,2.1c5.9-0.5,11.8-1.1,17.7-1.1c7.3-0.1,14.6-0.4,21.7,2
			c4.4,1.5,5.6,5.2,3.2,9.2c-1.6,2.6-3.7,4.8-5.9,6.8c-5.4,5.1-11.2,9.8-17.3,14c-3.1,2.1-3.6,3.6-1.9,7.2
			c14.4,30.4,25.3,62,31.3,95.2c0.4,2.3,1.4,3.7,3.6,4.9c8.1,4.3,16.2,8.9,22.9,15.2c5.9,5.6,5,10.4-2.5,13.4
			c-6.3,2.6-12.9,3.9-19.5,4.9c-2.1,0.3-2.9,1.1-3.2,3.3c-4.1,31-18.8,56.2-42.3,76.5c-2.3,2-2.4,3.6-1.6,6.3
			c2.8,9.4,5,18.9,4.5,28.8c-0.4,7.8-4.2,10.5-11.8,8.5c-1.7-0.5-3.4-1-5.1-1.7c-9.1-3.7-17.5-8.6-25.6-14c-2-1.4-3.6-1.6-6-0.6
			c-12.7,5.3-25.9,9.1-39.3,12.1c-11.8,2.6-23.8,3.7-37,4.8c1.9,1.1,2.7,1.7,3.6,2.1c28.7,14.4,59,23,91,25.8
			c23.2,2,46.4,1.2,69.5-2.4c34-5.4,66.2-15.9,95.4-34.5c10.6-6.8,20.3-14.6,27.5-25.2c1-1.4,2-2.8,1.6-4.9
			c-1.5-7.8-3.6-15.5-6.6-22.9c-7.6-18.7-34.9-27.2-50.4-7.1c-1.2,1.5-2.5,2.9-3.6,4.5c-8.4,12.2-20.3,15.7-34.3,13.5
			c-9.8-1.5-16.7-7.2-22-15.3c-0.7-1.1-1.7-2.6-0.4-3.7c1.1-1,2.4,0,3.4,0.6c3.7,2.1,7.4,4.2,11,6.4c11.3,7.2,27.2,2.2,33.5-7.8
			c1.7-2.8,4-5.3,6.2-7.7c14.8-16.9,32.9-18.6,52.3-7.2c11.8,6.9,16.8,18.8,20.3,31.4c5,18.2,5.6,36.9,6.7,55.6
			c0.7,11.7,2,23.2,6.3,34.3c6,15.4,15.8,28.2,26.9,40.1c1.4,1.5,3,2.9,4.2,5.6c-1.4-0.6-2-0.8-2.6-1.1c-16.4-9-28.8-21.8-37.4-38.4
			c-0.8-1.5-1.5-2.8-3.1-3.7c-9.1-4.7-18.6-7.5-29-6c-8.6,1.2-16,4.8-20.7,12.6c-1.1,1.9-1.1,2.6,1.3,3.3c7.9,2.3,14.7,6.7,20.9,12
			c1.7,1.5,3.7,2.9,4,5.5c-1.4,0.8-2.7,0.3-4-0.1c-3.2-1.1-6.5-2.2-9.8-3.2c-10.6-3.2-21.3-4.5-32.1-1.6
			c-11.4,3.1-18.7,10.9-21.4,22.4c-2.8,12.3,0.1,23.4,9.2,32.6c3.5,3.5,7.9,5.4,12.7,6.3c2.4,0.4,3.8,0.1,3.6-3
			c-0.2-3.1,0.2-6.3,0.5-9.5c2.1-23.7,23.7-32.2,42.6-24.7c2.2,0.9,4.5,1.8,6.5,4.4c-3.2-0.3-5.6-0.7-8-0.7
			c-10.6-0.1-21,0.7-26.4,12c-6,12.6-3.9,24.6,3.7,35.9c2.9,4.3,7.6,6.2,12.6,7.2c7.4,1.5,14.8,1,22.2,0.3c24.5-2,49-4.5,73.7-5.1
			c18.7-0.5,37.3-0.1,55.6,5.1c10.1,2.9,20.5,3.7,31,2.2c13.1-1.9,22.1-9,24.8-20.8c3.7-16.1-1.1-29.2-14.2-39.4
			c-2.3-1.8-3.2-1.8-4.8,0.8c-5.4,8.7-12.5,16-20.8,22c-1.4,1-3.1,2.8-4.7,1.5c-1.7-1.4,0.1-3.3,0.9-4.8c1.6-2.9,3.4-5.6,5.2-8.4
			c10.4-16,16.3-33.5,18.9-52.3c4-29.4,0.9-58.4-6.3-87.1c-10.9-43.4-29.9-83.1-55.5-119.7c-1.4-1.9-2.9-3.8-3.1-6.7
			c2.3,0.4,3.7,1.5,5.1,2.6c6.6,5.3,11.8,11.8,16.9,18.5c19.7,26,33.6,55,43.8,85.9c0.7,2.1,1.4,4,3.4,5.4
			c12.9,9.3,26,18.5,39.8,26.5c10.5,6.1,20.9,12.2,32.9,14.8c13.2,2.9,26.5,2.2,39.8,1.3c11.4-0.8,22.7-2.3,33.9-4.5
			c3.2-0.6,5.1,0.3,6.7,3.5c7.2,14.2,14.8,28.3,22.2,42.4c3,5.8,3,5.8-3.6,5.9c-12.7,0.1-24.8,2.8-36.2,8.3
			c-24,11.5-31.8,33.4-29.4,57c1.1,11.3,5.7,21,16.5,25.8c16.6,7.3,32.5,4,47.7-4.7c1.8-1.1,1.4-2.3,0.6-3.8
			c-2.3-4.7-3.7-9.7-4.7-14.9c-4.5-24.1,5.4-41.9,27.9-49.7c4.8-1.7,9.7-2.9,14.9-2.7c1,0,2.1,0.2,2.4,1.2c0.3,1.2-0.9,1.5-1.8,1.9
			c-2.5,1.1-5.1,2-7.6,3.2c-13.9,6.8-23,17.1-24.2,33.2c-1.5,20.4,10.1,37.7,28.5,41.7c7.6,1.7,15.2,2.2,22.9,1.1
			c21-3,39.6-10.9,54.9-26C1162,860.5,1164.2,843,1154.3,832.1z"/>
		<g id="Head">
			<path id="Chin" class="st1" d="M210.7,647.9c-23.3,3.1-47.1,2.8-68.8,14.4c-11.3,6.1-23,11.8-35.7,14.7
				c-10.7,2.5-21.4,2.9-32.3,0.6C52.1,673,42.1,650.7,48.6,631c8-24.2,33.4-35.9,58.4-26.9c7.7,2.7,7.7,2.7,1.9,8.4
				c-11.7,11.4-16.9,22.7-18.7,41.4c2.3-2.9,3.5-6.1,5-9c4-7.7,8.1-15.3,13.4-22.2c7.6-9.8,17.7-14.9,30.2-15.3
				c14.9-0.6,28.9,3.1,42.5,8.7c19.2,7.9,38.3,16,58,22.2c21.1,6.6,42.8,8.7,64.6,3c5.1-1.3,9.7-3.7,14.7-6
				c0.5,11.5,1.6,22.5,4.1,33.3c3.7,15.9,9.7,31,19.3,44.2c2.5,3.4,1.5,4.2-1.8,5.5c-10.8,4.2-22.1,5.7-33.4,6.9
				c-22.7,2.5-45.4,4.2-68.1,6.8c-15,1.7-29.8,4.4-43.7,11.1c-13.9,6.6-28.2,5-42.1-0.4c-23.3-9-39.9-24.8-48.2-48.7
				c-1.1-3.3-0.7-4.5,3-5.1c5.8-1,11.5-2.6,16.8-5.3c2.7-1.3,4.3-0.7,6.5,1c12.4,9.9,26.1,16.1,43.4,15.2c-6.3-3.5-12-6.2-17.3-9.7
				c-5.5-3.7-10.8-7.6-15.7-12c-2.2-2-2.6-3,0.3-5c14.1-9.6,29.5-14.9,46.3-17c5.7-0.7,11.4-1.7,16.7-4.2
				C207.1,650.9,209.2,649.9,210.7,647.9C210.6,647.9,210.7,647.9,210.7,647.9z"/>
			<path id="Cheek" class="st1" d="M388.5,545.7c-3.9-10.5-10.9-18.1-17.1-26.4c2.6-0.6,4.3,1,5.8,2c27.1,16.3,53,34.1,73.1,58.9
				c12,14.9,20.7,31.4,22.8,50.8c3.3,29.4-7.8,50.8-34.1,64.5c-24.8,12.9-51.6,17.5-79.3,17.6c-2.6,0-3.6-1.6-4.8-3.2
				c-11.9-15.5-18.8-33.1-22.1-52.2c-2.7-16-2.3-32-0.6-48.1c2.5-23.3,1.7-46.4-6.4-68.8c-5-13.8-13.2-25-27-31.1
				c-14.4-6.4-29.5-3.3-40.2,8.4c-1.1,1.2-2.4,2.4-3.1,3.8c-7,14-19,17.5-33.4,16.7c-6.8-0.4-13.7-0.3-20.6,0.1
				c-11.2,0.6-19.6,5.5-25.8,14.6c-2.3,3.4-5,6.6-7.2,10.1c-9.7,15.8-29,12.9-38.7,0c-9.4-12.6-8.7-30.8,1.8-44.1
				c7.3-9.3,16.8-15.3,28.7-17.1c6.9-1.1,13.4,0.8,19.9,2.6c6,1.6,11.9,3.5,18,4.2c9.3,1,17.7-0.7,24.3-8.1
				c6.2-6.8,12.5-13.5,18.4-20.6c16-19.4,40.4-26.7,66-9.3c17.9,12.2,33.2,27.1,48.2,42.5c9.5,9.8,19,19.5,28.5,29.2
				C384.8,543.7,385.9,545,388.5,545.7z"/>
			<path id="Upper_Lip" class="st1" d="M85.6,561.4c-2.7,0.1-7.1-0.9-11.4-2.5c-8.6-3.2-13-9.1-12.8-18.4c0.3-10.7,4.7-19,13.9-24.7
				c1.3-0.8,2.2-1.3,3.1,0.6c7.2,15.3,19.9,23.5,35.5,28.2c2,0.6,2.6,4.9,0.7,6.9c-1.4,1.5-3.1,2.8-4.8,3.8
				C102.9,559.4,95.5,561.5,85.6,561.4z"/>
			<path id="Eye_Lid" class="st1" d="M239.2,433.2c7-7.6,13.4-14.4,22.2-18.3c6.7-2.9,13.4-2.7,20.1-0.4c4,1.4,6.3,4.8,7.8,8.6
				c3.8,9.6,2.7,18.8-1.8,27.8c-0.9,1.7-2,2-3.9,2.1c-4.8,0.3-8-0.8-10.5-5.7c-3.9-7.7-10.9-12.1-19.4-13.9
				C249,432.5,244.5,433.2,239.2,433.2z"/>
			<path id="Forehead" class="st1" d="M220,359.5c-8,6.8-14,13.7-18.3,21.9c-0.8,1.5-1.4,3.2-2.4,5.6c2.8-1.1,3.8-3,5.1-4.4
				c13.4-15.2,30.3-23.1,50.5-24.7c2.9-0.2,4,0.5,3.6,3.5c-0.2,1.3,0,2.8,0.3,4.1c0.7,2.9,1.6,5.8,2.5,9c2-2.6,2.2-5.6,3-8.2
				c6.9-22.6,21.5-38.4,42.9-47.8c14.6-6.5,28.7-4.3,41.8,4.6c5.8,3.9,11.5,8,17.5,11.7c8.4,5.3,17.6,7.2,27.6,6.3
				c6.4-0.6,12.9-0.9,19.3,0.3c5.8,1.1,7.4,3.6,5.8,9.4c-2.8,9.6-9.4,16.1-18,20.4c-13.9,7-28.2,8.1-43.1,2.8
				c-9.9-3.5-20.1-3.9-30.4-1.1c-1.7,0.5-3.5,0.9-4.7,3c2.6,1.2,5.4,1,7.9,1c8.8,0.1,16.1,4.3,23.5,8.1c1.2,0.6,1.4,1.5,1.3,2.7
				c-0.6,20.3,10.4,35,23.7,48.5c9.8,10,21.5,17.6,32.1,26.5c17.8,14.8,28.5,33.9,32.5,56.7c0.4,2.6,1.4,4.7,2.9,6.7
				c12,15.8,17.9,33.8,20.3,53.2c0.1,0.6-0.1,1.2-0.1,2.6c-9-12.6-19-23.3-30-33.1c-19.8-17.5-41.8-31.7-64.7-44.6
				c-7.5-4.2-15-8.8-23-11.9c-6.6-2.6-11.5-7.4-16.7-11.8c-5.9-5.1-12.1-10-18.6-14.4c-6.5-4.3-13.4-8-20.8-10.9
				c6.5-9.3,7.7-19.4,5.1-30c-3.8-15.6-14.1-21.7-30.5-20.4c-13.5,1.1-22.9,9.9-31.6,19.2c-11.4,12.1-20.2,26.4-31.2,38.9
				c-10,11.3-20.7,21.6-33.9,29.3c-4.3,2.5-9.1,1-13.6,2.1c-1.4,0.3-2.1-1.6-2.8-2.7c-9.1-14.1-9.9-32,5.1-47.4
				c6.6-6.8,14.2-12.6,20-20.2c3.9-5.1,7.5-10.4,8.9-16.9c-8.1,13.5-20.9,22-32.3,32.1c-4.8,4.3-9.2,9-12.6,14.6
				c-6.3,10.5-6,21.4-1.5,33.1c-18.6-5.9-36.7-6.8-54.8,1.4C87,476,90.8,466,100.4,458.5c1.8-1.4,3.9-2.7,5.9-3.8
				c5.9-3.3,10.4-2.7,15.2,2.2c1.5,1.5,2.8,3.3,4.7,5.4c0.8-3.2,0.5-6.1,0.2-8.8c-2.3-22.6,5.7-41.6,20.5-58
				c15.9-17.5,36.5-26.9,58.8-33.2C209.9,361.1,214.2,359.5,220,359.5z"/>
			<path id="Ear" class="st1" d="M217,346.4c-9.1,2.3-17.5,4.3-25.6,7.2c-18.8,6.8-36.1,16.1-50.5,30.2c-0.9,0.9-1.7,1.8-3.1,2
				c-8.6,1.3-17.2,2.1-25.8,0.1c-7.4-1.8-9-6-4.8-12.5c3.9-6.1,9.3-10.8,15.3-14.8c16.2-10.6,33.6-18.7,52.9-21.6
				C190,334.8,203.8,337.2,217,346.4z"/>
		</g>
	</g>
	<g id="White_Parts">
		<g id="Spikes">
			<path id="Spike_00000041292950597516356200000002455401688892479400_" class="st2" d="M389.4,750.8c-0.7,14.4-3.7,28.3-9.5,41.5
				c-0.6,1.3-1.2,2.5-1.9,3.7c-4.1,6.9-6.2,7.1-11.3,0.7c-10-12.7-16.8-27-21.2-42.5c-2.1-7.4,0.1-12.9,6.7-16.9
				c9.2-5.5,19.1-6.7,29.4-3.6c5,1.5,7.4,4.9,7.4,10.1C389,746.2,389.3,748.5,389.4,750.8z"/>
			<path id="Spike_00000064318660959273555340000011029414718169988529_" class="st2" d="M526.4,754.2c0.2,4.8-0.3,5.3-4.7,3.2
				c-15.6-7.6-30.3-16.6-43.3-28.2c-5.5-5-5.9-9-2.1-15.3c4.4-7.2,10.6-12.6,18.3-16c7.3-3.2,9.9-2.5,14.6,4.1
				c5,6.9,8.1,14.6,10.7,22.5C523.2,734.1,525.8,743.9,526.4,754.2z"/>
			<path id="Spike_00000111175258037863882070000006061723647397937026_" class="st2" d="M592.8,629.5c-6,2.6-12.4,3.6-18.7,4.6
				c-15.9,2.6-31.8,4.5-48,3.9c-6.4-0.2-9.7-2.6-11.6-8.5c-2.6-8.1-2.3-16.3,0.8-24.2c2.4-6.3,5.1-7.7,11.8-6.7
				c9.6,1.5,18.5,4.8,27.4,8.6c12.2,5.3,24.1,11.2,35,19.1C590.6,627.2,592,627.9,592.8,629.5z"/>
			<path id="Spike" class="st2" d="M557.7,478.1c-3.7,4.3-7.5,7.3-11.2,10.2c-12.8,9.9-26,19.4-40.4,26.9
				c-7.5,3.9-11.7,3.1-17.5-3.2c-4.3-4.7-6.8-10.3-7.7-16.5c-0.5-3.9,0.7-6.8,4.6-8.6c10.3-4.7,21.2-6.4,32.3-7.7
				C530.8,477.4,543.7,476.9,557.7,478.1z"/>
			<path id="Spike_00000098943791795790263770000007251386862308892862_" class="st2" d="M460.1,362.1c-3.2,13.6-9.1,25.2-15.6,36.5
				c-4.2,7.2-8.9,14.1-15,20c-4.6,4.4-9.5,5-15.1,2.4c-7.1-3.3-12.3-8.5-15.6-15.7c-2-4.3-1.3-7.9,2.2-11.2
				c5.7-5.3,12.4-9.1,19-12.9c11.6-6.6,23.1-13.3,35.6-17.8C456.9,363.1,458.2,362.7,460.1,362.1z"/>
		</g>
		<g id="Teeth">
			<path id="Lower_Big_Teeth" class="st2" d="M321,552.4c4.5,18.8,4.8,37.1,3.4,55.6c-1.2,15.6-8.6,21.6-23.9,25.6
				c-16.9,4.4-33.9,3-50.6-1.1c-21.1-5.2-40.8-14.5-61-22.3c-9.8-3.8-19.7-7.6-30.2-9.5c-1.3-0.2-8.2-0.7-8.2-0.7
				c4.2-0.8,8.3-9.6,10.9-14.1c3.4-6.2,5.4-4.8,7.9-2c4,4.4,5.9,7.7,9.5,12c5.9,7.1,10.3,8.4,18-3.4c3.6-5.5,6.9-11.6,10.2-16.6
				c2.1-2.9,4.8-1.6,7.6,1.3c4.6,4.7,8.7,10,14.1,13.9c6.8,4.9,10.7,4.2,15.3-2.9c4.3-6.6,9.2-14.1,12.9-21c0.2-0.4,0.3-0.8,0.6-1.1
				c3.5-5.2,4.7-4.1,7.6-1c6.8,6.9,8.9,9.8,13.8,15c13,13.9,13.1,11.5,23.2-2.7c7-10.4,9.7-14.1,16.9-22.6
				C319.4,554.2,319.9,553.6,321,552.4z"/>
			<path id="Upper_Big_Teeth" class="st2" d="M219.5,546.3c4.9,0,9.9,0.3,14.8-0.1c10.9-0.8,19.2-6.1,25-15.2
				c2.7-4.2,5.6-8.2,9.6-11.2c13.5-10.1,29.5-4.2,39,6.5c4.3,4.8,7,10.8,9.6,16.7c0.7,1.6,0.5,2.8-0.6,4.1
				c-7.7,9-13.6,17.4-22.2,28.4c-2.8,3.9-3.8,7.2-7.1,4.9c-6.8-5.9-12.9-12.9-18.8-20.1c-6.8-7.8-11-6.4-15.1-0.9
				c-4,7.3-9.1,14.7-13.6,22.5c-3.8,7.5-3.9,7.4-10.4,2.2c-4.4-3.4-8.7-8.9-12.7-12.6c-8.2-7.8-9.7-6.5-14.7,0.2
				c-4,5.8-8.2,13.5-12.4,19.5c-1.9,2.6-3.7,4.1-5.7,2.6c-4.7-5.5-6.2-7.3-10.8-13.1c-1.6-1.8-2.5-3.1-5.7-5.1
				c1.3-0.6,7.3-5,12.9-14.9c6-10,14.7-14.4,26.1-14c4.3,0.1,8.5,0,12.8,0C219.5,546.5,219.5,546.4,219.5,546.3z"/>
			<path id="Small_Tooth" class="st2" d="M61.5,560.7c7.2,5.4,15.2,8.6,24.8,8.8c-4.4,1-9.2,12.4-12.4,18.3c-3.2,5.4-4.3,4-7.6,1
				C59.1,581.3,57.3,570.4,61.5,560.7z"/>
			<path id="Small_Tooth_00000176745456225691667590000008746361511290254734_" class="st2" d="M108.9,595.6
				c5.4-1.2,7.4-8.6,12.3-14.6c3.9-5,6.6-3.2,9.1,1.4c2.9,5.5,7.2,15.3,11.1,17c-2-0.1-1.3-0.3-6,0c-3.8,0.2-7.6,1.2-11.1,2.8
				c-1.2,0.5-2.1,0.2-3-0.5C117.9,599.4,113.3,597.3,108.9,595.6z"/>
			<path id="Small_Tooth_00000010275980468834045570000004816705062781485477_" class="st2" d="M91,569.6c10.5-1,19.5-4.2,27.4-10
				c0.2,0.1,0.3,0.2,0.4,0.3c1.9,3.3,4.9,8.5,7.5,11.5c-2.3,0.2-5.3,2.7-7.8,5.4c-2.4,2.6-5.1,7.7-7.3,10.9
				c-2.2,3.7-4.5,4.7-8.1-1.7C97.5,576.8,94,570.5,91,569.6z"/>
			<path id="Small_Tooth_00000161626082163409758430000011821844150332903344_" class="st2" d="M132.6,575.9
				c10.3,6.8,21.5,5.1,26.8,3.5c-1.6,1-5.5,8.4-8,12.5c-1.1,1.8-3.7,4.1-5.4,4c-1.9-0.1-3.5-2.8-4.9-5
				C138.2,586,134.8,578,132.6,575.9z"/>
			<path id="Small_Tooth_00000131366063733043193380000002377201516829066120_" class="st2" d="M102.1,593.5
				c-7.5-1.7-17.3-3.7-25.4-1.2c1.8-0.9,7.5-17.3,10.8-17.8C91.8,572.4,100.2,592.4,102.1,593.5z"/>
		</g>
		<g id="Eye">
			<path id="Eye_White" class="st2" d="M245.4,441c9.3,0,16,3.4,20.6,10.6c0.8,1.2,1.7,2.4-0.7,3c-15.4,3.8-26.1,14.1-35.5,26
				c-3.7,4.7-6,7.2-9.6,10.9c3.3-9.8-10.4-16.3-15.9-15.7c2.3-2.4,5-5.2,9.8-10.9c3.8-4.7,7.7-9.4,11.1-14.3c3.5-5.9,8.9-7.8,14.9-9
				C242.2,441.2,244.2,441.1,245.4,441z"/>
			<path id="Eye_White_Small" class="st2" d="M194.5,491.5c3,0.1,5,1.3,5.6,4.3c0.6,2.9-1,4.5-3.9,3.9c-1.1-0.2-2.2-0.4-3.2-0.7
				c-1.8-0.6-4.3-0.6-4-3.7C189.4,492.9,191.3,491.4,194.5,491.5z"/>
		</g>
	</g>
	<path id="Collar" class="st3" d="M395.9,387c-7.8,7.3-8,15.4-3.6,23.9c4.4,8.4,11.1,14.7,19.9,18.2c8.4,3.3,16.1,2,22.8-4.4
		c2.8-2.7,5.3-5.6,7.6-8.7c2.3-3.1,4.6-6.2,6.5-9.5c1.5-2.6,2.6-2.8,4.7-0.7c18.7,18.2,35.6,38.1,49.7,60.1c1.2,1.9,3.9,3.7,3.1,5.9
		c-0.7,2-3.9,1.3-5.9,1.8c-6.2,1.6-12.4,3.2-18.4,5.7c-7,2.9-10.7,9.3-9.6,16.8c1,6.9,3.4,13.2,7.7,18.8c7.1,9.2,16.9,15.4,31.2,6.6
		c4.7-2.9,9.5-5.6,14.1-8.5c2.3-1.5,3.6-1.6,4.9,1.4c10.8,24.2,20.1,48.9,26,74.8c0.6,2.7,1.6,5.2,2.1,7.9c0.4,2,0.1,3.2-2.6,2.1
		c-7.9-3.2-16.1-5.8-24.4-8c-14.4-3.8-22.2,1.7-25.7,15.8c-2.4,9.5-2.2,19.1,2,28.2c3.3,7.1,9,10.9,16.9,11c10,0.1,20.1,0.2,30-1.4
		c1.2-0.2,2.5-0.1,3.7-0.2c2.4-0.2,2.7,0.9,2.3,3c-3.5,18.4-10.9,35-22.9,49.4c-3.5,4.2-7.3,8.1-11.4,11.9c-2.6,2.4-3.7,1.6-4.9-1.1
		c-2.1-4.6-4.6-9-8-12.9c-6.3-7.3-11.1-8.8-20-5.5c-10.6,3.9-19.2,10.8-24.8,20.6c-6,10.5-4.9,17.4,4.9,26.2
		c2.8,2.5,2.8,3.2-0.9,4.5c-17.4,6.3-35.2,10.4-53.6,12.1c-6,0.5-12.1,0.6-18.1,0.8c-2.4,0.1-3.8-0.3-3.7-3.3
		c0.2-2.9-0.1-5.8-0.6-8.6c-1.6-9.6-3.5-11.7-15.4-16.9c5-0.9,9.4-1.7,13.9-2.5c23.6-3.9,45.7-11.2,64.8-26.2
		c15-11.9,23.5-27.4,25-46.3c1.2-13.9,0.7-27.7-4.6-41c-0.7-1.9-0.6-3.9-0.5-6.1c1.4-28.6-4.2-55.4-20.5-79.4
		c-2.5-3.7-3.9-7.7-4.8-12c-5.8-27.5-21.3-48.5-43.8-64.8c-14.2-10.2-27.6-21.2-36.9-36.4c-3.4-5.5-6-11.4-6.1-18.1
		c0-1.2-0.2-2.7,1.7-2.6C378.5,389.9,387.1,389.4,395.9,387z M334.3,748.1c1.9,0.4,2.3-0.5,2.6-2.2c1.3-6.8,5.2-11.8,10.9-15.6
		c3.4-2.3,7.5-3.1,11-5.3c-3.8-1.3-6.8-0.1-10,1.9c-4.1,2.6-8.7,4.6-13.4,5.7c-12.9,3.1-26,4.8-39.3,6.6
		C308.6,743.3,321.5,745.4,334.3,748.1z"/>
	<path id="Nose_Tip" class="st4" d="M117.3,532.5c0,0-27.8-2.2-29.7-31.9c-0.2-3,28.4-19.1,57.4-1.3
		C119.9,512.4,117.3,532.5,117.3,532.5z"/>
</g>
</svg>
