<?xml version="1.0" encoding="utf-8"?>
<!-- Generator: Adobe Illustrator 26.0.1, SVG Export Plug-In . SVG Version: 6.00 Build 0)  -->
<svg version="1.1" id="BD-Logo" xmlns="http://www.w3.org/2000/svg" xmlns:xlink="http://www.w3.org/1999/xlink" x="0px" y="0px"
	 viewBox="0 0 1200 800" style="enable-background:new 0 0 1200 800;" xml:space="preserve">
<style type="text/css">
	.st0{fill:#FFFFFF;}
	.st1{stroke:#000000;stroke-width:5;stroke-miterlimit:10;}
	.st2{display:none;fill:#8E8E8E;stroke:#221F1F;stroke-width:7;stroke-miterlimit:10;}
	.st3{fill:none;stroke:#000000;stroke-width:7;stroke-miterlimit:10;}
	.st4{stroke:#000000;stroke-miterlimit:10;}
	.st5{fill:#FFFFFF;stroke:#000000;stroke-miterlimit:10;}
	.st6{fill:#3A3A3A;}
	.st7{fill:#AFAFAF;stroke:#231F20;stroke-miterlimit:10;}
	.st8{fill:#999999;}
	.st9{fill:#FDFDFD;}
	.st10{fill:#333333;}
	.st11{fill:#191919;}
</style>
<g id="Bulldogs_Wrestling_Club_Logo">
	<rect id="Background" class="st0" width="1200" height="800"/>
	<g id="Banner">
		<path id="Banner_Background" class="st1" d="M37.2,211.6v288.3c0,0,477.5-115.2,1126,0.2c0,0,0-187.2,0-287
			C514.3,318,37.2,211.6,37.2,211.6z"/>
		<path id="Banner_Border__x28_Gray_Fill_x29_" class="st2" d="M20.6,190.9c-0.2,42.6-0.2,230.7,0,328.2
			c574.9-125.8,1159.5-0.5,1159.5-0.5V190.7C1180.1,190.7,595.5,312.1,20.6,190.9z"/>
		<path id="Banner_Border" class="st3" d="M20.9,191.7c-0.2,42.6-0.2,230.7,0,328.2c574.6-126.7,1159.5-0.5,1159.5-0.5V191.6
			C1180.4,191.6,595.5,312.1,20.9,191.7z"/>
		<g id="Wrestling_Club_Text">
			<g id="Wrestling_Club_Text_Black">
				<path id="B_00000026132432193586162720000014623581598586464905_" class="st4" d="M1146.5,279l-10.5-37.4l-43.2,7.1V297l3.6-0.3
					v119.4l-3.6-0.3v48.4l43.2,7.6l10.5-37.2v-68.9l-4.7-12.6l4.7-15.1V279z M1127.9,412.6l-4.6,6.5l-7.7-1.5V378l7.7-0.8l4.6,7.1
					V412.6z M1127.9,322.2l-4.6,5.1h-7.7v-31.9l7.7-1.2l4.6,6.9V322.2z"/>
				<polygon id="U_00000111874547503773334280000013978726062138037652_" class="st4" points="1014.3,258.6 1014.3,303.5 
					1018.8,303.1 1018.8,424.7 1030.9,456.1 1064.1,460.1 1075.8,429.6 1075.8,298.7 1080.4,298 1079.9,250.2 1050.8,254.6 
					1050.8,300.2 1055.1,299.9 1054.9,405.3 1051.7,412.7 1043.3,412.1 1040.3,405.3 1040.4,301.4 1044.6,300.9 1044.6,255.1 				
					"/>
				<polygon id="L_00000158723950455818536880000000791613935518923409_" class="st4" points="944.3,264.9 944.3,306.9 949.2,306.5 
					949.2,406.3 944.3,406.2 944.3,447.1 1003.8,452.9 1003.8,396.7 984.4,395.5 984.4,407.5 972.2,406.7 972.2,306 976.2,305.7 
					976.2,261.9 				"/>
				<polygon id="C_00000108295256478252071140000017639002741482886036_" class="st4" points="880.8,270.1 866,299.1 866,414.4 
					879.8,441.9 916.4,444.6 929.4,416 929.4,378.7 906.4,378.4 906.4,399.3 902.5,403.3 892.8,402.8 889.8,398.1 889.8,314.8 
					891.8,312.4 902.8,310.1 906.4,313.6 906.4,337.9 929.4,337.9 929.4,296.4 915.8,267.4 				"/>
				<polygon id="G_00000109716329967988781480000005338066187246015106_" class="st4" points="758.4,277 796.4,275.3 810.7,301 
					810.7,338.1 785.7,338.7 785.7,318.7 783.1,314.1 771.6,314.5 768.9,318.7 768.9,395.4 771.4,399.4 783.1,399.8 785.7,395.4 
					785.7,380.7 779.8,380.5 779.8,347.5 810.7,347.7 810.7,411.4 797,437.7 758.4,436 744.4,409.9 744.4,303 				"/>
				<polygon id="N_00000118357901063282217570000002096814104279375001_" class="st4" points="645.9,280.1 645.9,316.3 650.7,316.1 
					650.7,397.2 645.9,397.2 645.9,432.5 681.3,433 681.3,397.2 675.5,397.2 675.5,366.5 697.7,433.6 728.2,434.5 728.2,398.6 
					722.9,398.4 722.9,315.5 728.2,315.3 728.2,278 693.4,279.1 693.4,315.8 698.2,315.8 698.2,348.2 674.8,279.6 				"/>
				<polygon id="I_00000101089126215543717640000010795110972726304654_" class="st4" points="594.1,280.1 629.2,280.1 629.2,316.3 
					623.7,316.3 623.7,397.4 629.2,397.4 629.2,432.5 594.1,432.5 594.1,397.2 599.5,397.2 599.5,316.1 594.1,316.1 				"/>
				<polygon id="L_00000046301387111571194010000005303722547271075970_" class="st4" points="513.2,279.1 513.2,315.3 518.3,315.3 
					518.3,397.9 513.2,397.9 513.2,433.6 579,432.5 579,388.1 557.6,388.5 557.6,397.2 543.3,397.2 543.3,315.6 548.2,315.8 
					548.2,279.7 				"/>
				<polygon id="T_00000042694249289536452250000008732268400276868254_" class="st4" points="424.6,276 424.6,322.2 444.8,322.2 
					444.8,313.6 449.7,313.8 449.7,399.1 443.5,399.3 443.5,436 479.3,434.7 479.3,398.4 473.9,398.6 473.9,314.3 478.2,314.5 
					478.2,323.1 498.9,323.2 498.9,278.7 				"/>
				<polygon id="S_00000071552462707189724080000004096006574145635224_" class="st4" points="358.4,272.1 394.6,274.3 408.9,300 
					408.9,333.2 384.7,333.2 384.7,317.2 380.8,312.2 371.4,311.9 368,318 368,332.3 371.4,338.4 394.4,338.4 408.9,363.5 
					408.9,412.6 394.3,438.4 358.4,440.7 343.9,414.8 343.9,382.2 368,381.6 368,396.2 371.4,401.4 380.8,401.1 384.7,394.2 
					384.7,379.9 380.8,374.8 357.9,375.6 343.9,349 343.9,299.1 				"/>
				<polygon id="E_00000114046454999161673110000012118120832247439763_" class="st4" points="268,306.9 272.8,307 272.8,405.7 
					268.1,406 268,447.6 328.7,442.9 328.7,396 308.9,396.7 308.9,404 295.6,404.6 295.7,375.1 299.7,375.1 299.9,384.2 
					317.1,383.7 317.3,329.5 299.5,328.8 299.5,338.1 295.1,338.1 295.7,308.2 309.4,309 309.4,316.6 328.7,317.2 328.7,270 
					268,264.9 				"/>
				<path id="R" class="st4" d="M248.6,407v-42.1l-5.4-11l5.4-11.3v-49.9l-12.8-29.4l-48.3-5.1v44.3l4.3,0.3v107.6l-4.9,0.3v45
					l31.9-3.5v-43.7L214,409v-34.2h8.7l3.6,6.9v70L253,449l0.2-42.1L248.6,407z M226.9,325.9l-3.5,5.7h-9.7v-27.3l8.9,0.7l4.3,4.4
					V325.9z"/>
				<polygon id="W_00000104674275449307690810000010141395597601347209_" class="st4" points="63,291.4 69.5,292.5 82.1,418.8 
					79,419.1 79,470.5 114.4,464.8 114.4,416.3 111.1,416.4 118.5,366.4 123.4,415.4 120.3,415.8 120.1,464 158.6,459.3 
					158.6,412.9 154.8,413.1 169.8,302.1 174.7,302.6 174.7,255.1 144,251.2 144,299.4 147.6,299.8 139.4,364.2 131,297.6 
					134.1,297.9 134.1,249.9 101.9,245.3 102.2,294.6 105.6,294.9 97.1,364.2 89,293.6 93.1,293.9 93.1,244.2 63,239.6 				"/>
			</g>
			<g id="Wrestling_Club_Text_White_00000114035843102221130390000001570001571695375794_">
				<path id="B_00000103962049014372268210000006778784270000339089_" class="st5" d="M1142.5,275l-10.5-37.4l-43.2,7.1V293l3.6-0.3
					v119.4l-3.6-0.3v48.4l43.2,7.6l10.5-37.2v-68.9l-4.7-12.6l4.7-15.1V275z M1123.9,408.6l-4.6,6.5l-7.7-1.5V374l7.7-0.8l4.6,7.1
					V408.6z M1123.9,318.2l-4.6,5.1h-7.7v-31.9l7.7-1.2l4.6,6.9V318.2z"/>
				<polygon id="U_00000083078328289521939890000007822644742349672359_" class="st5" points="1010.3,254.6 1010.3,299.5 
					1014.8,299.1 1014.8,420.7 1026.9,452.1 1060.1,456.1 1071.8,425.6 1071.8,294.7 1076.4,294 1075.9,246.2 1046.8,250.6 
					1046.8,296.2 1051.1,295.9 1050.9,401.3 1047.7,408.7 1039.3,408.1 1036.3,401.3 1036.4,297.4 1040.6,296.9 1040.6,251.1 				
					"/>
				<polygon id="L_00000162321025484193656840000007212174267994729644_" class="st5" points="940.3,260.9 940.3,302.9 945.2,302.5 
					945.2,402.3 940.3,402.2 940.3,443.1 999.8,448.9 999.8,392.7 980.4,391.5 980.4,403.5 968.2,402.7 968.2,302 972.2,301.7 
					972.2,257.9 				"/>
				<polygon id="C_00000001652175279307829240000012980046832427844241_" class="st5" points="876.8,266.1 862,295.1 862,410.4 
					875.8,437.9 912.4,440.6 925.4,412 925.4,374.7 902.4,374.4 902.4,395.3 898.5,399.3 888.8,398.8 885.8,394.1 885.8,310.8 
					887.8,308.4 898.8,306.1 902.4,309.6 902.4,333.9 925.4,333.9 925.4,292.4 911.8,263.4 				"/>
				<polygon id="G_00000025414205515153821670000004167688629574799253_" class="st5" points="754.4,273 792.4,271.3 806.7,297 
					806.7,334.1 781.7,334.7 781.7,314.7 779.1,310.1 767.6,310.5 764.9,314.7 764.9,391.4 767.4,395.4 779.1,395.8 781.7,391.4 
					781.7,376.7 775.8,376.5 775.8,343.5 806.7,343.7 806.7,407.4 793,433.7 754.4,432 740.4,405.9 740.4,299 				"/>
				<polygon id="N_00000095318972303003396170000010359365383045620140_" class="st5" points="641.9,276.1 641.9,312.3 646.7,312.1 
					646.7,393.2 641.9,393.2 641.9,428.5 677.3,429 677.3,393.2 671.5,393.2 671.5,362.5 693.7,429.6 724.2,430.5 724.2,394.6 
					718.9,394.4 718.9,311.5 724.2,311.3 724.2,274 689.4,275.1 689.4,311.8 694.2,311.8 694.2,344.2 670.8,275.6 				"/>
				<polygon id="I_00000155106524008958364160000000554330150170093459_" class="st5" points="590.1,276.1 625.2,276.1 625.2,312.3 
					619.7,312.3 619.7,393.4 625.2,393.4 625.2,428.5 590.1,428.5 590.1,393.2 595.5,393.2 595.5,312.1 590.1,312.1 				"/>
				<polygon id="L_00000003102131515770707080000017196687503516158900_" class="st5" points="509.2,275.1 509.2,311.3 514.3,311.3 
					514.3,393.9 509.2,393.9 509.2,429.6 575,428.5 575,384.1 553.6,384.5 553.6,393.2 539.3,393.2 539.3,311.6 544.2,311.8 
					544.2,275.7 				"/>
				<polygon id="T_00000176750799815929683390000010054625752962497425_" class="st5" points="420.6,272 420.6,318.2 440.8,318.2 
					440.8,309.6 445.7,309.8 445.7,395.1 439.5,395.3 439.5,432 475.3,430.7 475.3,394.4 469.9,394.6 469.9,310.3 474.2,310.5 
					474.2,319.1 494.9,319.2 494.9,274.7 				"/>
				<polygon id="S_00000086678267124918541930000001129053282623181489_" class="st5" points="354.4,268.1 390.6,270.3 404.9,296 
					404.9,329.2 380.7,329.2 380.7,313.2 376.8,308.2 367.4,307.9 364,314 364,328.3 367.4,334.4 390.4,334.4 404.9,359.5 
					404.9,408.6 390.3,434.4 354.4,436.7 339.9,410.8 339.9,378.2 364,377.6 364,392.2 367.4,397.4 376.8,397.1 380.7,390.2 
					380.7,375.9 376.8,370.8 353.9,371.6 339.9,345 339.9,295.1 				"/>
				<polygon id="E_00000006669169744249299570000012728564503127097517_" class="st5" points="264,302.9 268.8,303 268.8,401.7 
					264.1,402 264,443.6 324.7,438.9 324.7,392 304.9,392.7 304.9,400 291.6,400.6 291.7,371.1 295.7,371.1 295.9,380.2 
					313.1,379.7 313.3,325.5 295.5,324.8 295.5,334.1 291.1,334.1 291.7,304.2 305.4,305 305.4,312.6 324.7,313.2 324.7,266 
					264,260.9 				"/>
				<path id="R_00000169531513897133594360000000177712090332524461_" class="st5" d="M244.6,403v-42.1l-5.4-11l5.4-11.3v-49.9
					l-12.8-29.4l-48.3-5.1v44.3l4.3,0.3v107.6l-4.9,0.3v45l31.9-3.5v-43.7L210,405v-34.2h8.7l3.6,6.9v70L249,445l0.2-42.1L244.6,403
					z M222.9,321.9l-3.5,5.7h-9.7v-27.3l8.9,0.7l4.3,4.4V321.9z"/>
				<polygon id="W_00000034087020172671993090000014328759623451440794_" class="st5" points="59,287.4 65.5,288.5 78.1,414.8 
					75,415.1 75,466.5 110.4,460.8 110.4,412.3 107.1,412.4 114.5,362.4 119.4,411.4 116.3,411.8 116.1,460 154.6,455.3 
					154.6,408.9 150.8,409.1 165.8,298.1 170.7,298.6 170.7,251.1 140,247.2 140,295.4 143.6,295.8 135.4,360.2 127,293.6 
					130.1,293.9 130.1,245.9 97.9,241.3 98.2,290.6 101.6,290.9 93.1,360.2 85,289.6 89.1,289.9 89.1,240.2 59,235.6 				"/>
			</g>
		</g>
	</g>
	<g id="Bulldogs_Text">
		<g id="Bulldogs_Text_Dark">
			<path id="S_00000004546339839368448630000007185927902318700204_" class="st6" d="M966.7,91.6c2.8-12,5.8-23.9,8.4-34.4
				c7.4-26.2,23.9-40.7,36.6-40.8c6.1,0,70.8,0,70.8,0l-11,54.2h-40l3.1-13.3h-20.4l-6.6,27.3h29.6c22.2,0.8,27.3,13.5,22.2,35.6
				c0,0-5.9,24.4-7.7,32.3c-6.3,25.5-20.1,37.5-36.1,37.4c-22.9,0.3-33.8,0-45.1,0c-10.9,0-17.3,0-25.2,0.2
				c1.8-7.2,10.7-46.8,12.7-54.7l37.4,0.2l-4.1,17.3h22.6l7.4-31c0,0-23.7,0.5-29.6,0.5C966.7,121.7,964.1,102.8,966.7,91.6z"/>
			<path id="G_00000103238432996447080360000018154697045117432737_" class="st6" d="M932.8,189.6c-26.5,0.3-60.8,0-71.3,0
				c-11.2,0-25.5-5.3-18.1-37.5c7.6-30,15.8-66.7,23.1-95c7.2-29.8,21.9-40.2,31.6-41.2c12.7-0.5,56.6,0.5,77.4,0.5
				c-9.9,38.9-13.5,51-13.5,51l-38.9-0.5l2.6-9.9h-20.4l-23.1,95.5h20.9l7.4-32.1h-10.2l9.4-36.9l48.6,0.8L932.8,189.6z"/>
			<path id="O_00000088134212774854240650000013587612055927786681_" class="st6" d="M837.3,16.2c-20.7,0-43.8,0.5-49.7,0.5
				c-12.7,0.2-23.7,7.2-31.5,40.3c-7.2,28.2-15.5,65.4-23.1,95.2c-8.1,31.6,7.9,37.2,18.1,37.4c11.4,0.2,22.2,0.3,45.1,0
				c16,0.2,29.8-12,36.1-37.4c7.1-30.3,16.1-67.7,23.2-95.2C861,35.9,852.9,16.2,837.3,16.2z M792.7,152.5h-20.9L794.8,57h20.4
				L792.7,152.5z"/>
			<path id="D_00000006702405924172587300000017815303812820839838_" class="st6" d="M727.1,16.7c-20.9,0-75.7,0-82.2,0L635.3,57
				h8.4l-23.1,95.5h-9.1l-7.7,37c0,0,58.8,0.3,81.8,0c16.1,0.2,30-10.5,36.2-36.2c7.2-30.5,16.8-68.5,23.4-96.3
				C750.2,36.8,742.8,16.7,727.1,16.7z M679.2,152.5h-20.9L681.4,57h20.4L679.2,152.5z"/>
			<path id="L_00000056386102673885029660000007111918231088763037_" class="st6" d="M531.4,16.7c6.4,0,59.9,0,59.9,0l-10,40.3h-9.9
				L550,152.5h15l5.8-28.8l36.7-0.3l-14.3,66.2H492.2l7.7-37h10.7L532,57h-10L531.4,16.7z"/>
			<path id="L_00000034054033382589050580000004397263983453981603_" class="st6" d="M423,16.7c6.4,0,56.6,0,56.6,0L471.3,57h-10
				l-21.4,95.5h15l5.8-28.8l35.1-0.3l-14.3,66.2H380.4l9.4-37h10.7L423.5,57h-10.2L423,16.7z"/>
			<path id="U_00000057116293265474259200000017225705484017856917_" class="st6" d="M292.8,16.7l-11,40.3h10.9
				c0,0-18.6,73.9-24.2,101.6c-2.6,12.7,0.5,31.1,14.5,31.1c14.2,0,42.3,0,56.3,0c23.4,0,30-29.6,30-29.6l25.2-102.9h8.9l9.4-40.3
				h-49.2L331,152.7h-20.1l31.6-136H292.8L292.8,16.7z"/>
			<path id="B_00000025430119880610519190000016050450327695027076_" class="st6" d="M253.9,16.5c-29.8,0.3-85,0-85,0L159.4,57h10.9
				l-22.9,95.5h-11l-9.7,36.4c0,0,62.4,1,85.1,0.7c21.9,0.2,30.5-14.7,33.9-26.7c1.2-5.3,8.7-36.1,10-41.2
				c3.5-11.4,0.7-19.4-13.7-21.9c14.7,0.2,19.3-2.3,22.1-12.7c2.3-7.9,5.8-20.9,7.9-30.1C277,37.3,278.4,17.7,253.9,16.5z
				 M208.3,152.5h-20.1l7.2-31.8l20.1-0.3L208.3,152.5z M223.6,87.5h-20.3l7.4-30.5h20.4L223.6,87.5z"/>
		</g>
		<g id="Bulldogs_Text_Light_00000131368841772057814070000001757261180452183474_">
			<path id="S" class="st7" d="M957.2,82.5c2.8-12,5.8-23.9,8.4-34.4C973,22,989.4,7.5,1002.1,7.3c6.1,0,70.8,0,70.8,0l-11,54.2h-40
				l3.1-13.3h-20.6l-6.6,27.3h29.6c22.2,0.8,27.3,13.5,22.2,35.6c0,0-5.9,24.4-7.7,32.3c-6.3,25.5-20.1,37.5-36.1,37.4
				c-22.9,0.3-33.8,0-45.1,0c-10.9,0-17.3,0-25.2,0.2c1.8-7.2,10.7-46.8,12.7-54.7l37.4,0.2l-4.1,17.3h22.6l7.4-31
				c0,0-23.7,0.5-29.6,0.5C957.2,112.8,954.5,93.7,957.2,82.5z"/>
			<path id="G" class="st7" d="M923.2,180.7c-26.5,0.3-60.8,0-71.3,0c-11.2,0-25.5-5.3-18.1-37.5c7.6-30,15.8-66.7,23.1-95
				C864.1,18.3,878.8,8,888.5,7c12.7-0.5,56.6,0.5,77.4,0.5c-9.9,38.9-13.5,51-13.5,51L913.7,58l2.6-9.9h-20.4l-23.1,95.5h20.9
				l7.4-32.1H891l9.4-36.9l48.4,0.7L923.2,180.7z"/>
			<path id="O" class="st7" d="M827.7,7.3c-20.7,0-43.8,0.5-49.7,0.5C765.3,8,754.3,15,746.6,48.1c-7.2,28.2-15.5,65.4-23.1,95.2
				c-8.1,31.6,7.9,37.2,18.1,37.4c11.4,0.2,22.2,0.3,45.1,0c16,0.2,29.8-12,36.1-37.4c7.1-30.3,16.1-67.7,23.2-95.2
				C851.5,26.9,843.4,7.3,827.7,7.3z M783.1,143.6h-20.9l23.1-95.5h20.4L783.1,143.6z"/>
			<path id="D" class="st7" d="M717.6,7.8c-20.9,0-75.7,0-82.2,0l-9.7,40.3h8.4l-23.1,95.5H602l-7.7,37c0,0,58.8,0.3,81.8,0
				c16.1,0.2,30-10.5,36.2-36.2c7.2-30.5,17-68.5,23.5-96.3C740.6,27.9,733.2,7.8,717.6,7.8z M669.7,143.6h-20.9l23.1-95.5h20.4
				L669.7,143.6z"/>
			<path id="L" class="st7" d="M521.8,7.8c6.4,0,59.9,0,59.9,0l-10,40.3h-9.9l-21.4,95.5h15l5.8-28.8l36.7-0.3l-14.3,66.2H482.6
				l7.7-37h10.7l21.4-95.5h-10L521.8,7.8z"/>
			<path id="L_00000005961750670012436270000000948459104063206293_" class="st7" d="M413.3,7.8c6.4,0,56.6,0,56.6,0l-8.4,40.3h-10
				l-21.6,95.5h15l5.8-28.8l35.1-0.3l-14.3,66.2H370.5l9.4-37h10.7l23.1-95.5h-10L413.3,7.8z"/>
			<path id="U" class="st7" d="M283,7.8l-10.9,40.3H283c0,0-18.6,73.9-24.2,101.6c-2.6,12.7,0.5,31.1,14.5,31.1
				c14.2,0,42.3,0,56.3,0c23.4,0,30-29.6,30-29.6l24.9-103.1h8.9l9.4-40.3h-49.2l-32.6,135.8h-20.1L332.9,7.8H283z"/>
			<path id="B" class="st7" d="M244.3,7.6c-29.8,0.3-85,0-85,0l-9.6,40.5h10.9l-22.9,95.5h-11l-9.7,36.4c0,0,62.4,1,85.1,0.7
				c21.9,0.2,30.5-14.7,33.9-26.7c1.2-5.3,8.7-36.1,10-41.2c3.5-11.4,0.7-19.4-13.7-21.9c14.7,0.2,19.3-2.3,22.1-12.7
				c2.3-7.9,5.8-20.9,7.9-30.1C267.4,28.2,268.9,8.8,244.3,7.6z M198.7,143.6h-20.1l7.2-31.8l20.1-0.3L198.7,143.6z M214.1,78.6
				h-20.3l7.4-30.5h20.4L214.1,78.6z"/>
		</g>
	</g>
	<g id="BD-Body">
		<path id="Sillowette" d="M961.6,738.4c-1.9-2.1-2.3-4.8-2.3-7.5c-0.1-7.2-1.8-14.1-4.7-20.7c-3.3-7.7-7.8-14.5-14.8-19.6
			c-5.6-4.1-7.8-10.6-9.9-17c-1.5-4.6-2.6-9.3-5-13.5c-8.3-14.6-20.4-25.4-35.1-33.3c-7.6-4.1-15.3-7.7-23.1-11.4
			c-3.6-1.7-6.3-4.1-8-7.8c-6.2-13.4-15.4-24.3-27.2-33.1c-4-3-8.2-5.6-12.5-8.3c2.7-2.5,5.9-2.7,9.2-2.7c5.4-0.1,10.7,0.8,16.1,0.2
			c9-1,13.2-9.3,8.6-17.1c-1.3-2.3-2.9-4.4-4.8-6.2c-12.8-12.3-27.9-17.8-45.6-15.5c-11.1,1.5-19.6,7-25,17
			c-1.9,3.5-1.9,3.5-5.4,1.9c-32.6-15.2-65.2-30.1-96.8-47.2c-0.8-0.4-1.5-1-2.1-1.7c-11.2-14.2-24.1-26.6-38.8-37.1
			c-30.3-21.5-63.6-31.5-100.9-25.5c-12.7,2.1-24.9,5.9-35.4,13.8c-0.7,0.5-1.2,0.4-1.9,0.3c-4.7-0.7-9.2,0.1-13.6,1.7
			c-10.4,3.8-18.2,10.6-23.3,20.4c-0.4,0.7-0.4,1.5-1.7,1.3c-4.6-0.6-9.2-0.5-13.8-0.3c-1.3,0.1-2.3-0.2-3.3-1.2
			c-9.2-8.6-20.1-11.3-32.3-9.6c-8.7,1.2-16.6,4.6-24.4,8.6c-6.2,3.2-11.9,6.9-16.4,12.4c-2.1,2.6-3.9,5.4-4.2,8.8
			c-0.4,5.9,3.6,10.2,10.5,11.4c2.9,0.5,5.9,0.4,9.1,0.6c-0.5,0.8-0.8,1.4-1.1,2c-2.8,4.8-5.1,9.9-5.9,15.4
			c-0.4,3.2-1.7,4.5-4.7,5.6c-8.8,3.2-14.9,9.2-17,18.7c-1,4.4-0.9,8.8-0.1,13.3c0.3,1.6-0.2,2.4-1.7,3.1
			c-9.7,4.3-14.6,13.2-13,23.7c0.5,3,0.6,5.8-0.7,8.6c-0.5,0.9-0.6,2.1-0.7,3.1c-0.8,6,1.3,11,5.1,15.4c2,2.3,1.9,2.3-0.4,4.2
			c-1.3,1.1-2.6,2.2-3.7,3.4c-10.1,10.2-11,25.7-1.9,36.5c1.4,1.7,1.5,2.8,0.3,4.4c-1,1.4-1.8,3-2.5,4.6c-9.3,21-10.8,42.6-5.3,64.7
			c2.1,8.5,6,16.1,13.8,20.9c1,0.6,0.4,1.3,0.3,2c-1.9,9.9-1.2,19.5,2.1,29c2.4,6.9,7.1,11.3,14.3,12.9c7,1.6,14.2,1.5,21.3,1.2
			c5.2-0.2,10.3-1.2,15.2-3.3c2.1-0.9,3.5-3.7,5.6-3.4c2.1,0.2,4,2.1,6.1,3c12.2,4.9,24.7,5.4,37.6,3.5c6.4-0.9,12.3-3.6,18.2-6.1
			c6.7-2.8,10.6-8.2,10.8-15.8c0.1-4.9-1.8-9.3-4.4-13.3c-8.3-12.8-19.7-22.1-33.8-27.6c-6.3-2.5-12.8-4.9-19.7-1.5
			c-0.2-3.5,0.1-6.7,1.4-9.8c1.2-3.1,3.5-4.7,6.8-4.9c3.9-0.2,7.6,0.5,11.3,1.7c10.8,3.3,21.1,8,31.8,11.5c13,4.3,26.2,7.8,39.8,9
			c14.7,1.3,29.3-0.1,43.7-3c8.7-1.7,17.3-4,25.8-6.9c0.2,0.3,0.2,0.4,0.2,0.5c-0.1,1.1-0.3,2.3-0.3,3.4
			c-0.5,9.2,2.3,16.8,10.3,21.9c5.2,3.4,11.1,4.2,17.2,4c5.4-0.2,10.5-2.1,16.2-0.3c6,1.9,11.7-0.9,16.8-4.5
			c0.8-0.5,1.3-1.1,2.4-0.6c2.3,1,4.7,1.3,7.2,1.1c1.5-0.1,2.2,0.1,1.9,1.9c-0.2,1.3-0.1,2.6,0,3.9c1,13.3,10.6,23,22.5,22.3
			c1.2-0.1,1.4,0.6,1.7,1.4c2.8,5.7,7.3,9.1,13.5,10.4c4,0.8,8.1,0.8,12.2,0.5c13.2-1,26.3-2.4,39.5-2.9c7.9-0.3,15.8-0.4,23.7,0.6
			c5,0.6,9.8,2.5,14.8,3.1c6.5,0.9,12.9,0.9,19.1-1.1c12.6-4,16.4-15.3,15.2-26.2c-1-8.7-5.9-15.1-13.1-19.9c-0.9-0.6-1.7-1-1.2-2.5
			c4.7-16.7,4.6-33.6,1.8-50.6c-0.5-3-1-6-1.7-9.5c6.3,4.3,12.2,8.2,18.2,11.8c9.8,5.8,20.1,9.8,31.7,9.6c9.1-0.1,18.1-0.9,27-2.3
			c0.8-0.1,1.6-0.6,2.2,0.5c2.5,4.7,5,9.5,7.5,14.4c-4.7,0.9-9,1.9-13.1,3.6c-0.7,0.3-1.3-0.1-2-0.2c-8.4-1.8-16.7-3-25.3-1.9
			c-9.6,1.2-16.4,6.5-18.3,15.3c-2.9,13.5-0.1,25.9,8,37.1c5,6.9,11.8,10.9,20.5,10c4-0.4,7.5-0.1,11.4,1.1c10.2,3.1,20,1,29.1-4.4
			c1.2-0.7,1.9-0.7,2.8,0.3c1.6,1.6,3.6,2.9,5.7,3.9c7.7,3.8,15.8,4.2,24,2.7c12.9-2.3,24.4-7.5,33.5-17.3
			C967.9,758.8,968,745.5,961.6,738.4z M686.3,717c-0.7,0.2-1.4,0.1-1.8-0.6c-0.3-0.4-0.7-0.8-1-1.3c-2.8-3.9-2.7-4.4,1.3-6.8
			c6-3.6,11.6-7.7,16.5-12.7c0.2-0.3,0.6-0.4,1.1-0.8c0.9,7.7,0.6,15.3,2.1,23.1C698.4,715.9,692.4,715.3,686.3,717z"/>
		<g id="Gray_Parts">
			<g id="Leg_and_Paw_Parts">
				<path id="Leg_and_Paw" class="st8" d="M412.9,740.7c0.1-0.1,0.3-0.2,0.3-0.3c4.4-6.3,7-7.3,14.5-5.5
					c10.5,2.5,19.1,8.2,26.8,15.4c4.6,4.3,8.8,9,11.5,14.8c3.4,7.6,0.5,14.2-7.3,16.8c-1,0.3-1.7,0.2-2.3-0.8
					c-6-9.2-13.3-17.2-21.6-24.4c-2.8-2.4-5.7-4.6-8.9-6.4c-0.8-0.4-1.6-0.8-2.5-1.1c-0.8-0.3-1.7-0.7-2.3,0.2
					c-0.6,0.9,0.2,1.6,0.8,2.2c2.6,2.5,5.2,5,7.8,7.4c7.8,7.2,14.6,15.1,20.1,24.1c0.8,1.4,0.9,2-0.9,2.4
					c-12.3,2.5-24.5,2.6-36.6-1.3c-4.8-1.6-8.9-4.2-12-8.5c-2.8-3.9-5.7-7.8-9.2-11.2c-0.5-0.5-1.1-1.5-1.8-1.1
					c-0.9,0.5-0.3,1.5-0.1,2.2c1.6,4.8,3.8,9.4,6,13.9c1,2,0.4,3-1.3,3.8c-3.1,1.6-6.5,2.4-9.9,2.7c-7.4,0.7-14.9,0.8-22.2-0.7
					c-4.8-0.9-8.2-3.7-9.7-8.4c-3.3-10.4-4.2-20.8,0.2-31c2.7-6.2,7.4-9.8,14.4-10c1.3,0,2.5-0.2,4-0.3c-5.4-4.4-13.7-4.2-19.3,0.5
					c-1.6,1.3-3.1,2.8-4.1,4.6c-0.7,1.3-1.3,1.3-2.4,0.4c-4.3-3.6-7-8.4-8.4-13.7c-6-22.4-4.6-44.2,5.9-65.1
					c1.4-2.9,1.5-2.9,4.5-1.6c4.3,1.8,8.9,2.4,13.5,2.4c1.5,0,2.1,0.4,2.5,1.8c5.3,20.3,24.9,34.5,43.7,36.3
					c3.1,0.3,6.1,0.1,9.2-0.3c0.7-0.1,1.3-0.2,1.8,0.5c1.6,1.9,3.2,3.7,4.9,5.6c-1.5,0.6-3,1-4.3,1.6c-4.1,2.1-6.3,5.7-7.5,10
					c-1.9,6.7-1.1,13.2,1.1,19.7C412,739.3,412.2,740.2,412.9,740.7z"/>
				<path id="Paw_Part" class="st8" d="M608.1,748.8c-6,0.9-11.6,0.8-16.8-2.1c-6.9-4-8.7-11.6-7.2-19c0.2-1,0.7-1,1.5-0.9
					c5.5,0.8,10.9,1.3,16.5,1.4c1.1,0,1.4,0.5,1.3,1.6C602.6,736.5,604,742.8,608.1,748.8z"/>
				<path id="Paw_Part_00000005254885933849666250000003107378698027715492_" class="st8" d="M860.6,726.4
					c-13.9,10.4-17.7,33.7-8.4,47.7c-4,0.5-7.4-0.8-10.4-3.3c-4.2-3.5-6.7-8.1-8.5-13.2c-2.1-6.2-3.2-12.6-2.4-19.2
					c0.9-7.3,4.5-11.2,11.7-12.5C848.5,724.9,854.4,725.3,860.6,726.4z"/>
				<path id="Paw_Part_00000147220389038550254280000011505495240346232962_" class="st8" d="M637.9,734.5c0.1-9.4,0.2-9.3,8.7-11.1
					c9-2,17.6-5.1,26-8.9c1.5-0.7,2.5-0.9,3,1c0.2,0.8,0.6,1.6,1.2,2.2c1.9,2,1.7,3.5-0.5,5.2c-2.3,1.8-3.6,4.4-4.4,7.1
					c-0.3,1.1-0.8,1.4-1.9,1.5c-7.9,1-13.9,5-17.9,11.8c-0.5,0.9-1.1,1.3-2.1,1.5c-2,0.4-4,0.5-5.9,0.2c-3.3-0.5-5.5-3.2-5.9-7.5
					C637.9,736.4,637.9,735.1,637.9,734.5z"/>
				<path id="Paw_Part_00000129177242370734486720000006181314005343418518_" class="st8" d="M610.2,733c0-4.8,0-4.7,4.6-5
					c5-0.3,10.1-0.8,15.1-1.4c1.8-0.2,1.7,0.4,1.5,1.7c-0.6,4.4-0.7,8.7,0.4,13c0.1,0.4,0.2,0.7,0.3,1.1c1.3,3.7,1.3,3.7-2.2,5.5
					c-9.2,4.6-18.4-0.9-19.5-11.7C610.3,735,610.3,733.9,610.2,733z"/>
			</g>
			<g id="Chest">
				<path id="Chest_Part" class="st8" d="M517.8,729.6c-12.6,0.2-24.8-2.2-36.8-5.5c-13.6-3.7-26.4-9.5-39.7-13.8
					c-6.4-2.1-11.4-5.7-16.1-10.2c-1.5-1.5-1.1-2.1,0.6-2.8c6.1-2.5,12.6-3.4,19-4.3c1.3-0.2,2.6-0.1,3.9-0.5
					c7-1.9,13.2,1.1,19.7,2.9c10,2.8,20.2,5,30.5,6.7c1.1,0.2,1.7,0.6,2.1,1.7c2.1,5.8,4.7,11.3,8,16.5
					C511.3,724,513.7,727.6,517.8,729.6z"/>
				<path id="Chest_Part_00000064354729281083990970000012564295147744032405_" class="st8" d="M520.8,729.8
					c7.6-5.1,8.5-13.5,11.1-21.1c10.5,6,21.6,10.5,33.7,14C550.6,726.9,536,729.3,520.8,729.8z"/>
			</g>
			<path id="Tail" class="st8" d="M834.6,556.7c-4.4-0.3-8.7-0.5-13,0.4c-3.3,0.7-6.1,2.1-8.2,4.6c-0.7,0.8-1.2,1-2.3,0.5
				c-9.1-4.4-18.3-8.7-27.4-12.9c-1.4-0.7-1.5-1.3-1-2.6c3.8-8.5,10.5-13.3,19.4-14.8c16-2.6,29.7,2.5,41.3,13.7
				c1.4,1.4,2.6,3,3.5,4.8c1.6,3.2,0.2,5.9-3.4,6.3c-1.5,0.2-3.1,0.2-4.6,0.2C837.5,556.9,836,556.8,834.6,556.7z"/>
			<path id="Body" class="st8" d="M955.5,742c-2.7-2.9-3.3-6.8-3.3-10.8c-0.1-8.1-2.5-15.7-6.3-22.8c-2.6-4.9-6-8.9-10.5-12.3
				c-6.6-5-9.6-12.3-12.1-19.9c-1.5-4.7-2.6-9.4-5.2-13.7c-6.9-11.8-16.7-20.8-28.3-27.7c-8.6-5.1-17.9-9.2-26.9-13.5
				c-4.3-2.1-7.9-5-9.9-9.5c-8-17.9-21.4-30.7-38.4-39.9c-15.3-8.2-31.2-15.1-46.9-22.4c-26.2-12.3-52.5-24.4-78.4-37.5
				c-1.8-0.9-3.6-1.8-5.4-2.8c-0.3,0.7,0,1,0.2,1.3c9.4,15.2,16,31.5,19.2,49.2c0.5,2.9,1.2,5.9,0.5,9.1c-1.2-0.5-1.3-1.5-1.6-2.3
				c-1.4-3.7-2.9-7.4-4.2-11.2c-12.3-33.8-31.3-62.9-59.6-85.5c-19.2-15.4-40.5-26.5-65-30.6c-16.3-2.7-32.4-2.2-48.3,2.1
				c-6.2,1.7-12.2,4-17.8,7.2c-0.5,0.3-2.3,0.5-0.6,1.7c4,2.7,8,5.4,12,8c3.8,2.5,7.9,3.6,12.5,3.1c4.1-0.4,8.3-0.5,12.4,0.2
				c6.5,1.1,9.9,6,8.8,12.4c-0.5,2.5-1.4,4.7-2.6,6.8c-0.3,0.6-1.4,1.2-0.7,2c0.8,1,1.5-0.1,2.2-0.4c5-2.5,9.9-5.3,15.4-6.7
				c4.9-1.2,7.1,0.9,6.1,5.8c-1,4.8-2.9,9.2-5,13.5c-0.6,1.3-0.6,2.1,0.5,3.1c13.1,12.1,24,25.8,33.3,41c0.6,1,1.3,1.3,2.4,1.2
				c3.3-0.3,6.6-0.6,9.9-0.6c4.1,0,8.2-0.2,12.1,1.1c2.4,0.8,3.1,2.9,1.8,5.1c-0.9,1.4-2.1,2.7-3.3,3.8c-3,2.8-6.2,5.5-9.7,7.8
				c-1.7,1.2-2,2-1.1,4c8,17,14.1,34.6,17.5,53.1c0.2,1.3,0.8,2.1,2,2.8c4.5,2.4,9,4.9,12.8,8.5c3.3,3.1,2.8,5.8-1.4,7.5
				c-3.5,1.4-7.2,2.2-10.9,2.7c-1.2,0.2-1.6,0.6-1.8,1.9c-2.3,17.3-10.5,31.4-23.6,42.7c-1.3,1.1-1.3,2-0.9,3.5
				c1.6,5.2,2.8,10.5,2.5,16.1c-0.2,4.3-2.4,5.9-6.6,4.7c-1-0.3-1.9-0.6-2.8-1c-5.1-2.1-9.8-4.8-14.3-7.8c-1.1-0.8-2-0.9-3.3-0.3
				c-7.1,2.9-14.4,5.1-21.9,6.7c-6.6,1.5-13.3,2.1-20.6,2.7c1.1,0.6,1.5,0.9,2,1.2c16,8.1,32.9,12.9,50.8,14.4
				c13,1.1,25.9,0.7,38.8-1.3c19-3,36.9-8.9,53.2-19.2c5.9-3.8,11.4-8.1,15.3-14c0.5-0.8,1.1-1.5,0.9-2.7c-0.8-4.4-2-8.6-3.7-12.8
				c-4.2-10.4-19.5-15.2-28.1-4c-0.7,0.8-1.4,1.6-2,2.5c-4.7,6.8-11.3,8.7-19.2,7.5c-5.5-0.8-9.3-4-12.3-8.5
				c-0.4-0.6-0.9-1.4-0.2-2.1c0.6-0.6,1.3,0,1.9,0.3c2.1,1.2,4.2,2.3,6.2,3.6c6.3,4,15.2,1.2,18.7-4.4c1-1.5,2.2-2.9,3.4-4.3
				c8.2-9.4,18.4-10.4,29.2-4c6.6,3.9,9.4,10.5,11.3,17.5c2.8,10.1,3.1,20.6,3.7,31c0.4,6.5,1.1,13,3.5,19.1
				c3.4,8.6,8.8,15.8,15,22.4c0.8,0.8,1.7,1.6,2.4,3.1c-0.8-0.3-1.1-0.4-1.4-0.6c-9.1-5-16.1-12.2-20.9-21.4c-0.4-0.8-0.8-1.6-1.7-2
				c-5.1-2.6-10.4-4.2-16.2-3.4c-4.8,0.7-8.9,2.7-11.6,7.1c-0.6,1-0.6,1.4,0.7,1.8c4.4,1.3,8.2,3.7,11.7,6.7c1,0.8,2.1,1.6,2.2,3.1
				c-0.8,0.5-1.5,0.2-2.2-0.1c-1.8-0.6-3.6-1.2-5.4-1.8c-5.9-1.8-11.9-2.5-17.9-0.9c-6.4,1.8-10.5,6.1-11.9,12.5
				c-1.6,6.9,0.1,13.1,5.1,18.2c1.9,2,4.4,3,7.1,3.5c1.3,0.2,2.1,0.1,2-1.7c-0.1-1.7,0.1-3.5,0.3-5.3c1.2-13.2,13.2-18,23.8-13.8
				c1.2,0.5,2.5,1,3.7,2.4c-1.8-0.2-3.1-0.4-4.5-0.4c-5.9-0.1-11.7,0.4-14.7,6.7c-3.4,7.1-2.2,13.8,2.1,20c1.6,2.4,4.2,3.5,7,4
				c4.1,0.8,8.3,0.5,12.4,0.2c13.7-1.1,27.4-2.5,41.1-2.8c10.4-0.3,20.8-0.1,31,2.9c5.6,1.6,11.4,2.1,17.3,1.2
				c7.3-1,12.3-5,13.8-11.6c2.1-9-0.6-16.3-7.9-22c-1.3-1-1.8-1-2.7,0.5c-3,4.9-7,8.9-11.6,12.3c-0.8,0.6-1.8,1.6-2.6,0.8
				c-1-0.8,0-1.8,0.5-2.7c0.9-1.6,1.9-3.1,2.9-4.7c5.8-8.9,9.1-18.7,10.5-29.2c2.3-16.4,0.5-32.6-3.5-48.6
				c-6.1-24.2-16.7-46.4-31-66.8c-0.8-1.1-1.6-2.1-1.7-3.7c1.3,0.2,2,0.9,2.8,1.5c3.7,3,6.6,6.6,9.4,10.3
				c11,14.5,18.7,30.7,24.4,47.9c0.4,1.2,0.8,2.2,1.9,3c7.2,5.2,14.5,10.3,22.2,14.8c5.8,3.4,11.7,6.8,18.4,8.3
				c7.4,1.6,14.8,1.2,22.2,0.7c6.4-0.4,12.7-1.3,18.9-2.5c1.8-0.4,2.8,0.2,3.7,1.9c4,7.9,8.2,15.8,12.4,23.6c1.7,3.2,1.7,3.2-2,3.3
				c-7.1,0.1-13.8,1.6-20.2,4.6c-13.4,6.4-17.8,18.6-16.4,31.8c0.6,6.3,3.2,11.7,9.2,14.4c9.3,4.1,18.1,2.2,26.6-2.6
				c1-0.6,0.8-1.3,0.4-2.1c-1.3-2.6-2.1-5.4-2.6-8.3c-2.5-13.5,3-23.4,15.5-27.7c2.7-0.9,5.4-1.6,8.3-1.5c0.5,0,1.2,0.1,1.3,0.7
				c0.2,0.7-0.5,0.9-1,1.1c-1.4,0.6-2.9,1.1-4.2,1.8c-7.7,3.8-12.8,9.5-13.5,18.5c-0.8,11.4,5.6,21,15.9,23.3
				c4.2,0.9,8.5,1.2,12.8,0.6c11.7-1.7,22.1-6.1,30.6-14.5C959.7,757.9,961,748.1,955.5,742z"/>
			<g id="Head">
				<path id="Chin" class="st8" d="M428.9,639.2c-13,1.7-26.3,1.5-38.4,8.1c-6.3,3.4-12.8,6.6-19.9,8.2c-6,1.4-11.9,1.6-18,0.3
					c-12.2-2.6-17.8-15-14.1-26.1c4.5-13.5,18.7-20,32.6-15c4.3,1.5,4.3,1.5,1,4.7c-6.5,6.4-9.4,12.7-10.5,23.1c1.3-1.6,2-3.4,2.8-5
					c2.2-4.3,4.5-8.6,7.5-12.4c4.3-5.5,9.9-8.3,16.8-8.6c8.3-0.3,16.1,1.7,23.7,4.9c10.7,4.4,21.4,8.9,32.4,12.4
					c11.8,3.7,23.9,4.8,36.1,1.7c2.8-0.7,5.4-2.1,8.2-3.4c0.3,6.4,0.9,12.6,2.3,18.6c2.1,8.9,5.4,17.3,10.8,24.7
					c1.4,1.9,0.8,2.4-1,3.1c-6,2.3-12.3,3.2-18.6,3.9c-12.7,1.4-25.4,2.3-38,3.8c-8.4,0.9-16.6,2.5-24.4,6.2
					c-7.7,3.7-15.7,2.8-23.5-0.2c-13-5-22.2-13.8-26.9-27.2c-0.6-1.8-0.4-2.5,1.7-2.8c3.2-0.5,6.4-1.5,9.4-2.9
					c1.5-0.7,2.4-0.4,3.6,0.6c6.9,5.5,14.6,9,24.2,8.5c-3.5-2-6.7-3.5-9.6-5.4c-3.1-2-6-4.2-8.8-6.7c-1.2-1.1-1.5-1.7,0.2-2.8
					c7.8-5.4,16.5-8.3,25.9-9.5c3.2-0.4,6.4-0.9,9.3-2.4C426.9,640.9,428.1,640.3,428.9,639.2C428.9,639.2,428.9,639.2,428.9,639.2z
					"/>
				<path id="Cheek" class="st8" d="M528.2,582.2c-2.2-5.8-6.1-10.1-9.5-14.7c1.5-0.3,2.4,0.6,3.2,1.1c15.1,9.1,29.6,19,40.8,32.9
					c6.7,8.3,11.5,17.5,12.7,28.3c1.8,16.4-4.3,28.3-19,36c-13.8,7.2-28.8,9.8-44.2,9.8c-1.5,0-2-0.9-2.7-1.8
					c-6.7-8.6-10.5-18.5-12.3-29.1c-1.5-8.9-1.3-17.8-0.3-26.8c1.4-13,0.9-25.9-3.6-38.4c-2.8-7.7-7.4-13.9-15.1-17.4
					c-8-3.6-16.5-1.8-22.4,4.7c-0.6,0.7-1.3,1.3-1.7,2.1c-3.9,7.8-10.6,9.8-18.6,9.3c-3.8-0.2-7.7-0.2-11.5,0.1
					c-6.2,0.3-10.9,3.1-14.4,8.2c-1.3,1.9-2.8,3.7-4,5.6c-5.4,8.8-16.2,7.2-21.6,0c-5.2-7-4.9-17.2,1-24.6c4.1-5.2,9.4-8.5,16-9.5
					c3.8-0.6,7.5,0.5,11.1,1.4c3.3,0.9,6.6,1.9,10.1,2.3c5.2,0.6,9.9-0.4,13.6-4.5c3.4-3.8,7-7.5,10.3-11.5
					c9-10.8,22.5-14.9,36.8-5.2c10,6.8,18.5,15.1,26.9,23.7c5.3,5.5,10.6,10.9,15.9,16.3C526.1,581.1,526.7,581.8,528.2,582.2z"/>
				<path id="Upper_Lip" class="st8" d="M359.1,591c-1.5,0.1-3.9-0.5-6.3-1.4c-4.8-1.8-7.2-5.1-7.1-10.3c0.1-6,2.6-10.6,7.7-13.8
					c0.7-0.5,1.2-0.7,1.7,0.4c4,8.5,11.1,13.1,19.8,15.7c1.1,0.3,1.5,2.7,0.4,3.9c-0.8,0.8-1.7,1.5-2.7,2.1
					C368.8,589.8,364.7,591,359.1,591z"/>
				<path id="Eye_Lid" class="st8" d="M444.8,519.4c3.9-4.2,7.5-8,12.4-10.2c3.7-1.6,7.5-1.5,11.2-0.2c2.3,0.8,3.5,2.7,4.3,4.8
					c2.1,5.3,1.5,10.5-1,15.5c-0.5,1-1.1,1.1-2.2,1.2c-2.7,0.2-4.5-0.4-5.9-3.2c-2.2-4.3-6.1-6.8-10.8-7.7
					C450.3,519,447.8,519.4,444.8,519.4z"/>
				<path id="Forehead" class="st8" d="M434.1,478.3c-4.5,3.8-7.8,7.6-10.2,12.2c-0.5,0.9-0.8,1.8-1.4,3.1c1.6-0.6,2.1-1.7,2.8-2.5
					c7.5-8.5,16.9-12.9,28.2-13.8c1.6-0.1,2.2,0.3,2,1.9c-0.1,0.7,0,1.6,0.2,2.3c0.4,1.6,0.9,3.2,1.4,5c1.1-1.5,1.2-3.1,1.7-4.6
					c3.9-12.6,12-21.4,23.9-26.7c8.2-3.6,16-2.4,23.3,2.6c3.2,2.2,6.4,4.5,9.7,6.5c4.7,2.9,9.8,4,15.4,3.5c3.6-0.3,7.2-0.5,10.8,0.2
					c3.2,0.6,4.1,2,3.2,5.2c-1.5,5.4-5.2,9-10,11.4c-7.7,3.9-15.7,4.5-24,1.6c-5.5-2-11.2-2.2-17-0.6c-0.9,0.3-1.9,0.5-2.6,1.7
					c1.5,0.7,3,0.6,4.4,0.6c4.9,0.1,9,2.4,13.1,4.5c0.7,0.4,0.8,0.9,0.7,1.5c-0.3,11.3,5.8,19.5,13.2,27.1c5.4,5.6,12,9.8,17.9,14.8
					c9.9,8.3,15.9,18.9,18.1,31.6c0.2,1.4,0.8,2.6,1.6,3.7c6.7,8.8,10,18.9,11.3,29.7c0,0.3,0,0.7-0.1,1.5c-5-7-10.6-13-16.7-18.5
					c-11-9.7-23.3-17.7-36.1-24.9c-4.2-2.4-8.4-4.9-12.9-6.7c-3.7-1.5-6.4-4.1-9.3-6.6c-3.3-2.9-6.7-5.6-10.4-8
					c-3.6-2.4-7.4-4.5-11.6-6.1c3.6-5.2,4.3-10.8,2.9-16.8c-2.1-8.7-7.9-12.1-17-11.4c-7.6,0.6-12.8,5.5-17.7,10.7
					c-6.4,6.8-11.3,14.7-17.4,21.7c-5.6,6.3-11.5,12.1-18.9,16.3c-2.4,1.4-5.1,0.6-7.6,1.2c-0.8,0.2-1.2-0.9-1.6-1.5
					c-5.1-7.9-5.5-17.9,2.8-26.4c3.7-3.8,7.9-7,11.2-11.3c2.2-2.8,4.2-5.8,5-9.4c-4.5,7.5-11.7,12.3-18,17.9c-2.7,2.4-5.2,5-7,8.2
					c-3.5,5.9-3.3,11.9-0.9,18.5c-10.4-3.3-20.5-3.8-30.6,0.8c-0.3-6.9,1.8-12.5,7.1-16.7c1-0.8,2.1-1.5,3.3-2.1
					c3.3-1.9,5.8-1.5,8.5,1.2c0.8,0.9,1.6,1.8,2.6,3c0.4-1.8,0.3-3.4,0.1-4.9c-1.3-12.6,3.2-23.2,11.5-32.3
					c8.8-9.7,20.4-15,32.8-18.5C428.5,479.2,430.9,478.3,434.1,478.3z"/>
				<path id="Ear" class="st8" d="M432.4,471c-5.1,1.3-9.8,2.4-14.3,4c-10.5,3.8-20.1,9-28.2,16.9c-0.5,0.5-1,1-1.7,1.1
					c-4.8,0.7-9.6,1.2-14.4,0.1c-4.1-1-5-3.3-2.7-7c2.2-3.4,5.2-6,8.5-8.2c9.1-5.9,18.8-10.4,29.5-12.1
					C417.4,464.5,425.1,465.9,432.4,471z"/>
			</g>
		</g>
		<g id="White_Parts">
			<g id="Spikes">
				<path id="Spike_00000041292950597516356200000002455401688892479400_" class="st9" d="M528.7,696.6c-0.4,8.1-2.1,15.8-5.3,23.2
					c-0.3,0.7-0.7,1.4-1,2c-2.3,3.8-3.5,4-6.3,0.4c-5.6-7.1-9.4-15.1-11.8-23.7c-1.2-4.1,0.1-7.2,3.8-9.4c5.1-3.1,10.6-3.7,16.4-2
					c2.8,0.8,4.1,2.7,4.1,5.6C528.4,694,528.6,695.3,528.7,696.6z"/>
				<path id="Spike_00000064318660959273555340000011029414718169988529_" class="st9" d="M605.1,698.5c0.1,2.7-0.2,3-2.6,1.8
					c-8.7-4.2-16.9-9.2-24.1-15.8c-3.1-2.8-3.3-5-1.2-8.5c2.5-4,5.9-7,10.2-8.9c4.1-1.8,5.5-1.4,8.2,2.3c2.8,3.8,4.5,8.1,6,12.6
					C603.3,687.3,604.8,692.8,605.1,698.5z"/>
				<path id="Spike_00000111175258037863882070000006061723647397937026_" class="st9" d="M642.1,629c-3.3,1.5-6.9,2-10.4,2.6
					c-8.9,1.4-17.8,2.5-26.8,2.2c-3.6-0.1-5.4-1.4-6.5-4.8c-1.5-4.5-1.3-9.1,0.4-13.5c1.4-3.5,2.8-4.3,6.6-3.7
					c5.3,0.8,10.3,2.7,15.3,4.8c6.8,3,13.5,6.3,19.5,10.6C640.9,627.7,641.7,628,642.1,629z"/>
				<path id="Spike" class="st9" d="M622.5,544.5c-2.1,2.4-4.2,4-6.3,5.7c-7.2,5.5-14.5,10.8-22.5,15c-4.2,2.2-6.5,1.7-9.7-1.8
					c-2.4-2.6-3.8-5.7-4.3-9.2c-0.3-2.2,0.4-3.8,2.6-4.8c5.7-2.6,11.8-3.5,18-4.3C607.5,544.1,614.8,543.8,622.5,544.5z"/>
				<path id="Spike_00000098943791795790263770000007251386862308892862_" class="st9" d="M568.1,479.8c-1.8,7.6-5.1,14.1-8.7,20.4
					c-2.4,4-5,7.9-8.4,11.2c-2.5,2.5-5.3,2.8-8.4,1.3c-4-1.9-6.9-4.8-8.7-8.7c-1.1-2.4-0.7-4.4,1.2-6.2c3.2-3,6.9-5.1,10.6-7.2
					c6.4-3.7,12.9-7.4,19.9-9.9C566.3,480.3,567,480.1,568.1,479.8z"/>
			</g>
			<g id="Teeth">
				<path id="Lower_Big_Teeth" class="st9" d="M490.5,585.9c2.5,10.5,2.7,20.7,1.9,31c-0.7,8.7-4.8,12.1-13.4,14.3
					c-9.4,2.5-18.9,1.7-28.2-0.6c-11.8-2.9-22.8-8.1-34-12.5c-5.5-2.1-11-4.3-16.8-5.3c-0.7-0.1-4.6-0.4-4.6-0.4
					c2.4-0.5,4.6-5.4,6.1-7.9c1.9-3.5,3-2.7,4.4-1.1c2.2,2.5,3.3,4.3,5.3,6.7c3.3,4,5.8,4.7,10-1.9c2-3.1,3.9-6.5,5.7-9.3
					c1.2-1.6,2.7-0.9,4.3,0.7c2.6,2.6,4.8,5.6,7.9,7.7c3.8,2.7,6,2.3,8.5-1.6c2.4-3.7,5.1-7.9,7.2-11.7c0.1-0.2,0.2-0.4,0.3-0.6
					c2-2.9,2.6-2.3,4.2-0.6c3.8,3.8,5,5.5,7.7,8.4c7.2,7.8,7.3,6.4,12.9-1.5c3.9-5.8,5.4-7.9,9.4-12.6
					C489.6,586.9,489.9,586.6,490.5,585.9z"/>
				<path id="Upper_Big_Teeth" class="st9" d="M433.9,582.5c2.8,0,5.5,0.2,8.3,0c6.1-0.4,10.7-3.4,14-8.5c1.5-2.3,3.1-4.5,5.4-6.2
					c7.5-5.7,16.4-2.3,21.8,3.6c2.4,2.7,3.9,6,5.4,9.3c0.4,0.9,0.3,1.5-0.3,2.3c-4.3,5-7.6,9.7-12.4,15.8c-1.6,2.2-2.1,4-4,2.7
					c-3.8-3.3-7.2-7.2-10.5-11.2c-3.8-4.4-6.1-3.6-8.4-0.5c-2.2,4.1-5.1,8.2-7.6,12.5c-2.1,4.2-2.2,4.1-5.8,1.2
					c-2.4-1.9-4.9-5-7.1-7.1c-4.6-4.4-5.4-3.6-8.2,0.1c-2.2,3.2-4.6,7.5-6.9,10.9c-1.1,1.4-2.1,2.3-3.2,1.5c-2.6-3-3.5-4.1-6-7.3
					c-0.9-1-1.4-1.7-3.2-2.8c0.7-0.4,4.1-2.8,7.2-8.3c3.4-5.6,8.2-8,14.5-7.8c2.4,0.1,4.8,0,7.1,0
					C433.9,582.6,433.9,582.6,433.9,582.5z"/>
				<path id="Small_Tooth" class="st9" d="M345.7,590.6c4,3,8.5,4.8,13.8,4.9c-2.5,0.6-5.1,6.9-6.9,10.2c-1.8,3-2.4,2.3-4.2,0.6
					C344.3,602.1,343.3,596,345.7,590.6z"/>
				<path id="Small_Tooth_00000176745456225691667590000008746361511290254734_" class="st9" d="M372.2,610c3-0.7,4.1-4.8,6.9-8.2
					c2.2-2.8,3.7-1.8,5.1,0.8c1.6,3,4,8.5,6.2,9.5c-1.1-0.1-0.7-0.2-3.3,0c-2.1,0.1-4.2,0.7-6.2,1.5c-0.7,0.3-1.2,0.1-1.7-0.3
					C377.1,612.2,374.6,611,372.2,610z"/>
				<path id="Small_Tooth_00000010275980468834045570000004816705062781485477_" class="st9" d="M362.1,595.6
					c5.9-0.6,10.9-2.4,15.3-5.6c0.1,0.1,0.2,0.1,0.2,0.2c1.1,1.8,2.7,4.8,4.2,6.4c-1.3,0.1-2.9,1.5-4.3,3c-1.3,1.5-2.8,4.3-4.1,6.1
					c-1.2,2.1-2.5,2.6-4.5-1C365.8,599.5,363.8,596.1,362.1,595.6z"/>
				<path id="Small_Tooth_00000161626082163409758430000011821844150332903344_" class="st9" d="M385.4,599.1c5.8,3.8,12,2.9,15,1.9
					c-0.9,0.5-3.1,4.7-4.5,7c-0.6,1-2.1,2.3-3,2.2c-1,0-1.9-1.6-2.7-2.8C388.5,604.7,386.6,600.2,385.4,599.1z"/>
				<path id="Small_Tooth_00000131366063733043193380000002377201516829066120_" class="st9" d="M368.4,608.9
					c-4.2-0.9-9.6-2-14.1-0.7c1-0.5,4.2-9.7,6-10C362.6,597.1,367.3,608.2,368.4,608.9z"/>
			</g>
			<g id="Eye">
				<path id="Eye_White" class="st9" d="M448.3,523.8c5.2,0,8.9,1.9,11.5,5.9c0.4,0.7,0.9,1.4-0.4,1.7c-8.6,2.1-14.5,7.8-19.8,14.5
					c-2.1,2.6-3.3,4-5.4,6.1c1.9-5.5-5.8-9.1-8.8-8.8c1.3-1.3,2.8-2.9,5.4-6.1c2.1-2.6,4.3-5.2,6.2-8c2-3.3,4.9-4.4,8.3-5
					C446.5,523.9,447.6,523.8,448.3,523.8z"/>
				<path id="Eye_White_Small" class="st9" d="M419.9,552c1.6,0,2.8,0.7,3.2,2.4c0.3,1.6-0.5,2.5-2.2,2.2c-0.6-0.1-1.2-0.2-1.8-0.4
					c-1-0.4-2.4-0.3-2.2-2.1C417.1,552.7,418.1,551.9,419.9,552z"/>
			</g>
		</g>
		<path id="Collar" class="st10" d="M532.3,493.6c-4.3,4-4.5,8.6-2,13.3c2.4,4.7,6.2,8.2,11.1,10.2c4.7,1.9,9,1.1,12.7-2.5
			c1.6-1.5,3-3.1,4.2-4.8c1.3-1.7,2.6-3.5,3.6-5.3c0.8-1.5,1.4-1.6,2.6-0.4c10.5,10.2,19.8,21.2,27.7,33.5c0.7,1.1,2.2,2.1,1.7,3.3
			c-0.4,1.1-2.2,0.7-3.3,1c-3.5,0.9-6.9,1.8-10.3,3.2c-3.9,1.6-6,5.2-5.3,9.4c0.6,3.9,1.9,7.4,4.3,10.5c4,5.2,9.4,8.6,17.4,3.7
			c2.6-1.6,5.3-3.1,7.9-4.7c1.3-0.8,2-0.9,2.7,0.8c6,13.5,11.2,27.3,14.5,41.7c0.3,1.5,0.9,2.9,1.2,4.4c0.2,1.1,0.1,1.8-1.4,1.2
			c-4.4-1.8-9-3.2-13.6-4.4c-8-2.1-12.4,0.9-14.4,8.8c-1.3,5.3-1.3,10.6,1.1,15.7c1.9,4,5,6.1,9.4,6.1c5.6,0.1,11.2,0.1,16.8-0.8
			c0.7-0.1,1.4-0.1,2.1-0.1c1.3-0.1,1.5,0.5,1.3,1.7c-1.9,10.3-6.1,19.5-12.8,27.6c-2,2.4-4.1,4.5-6.4,6.6c-1.4,1.3-2.1,0.9-2.7-0.6
			c-1.2-2.6-2.6-5-4.5-7.2c-3.5-4.1-6.2-4.9-11.2-3.1c-5.9,2.2-10.7,6-13.8,11.5c-3.3,5.9-2.8,9.7,2.7,14.6c1.5,1.4,1.6,1.8-0.5,2.5
			c-9.7,3.5-19.6,5.8-29.9,6.7c-3.4,0.3-6.7,0.3-10.1,0.5c-1.4,0-2.1-0.2-2-1.8c0.1-1.6-0.1-3.2-0.3-4.8c-0.9-5.3-2-6.5-8.6-9.4
			c2.8-0.5,5.3-1,7.8-1.4c13.1-2.2,25.5-6.2,36.2-14.6c8.4-6.6,13.1-15.3,14-25.9c0.6-7.7,0.4-15.5-2.6-22.9c-0.4-1-0.4-2.2-0.3-3.4
			c0.8-15.9-2.4-30.9-11.4-44.3c-1.4-2.1-2.2-4.3-2.7-6.7c-3.2-15.4-11.9-27.1-24.4-36.1c-7.9-5.7-15.4-11.8-20.6-20.3
			c-1.9-3.1-3.3-6.4-3.4-10.1c0-0.7-0.1-1.5,0.9-1.5C522.6,495.2,527.4,495,532.3,493.6z M497.9,695.2c1,0.2,1.3-0.3,1.5-1.2
			c0.7-3.8,2.9-6.6,6.1-8.7c1.9-1.3,4.2-1.8,6.2-2.9c-2.1-0.7-3.8,0-5.6,1.1c-2.3,1.5-4.9,2.6-7.5,3.2c-7.2,1.8-14.5,2.7-21.9,3.7
			C483.6,692.5,490.8,693.6,497.9,695.2z"/>
		<path id="Nose_Tip" class="st11" d="M376.8,574.8c0,0-15.5-1.2-16.6-17.8c-0.1-1.7,15.9-10.7,32-0.7
			C378.3,563.6,376.8,574.8,376.8,574.8z"/>
	</g>
</g>
</svg>
