<svg xmlns="http://www.w3.org/2000/svg" xmlns:xlink="http://www.w3.org/1999/xlink" style="enable-background:new 0 0 808 806.9" id="Layer_1" x="0" y="0" version="1.1" viewBox="0 0 808 806.9" xml:space="preserve"><style type="text/css">.st0{fill:#333}.st0,.st1,.st2,.st3,.st4{fill-rule:evenodd;clip-rule:evenodd}.st2{fill:#999}.st3{fill:#fff}.st4{fill:#666766}.st5,.st6{fill:#fff;stroke:#2c1015;stroke-miterlimit:10}.st6{fill-rule:evenodd;clip-rule:evenodd;fill:#999;stroke:#000;stroke-width:4}</style><ellipse cx="404" cy="403.4" class="st0" rx="404" ry="403.4"/><g><path d="M130.9,246.7c9.2-7.1,18.3-14.2,27.6-21.3c5.4-4.1,9.6-9.2,11.9-15.5c6.9-19.3,20.8-31.3,39.5-37.9 c7.2-2.5,11.7-6.2,13.7-14c2.7-10.3,10.9-16.7,19-22.8c6.8-5.1,14-9.8,21.6-15c-1-0.9-2.4-2.1-3.6-3.4c-0.9-1-1.5-2.3-2.3-3.5 c1.3-0.5,2.6-1.4,3.9-1.4c8.4-0.1,16.8-0.1,26.3-0.1c-1.7-4.9-3.3-9.9-5.2-14.9c-1.2-3.2-2.7-6.4-4.5-9.3c-7-11-5.3-21.6,0.8-32.3 c4.8-8.5,11.5-14.9,20.1-19.3c5.4-2.8,10.9-3.6,15.9,1.3c2.4,2.4,4.8,1.3,7.7,0.4c17.1-5,26.2-18.9,52.2-18.7 c28.7,0.1,32.9,7.6,49.4,6.7c3-0.2,6.3-1.6,8.8-3.4c6.7-4.5,13.8-3.8,21-2c12.1,2.9,22.5,15.9,22.6,28.3c0.1,4.4-0.3,9-1.1,13.3 c-1.8,9.4,0.7,18,3.9,26.5c2.9,7.5,2.9,7.5-6.1,9.6c2.4,1.7,3.7,3.4,5.4,3.7c4.7,1,9.4,1.5,14.2,2.2c2.1,0.3,5.3,0.3,6,1.5 c2.9,5,8,4.9,12.4,6.1c15.6,4.5,29.8,11.7,42.3,22c5.4,4.4,11.4,4.5,17.6,5.2c20.1,2.1,37,10.1,48,27.6c3.1,5,5,11.2,6,17.1 c1.9,10.8,6.7,18,17.6,21.7c6,2,11.6,6.2,16.5,10.3c6.1,5.2,7,5.4,13.6,1.2c12.3-7.7,24.5-15.5,37.3-22.2 c17.8-9.2,27.8-1.3,36.6,15.7c2.5,4.9,0.5,10.1-3.4,14.2c-6.3,6.4-8.2,14.1-6.7,23.3c4.3-0.3,8.7-0.9,13.1-0.8 c13.8,0.2,24.2,14.3,20.7,27.6c-1.5,5.8-5.6,8.6-10.8,10.6c-7,2.7-14.2,5.2-20.8,8.8c-5.5,3-7.9,12.7-5,18.2c1,2,3.4,3.6,5.6,4.6 c5.5,2.5,11.4,4.2,16.9,6.9c6.6,3.2,9.2,9.3,8,16.5c-1,5.7-7.3,12.2-13.1,12.8c-4.4,0.5-8.8,0.2-13.2,0.2c-1.2,0-2.4-0.2-3.5,0.2 c-1.1,0.4-2.8,1.3-2.8,2c-0.1,1.2,0.7,2.9,1.6,3.6c1.7,1.2,3.8,1.7,5.8,2.6c2.7,1.2,5.6,2,8.1,3.6c5.1,3.3,12.1,5.3,11.2,13.4 c-0.9,7.9-6.1,13-12.6,16.5c-3.5,1.9-7.7,3.5-11.6,3.7c-5.6,0.2-6.7,3.4-6.8,7.7c-0.4,9.1-0.6,18.2-0.9,27.4c0,1.6,0,3.3,0,6.2 c-60.3-19-122.2-19.4-183.8-22.7c2.3,5.2,5.5,8.8,10.5,10.6c11.2,4,22.6,7.5,33.6,11.9c15,6,28.2,14.9,39,27 c5.8,6.6,9,14.5,10.7,23.1c0.7,3.3,2.4,7,4.8,9.1c7.4,6.3,10.5,14.4,10.9,23.5c0.5,12.6,1.5,25.3,0,37.7c-1.2,10-5.9,19.5-8.9,29.3 c-2,6.3-3.8,12.6-5.5,19c-0.4,1.5,0.1,3.2,0.3,4.8c0.4,2.9,1.4,5.9,1.4,8.8c-0.1,4.4,1.3,7.5,5.2,9.9c1.7,1.1,2.8,3.6,3.7,5.6 c1.3,2.8-9,5.1,3.2,8.7c3.7,1.1,0.9,5.9-2.6,7c-3.9,1.2-7.9,2.2-12,2.7c-4,0.5-4.7,2.2-2.8,5.2c1.8,2.9,3.8,5.9,6.3,8.2 c4.7,4.3,9.7,8.4,14.8,12.3c11.5,8.8,25.7,10.8,38.8,15.4c8.4,3,17.3,6.4,24.2,11.8c9.2,7.1,7.2,23.6-2.4,30.4 c-10.3,7.2-21.8,9-34.3,8.2c-26.4-1.8-49.5-12.6-72.3-24.6c-12-6.3-24.8-9.8-38.3-10.8c-11.9-0.9-22.2-5.3-26.6-17.2 c-4.3-11.4-3.8-22.8,4.8-32.6c5.6-6.4,7.3-13.6,4.6-21.6c-3-8.7-3.5-16.8,2.3-24.8c1.2-1.6-0.3-5.5-1-8.2 c-1.9-6.5-4.3-12.8-6.1-19.3c-1.9-7.2,0.7-13.7,5-19.4c2.1-2.8,7-4.7,5.1-8.7c-1.9-4-5-8-8.7-10.3c-4.6-2.9-10.3-4.2-15.6-5.9 c-19.3-6.1-38.5-12.8-58.1-17.9c-18-4.7-34.8-11.2-49.3-22.9c-2.7-2.2-5.5-2.5-8.7-0.6c-5.6,3.3-11.6,4.4-18.3,4.2 c-3.7-0.1-8.4,2.4-11.1,5.2c-13.4,14-27.8,26-46.8,32.3c-7.2,2.4-13.5,7.9-19.7,12.6c-9.7,7.3-20.4,12.1-32.2,14.3 c-4.2,0.8-7.2,2.4-9.5,6.2c-1.9,3-4.7,5.5-7.4,7.9c-3,2.6-5,4.7-4.3,9.5c2.8,18.5-2.9,34-17.4,46.5c-7.8,6.8-14.5,15-21.2,23 c-2,2.4-1.9,6.4-3,9.7c-0.9,2.6-1.4,5.7-3.1,7.7c-2.2,2.6-2.2,4.7-0.9,7.6c3.6,8.1,2.5,8.7-2.5,15.7c-2.6,3.6-2.3,9.7-2.2,14.7 c0.2,7.7,3.4,14.6,7.6,21.1c1.9,3,3.4,6.6,3.7,10.1c0.8,8.7-2.1,16.3-13.2,17.8c-12.7,1.7-25.3,2.1-38.1,1 c-5.5-0.5-11.2,0.6-16.8,0.9c-6.9,0.4-13.9,0.5-20.8,1c-13.8,1-17-10.1-15.5-19.1c1.5-8.2,5.2-14.8,11.3-20.5 c7.2-6.6,8.8-15.7,12.1-24.8c3.7-10.1,1.6-6.6-4-6.6c-3.1,0-8.1,0.6-9.2-1.3c-2.3-3.9,1.1-6.9,4.3-9.4c3.9-3.1,7.5-6.6,11.5-9.4 c2.8-1.9,3-3.9,2-6.7c-1-2.8-1.6-5.7-2.5-8.6c-1.6-5.4-0.3-9.8,3.7-14c1.4-1.4,1.8-4.5,1.5-6.6c-4.1-27.9,0.5-53.2,21.6-73.5 c4.3-4.1,9.3-7.4,14-11.1c12.2-9.5,18.7-22.6,23-36.8c5.5-18.2,15.8-33.3,28.1-47.3c5.1-5.8,9.6-12.2,14.6-18.1 c2.8-3.4,6.1-6.4,9.3-9.4c5.1-4.8,10.3-9.3,15.4-14.1c0.5-0.5,0.8-2.3,0.5-2.5c-0.7-0.6-1.9-0.8-2.9-0.7c-23,3.4-46.2,6.2-69,10.6 c-32.2,6.2-64.3,13.5-96.3,20.7c-10.6,2.4-21,5.9-31.4,9.1c-6.8,2-7.9,1.3-8.1-5.6c-0.2-10.1-0.6-20.3-0.7-30.4 c-0.1-4.8-3-6-6.8-5.9c-10.6,0.2-17.1-6.2-22.5-14c-2.9-4.2-2.5-8.6,1.1-12.7c5.3-6.1,11.5-10.4,19.6-11.8c0.8-0.1,1.8-0.3,2.3-0.8 c0.9-1.1,1.6-2.5,2.3-3.8c-1.3-0.7-2.6-1.9-3.8-1.9c-3.8,0.1-7.5,0.9-11.3,0.9c-10.7,0-19.4-9.7-17.6-20.1 c1.2-7.1,7.4-10.3,13.3-13c4-1.8,8.7-2.2,12.5-4.3c2.4-1.2,4.8-4.1,5.4-6.6c0.7-3.4-0.2-7.2-0.8-10.8c-0.5-3-1.9-5.3-5.2-6.4 c-6.1-2.1-11.9-4.8-18-6.9c-9.6-3.4-13.6-7.6-13.6-14.7c0-10.5,5.7-19.3,14.1-22.5c5.2-2,10.3-1.7,15.5-0.3c3.5,1,4.5-0.4,4.6-3.6 c0.2-8.1-1.2-15.5-7.9-21c-4-3.3-4.3-8-2.8-12.3c2.6-7.7,7.8-13.9,14.6-18.2c7.1-4.5,14.5-2.7,21.3,1c12.2,6.6,24.1,13.6,36.1,20.5 c1.4,0.8,2.8,1.6,4.2,2.4C131.3,247.6,131.1,247.2,130.9,246.7z M625,539.7c4.8-2.3,8.8-3.9,12.4-6.1c9.3-5.5,11.4-12.6,5.5-21.6 c-2.9-4.4-7.4-7.8-11.6-11.1c-6.6-5.3-13.6-10-20.1-15.2c-1.2-0.9-1.1-3.3-1.7-5c1.6,0.3,3.3,0.4,4.7,1.1c1.5,0.7,2.6,1.9,4,2.9 c3.9,2.7,7.9,5.3,11.8,7.9c0.4-0.4,0.8-0.8,1.3-1.2c-0.6-2.3-0.9-4.8-1.8-7c-4-10-10.9-17.6-19.4-24 c-15.7-11.8-33.4-19.2-52.1-24.3c-3.1-0.8-6.4-1.3-9.6-1c-13.2,1.3-24,8.6-35.2,14.7c-1.1,0.6-1.7,2.1-2.7,3.4 c1.1,0.7,1.7,1.1,2.3,1.3c0.8,0.3,1.6,0.5,2.4,0.6c15.2,2,28,9.1,40.1,17.8c1.2,0.8,1.5,2.8,2.1,4.3c-1.8,0-3.5-0.1-5.3-0.2 c-0.5,0-0.9-0.4-1.3-0.7c-13.6-8-28-13.6-43.8-14.6c-2.2-0.1-5.6,1.5-6.8,3.4c-9.6,15.3-13.6,32.5-15.2,50.3 c-0.4,4.2,1.5,6.4,5.4,7.6c12.9,4,25.9,7.8,38.7,12.2c9.8,3.4,19.4,7.2,28.8,11.7c3.3,1.5,5.4,5.5,8.1,8.3c1-1,1.5-1.8,2.3-2 c1.7-0.7,3.5-1.1,5.2-1.6c-0.4,1.6-0.4,3.5-1.2,4.8c-3.2,4.8-6.6,9.5-10.1,14c-4.9,6.5-7.9,13.3-5,21.6c2.3,6.4,4.1,13,7,19.1 c1.4,3,4.3,6,7.3,7.3c5.5,2.5,11.7,3.5,17.5,5.6c5.4,1.9,8.8,0.4,12.1-4.5c6.3-9.4,14.3-16.4,27.1-13.9c1.2,0.2,3.5-1.6,4.1-3 c2.1-4.5,3.4-9.3,5.4-13.8c6.5-15.1,12.1-30.4,9.5-47.3c-0.2-1.5-1-2.9-1.5-4.3c-1.6,0.7-3.6,1-4.7,2.1c-1.3,1.3-2.3,3.3-2.5,5.2 c-0.6,7.1-0.9,14.2-1.3,21.3c-0.1,2.1,0.8,5.5-2.9,4.9c-1.3-0.2-2.8-3.2-2.9-5c-0.4-4.6-0.3-9.3-0.1-14 C631.2,546.9,630.2,542.8,625,539.7z M261.4,460.6c3.8,0,6.5,0.3,9.2,0c18.3-2.4,34.5,2.4,47.8,15.1c12.8,12.3,18.5,28.1,19.7,45.6 c0.1,1.9,0.7,3.7,1.1,5.5c0.7,0.1,1.3,0.1,2,0.2c1.9-4.3,4.4-8.5,5.7-12.9c1.3-4.5,1.3-9.4,1.9-14.6c1.8,0.6,3.6,1.2,5.7,2 c0.5-1.7,1.2-3.4,1.5-5.1c1.7-9.7,3.3-19.5,5.1-29.2c0.2-1.2,1.7-2.3,2.6-3.4c0.9,1.1,2.5,2.2,2.5,3.3c0.2,5,0.4,10.1-0.3,15 c-3,19.4-10.4,37.1-22.1,52.9c-0.5,0.6-0.3,1.7-0.5,3.1c1.8-0.6,3.1-0.9,4.2-1.4c17.9-9.3,33.2-21.7,45-38.2c2.8-3.9,3.7-3.8,7-0.2 c1.1,1.2,3.2,2.5,4.4,2.2c5.4-1.7,10.9-3.6,16-6.2c2.9-1.5,4.9-2,7.5,0.2c13.9,11.8,29.8,19.8,47.3,24.8c1.6,0.5,3.4,0.1,5.6,0.1 c-3.6-8.4-13.8-11.9-12.2-21.8c0.7-0.6,1.4-1.2,2.1-1.9c2.7,4,5.4,8.1,8.1,12.1c0.5-0.4,1-0.8,1.5-1.2c1.5-18.6,6.5-36.2,18.8-50.5 c12.1-14.2,27-24.4,46.5-27.8c-4.6-4.4-9-10-14.3-10.9c-19.3-3.4-38.6-2.3-56.7,6.5c-4.4,2.1-8.6,4.9-13,7 c-1.5,0.7-3.6,0.3-5.4,0.4c0.9-1.4,1.5-3.4,2.8-4.2c5.2-3.4,10.7-6.4,16.1-9.6c0-0.4,0-0.9,0-1.3c-35.1,0.3-70.1,2.4-106,5.2 c4.4,2.9,7.9,5,11.1,7.4c0.8,0.6,0.7,2.2,1.1,3.3c-1.2,0.1-2.4,0.4-3.6,0.3c-0.8-0.1-1.5-0.7-2.2-1.1c-9.3-4.8-19-8.1-29.5-7.3 c-15.2,1.2-30.3,2.9-45.4,4.2c-6.1,0.5-10.6,2.9-13.1,8.7c-0.5,1.1-1.8,2-2.7,2.9C276.7,446.4,269.6,453,261.4,460.6z M183.2,613.2 c4.6,1.5,6.4,0.6,6.1-4.4c-0.3-3.8,0.9-7.8,1.8-11.7c0.2-0.8,1.5-1.5,2.2-2.2c0.6,0.8,1.7,1.6,1.9,2.4c0.4,2.7,1.1,5.7,0.4,8.2 c-2.6,8.3-5.2,16.7-8.8,24.6c-5.4,11.9-5.4,12.1,7.6,14.7c9.1,1.8,17.4,5,22,14.2c1.9,3.8,5.9,3.3,9,0.1c8-8.4,16-16.9,24.4-24.9 c11.9-11.3,16.3-24.9,13.7-40.8c-0.8-4.8,0.1-7.9,4.3-10.4c4.2-2.5,7.5-5.7,8.5-11c0.3-1.7,2.9-3.9,4.7-4.3 c17.5-3.6,32-12.9,46.2-22.9c4.4-3.1,7.9-6.7,6.9-12.7c-0.7-4.4-1.3-8.8-2.2-13.2c-3.2-15.2-8.1-29.5-19.8-40.7 c-3.4-3.2-6.2-3.2-9.4-0.1c-4.3,4.2-8.5,8.4-12.9,12.5c-1.1,1-2.7,1.6-5.2,3.1c1.6-11.3,10.9-15.3,15.5-22.6 c-6.4-3.9-25.4-6.6-34-4.7c-3.1,0.7-7.1,0.8-9,2.8c-13.2,13.9-24.9,29-33.2,46.4c-1.9,4-3,8.3-4.6,13c3.7-1,6.1-1.6,8.4-2.2 c0.5,0.6,0.9,1.2,1.4,1.8c-13.1,12.8-24.5,26.9-31.4,44.2c-0.5-0.2-1-0.4-1.5-0.6c-0.9-1.6-1.8-3.2-3.4-6.3 c-5.6,6.4-11.1,11.8-15.6,18c-12.6,17.5-16.8,37.2-13.2,58.5c0.5,2.9,1,6,5,5.5c3.4-0.4,4.9-2.9,5.2-6.3c0.3-3.4-1.3-7.8,4.7-8 c0.5,0,1.2-1.8,1.4-2.9C181.2,624.8,182.1,619.2,183.2,613.2z M550.8,250.5c0.5-0.5,1-1,1.5-1.6c-1.5-0.8-3.2-1.2-4.3-2.3 c-3.3-3.2-6.7-6.4-9.3-10.1c-15.9-22.8-18.2-49.1-18.3-75.7c0-11.3,2.3-22.6,3.7-33.9c0.4-3.2-0.9-4.9-3.9-5.9 c-6-1.8-11.9-4.1-18-5.6c-3.6-0.9-7.5-1.4-11.3-1.4c-10.2,0.2-14.5,5.7-12.3,15.3c0.2,1,0.7,1.9,0.8,2.9c0.6,5.7,3.6,8.7,9.3,10 c6.1,1.4,12,3.7,17.9,5.9c1.2,0.4,1.9,2.2,2.8,3.4c-1.1,0.9-2.2,2.3-3.5,2.6c-6,1.6-12.3,2.4-18.2,4.5c-2.3,0.8-4.9,3.9-5.3,6.4 c-1.2,7.3-1.8,14.8-2,22.2c-0.1,2.7,0.8,5.9,2.3,8.1c4.2,5.9,9,11.4,13.4,17.2c0.9,1.2,1,3.1,1.5,4.7c-1.5,0-3.3,0.4-4.6-0.2 c-5.3-2.3-10.4-4.9-15.6-7.3c-2.8-1.3-5.2-1.1-6.7,1.9c-5.8,11.3-14.6,20.1-24.4,27.7c-3.6,2.8-4.8,5.6-3.6,9.8 c0.3,1.3-0.5,2.9-0.8,4.3c-1.4-0.5-2.9-0.9-4.3-1.4c-2.6-1-5.3-3-7.7-2.8c-5.7,0.6-11.2,2.7-16.9,3.4c-8.5,1.1-17.2,2.1-25.8,2.1 c-4.3,0-7.2,0.3-8.9,4.6c-0.4,1.1-2,2-3.2,2.3c-0.5,0.1-1.9-1.7-2.1-2.7c-0.8-4.3-3.7-5.6-7.5-6.7c-9.9-2.8-19.8-5.8-29.6-9.2 c-3.3-1.1-5.6-1.2-7.9,1.6c-1.7,2.1-3.5,4.1-5.6,5.7c-1.1,0.9-3,1.4-4.3,1.1c-0.6-0.1-1.3-2.6-1.1-3.8c0.6-3.2,2-6.3,2.3-9.6 c0.2-2.1-0.2-5.2-1.5-6.5c-5.5-5.2-10.2-10.8-13.1-17.8c-1.1-2.6-3.1-3.3-5.7-2.1c-7,3.3-13.9,6.8-20.9,9.9c-2,0.9-4.3,0.9-6.5,1.3 c-0.2-0.5-0.4-1-0.6-1.5c0.8-1.2,1.6-2.4,2.4-3.5c5.8-8,11.6-16,17.2-24.1c1-1.5,1.8-3.9,1.4-5.5c-1.4-5.9-3.3-11.7-4.9-17.6 c-0.8-2.9-2.8-3.6-5.6-3.7c-5.4-0.3-10.8-1.1-16.2-1.7c-1.6-0.2-3.2,0-5.5,0c10.2,36.1,5.9,69.1-20.2,98.6 C344.8,270.6,448,265.5,550.8,250.5z M454,107.8c0-2.2,0-3,0-3.9c0-16.7-8.9-24.1-25.5-20.9c-7.4,1.4-14.9,3.1-22.1,5.2 c-2.4,0.7-5.7,3-6.2,5.1c-1.6,6.7-6.9,7.8-11.9,10.4c-9.6,4.8-18.7,3.6-26.6-2.1c-7.1-5.2-14.3-3.8-21.4-2.9 c-8.4,1-12.4,7.5-14.3,15.2c-2.2,8.7-1,16.9,5.3,23.5c1,1.1,4.6,0.9,6.4,0.1c8.9-3.8,17.6-8,26.5-11.9c2.8-1.3,6.1-1.9,8.6-3.6 c8.8-5.9,17.1-12.4,25.9-18.1c8.2-5.4,16.4-11.1,25.4-15c9.8-4.2,19.6-0.5,23.6,7.6c3.7,7.5,5,15.3,1.2,23.4 c-3,6.5-2.5,9.5,2.8,12.8c5.3,3.4,5.2,8.3,4.2,13.2c-0.9,4.7-4.2,7.4-9.1,8.6c-7.1,1.7-13.3-0.8-19.6-3.3 c-6.7-2.7-13.5-5.3-20.2-8.2c-1.6-0.7-2.6-2.6-3.9-4c1.7-0.6,3.6-2.1,5-1.7c5.2,1.5,10.2,3.7,15.3,5.6c4.9,1.9,9.7,4.1,14.8,5.6 c4.5,1.4,9.3-1.2,10.6-4.9c1.4-4-0.3-7.8-5.1-9.9c-3.4-1.5-7.2-2.3-10.9-3c-23.2-4.6-46.3-5.6-69.2,1.7c-12.4,3.9-23.8,9.8-33.9,18 c-4,3.2-5.8,9.7-3.8,12.9c2.2,3.4,7.4,4.2,12.6,1.6c2.6-1.3,5.1-3.1,7.3-5c2.3-2,4.9-3.1,6.8-0.6c1.8,2.4,0.3,4.6-2.4,6 c-2.8,1.4-5.4,3.2-8.1,4.7c-2.4,1.3-3.3,2.9-2,5.7c2.3,5.3,3.9,10.8,6.5,15.9c2.8,5.5,7.1,9.8,13.4,11.5c9.2,2.5,15.5-2.9,21.5-8.1 c7.2-6.3,6.8-6.6,13.9-0.2c10.2,9.1,28.4,5.3,29.8-8c0.7-6.7,1-13.4,1.8-20.1c0.2-1.5,1.6-2.9,2.4-4.4c1.3,1.2,3.8,2.3,3.7,3.4 c-0.1,7.5,1.6,15.3-2.3,22.5c-1.8,3.3-0.3,5.6,3.2,6.9c3.8,1.4,7,0.8,9.8-2.2c3.9-4.1,8.6-7.6,11.8-12.2c3.8-5.3,7.9-11.2,9-17.3 c1.5-9,0.9-18.4,0.2-27.6c-0.3-4-2-8.9-4.8-11.6C454.4,118.8,453.2,113.2,454,107.8z M534.4,126.7c-1.1,3.2-1.9,4.8-2.2,6.5 c-3.1,18.2-4.3,36.5-2.2,54.9c2.3,20.3,9.7,38.4,23.2,53.7c2.8,3.2,8.1,5.2,12.5,5.8c4.3,0.6,9-1.6,13.5-2.3 c3.8-0.5,4.8-2.4,4.6-6.1c-0.6-11.8,6.1-19.3,15.7-24.3c9.1-4.8,17.1-1.2,24.7,4.5c2,1.5,5.3,1.8,8,1.8c5.7,0.1,11.4-0.3,17.1-0.5 c1.9-0.1,3.8,0,6.9,0c-13.6-11.2-29.2-15.3-44.8-20.2c1.1-6.2,6.7-1.9,9.4-4.7c-0.4-2.1-0.7-4.6-1.2-7 c-2.3-11.5-7.2-21.4-16.4-29.1c-12.8-10.7-28-14.6-44-16.9c-3-0.4-6.4-1.1-8.7-2.7C545.3,136.3,540.4,131.7,534.4,126.7z M352.3,204.7c-2.3-1.9-3.9-3-5.4-4.3c-6.8-5.8-10.3-13.5-12-22.1c-0.7-3.6-2.1-6.4-6.3-7.2c-6.3-1.3-9.3-5.5-9.6-11.8 c-0.3-5.3,2.5-8.7,5.8-12.1c1.8-1.9,4.8-3.9,1.7-7c-11.4-11.7-7.6-33.4,2.8-43.1c2.2-2,2.2-3.5,0.9-6.7c-3.3-8.2-10.9-15.7-5.4-26 c-0.3-0.3-0.8-0.7-1.2-1.2c-0.9-1.2-1.7-2.4-2.6-3.6c1.3-0.5,2.6-1.6,3.8-1.5c3.1,0.2,6.6,0.1,9.2,1.6c7.4,4.1,14.6,8.7,21.7,13.3 c6.4,4.1,8.4,4,14.5-0.6c1-0.8,3.1-0.2,4.6-0.2c0,1.6,0.5,3.6-0.2,4.7c-1.9,2.5-4.4,4.5-6.5,6.8c-0.9,1-1.4,2.4-2.7,4.7 c5.1-1,8.8-1.8,12.5-2.6c3.8-0.8,7.5-1.3,10.6,2.5c-7.5,1.2-14.4,2.2-21.2,3.4c-1.5,0.3-2.7,1.8-4,2.7c1.5,1.2,3.1,3.4,4.6,3.4 c7.4,0,14.7-0.4,22.1-1c3.4-0.3,5.6-3.1,4.2-6.3c-1.7-4.1-4.6-7.8-6.9-11.7c-0.7-1.2-1.3-2.4-1.9-3.6c1.5-0.2,3.2-1,4.4-0.5 c2.7,1.2,4.7,0.6,6.5-1.5c4.6-5.6,9.5-11,13.8-16.9c5.4-7.4,13.9-10.7,22.7-7.8c1.5,0.5,2.7,2.8,3.3,4.5c0.6,1.8-0.4,4.3,0.5,5.9 c2.4,4.6,2.5,8.6-0.5,12.9c-0.5,0.7,0.3,3.3,1.2,3.7c5.4,2.8,11.1,5.2,16.9,7.9c-0.6-1.3-1.2-2.5-1.9-3.8c-4.8-9.5-7.2-19.3-5.5-30 c1.2-7.6,0.7-8.2-6.4-11.9c-1.3-0.7-2.7-1.4-4.1-1.6c-10.3-1.4-20.6-3.8-30.8-3.7c-19.2,0.1-38.4,1.1-57.5,3 c-12.5,1.2-24.1,6.4-34.1,14.5c-4.6,3.7-5.4,8-3.9,13.6c1.4,5.2,2.7,10.9,1.8,16.1c-1.1,6.6-3.8,13.3-7.1,19.2 c-3.6,6.3-3.6,16.8,1.5,21.7c1.1-2.4,2.2-4.5,2.9-6.7c2.4-8.5,4.6-17.2,7.1-25.7c0.4-1.2,2.3-2,3.5-3c0.6,1.5,1.3,3,1.7,4.5 c0.2,0.6-0.1,1.3-0.4,1.9c-4.9,12.4-9.9,24.8-14.7,37.2c-1.6,4-3.5,8-3.9,12.2c-0.8,8.2-0.9,16.6-1,24.8 c-0.1,19.5,13.8,36.1,32.9,38.8C339.7,205.4,345.5,204.7,352.3,204.7z M142.8,245.9c4,1.2,7.2,2.3,10.5,3.1 c9.5,2.3,18.8,7.3,28.9,3.7c7.3-2.5,14.4-5.7,21.5-8.8c1-0.4,1.9-1.8,2.4-2.9c6.7-14.1,21.4-14.3,29.8-2.1c2.2,3.2,3.9,6.6,6,10.1 c0.7-0.6,1.4-0.9,1.7-1.4c10-16,14.2-33.6,14.1-52.2c-0.1-8.5-2.4-16.9-3.7-25.4c-0.7-4.6-3.5-7.3-8.1-7.9 c-1.3-0.2-2.5-0.3-3.8-0.4c-0.2-0.5-0.4-1-0.6-1.5c1.4-0.8,2.7-2,4.2-2.3c2.3-0.5,4-1.4,3.2-3.9c-1.1-3.1-2.4-6.2-4.1-8.9 c-1.5-2.4-4.4-3.3-6.1-0.7c-4.1,6.1-7.7,12.5-11.1,19c-0.6,1.2-0.3,3.6,0.6,4.6c2.2,2.7,0.7,3.9-1.6,4.8c-1.7,0.6-3.5,1-5.3,1.4 c-23.5,5.4-38.5,20.6-48.9,42.2c1.6,0.3,3,0.2,4.1,0.7c1.4,0.7,2.6,1.8,3.9,2.8c-1.2,1-2.2,2.5-3.6,3.1c-4.9,2.3-10.2,3.9-15,6.4 C154.3,233.1,148,238.5,142.8,245.9z M562,641.8c-0.7,5-0.6,9.5-1.9,13.5c-1.2,3.6-0.1,4.8,2.7,6.6c5.5,3.6,10.7,7.7,15.7,11.9 c1,0.9,0.7,3.4,1,5.1c-1.7-0.4-3.6-0.3-5-1.1c-5.6-3.1-11-6.7-16.7-9.4c-1.7-0.8-5.2-0.1-6.6,1.2c-5.2,5-3.4,15.4,2.5,19.7 c9.6,6.9,21,8.5,32,11.3c1.3,0.3,3.1-0.7,4.4-1.5c7.5-5,14.8-10.4,22.4-15.1c2.7-1.7,3.2-2.6,1.1-5.1c-6.2-7.6-10.8-16.1-12.7-25.9 c-0.8-3.9-3.2-6.1-7.7-6.2c-4.6-0.1-9.2-0.9-13.7-1.7C573.5,644.1,567.7,642.9,562,641.8z M161.2,729c-1.6,0.4-3.3,0.5-4.7,1.2 c-3.2,1.6-6.1,4.1-9.5,5.1c-9.7,3-13.5,10.4-15.3,19.4c-0.9,4.6,2.8,8.2,7.5,7.8c22-2,44.1-3.9,66.2-5.6c5.3-0.4,10.7-0.2,16,0 c4.4,0.2,5.2-2,4.4-5.6c-1.1-4.7-3.3-8.7-7.8-10.9c-18.5-9.1-37.4-10.8-56.8-3.1c-3.5,1.4-7.1,2.6-11.5,4.1 C151.5,734,158.5,734.4,161.2,729z M742.9,216.2c-0.8-10.1-13.4-20.7-22.6-18.3c-6,1.6-11.9,3.9-17.3,6.8 c-10.4,5.5-20.6,11.5-30.7,17.5c-1,0.6-2,3.2-1.7,3.6c1.4,1.5,4,3.9,5,3.4c3.7-1.7,7.1-4.2,10.4-6.7c6-4.5,11.7-9.4,17.8-13.9 c1-0.7,3.1,0.2,4.8,0.4c-0.7,1.6-1.3,3.3-2.2,4.7c-0.5,0.7-1.7,0.8-2.5,1.3c-7.2,4.2-13.5,9.4-17.8,16.7c-2.1,3.5-2.5,7,0.1,10.1 c6.4,7.5,9.4,10.6,17.4,4.7c11.1-8.2,22.8-15.5,34.1-23.4C739.8,221.6,741.1,218.6,742.9,216.2z M134.8,256.9 c0.2-0.3,0.4-0.6,0.5-0.9c-0.6-0.5-1.2-1-1.8-1.4c-8.5-4.7-16.8-9.7-25.5-14.1c-8.6-4.4-17.3-8.9-26.4-12.1 c-7.7-2.7-15.1,3.7-19.4,15c-2.4,6.1-1.5,7.6,7.2,12.7c0.7,0.4,1.4,0.9,2.1,1.3c10.3,7.3,20.6,14.8,31,22c1.6,1.1,4.3,1.7,6.1,1.1 c11.2-3.9,13.9-14.9,5.3-23c-5-4.7-11.1-8.2-16.4-12.5c-1.4-1.1-2.1-3.1-3.1-4.7c1.9-0.1,3.9-0.8,5.6-0.3c2,0.6,3.6,2.2,5.4,3.4 c5.5,3.5,10.7,7.6,16.6,10.4C125.7,255.8,130.5,256,134.8,256.9z M643.2,724.8c5.1,1.3,9.2,2.3,13.3,3.4 c14.1,3.9,28.5,4.3,42.9,3.5c4.4-0.3,9.1-2,13-4.2c8-4.8,8.4-9.3,1.7-15.6c-2.8-2.6-6.1-5.4-9.7-6.5c-7.8-2.3-15.9-3.5-23.9-5.2 C667.2,706.1,653.8,712,643.2,724.8z M87.4,328.2c0.2-0.4,0.4-0.9,0.6-1.3c6.6,0.1,11.1-2.7,12.9-8.1c1.5-4.6-0.5-10.1-5.4-13.8 c-1.4-1.1-3.2-1.8-4.7-2.8c-6-4-12.1-7.8-17.9-12.1c-7.3-5.4-15.2-7.9-23.9-5.1c-9.7,3.1-14.2,15.2-8.2,21.3 c2.2,2.3,5.4,3.8,8.3,5.2c6.5,2.9,13.1,5.5,19.6,8.3C75,322.7,81.2,325.5,87.4,328.2z M705,281.3c0,10.7,6.4,16.2,15.3,13.4 c7.2-2.2,14.1-5.5,20.7-9.1c7.2-3.9,15.9-4.2,21.9-10.8c2.4-2.6,3.4-4.6,2.5-7.7c-4.7-15.3-19.7-18.4-32.2-9.3 c-7.3,5.4-14.4,11-22.6,15C706.6,274.8,705.3,278.4,705,281.3z M300.5,66.7c-0.6-0.2-1.3-0.3-1.9-0.5c0.7-2.4,0.9-5.1,2.2-7.2 c2.8-4.4,6.1-8.5,9.4-12.7c2.8-3.6,2.2-6.1-2.4-6.9c-2-0.4-4.4-0.2-6.3,0.6c-11.9,5.3-21.1,13.1-23.9,26.7 c-1.3,5.9-1.1,11.5,1.8,16.9c3.2,6,6.6,12,9.9,17.9c0.9,1.5,1.9,2.9,2.9,4.3c1.4-1,3.3-1.7,4.2-3.1c7.1-10.5,9.6-22.6,10.5-35 c0.1-1.6-1.5-3.4-2.6-5.7C302.5,64.3,301.5,65.5,300.5,66.7z M589.2,244.1c4-1.7,7.4-2.6,10.2-4.5c3.2-2.1,4.9-1.8,6.7,1.4 c2.2,4,4.7,7.8,7,11.8c3.7,6.3,8.6,11.1,15.6,13.5c5.5,1.9,9.7,0.6,13.4-4.3c2.5-3.3,2.6-8.7-0.5-12.5 c-6.9-8.2-13.8-16.5-21.3-24.2c-2.7-2.7-7-4.6-10.8-5.3C599.2,218.3,589.1,231.2,589.2,244.1z M236.7,254.3c-1.1-3-1.6-6-3.1-8.4 c-3.2-4.9-7.4-9.5-13.6-9.7c-5.6-0.2-6.8,5.6-9.3,9.3c-5.4,8.1-10.7,16.4-16,24.6c-2.2,3.4-2.3,6.8,0.2,10.1 c4.2,5.5,9.4,6.8,16.1,3.9c9.8-4.2,16.5-12,22.4-20.3C235.3,261.1,235.6,257.5,236.7,254.3z M475.8,92.1c-0.5-1.8-0.6-2.7-1-3.6 c-4.1-8.9-4.4-18.1-2.3-27.6c2.6-11.4-0.3-21.3-9.1-29.3c-4.9-4.5-15.2-6.5-20.5-3.5c-1.6,0.9-3.6,2.6-3.7,4 c-0.1,1.3,1.9,3.4,3.5,4c4.8,1.9,7.5,5.6,9.5,10.1c0.3,0.8,0.5,1.7,0.3,2.5c-0.4,1.9-1.7,3.8-1.5,5.5c0.5,4.4,1.3,8.8,2.5,13.1 C456.6,78.8,462.4,88.4,475.8,92.1z M84.1,392.9c-10.6-0.4-19.7,3.5-27.9,9.6c-8.2,6.1-8.1,6.8-0.6,14.3c0.8,0.8,1.6,1.7,2.5,2.5 c4.1,4,9.1,6.2,14.7,4.5c10.4-3,20-7.7,28.2-15c1.1-1,1.5-3.9,1-5.6C99.7,396.1,93.7,392.9,84.1,392.9z M62.1,379.9 c8.8-1.9,19.3-4.6,28.2-11.1c6.7-4.9,7.4-8.8,2.8-15.1c-1.7-2.4-5.7-4.6-8.6-4.5c-13.5,0.4-25.6,5.9-37.4,12 c-3.4,1.7-3.8,5.2-2.6,8.7C46.6,376,52.8,379.9,62.1,379.9z M722.2,361.9c-5.2-0.4-9.9,0.4-13.4,4.9c-6,7.6-4.9,13.5,3.4,17.9 c2.2,1.1,4.3,2.3,6.5,3.4c15.8,8,20.8,6.6,31.7-5.1c3.1-3.3,3.2-5.9,0-8.8C742.4,366.7,733.2,362.2,722.2,361.9z M743,349 c5.2,0.6,9-1.7,12.4-5.2c5.5-5.6,5-12.3-2.3-15.2c-10.5-4.1-21.5-7.4-32.4-10.2c-4-1-8.3,1.1-10.4,5.8c-2.1,4.6-1.2,8.3,2.4,11.6 C721.2,343.8,731.5,347.7,743,349z M174.4,676.3c5.1,0.7,10,1,14.8,2c12.7,2.5,15.9,0.7,19.4-11.8c1.5-5.5,0.2-8.8-5-11.4 c-7.7-3.7-15.7-5.8-24.4-5.3c-4.4,0.2-6.5,2-6.2,6.5C173.5,662.9,174,669.5,174.4,676.3z M385.3,248.2c14.6,2,28.7-0.1,42.5-4.9 c-4.4-5.5-8.1-10.4-12.2-14.9c-1.5-1.6-4.1-3.1-6.2-3.1c-4.9,0.1-9.9,1-14.7,2c-1.7,0.3-4,1.7-4.5,3.1 C388.4,235.8,387.1,241.4,385.3,248.2z M285.9,137c-2.7-2.9-4.3-5.1-6.3-6.8c-1.3-1.2-3-2.3-4.7-2.6c-3-0.6-6.5-1.4-9.2-0.5 c-5.2,1.8-9.9,4.9-14.9,7.4c-3,1.5-3,3.4-1.5,6c1.5,2.5,2.8,5.2,4,7.9c2.1,4.6,3.4,4.8,7.9,2.6c6.3-3,12.9-5.5,19.2-8.5 C282.3,141.6,283.5,139.5,285.9,137z M634,623c0-7.9-1.5-10.6-6.2-11.1c-13.9-1.3-22.7,9.3-23.8,21.7c-0.3,3.8,1.5,4.5,4.9,3.9 c4-0.8,8.2-1.4,12.3-1.5C630.7,635.7,634,632.6,634,623z M430.8,109.6c3.1-7.3,7.5-8.8,13.7-2.5c0.2-2.3,0.5-3.4,0.3-4.4 c-1.6-7.1-9.1-11.1-16.9-8c-7.1,2.8-13.8,6.6-20.4,10.5c-8.3,4.9-16.4,10.4-24.5,15.7c0.1,0.6,0.2,1.1,0.3,1.7c2.5,0,5,0.3,7.5-0.1 c6.5-1,10.6-5.5,14.5-10.3c1-1.3,4.2-2.6,5.2-1.9c4.9,3.3,7.1,0.5,9.4-3.2c1.9-3.2,4.6-2.7,7.2-0.8 C428.1,107,429.1,108.1,430.8,109.6z M441,234.7c10.3-6.9,17.1-16.6,23.8-26.4c0.6-0.9,0.7-3,0.1-3.7c-3.3-3.8-9.1-4.3-13.2-1.3 c-3.1,2.2-6.2,4.3-9.1,6.8c-2,1.8-5.2,4.3-5.1,6.2C438,222.5,439.7,228.5,441,234.7z M557,629c-0.2,3.7,1.7,6.1,5.5,6.8 c11,2,22,4,33,5.7c1,0.2,3.1-1.7,3.3-2.9c0.9-4.6-1.5-6-8-7.7c-8.4-2.1-16.8-4.6-24.8-7.8C559.9,620.6,557,621.9,557,629z M368.1,245.9c-1.1-5-2.4-9.4-2.9-14c-0.3-2.8-0.5-5.3-3.7-5.4c-5.6-0.2-11.4-5.5-16.8-0.4c-3,2.9-5,6.9-7.8,10.8 C346.9,241.4,356.5,246,368.1,245.9z M399.5,76.1c-0.3,5.1,3.2,7.7,7.7,6.3c5.3-1.7,10.7-3.2,16-4.6c3.8-1,6.3-3.4,6.6-7.1 c0.4-4.4,0.4-9-0.2-13.4c-0.2-1.5-3-3.8-4.4-3.6c-5.2,0.5-9.1,7-8.8,12.3c0.4,6.5-1.3,10.2-8.6,10.2 C405.1,76.1,402.3,76.1,399.5,76.1z M435.3,242.6c0.4-0.4,0.8-0.8,1.2-1.1c-1.8-8.5-3.8-17-5.5-25.5c-1.2-5.8-5.7-8.6-11.2-6.8 c-5.8,1.9-7.3,8.5-3.2,12.8c3.1,3.2,6.1,6.5,9,9.9C429,235.4,432.1,239,435.3,242.6z M257.4,157.5c-0.1,0.4-0.3,0.7-0.4,1.1 c1.3,0.4,2.5,1.2,3.8,1.3c9.7,0.7,19.4,1.5,29.2,1.9c2.3,0.1,6.3-0.5,6.5-1.5c0.6-2.5-0.4-5.4-1-8c-0.2-0.9-1.2-1.6-1.9-2.3 c-3.2-3-6.5-3.8-10.8-2C274.4,151.5,265.8,154.4,257.4,157.5z M347.4,90.9c2.3,0,5.1,0.8,6.9-0.2c2.8-1.6,5.2-4.2,7.4-6.6 c0.5-0.5-0.3-3.3-0.8-3.4c-2.6-0.5-5.3-0.6-8-0.5c-0.7,0-1.4,1.3-2.1,1.9c-4.6,4-10.4,2.3-11.8-3.6c-0.7-3.2-0.1-6.8-1.3-9.7 c-0.8-2-3.6-3.2-5.4-4.7c-0.7,1.7-2.1,3.4-2.1,5c0.2,3.2,1,6.5,1.8,9.7C334.7,89.9,336,91,347.4,90.9z M375.2,251.8 c0.5,0,1.1,0,1.6,0.1c0.7-1,1.7-2,2.1-3.2c2.4-7.3,4.8-14.7,6.8-22.1c0.4-1.6-0.2-4-1.2-5.4c-2.2-3.1-8.3-4.5-11.2-2.8 c-3.9,2.3-3.6,6-3,9.7c0.9,5.2,1.9,10.3,2.9,15.4C373.8,246.3,374.5,249,375.2,251.8z M323.9,237.3c0.3,0.5,0.8,1.4,1.3,2.3 c1-0.6,2.3-1,3.1-1.9c5-5.7,9.9-11.5,14.7-17.5c1.3-1.7,3-5.2,2.5-5.7c-2.2-2-5-3.9-7.8-4.4c-2.1-0.4-6.2,0.8-6.7,2.2 C328.2,220.3,326.3,228.5,323.9,237.3z M403.6,119c0.2,0.6,0.5,1.1,0.7,1.7c7.5,0.8,15.1,1.5,22.6,2.3c3.4,0.3,6.9,1,10.3,0.9 c4.4-0.1,8.3-5.7,6.6-9.6c-0.7-1.7-2.9-3-4.7-3.9c-0.6-0.3-2.4,0.8-3,1.7c-4.7,6.3-4.7,6.4-10.5,1.1c-0.5-0.4-1.1-0.7-2-1.2 c-3.9,4.9-8.3,8.2-14.9,4.3C407.8,115.7,405.3,118,403.6,119z M483.4,206.9c0.2-0.3,0.5-0.6,0.8-0.9c-5.6-7-11-14.2-16.9-21 c-1.2-1.4-4.8-2.3-6-1.5c-2.2,1.4-4,4.1-4.9,6.7c-0.5,1.4,0.9,4.5,2.3,5.2C466.7,199.5,475.1,203.1,483.4,206.9z M199.8,252.2 c-3.7,1.1-6.4,2-9.2,2.8c-4.1,1.1-8.2,3.1-12.2,2.9c-7.5-0.4-14.9-2.4-22.4-3.4c-4.6-0.6-9.6-2.3-14.4,2c2.8,0.8,4.8,1.8,6.9,2 c13.3,1.2,26.6,2.5,40,3.3C195.2,262.3,197.7,260,199.8,252.2z M488.3,109.1c0-0.5-0.1-0.9-0.1-1.4c-1.8-0.2-3.7-0.5-5.5-0.7 c-5.6-0.5-11.1-1.1-16.7-1.4c-1.7-0.1-4.3,0.2-5.1,1.3c-2.2,2.8-2,6.4,0.2,9.1c1,1.2,3.9,2,5.5,1.5c6.8-2,13.4-4.5,20.1-6.8 C487.3,110.3,487.8,109.6,488.3,109.1z M285.6,210.2c0.9,0.1,2.1,0.7,2.9,0.4c6.2-2.5,12.4-5.1,18.5-8c1-0.5,2.1-3,1.7-3.5 c-1.9-2.8-4-5.8-6.8-7.7c-0.8-0.5-4.5,1.9-5.9,3.7C292.5,199.8,289.4,204.8,285.6,210.2z M168.1,668.9c-0.3-2.7-0.9-6.5-0.9-10.2 c0-3-0.6-5.3-4-5.4c-3.7-0.1-8.8,4.8-7.7,7.5c2,5,4.4,9.8,7,14.5c0.5,0.9,2.6,1.4,3.8,1.2c0.8-0.2,1.5-1.9,1.8-3.1 C168.3,672.4,168.1,671.1,168.1,668.9z M630.7,228c3.6,2.4,6.3,5.6,9.1,5.7c8.3,0.1,16.6-1,25.1-1.7 C662.7,224.9,651,223.6,630.7,228z M403.9,204.3c-5.3-2.7-9.7-4.9-14.2-7.1c-0.5-0.3-1.4-0.3-1.9,0c-4.9,2.4-9.7,4.9-15.5,7.9 C383.3,209.2,393.1,209.3,403.9,204.3z M200.7,684.6c-1,0.4-2.7,1-4.4,1.7c1.3,1.7,2.2,4,3.9,5c4.7,2.6,9.7,4.9,14.7,6.8 c1.4,0.6,4.3,0.7,5.3-0.8c1.1-1.6-0.1-4.3-1.2-5.5C214.5,686.8,208.2,685.4,200.7,684.6z M471.6,142.6c-0.6,2.1-1.2,3.5-1.4,4.9 c-0.5,4.5,1.6,8.9,4.4,8.4c6.8-1.2,13.6-2.9,20.4-4.4c0-0.5,0.1-1,0.1-1.5C487.4,147.5,479.6,145.1,471.6,142.6z M268.1,116 c0,0.5-0.1,1.1-0.1,1.6c6.3,3.4,12.5,7,18.9,10.2c4.1,2,5.1-1.7,5.9-4.3c0.8-2.5,0.9-5.3-3.2-5.7c-6.2-0.6-12.4-1.7-18.6-2.5 C270,115.3,269,115.8,268.1,116z M608,709.4c1.9-0.7,3.3-0.8,4.3-1.6c5-4.1,9.9-8.4,14.7-12.6c0.7-0.6,1-1.8,1.5-2.8 c-1-0.5-1.9-1.4-2.9-1.3c-1.4,0.1-2.9,0.5-4.2,1.3c-5,3.1-10,6.3-14.8,9.6c-1.4,1-2.3,2.7-3.4,4C604.9,707.1,606.5,708.3,608,709.4 z M621.9,714.1c3.2,3.5,6.5,5.5,10.1,2.7c5.3-4.2,10-9.1,14.9-13.6c-0.1-0.5-0.1-1.1-0.2-1.6c-2.2,0-4.9-0.8-6.5,0.1 C634,705.4,628.2,709.7,621.9,714.1z M165.8,725.8c0.1,0.6,0.2,1.3,0.3,1.9c1.3,0.3,2.6,1.1,3.8,0.9c7.3-0.8,14.7-1.7,21.9-2.9 c1.2-0.2,2.2-2.1,3.3-3.1c-1.3-0.9-2.7-2.6-3.9-2.5c-4.9,0.3-9.8,0.9-14.6,1.9C172.8,722.8,169.3,724.5,165.8,725.8z M216.4,666.8 c-0.6,0.5-2.2,1.3-2.9,2.6c-1,1.6-1.4,3.7-1.9,5.6c-0.5,2-2.6,4.3,0.4,6.1c2.7,1.6,5,0.8,6.8-1.5c1.2-1.5,2.6-3,3.4-4.8 C224,671,221.8,667.4,216.4,666.8z M627.2,651.2c-2.2-1.4-0.8-4.7-2.1-4.4c-4.5,1-12.1,3.9-16.4,5.7c-0.9,0.4-1.1,3-0.9,4.5 c0.1,0.5,2.6,1.2,3.8,0.9c4.1-1.1,8.1-2.6,12-4.1C624.5,653.4,625.3,652.6,627.2,651.2z M649.6,649.4c0-2-10.7-4.6-16.6-3.4 c-1,0.2-2.7,1.2-2.7,1.9c0,1,1,2.7,1.9,3C637.7,652.6,646.8,651.7,649.6,649.4z M673.9,697.5c0-0.4,0.1-0.9,0.1-1.3 c-2.8-1.3-5.4-3.4-8.3-3.7c-2-0.2-4.7,1.6-6.4,3.3c-1,0.9-0.5,3.2-0.7,4.9c2.1,0.1,4.3,0.6,6.3,0.1 C667.9,700,670.9,698.6,673.9,697.5z M309.4,210.6c1.1,6.9,6.3,12.9,12,14.5c2.2-3.6,2.4-5.3,0.2-6.8 C317.8,215.6,313.7,213.3,309.4,210.6z M172.4,709.7c0.1,0.7,0.3,1.5,0.4,2.2c6.6-0.4,13.1-0.7,19.7-1.2c0.7-0.1,2-1.8,1.8-2.3 c-0.5-1-1.8-2.5-2.5-2.4C185.3,707.1,178.9,708.5,172.4,709.7z M638.3,673c-2.9-2.9-7.6-1.4-17.3,5.7c0.8,3.3,2.5,4.9,5.8,2.6 C630.7,678.7,634.3,675.9,638.3,673z M650.9,683.3c-4.8-2.3-9.3,0.7-13.3,9.5c2.7,0,4.6,2.9,5.7,1.8 C645.8,692.1,648.6,686.6,650.9,683.3z M652.4,700.2c3-3.8,3.4-6.2,5.4-9.1c0.6-0.8,0.6-3,0.1-3.4c-1-0.7-3.3-1.2-3.8-0.7 c-2.3,2.7-5.5,6.6-7.2,9.6C646.5,697.3,651.1,697.7,652.4,700.2z M644.1,677c-2.1,0.4-3.7,0.4-4.9,1c-2.9,1.5-5.7,3.2-8.4,5.1 c-0.8,0.5-1.7,2.2-1.4,2.6c0.7,1.2,1.9,2.3,3.2,2.8c0.7,0.3,2.3-0.3,2.9-1C638.2,684.4,640.7,681.2,644.1,677z M468.9,99.5 c0.3-6.8-5.5-7.1-10-9.4c-0.4,2.3-0.4,4.5,0.5,6.2C461.2,99.9,464.6,100.6,468.9,99.5z M149.1,719.5c5.6,3.4,15.4-2.2,16.8-9.4 C160.1,713.4,155,716.2,149.1,719.5z M634,666.4c-4.1-1.8-16.7,2.3-17.8,5.3c-0.2,0.6,0.1,1.7,0.5,2.2c0.4,0.4,1.5,0.7,2,0.5 C623.7,671.9,628.6,669.3,634,666.4z M630,660.1c-3.6-3.8-7-1.5-9.8-0.5c-3.8,1.6-13.3,3-8,7.5C618.3,664.7,623.8,662.5,630,660.1z M631.2,640.8c3.5,0,6.7,0,9.8,0c0.6,0,1.5-0.2,1.8-0.6c0.7-1.1,1.9-3.1,1.5-3.5C641.8,633.8,632.5,636.6,631.2,640.8z M177,688.4 c0.1,0.5,0.3,1,0.4,1.5c5,0.4,9.9,0.7,14.8,1.1c-1.1-1.9-2.2-3.8-3.9-6.7C184.8,685.5,180.9,686.9,177,688.4z M174.2,703.2 c0.1,0.7,0.3,1.4,0.4,2c5.7-1,11.4-2,17.1-3.1C185.5,700.4,179.3,698.4,174.2,703.2z M191.8,715.2c0-0.1,0-0.2,0-0.3 c-6.6,0.4-13.1,0.6-19.7,1.2c-1,0.1-1.9,1.6-2.8,2.5c1.1,0.3,2.3,1.1,3.4,0.9C179.1,718.1,185.4,716.6,191.8,715.2z M620.6,642.6 c0-0.4,0-0.7-0.1-1.1c-5.2,0.5-10.3,1-16,1.6c0.6,2,1,3.3,1.3,4.4C611.1,645.7,615.9,644.2,620.6,642.6z" class="st1"/><path d="M625,539.7c5.2,3.1,6.2,7.2,6,11.9c-0.1,4.7-0.3,9.4,0.1,14c0.2,1.8,1.7,4.8,2.9,5c3.7,0.6,2.8-2.7,2.9-4.9 c0.4-7.1,0.7-14.3,1.3-21.3c0.2-1.8,1.2-3.8,2.5-5.2c1.1-1.1,3.1-1.4,4.7-2.1c0.5,1.4,1.2,2.8,1.5,4.3c2.6,16.9-2.9,32.2-9.5,47.3 c-2,4.5-3.3,9.3-5.4,13.8c-0.6,1.4-2.9,3.2-4.1,3c-12.8-2.5-20.8,4.5-27.1,13.9c-3.2,4.9-6.6,6.3-12.1,4.5 c-5.8-2-11.9-3.1-17.5-5.6c-3-1.3-5.9-4.3-7.3-7.3c-2.9-6.1-4.7-12.7-7-19.1c-2.9-8.3,0.1-15.1,5-21.6c3.5-4.6,6.9-9.3,10.1-14 c0.9-1.3,0.8-3.2,1.2-4.8c-1.7,0.5-3.5,0.9-5.2,1.6c-0.7,0.3-1.2,1.1-2.3,2c-2.7-2.9-4.8-6.8-8.1-8.3c-9.3-4.4-19-8.3-28.8-11.7 c-12.8-4.4-25.8-8.3-38.7-12.2c-3.9-1.2-5.8-3.4-5.4-7.6c1.6-17.8,5.6-34.9,15.2-50.3c1.2-1.9,4.5-3.6,6.8-3.4 c15.8,1,30.3,6.6,43.8,14.6c0.4,0.3,0.9,0.6,1.3,0.7c1.8,0.1,3.5,0.1,5.3,0.2c-0.7-1.5-1-3.5-2.1-4.3c-12.1-8.8-25-15.9-40.1-17.8 c-0.8-0.1-1.6-0.3-2.4-0.6c-0.6-0.2-1.1-0.6-2.3-1.3c1-1.3,1.6-2.8,2.7-3.4c11.2-6.1,22-13.4,35.2-14.7c3.1-0.3,6.5,0.2,9.6,1 c18.8,5.1,36.5,12.5,52.1,24.3c8.5,6.4,15.4,14,19.4,24c0.9,2.2,1.2,4.7,1.8,7c-0.4,0.4-0.8,0.8-1.3,1.2c-3.9-2.6-7.9-5.2-11.8-7.9 c-1.4-0.9-2.5-2.2-4-2.9c-1.4-0.7-3.1-0.7-4.7-1.1c0.5,1.7,0.5,4.1,1.7,5c6.6,5.2,13.6,10,20.1,15.2c4.2,3.3,8.7,6.8,11.6,11.1 c5.9,9.1,3.9,16.2-5.5,21.6C633.8,535.7,629.8,537.4,625,539.7z M602.6,555.5c-0.5,0.3-1,0.7-1.5,1c0,1.5-0.2,3,0,4.4 c2.7,14.5,3.1,28.9-1,43.2c-0.4,1.4,0.6,3.2,1,4.7c1.3-1.1,3.3-1.9,3.8-3.3c6.2-15.4,5.1-31,0.5-46.6 C605.1,557.6,603.6,556.6,602.6,555.5z M562,538.1c10.8-0.7,17.9-3.1,24-8c1-0.8,1.2-2.7,1.8-4c-1.4-0.1-3.2-0.8-4.2-0.2 c-12.4,7.3-24.9,8-37.9,1.7c-0.8-0.4-2,0.2-3,0.3c0.3,0.9,0.4,2.5,1,2.7C550.5,533.6,557.5,536.3,562,538.1z" class="st2"/><path d="M261.4,460.6c8.2-7.7,15.4-14.3,22.5-20.9c1-0.9,2.2-1.7,2.7-2.9c2.5-5.8,7-8.1,13.1-8.7 c15.1-1.3,30.3-3,45.4-4.2c10.6-0.9,20.3,2.4,29.5,7.3c0.7,0.4,1.4,1,2.2,1.1c1.2,0.1,2.4-0.2,3.6-0.3c-0.3-1.1-0.3-2.8-1.1-3.3 c-3.3-2.4-6.8-4.6-11.1-7.4c35.9-2.9,70.9-4.9,106-5.2c0,0.4,0,0.9,0,1.3c-5.4,3.2-10.8,6.2-16.1,9.6c-1.3,0.8-1.9,2.8-2.8,4.2 c1.8-0.1,3.9,0.3,5.4-0.4c4.5-2.1,8.6-4.9,13-7c18.1-8.8,37.4-9.9,56.7-6.5c5.3,0.9,9.7,6.6,14.3,10.9 c-19.5,3.3-34.4,13.6-46.5,27.8c-12.2,14.4-17.2,31.9-18.8,50.5c-0.5,0.4-1,0.8-1.5,1.2c-2.7-4-5.4-8.1-8.1-12.1 c-0.7,0.6-1.4,1.2-2.1,1.9c-1.6,9.8,8.6,13.3,12.2,21.8c-2.2,0-4,0.4-5.6-0.1c-17.5-5-33.4-13-47.3-24.8c-2.6-2.2-4.6-1.7-7.5-0.2 c-5.1,2.6-10.5,4.5-16,6.2c-1.2,0.4-3.3-1-4.4-2.2c-3.3-3.6-4.2-3.7-7,0.2c-11.8,16.5-27.2,28.8-45,38.2c-1.1,0.6-2.4,0.8-4.2,1.4 c0.2-1.4,0-2.5,0.5-3.1c11.7-15.9,19.1-33.5,22.1-52.9c0.7-4.9,0.5-10,0.3-15c0-1.1-1.6-2.2-2.5-3.3c-0.9,1.1-2.4,2.1-2.6,3.4 c-1.8,9.7-3.4,19.4-5.1,29.2c-0.3,1.7-1,3.4-1.5,5.1c-2.1-0.8-3.9-1.4-5.7-2c-0.6,5.3-0.7,10.1-1.9,14.6c-1.2,4.5-3.7,8.6-5.7,12.9 c-0.7-0.1-1.3-0.1-2-0.2c-0.4-1.8-0.9-3.7-1.1-5.5c-1.2-17.5-6.9-33.3-19.7-45.6c-13.2-12.7-29.5-17.5-47.8-15.1 C267.9,460.9,265.2,460.6,261.4,460.6z M453.1,491.3c-4.1-4.1-8-8.2-12.2-12.1c-1-0.9-2.6-1.1-4-1.6c0.2,1.4,0,3.3,0.8,4.2 c6.3,7,12.8,14,19.4,20.7c1.8,1.8,4.6,2.7,7,4c0.4-0.5,0.7-0.9,1.1-1.4c-1.9-5.2-3.7-10.5-5.9-15.6c-0.9-2-2.7-3.6-4-5.4 c-0.4,1.9-0.7,3.9-1.1,5.8C454.1,490.1,453.8,490.4,453.1,491.3z M390.9,485c4.7-1.7,8.5-3.7,7.5-8.8c-1.4-7.1-4.6-13.4-10.9-17.6 c-1-0.7-2.4-0.6-3.7-0.8c0.3,1.3,0.2,2.9,0.9,3.8c4.1,5.7,6.2,11.9,5.5,19C390,481.9,390.5,483.3,390.9,485z" class="st0"/><path d="M183.2,613.2c-1.1,6-2.1,11.6-3.1,17.2c-0.2,1.1-0.9,2.9-1.4,2.9c-6,0.2-4.4,4.7-4.7,8 c-0.3,3.3-1.7,5.8-5.2,6.3c-3.9,0.5-4.5-2.6-5-5.5c-3.6-21.3,0.6-40.9,13.2-58.5c4.5-6.2,10-11.6,15.6-18c1.6,3,2.5,4.6,3.4,6.3 c0.5,0.2,1,0.4,1.5,0.6c6.8-17.3,18.2-31.4,31.4-44.2c-0.5-0.6-0.9-1.2-1.4-1.8c-2.3,0.6-4.7,1.2-8.4,2.2c1.6-4.7,2.7-9,4.6-13 c8.3-17.4,20-32.5,33.2-46.4c1.9-2,5.9-2.2,9-2.8c8.5-1.8,27.5,0.8,34,4.7c-4.6,7.3-13.9,11.3-15.5,22.6c2.5-1.4,4.1-2,5.2-3.1 c4.4-4.1,8.7-8.3,12.9-12.5c3.2-3.2,6-3.1,9.4,0.1c11.7,11.1,16.6,25.5,19.8,40.7c0.9,4.4,1.5,8.8,2.2,13.2c1,6-2.5,9.6-6.9,12.7 c-14.2,10-28.7,19.3-46.2,22.9c-1.8,0.4-4.4,2.6-4.7,4.3c-1,5.3-4.3,8.5-8.5,11c-4.3,2.5-5.1,5.6-4.3,10.4 c2.6,15.9-1.8,29.6-13.7,40.8c-8.4,8-16.4,16.5-24.4,24.9c-3.1,3.3-7.1,3.7-9-0.1c-4.6-9.2-12.9-12.4-22-14.2 c-13-2.6-12.9-2.8-7.6-14.7c3.6-7.9,6.2-16.3,8.8-24.6c0.8-2.5,0-5.5-0.4-8.2c-0.1-0.9-1.2-1.6-1.9-2.4c-0.8,0.7-2.1,1.3-2.2,2.2 c-0.8,3.9-2,7.8-1.8,11.7C189.6,613.8,187.8,614.8,183.2,613.2z M228.7,552.7c-0.3,0.6-0.7,1.2-1,1.8c1.3,0.8,2.6,1.8,3.9,2.5 c5.2,2.9,10.8,5.2,15.5,8.7c5.1,3.8,5.3,8,1.6,13.1c-2.1,2.9-4.8,5.5-7.5,7.9c-3.7,3.2-7.6,6.1-11.5,9.1c1.5,1.2,2.9,1.8,3.8,1.3 c10.1-4.6,19.6-10,25.2-20c1.4-2.4,1.6-7.1,0.1-9.2C251.6,557.4,240.4,554.3,228.7,552.7z M238.5,605c-0.6-0.1-1.2-0.2-1.8-0.4 c-3.3,4.7-6.4,9.5-10,14c-6.5,7.9-11.7,16.5-13.9,26.6c-0.3,1.2,0.3,2.5,0.4,3.8c1.2-0.8,2.8-1.3,3.6-2.4 c5.2-7.7,10.3-15.4,15.2-23.2c2.4-3.7,4.7-7.6,6.4-11.6C239.2,609.9,238.5,607.3,238.5,605z" class="st2"/><path d="M550.8,250.5c-102.8,14.9-206,20.1-311.5,13.2c26.1-29.5,30.4-62.4,20.2-98.6c2.4,0,4-0.1,5.5,0 c5.4,0.5,10.8,1.4,16.2,1.7c2.9,0.1,4.8,0.8,5.6,3.7c1.7,5.9,3.6,11.7,4.9,17.6c0.4,1.7-0.3,4-1.4,5.5 c-5.6,8.1-11.5,16.1-17.2,24.1c-0.8,1.2-1.6,2.4-2.4,3.5c0.2,0.5,0.4,1,0.6,1.5c2.2-0.4,4.5-0.4,6.5-1.3c7.1-3.1,14-6.6,20.9-9.9 c2.6-1.2,4.6-0.6,5.7,2.1c2.9,7,7.6,12.7,13.1,17.8c1.4,1.3,1.7,4.3,1.5,6.5c-0.3,3.2-1.8,6.3-2.3,9.6c-0.2,1.3,0.5,3.7,1.1,3.8 c1.3,0.3,3.2-0.2,4.3-1.1c2.1-1.6,3.9-3.6,5.6-5.7c2.3-2.8,4.6-2.7,7.9-1.6c9.8,3.3,19.7,6.3,29.6,9.2c3.8,1.1,6.7,2.4,7.5,6.7 c0.2,1.1,1.6,2.8,2.1,2.7c1.2-0.3,2.8-1.2,3.2-2.3c1.7-4.3,4.5-4.6,8.9-4.6c8.6,0,17.2-1,25.8-2.1c5.7-0.7,11.2-2.8,16.9-3.4 c2.5-0.3,5.1,1.8,7.7,2.8c1.4,0.5,2.9,1,4.3,1.4c0.3-1.4,1.1-3,0.8-4.3c-1.2-4.3,0.1-7.1,3.6-9.8c9.9-7.7,18.7-16.4,24.4-27.7 c1.5-3,4-3.2,6.7-1.9c5.2,2.4,10.4,5,15.6,7.3c1.3,0.6,3,0.1,4.6,0.2c-0.5-1.6-0.6-3.4-1.5-4.7c-4.4-5.8-9.2-11.3-13.4-17.2 c-1.5-2.2-2.4-5.4-2.3-8.1c0.2-7.4,0.7-14.9,2-22.2c0.4-2.4,3-5.5,5.3-6.4c5.9-2.1,12.1-2.9,18.2-4.5c1.3-0.3,2.3-1.7,3.5-2.6 c-0.9-1.2-1.6-2.9-2.8-3.4c-5.9-2.2-11.8-4.4-17.9-5.9c-5.7-1.3-8.7-4.4-9.3-10c-0.1-1-0.6-1.9-0.8-2.9 c-2.1-9.6,2.2-15.1,12.3-15.3c3.8-0.1,7.7,0.4,11.3,1.4c6.1,1.6,12,3.8,18,5.6c3,0.9,4.3,2.6,3.9,5.9c-1.4,11.3-3.7,22.6-3.7,33.9 c0.1,26.6,2.4,52.9,18.3,75.7c2.6,3.7,6,6.9,9.3,10.1c1.1,1.1,2.9,1.6,4.3,2.3C551.8,249.5,551.3,250,550.8,250.5z M513.1,203.6 c0.2-0.6,0.4-1.1,0.6-1.7c-5-2.9-9.9-6-15.1-8.6c-0.7-0.4-3.2,1-3.7,2.1c-0.4,0.9,0.5,3.4,1.4,3.8c4.5,2,9.2,3.7,13.9,5.2 C511,204.8,512.1,204,513.1,203.6z M307.2,232.2c-2.8-5.1-14.2-9-18.5-6.7c-0.7,0.4-1.6,1.7-1.5,2.1c0.4,0.9,1.4,1.9,2.3,2.1 c4.3,1.2,8.6,2.3,12.9,3.1C303.9,233,305.5,232.4,307.2,232.2z" class="st3"/><path d="M454,107.8c-0.8,5.4,0.4,11,5.8,16.2c2.8,2.7,4.5,7.6,4.8,11.6c0.7,9.2,1.4,18.6-0.2,27.6 c-1,6.1-5.2,12-9,17.3c-3.2,4.6-7.9,8-11.8,12.2c-2.8,3-6,3.6-9.8,2.2c-3.5-1.3-5-3.6-3.2-6.9c3.9-7.2,2.2-14.9,2.3-22.5 c0-1.1-2.4-2.3-3.7-3.4c-0.8,1.5-2.2,2.8-2.4,4.4c-0.8,6.7-1,13.4-1.8,20.1c-1.4,13.3-19.6,17.1-29.8,8c-7.1-6.4-6.8-6.1-13.9,0.2 c-6,5.3-12.3,10.6-21.5,8.1c-6.4-1.7-10.6-6-13.4-11.5c-2.6-5.1-4.2-10.7-6.5-15.9c-1.2-2.8-0.4-4.4,2-5.7c2.7-1.5,5.4-3.3,8.1-4.7 c2.6-1.4,4.2-3.6,2.4-6c-2-2.6-4.5-1.4-6.8,0.6c-2.2,1.9-4.7,3.7-7.3,5c-5.2,2.6-10.4,1.7-12.6-1.6c-2-3.2-0.2-9.7,3.8-12.9 c10.2-8.1,21.5-14.1,33.9-18c22.9-7.2,46-6.2,69.2-1.7c3.7,0.7,7.5,1.5,10.9,3c4.8,2.1,6.5,5.9,5.1,9.9c-1.3,3.7-6.1,6.3-10.6,4.9 c-5-1.5-9.8-3.7-14.8-5.6c-5.1-1.9-10.1-4.1-15.3-5.6c-1.4-0.4-3.3,1.1-5,1.7c1.3,1.4,2.3,3.3,3.9,4c6.6,2.9,13.4,5.5,20.2,8.2 c6.3,2.5,12.4,5,19.6,3.3c4.9-1.2,8.2-3.9,9.1-8.6c1-4.9,1.1-9.8-4.2-13.2c-5.2-3.3-5.8-6.4-2.8-12.8c3.8-8.1,2.5-15.9-1.2-23.4 c-4-8.1-13.7-11.9-23.6-7.6c-9,3.9-17.1,9.6-25.4,15c-8.8,5.8-17.2,12.3-25.9,18.1c-2.5,1.7-5.8,2.3-8.6,3.6 c-8.8,4-17.5,8.2-26.5,11.9c-1.9,0.8-5.4,1-6.4-0.1c-6.3-6.7-7.5-14.8-5.3-23.5c2-7.7,6-14.2,14.3-15.2c7.1-0.9,14.3-2.3,21.4,2.9 c7.9,5.8,17,6.9,26.6,2.1c5-2.5,10.3-3.7,11.9-10.4c0.5-2.1,3.8-4.3,6.2-5.1c7.3-2.1,14.7-3.8,22.1-5.2 c16.5-3.2,25.5,4.2,25.5,20.9C454,104.7,454,105.6,454,107.8z M388,143.2c-4.6,1.5-8.7,2.5-12.6,4.2c-1.2,0.5-1.9,2.4-2.8,3.7 c1.7,0.5,3.5,1.6,5,1.2c3.5-0.7,6.9-2,10.3-3.3c1.7-0.7,3.1-1.9,4.6-2.9C390.9,145.1,389.5,144.2,388,143.2z" class="st2"/><path d="M534.4,126.7c6.1,5.1,11,9.6,16.4,13.5c2.4,1.7,5.7,2.3,8.7,2.7c16,2.3,31.2,6.2,44,16.9 c9.2,7.7,14.2,17.6,16.4,29.1c0.5,2.4,0.8,4.8,1.2,7c-2.7,2.8-8.4-1.5-9.4,4.7c15.6,4.8,31.2,8.9,44.8,20.2c-3.1,0-5,0-6.9,0 c-5.7,0.2-11.4,0.6-17.1,0.5c-2.7-0.1-6-0.3-8-1.8c-7.6-5.7-15.6-9.2-24.7-4.5c-9.6,5-16.3,12.5-15.7,24.3c0.2,3.6-0.9,5.5-4.6,6.1 c-4.6,0.6-9.2,2.8-13.5,2.3c-4.4-0.6-9.7-2.6-12.5-5.8c-13.5-15.3-20.9-33.4-23.2-53.7c-2.1-18.4-1-36.7,2.2-54.9 C532.4,131.4,533.3,129.8,534.4,126.7z" class="st2"/><path d="M352.3,204.7c-6.8,0-12.6,0.7-18.2-0.1c-19.1-2.7-33-19.3-32.9-38.8c0-8.3,0.1-16.6,1-24.8 c0.4-4.2,2.4-8.2,3.9-12.2c4.8-12.4,9.8-24.8,14.7-37.2c0.2-0.6,0.5-1.4,0.4-1.9c-0.4-1.5-1.1-3-1.7-4.5c-1.2,1-3.1,1.8-3.5,3 c-2.5,8.5-4.7,17.1-7.1,25.7c-0.6,2.2-1.8,4.3-2.9,6.7c-5.1-4.9-5.1-15.3-1.5-21.7c3.3-5.9,6-12.6,7.1-19.2 c0.9-5.1-0.5-10.9-1.8-16.1c-1.5-5.7-0.7-9.9,3.9-13.6c10-8.2,22.2-13.1,33.4-18.9c16-8.2,42.5-9.1,60.5-4.4 c9.9,2.6,18.3,8.1,28.6,9.5c1.4,0.2,2.8,1,4.1,1.6c7.1,3.7,7.5,4.3,6.4,11.9c-1.7,10.7,0.7,20.6,5.5,30c0.6,1.2,1.2,2.5,1.9,3.8 c-5.9-2.7-11.5-5.1-16.9-7.9c-0.9-0.4-1.7-3-1.2-3.7c2.9-4.3,2.9-8.4,0.5-12.9c-0.8-1.6,0.1-4.1-0.5-5.9c-0.6-1.7-1.8-4-3.3-4.5 c-8.8-2.9-17.3,0.4-22.7,7.8c-4.3,5.8-9.2,11.2-13.8,16.9c-1.8,2.2-3.7,2.7-6.5,1.5c-1.2-0.5-2.9,0.3-4.4,0.5 c0.6,1.2,1.2,2.5,1.9,3.6c2.3,3.9,5.2,7.5,6.9,11.7c1.3,3.2-0.8,6-4.2,6.3c-7.3,0.7-14.7,1-22.1,1c-1.5,0-3.1-2.2-4.6-3.4 c1.3-0.9,2.6-2.4,4-2.7c6.8-1.3,13.6-2.3,21.2-3.4c-3.1-3.8-6.8-3.3-10.6-2.5c-3.7,0.8-7.4,1.5-12.5,2.6c1.3-2.3,1.7-3.7,2.7-4.7 c2.1-2.4,4.7-4.3,6.5-6.8c0.8-1.1,0.2-3.1,0.2-4.7c-1.6,0-3.6-0.6-4.6,0.2c-6.1,4.6-8.1,4.7-14.5,0.6c-7.1-4.6-14.3-9.2-21.7-13.3 c-2.6-1.4-6.1-1.4-9.2-1.6c-1.2-0.1-2.6,1-3.8,1.5c0.8,1.2,1.7,2.4,2.6,3.6c0.4,0.5,0.9,0.9,1.2,1.2c-5.5,10.3,2.1,17.8,5.4,26 c1.3,3.1,1.2,4.6-0.9,6.7c-10.3,9.6-14.2,31.4-2.8,43.1c3.1,3.1,0.1,5.1-1.7,7c-3.3,3.4-6.1,6.8-5.8,12.1 c0.3,6.3,3.3,10.5,9.6,11.8c4.1,0.9,5.6,3.6,6.3,7.2c1.7,8.6,5.2,16.3,12,22.1C348.4,201.7,349.9,202.9,352.3,204.7z M403.9,42.5 c-6-1-18,7.4-21.5,15.1C386,58.4,402.1,47,403.9,42.5z" class="st2"/><path d="M142.8,245.9c5.2-7.5,11.5-12.8,18.9-16.7c4.8-2.5,10-4.2,15-6.4c1.4-0.6,2.4-2,3.6-3.1 c-1.3-0.9-2.5-2.1-3.9-2.8c-1.1-0.5-2.5-0.5-4.1-0.7c10.3-21.5,25.4-36.7,48.9-42.2c1.8-0.4,3.6-0.7,5.3-1.4c2.3-0.9,3.7-2,1.6-4.8 c-0.9-1.1-1.2-3.5-0.6-4.6c3.5-6.5,7.1-12.9,11.1-19c1.7-2.6,4.6-1.7,6.1,0.7c1.7,2.8,3.1,5.8,4.1,8.9c0.9,2.5-0.9,3.4-3.2,3.9 c-1.5,0.3-2.8,1.5-4.2,2.3c0.2,0.5,0.4,1,0.6,1.5c1.3,0.1,2.5,0.3,3.8,0.4c4.7,0.6,7.4,3.3,8.1,7.9c1.3,8.5,3.6,16.9,3.7,25.4 c0.2,18.6-4.1,36.2-14.1,52.2c-0.3,0.5-1,0.8-1.7,1.4c-2.1-3.5-3.8-7-6-10.1c-8.4-12.2-23.1-12-29.8,2.1c-0.5,1.1-1.4,2.4-2.4,2.9 c-7.1,3.1-14.2,6.2-21.5,8.8c-10.1,3.5-19.4-1.5-28.9-3.7C150,248.2,146.8,247.1,142.8,245.9z" class="st2"/><path d="M562,641.8c5.7,1.1,11.5,2.3,17.3,3.3c4.5,0.8,9.1,1.6,13.7,1.7c4.5,0.1,6.9,2.3,7.7,6.2 c1.9,9.8,6.5,18.3,12.7,25.9c2.1,2.5,1.6,3.4-1.1,5.1c-7.6,4.8-14.9,10.1-22.4,15.1c-1.3,0.8-3.1,1.9-4.4,1.5 c-11-2.8-22.4-4.4-32-11.3c-5.9-4.3-7.6-14.7-2.5-19.7c1.4-1.4,4.9-2.1,6.6-1.2c5.8,2.7,11.1,6.4,16.7,9.4c1.5,0.8,3.3,0.8,5,1.1 c-0.3-1.8,0-4.2-1-5.1c-5-4.3-10.2-8.3-15.7-11.9c-2.8-1.8-3.9-3-2.7-6.6C561.3,651.3,561.3,646.8,562,641.8z" class="st4"/><path d="M161.2,729c-2.8,5.4-9.8,5-11.6,12.4c4.4-1.6,8-2.7,11.5-4.1c19.4-7.6,38.3-6,56.8,3.1 c4.5,2.2,6.8,6.2,7.8,10.9c0.8,3.6-0.1,5.8-4.4,5.6c-5.3-0.2-10.7-0.4-16,0c-22.1,1.7-44.1,3.6-66.2,5.6c-4.6,0.4-8.4-3.2-7.5-7.8 c1.8-9,5.6-16.4,15.3-19.4c3.4-1,6.3-3.5,9.5-5.1C157.9,729.6,159.7,729.4,161.2,729z" class="st4"/><path d="M742.9,216.2c-1.8,2.4-3.1,5.4-5.4,7c-11.2,8-23,15.3-34.1,23.4c-8,5.9-11,2.7-17.4-4.7 c-2.7-3.1-2.2-6.7-0.1-10.1c4.4-7.3,10.7-12.4,17.8-16.7c0.8-0.5,2.1-0.6,2.5-1.3c1-1.4,1.5-3.1,2.2-4.7c-1.6-0.2-3.8-1.1-4.8-0.4 c-6.1,4.4-11.8,9.3-17.8,13.9c-3.3,2.5-6.7,5-10.4,6.7c-1,0.5-3.6-1.9-5-3.4c-0.4-0.4,0.7-3,1.7-3.6c10.2-6,20.3-12.1,30.7-17.5 c5.5-2.9,11.4-5.2,17.3-6.8C729.6,195.5,742.1,206.1,742.9,216.2z" class="st2"/><path d="M643.2,724.8c10.6-12.8,24-18.6,37.3-24.6c8,1.7,16.1,2.9,23.9,5.2c3.6,1,6.9,3.8,9.7,6.5 c6.7,6.3,6.4,10.8-1.7,15.6c-3.9,2.3-8.6,4-13,4.2c-14.4,0.9-28.8,0.5-42.9-3.5C652.4,727.1,648.3,726.1,643.2,724.8z" class="st4"/><path d="M300.5,66.7c1-1.2,2-2.4,3.9-4.7c1.1,2.4,2.7,4.1,2.6,5.7c-0.9,12.4-3.3,24.4-10.5,35 c-0.9,1.4-2.8,2.1-4.2,3.1c-1-1.4-2.1-2.8-2.9-4.3c-3.4-6-6.7-11.9-9.9-17.9c-2.9-5.4-3.1-10.9-1.8-16.9 c2.9-13.6,12-21.4,23.9-26.7c1.8-0.8,4.3-1,6.3-0.6c4.5,0.8,5.2,3.3,2.4,6.9c-3.2,4.1-6.5,8.3-9.4,12.7c-1.3,2-1.5,4.7-2.2,7.2 C299.2,66.4,299.8,66.6,300.5,66.7z" class="st2"/><path d="M475.8,92.1c-13.4-3.7-19.1-13.3-22.4-24.9c-1.2-4.3-2-8.7-2.5-13.1c-0.2-1.8,1.1-3.6,1.5-5.5 c0.2-0.8,0-1.8-0.3-2.5c-1.9-4.5-4.6-8.1-9.5-10.1c-1.5-0.6-3.5-2.7-3.5-4c0.1-1.4,2.1-3.1,3.7-4c5.3-2.9,15.6-1,20.5,3.5 c8.8,8,11.7,18,9.1,29.3c-2.2,9.5-1.8,18.7,2.3,27.6C475.2,89.4,475.3,90.3,475.8,92.1z" class="st2"/><path d="M174.4,676.3c-0.5-6.8-0.9-13.4-1.4-20c-0.3-4.4,1.8-6.2,6.2-6.5c8.7-0.4,16.7,1.6,24.4,5.3 c5.2,2.5,6.6,5.8,5,11.4c-3.5,12.4-6.7,14.3-19.4,11.8C184.5,677.3,179.5,677,174.4,676.3z" class="st4"/><path d="M385.3,248.2c1.8-6.8,3.1-12.4,4.9-17.8c0.5-1.4,2.8-2.7,4.5-3.1c4.8-1,9.8-1.9,14.7-2c2.1,0,4.7,1.5,6.2,3.1 c4.1,4.5,7.8,9.4,12.2,14.9C414,248,399.9,250.1,385.3,248.2z" class="st2"/><path d="M285.9,137c-2.4,2.5-3.6,4.6-5.5,5.5c-6.3,3.1-12.9,5.5-19.2,8.5c-4.5,2.2-5.7,1.9-7.9-2.6 c-1.2-2.7-2.5-5.3-4-7.9c-1.6-2.6-1.5-4.5,1.5-6c5-2.4,9.7-5.5,14.9-7.4c2.7-1,6.2-0.1,9.2,0.5c1.7,0.3,3.4,1.4,4.7,2.6 C281.6,132,283.3,134.1,285.9,137z" class="st3"/><path d="M634,623c0,9.6-3.3,12.7-12.8,13c-4.1,0.1-8.2,0.8-12.3,1.5c-3.4,0.6-5.3-0.1-4.9-3.9 c1.1-12.4,9.9-23,23.8-21.7C632.5,612.3,634,615.1,634,623z" class="st4"/><path d="M430.8,109.6c-1.7-1.5-2.7-2.6-3.9-3.4c-2.6-1.9-5.3-2.3-7.2,0.8c-2.3,3.8-4.5,6.6-9.4,3.2 c-0.9-0.6-4.1,0.7-5.2,1.9c-3.9,4.8-8,9.3-14.5,10.3c-2.4,0.4-5,0.1-7.5,0.1c-0.1-0.6-0.2-1.1-0.3-1.7c8.2-5.2,16.2-10.7,24.5-15.7 c6.6-3.9,13.3-7.7,20.4-10.5c7.7-3.1,15.2,0.9,16.9,8c0.2,1-0.1,2.1-0.3,4.4C438.3,100.8,433.8,102.3,430.8,109.6z" class="st3"/><path d="M441,234.7c-1.3-6.3-3.1-12.3-3.5-18.4c-0.1-2,3-4.4,5.1-6.2c2.8-2.5,6-4.6,9.1-6.8c4.1-3,9.9-2.5,13.2,1.3 c0.6,0.7,0.5,2.8-0.1,3.7C458.2,218.1,451.4,227.8,441,234.7z" class="st2"/><path d="M557,629c0-7.1,2.8-8.4,9-6c8,3.2,16.4,5.7,24.8,7.8c6.5,1.6,8.9,3.1,8,7.7c-0.2,1.2-2.4,3.1-3.3,2.9 c-11-1.7-22-3.7-33-5.7C558.7,635.1,556.8,632.7,557,629z" class="st4"/><path d="M368.1,245.9c-11.5,0.1-21.1-4.5-31.1-8.9c2.8-4,4.7-7.9,7.8-10.8c5.4-5.1,11.1,0.2,16.8,0.4 c3.2,0.1,3.4,2.7,3.7,5.4C365.7,236.5,367,240.9,368.1,245.9z" class="st2"/><path d="M399.5,76.1c2.8,0,5.6,0,8.4,0c7.2,0,9-3.7,8.6-10.2c-0.3-5.3,3.5-11.8,8.8-12.3c1.4-0.1,4.2,2.2,4.4,3.6 c0.6,4.4,0.6,9,0.2,13.4c-0.4,3.7-2.8,6.1-6.6,7.1c-5.4,1.4-10.7,2.9-16,4.6C402.7,83.9,399.2,81.2,399.5,76.1z" class="st3"/><path d="M435.3,242.6c-3.2-3.6-6.3-7.2-9.6-10.8c-3-3.3-5.9-6.7-9-9.9c-4.2-4.3-2.6-10.8,3.2-12.8 c5.5-1.8,10,1,11.2,6.8c1.7,8.5,3.6,17,5.5,25.5C436.1,241.8,435.7,242.2,435.3,242.6z" class="st3"/><path d="M257.4,157.5c8.5-3.1,17-6,25.3-9.4c4.3-1.8,7.7-1.1,10.8,2c0.7,0.7,1.7,1.4,1.9,2.3c0.6,2.7,1.6,5.6,1,8 c-0.2,1-4.2,1.6-6.5,1.5c-9.7-0.5-19.5-1.2-29.2-1.9c-1.3-0.1-2.5-0.8-3.8-1.3C257.1,158.2,257.2,157.9,257.4,157.5z" class="st3"/><path d="M347.4,90.9c-11.4,0-12.7-1-15.5-12.2c-0.8-3.2-1.6-6.4-1.8-9.7c-0.1-1.6,1.3-3.3,2.1-5 c1.9,1.5,4.7,2.7,5.4,4.7c1.1,3,0.5,6.5,1.3,9.7c1.4,5.9,7.2,7.6,11.8,3.6c0.7-0.6,1.4-1.9,2.1-1.9c2.7-0.1,5.4,0,8,0.5 c0.5,0.1,1.2,2.8,0.8,3.4c-2.2,2.5-4.5,5.1-7.4,6.6C352.5,91.7,349.8,90.9,347.4,90.9z" class="st3"/><path d="M375.2,251.8c-0.6-2.7-1.3-5.5-1.9-8.2c-1-5.1-2.1-10.3-2.9-15.4c-0.6-3.7-0.9-7.4,3-9.7 c2.9-1.7,9-0.4,11.2,2.8c1,1.4,1.6,3.8,1.2,5.4c-2,7.4-4.4,14.8-6.8,22.1c-0.4,1.2-1.4,2.1-2.1,3.2 C376.2,251.8,375.7,251.8,375.2,251.8z" class="st3"/><path d="M323.9,237.3c2.4-8.7,4.3-17,7.1-24.9c0.5-1.4,4.6-2.6,6.7-2.2c2.8,0.5,5.7,2.4,7.8,4.4c0.5,0.5-1.2,4-2.5,5.7 c-4.7,5.9-9.7,11.7-14.7,17.5c-0.7,0.9-2,1.3-3.1,1.9C324.7,238.7,324.1,237.8,323.9,237.3z" class="st3"/><path d="M403.6,119c1.7-1,4.2-3.3,5.1-2.7c6.6,3.9,11,0.6,14.9-4.3c0.9,0.5,1.5,0.8,2,1.2c5.8,5.2,5.8,5.2,10.5-1.1 c0.7-0.9,2.5-2,3-1.7c1.8,1,4,2.2,4.7,3.9c1.7,4-2.1,9.6-6.6,9.6c-3.4,0.1-6.9-0.6-10.3-0.9c-7.5-0.7-15.1-1.5-22.6-2.3 C404.1,120.1,403.8,119.5,403.6,119z" class="st3"/><path d="M483.4,206.9c-8.3-3.8-16.7-7.4-24.8-11.5c-1.4-0.7-2.8-3.8-2.3-5.2c0.9-2.6,2.7-5.3,4.9-6.7 c1.2-0.8,4.9,0.2,6,1.5c5.9,6.8,11.3,13.9,16.9,21C483.9,206.3,483.7,206.6,483.4,206.9z" class="st3"/><path d="M199.8,252.2c-2.1,7.8-4.6,10.1-11.4,9.6c-13.3-0.8-26.6-2.1-40-3.3c-2.1-0.2-4.1-1.2-6.9-2 c4.9-4.3,9.8-2.6,14.4-2c7.5,1,14.9,2.9,22.4,3.4c4,0.2,8.2-1.8,12.2-2.9C193.4,254.2,196.2,253.3,199.8,252.2z" class="st2"/><path d="M488.3,109.1c-0.6,0.5-1.1,1.2-1.7,1.5c-6.7,2.4-13.3,4.9-20.1,6.8c-1.6,0.5-4.4-0.3-5.5-1.5 c-2.3-2.7-2.4-6.3-0.2-9.1c0.9-1.1,3.4-1.3,5.1-1.3c5.6,0.3,11.1,0.9,16.7,1.4c1.9,0.2,3.7,0.5,5.5,0.7 C488.2,108.1,488.3,108.6,488.3,109.1z" class="st3"/><path d="M285.6,210.2c3.7-5.4,6.9-10.5,10.5-15.1c1.4-1.8,5.1-4.3,5.9-3.7c2.7,1.9,4.8,4.8,6.8,7.7 c0.4,0.6-0.7,3.1-1.7,3.5c-6.1,2.9-12.3,5.5-18.5,8C287.7,211,286.5,210.4,285.6,210.2z" class="st3"/><path d="M168.1,668.9c0,2.2,0.2,3.4-0.1,4.5c-0.3,1.1-1,2.9-1.8,3.1c-1.2,0.2-3.3-0.3-3.8-1.2c-2.6-4.7-5.1-9.5-7-14.5 c-1.1-2.8,4-7.6,7.7-7.5c3.4,0.1,4,2.4,4,5.4C167.2,662.5,167.8,666.2,168.1,668.9z" class="st4"/><path d="M630.7,228c20.3-4.3,32-3.1,34.2,4c-8.5,0.7-16.8,1.8-25.1,1.7C637.1,233.6,634.4,230.3,630.7,228z" class="st2"/><path d="M403.9,204.3c-10.8,4.9-20.6,4.8-31.6,0.8c5.7-2.9,10.6-5.5,15.5-7.9c0.5-0.3,1.4-0.2,1.9,0 C394.1,199.4,398.6,201.7,403.9,204.3z" class="st2"/><path d="M200.3,691.3c-1.7-0.9-2.7-3.3-3.9-5c1.7-0.7,3.4-1.3,4.4-1.7c7.4,0.8,13.7,2.1,18.3,7.1 c1.1,1.2,2.3,3.9,1.2,5.5c-1,1.5-2.2,1.1-3.7,1C210.4,697.6,200.3,691.3,200.3,691.3z" class="st4"/><path d="M471.6,142.6c8,2.5,15.7,5,23.5,7.4c0,0.5-0.1,1-0.1,1.5c-6.8,1.5-13.5,3.2-20.4,4.4c-2.7,0.5-4.9-3.9-4.4-8.4 C470.4,146,471,144.7,471.6,142.6z" class="st3"/><path d="M141.4,694.7c22.3-18.7,23.4-15.8,29.5-11C168.8,685.9,148.6,697.4,141.4,694.7z" class="st4"/><path d="M268.1,116c1-0.2,2-0.7,2.9-0.6c6.2,0.8,12.4,1.9,18.6,2.5c4.2,0.4,4,3.2,3.2,5.7c-0.8,2.6-1.8,6.4-5.9,4.3 c-6.4-3.2-12.6-6.8-18.9-10.2C268,117.1,268,116.6,268.1,116z" class="st3"/><path d="M608,709.4c-1.5-1.1-3.1-2.3-4.7-3.4c1.1-1.4,2-3,3.4-4c4.8-3.4,9.8-6.5,14.8-9.6c1.2-0.7,2.7-1.2,4.2-1.3 c0.9,0,1.9,0.9,2.9,1.3c-0.5,0.9-0.7,2.1-1.5,2.8c-4.8,4.3-9.7,8.5-14.7,12.6C611.4,708.5,609.9,708.7,608,709.4z" class="st4"/><path d="M621.9,714.1c6.3-4.3,12.1-8.7,18.3-12.4c1.6-1,4.3-0.1,6.5-0.1c0.1,0.5,0.1,1.1,0.2,1.6 c-4.9,4.6-9.7,9.5-14.9,13.6C628.4,719.6,625.1,717.5,621.9,714.1z" class="st4"/><path d="M165.8,725.8c3.5-1.3,7-3,10.6-3.8c4.8-1,9.7-1.6,14.6-1.9c1.3-0.1,2.6,1.6,3.9,2.5c-1.1,1.1-2,2.9-3.3,3.1 c-7.3,1.2-14.6,2.1-21.9,2.9c-1.2,0.1-2.5-0.6-3.8-0.9C166,727,165.9,726.4,165.8,725.8z" class="st4"/><path d="M216.4,666.8c5.4,0.6,7.6,4.2,5.8,7.9c-0.8,1.7-2.2,3.2-3.4,4.8c-1.8,2.3-4.1,3.2-6.8,1.5 c-3-1.8-0.9-4-0.4-6.1c0.5-1.9,0.9-3.9,1.9-5.6C214.2,668.1,215.8,667.3,216.4,666.8z" class="st4"/><path d="M627.2,651.2c-1.8,1.3-2.6,2.2-3.6,2.5c-4,1.5-8,2.9-12,4.1c-1.2,0.3-2.8,2.1-3.8-0.9 c-1.1-3.5,0.1-4.1,0.9-4.5c4.3-1.8,11.8-4.7,16.4-5.7C626.3,646.6,624.9,649.9,627.2,651.2z" class="st4"/><path d="M155.8,700.7c4.3-6.9,11.1-9,17.4-12.2C172.3,684.7,173.2,705.5,155.8,700.7z" class="st4"/><path d="M673.9,697.5c-3,1.1-5.9,2.5-9,3.2c-2,0.5-4.2,0-6.3-0.1c0.2-1.7-0.2-4,0.7-4.9c1.7-1.6,4.3-3.5,6.4-3.3 c2.9,0.3,5.6,2.4,8.3,3.7C673.9,696.6,673.9,697.1,673.9,697.5z" class="st4"/><path d="M309.4,210.6c4.3,2.7,8.4,5,12.2,7.6c2.2,1.5,2,3.3-0.2,6.8C315.7,223.5,310.6,217.5,309.4,210.6z" class="st2"/><path d="M172.4,709.7c6.5-1.3,12.9-2.6,19.4-3.6c0.7-0.1,2.1,1.4,2.5,2.4c0.2,0.4-1.1,2.2-1.8,2.3 c-6.5,0.5-13.1,0.8-19.7,1.2C172.7,711.2,172.6,710.5,172.4,709.7z" class="st4"/><path d="M638.3,673c-4,2.9-7.7,5.7-11.4,8.3c-3.3,2.3-5,0.7-5.8-2.6C630.8,671.6,635.4,670.1,638.3,673z" class="st4"/><path d="M650.9,683.3c-2.3,3.4-5.1,8.8-7.7,11.3c-1,1-2.9-1.8-5.7-1.8C641.6,684,646.1,681,650.9,683.3z" class="st4"/><path d="M652.4,700.2c-1.3-2.4-6.8-2.6-5.6-3.5c1.7-3.1,5-7,7.2-9.6c0.5-0.5,2.8,0,3.8,0.7c0.5,0.4,0.5,2.5-0.1,3.4 C655.8,694,655.5,696.4,652.4,700.2z" class="st4"/><path d="M644.1,677c-3.4,4.3-5.9,7.5-8.5,10.5c-0.6,0.7-2.2,1.3-2.9,1c-1.3-0.5-2.5-1.6-3.2-2.8 c-0.3-0.4,0.7-2.1,1.4-2.6c2.7-1.8,5.5-3.6,8.4-5.1C640.4,677.3,642,677.4,644.1,677z" class="st4"/><path d="M468.9,99.5c-4.3,1-7.6,0.4-9.5-3.2c-0.9-1.7-0.8-3.9-0.5-6.2C463.4,92.4,469.1,92.8,468.9,99.5z" class="st3"/><path d="M149.1,719.5c5.9-3.3,11-6.1,16.8-9.4C164.5,717.3,154.7,723,149.1,719.5z" class="st4"/><path d="M634,666.4c-5.5,2.9-10.3,5.5-15.2,8c-0.5,0.3-1.6,0-2-0.5c-0.5-0.5-0.7-1.6-0.5-2.2 C617.3,668.7,629.9,664.6,634,666.4z" class="st4"/><path d="M630,660.1c-6.2,2.4-11.7,4.6-17.9,7c-6.2-4.6,4.9-6.4,8-7.5C627.2,658,628.5,654.2,630,660.1z" class="st4"/><path d="M177,688.4c3.9-1.4,7.8-2.9,11.3-4.2c1.7,3,2.8,4.8,3.9,6.7c-3.8-0.3-6.7-0.5-14.8-1.1 C177.2,689.3,177.1,688.9,177,688.4z" class="st4"/><path d="M215.3,709c-5.4-2.5-16.5-9.9-17.7-15.2c6.1,4.4,13.7,7.9,21.1,8.9C218.5,703.3,216.6,710.1,215.3,709z" class="st4"/><path d="M174.2,703.2c5.1-4.8,11.3-2.8,17.5-1c-5.7,1-11.4,2-17.1,3.1C174.4,704.5,174.3,703.8,174.2,703.2z" class="st4"/><path d="M191.8,715.2c-6.4,1.4-12.7,3-19.1,4.3c-1,0.2-2.2-0.6-3.4-0.9c0.9-0.9,1.8-2.4,2.8-2.5 c6.5-0.6,13.1-0.9,19.7-1.2C191.8,715,191.8,715.1,191.8,715.2z" class="st4"/><path d="M620.6,642.6c-4.8,1.6-9.6,3.1-14.8,4.8c-0.3-1-0.7-2.3-1.3-4.4c5.7-0.6,10.8-1.1,16-1.6 C620.6,641.9,620.6,642.3,620.6,642.6z" class="st4"/><path d="M602.6,555.5c1,1.2,2.5,2.1,2.9,3.5c4.7,15.6,5.8,31.2-0.5,46.6c-0.6,1.4-2.5,2.2-3.8,3.3 c-0.4-1.6-1.4-3.4-1-4.7c4.1-14.4,3.7-28.8,1-43.2c-0.3-1.4,0-2.9,0-4.4C601.6,556.2,602.1,555.8,602.6,555.5z" class="st1"/><path d="M562,538.1c-4.5-1.8-11.5-4.6-18.3-7.5c-0.6-0.3-0.7-1.8-1-2.7c1-0.1,2.2-0.6,3-0.3c13,6.3,25.5,5.5,37.9-1.7 c1-0.6,2.8,0.1,4.2,0.2c-0.6,1.4-0.7,3.2-1.8,4C579.8,535,572.7,537.5,562,538.1z" class="st1"/><path d="M453.1,491.3c0.7-0.9,1-1.1,1.1-1.4c0.4-1.9,0.8-3.9,1.1-5.8c1.4,1.8,3.2,3.4,4,5.4c2.2,5.1,4,10.4,5.9,15.6 c-0.4,0.5-0.7,0.9-1.1,1.4c-2.4-1.3-5.2-2.2-7-4c-6.7-6.7-13.1-13.6-19.4-20.7c-0.8-0.9-0.6-2.7-0.8-4.2c1.3,0.5,3,0.7,4,1.6 C445.1,483.1,449,487.2,453.1,491.3z" class="st1"/><path d="M390.9,485c-0.3-1.7-0.9-3.1-0.8-4.4c0.7-7.1-1.3-13.3-5.5-19c-0.7-1-0.6-2.5-0.9-3.8c1.2,0.3,2.7,0.2,3.7,0.8 c6.3,4.2,9.5,10.5,10.9,17.6C399.4,481.4,395.5,483.3,390.9,485z" class="st1"/><path d="M228.7,552.7c11.7,1.7,22.9,4.8,30.1,15.2c1.5,2.1,1.2,6.8-0.1,9.2c-5.6,10-15.1,15.5-25.2,20 c-0.9,0.4-2.3-0.1-3.8-1.3c3.8-3,7.8-5.9,11.5-9.1c2.7-2.4,5.4-5,7.5-7.9c3.7-5.1,3.5-9.2-1.6-13.1c-4.7-3.5-10.3-5.8-15.5-8.7 c-1.4-0.8-2.6-1.7-3.9-2.5C228,553.8,228.4,553.2,228.7,552.7z" class="st1"/><path d="M238.5,605c0,2.3,0.7,4.8-0.1,6.8c-1.7,4-4,7.9-6.4,11.6c-4.9,7.8-10,15.5-15.2,23.2c-0.7,1.1-2.4,1.6-3.6,2.4 c-0.2-1.3-0.7-2.6-0.4-3.8c2.2-10.1,7.4-18.6,13.9-26.6c3.6-4.4,6.7-9.3,10-14C237.3,604.8,237.9,604.9,238.5,605z" class="st1"/><path d="M513.1,203.6c-1,0.3-2.1,1.1-2.9,0.9c-4.7-1.6-9.4-3.2-13.9-5.2c-0.9-0.4-1.8-2.9-1.4-3.8 c0.5-1.1,2.9-2.5,3.7-2.1c5.1,2.6,10.1,5.7,15.1,8.6C513.5,202.5,513.3,203.1,513.1,203.6z" class="st1"/><path d="M307.2,232.2c-1.8,0.2-3.3,0.8-4.7,0.6c-4.4-0.8-8.7-1.9-12.9-3.1c-0.9-0.3-1.9-1.2-2.3-2.1 c-0.2-0.4,0.7-1.7,1.5-2.1C293,223.2,304.4,227.1,307.2,232.2z" class="st1"/><path d="M388,143.2c1.5,1,3,1.9,4.4,2.8c-1.5,1-3,2.2-4.6,2.9c-3.3,1.3-6.8,2.6-10.3,3.3c-1.5,0.3-3.3-0.8-5-1.2 c0.9-1.3,1.6-3.2,2.8-3.7C379.2,145.8,383.4,144.7,388,143.2z" class="st1"/><path d="M403.9,42.5c-1.8,4.6-17.9,15.9-21.5,15.1C385.8,49.9,397.8,41.5,403.9,42.5z" class="st1"/></g><g id="Wrestling_Club_Text_00000068660911175547270400000014939646156526638468_"><path id="W_00000043430170302227539720000016905006539177234094_" d="M85.1,309.6c1.5,0,2.2,0,3.7,0.1 c4.3,31.9,8.6,63.7,12.8,95.6c-0.7,0.1-1.1,0.2-1.8,0.3c0.7,12.7,1.5,25.4,2.2,38.2c8-2.1,12-3.1,20-5.2 c-0.7-12.2-1.4-24.4-2.1-36.6c-0.7,0.1-1.1,0.2-1.9,0.3c0.7-12.7,1.4-25.3,2.1-38c1.6,12.2,3.3,24.5,4.9,36.7 c-0.7,0.1-1,0.2-1.7,0.3c0.6,12.1,1.3,24.2,1.9,36.4c8.7-2.1,13.1-3.1,21.8-5.1c-0.6-11.6-1.3-23.3-1.9-34.9 c-0.9,0.1-1.3,0.2-2.2,0.4c1.3-28.6,2.6-57.1,3.9-85.7c1.1,0,1.7,0.1,2.8,0.1c-0.6-11.3-1.3-22.5-1.9-33.8 c-7.1-0.8-10.7-1.2-17.8-2c0.7,11.7,1.3,23.4,2,35.1c0.8,0,1.2,0,2,0.1c-0.6,16.7-1.3,33.3-1.9,50c-2.6-16.8-5.2-33.6-7.7-50.4 c0.7,0,1.1,0,1.8,0.1c-0.7-11.9-1.3-23.7-2-35.6c-7.5-0.9-11.2-1.4-18.7-2.3c0.8,12.4,1.5,24.7,2.3,37.1c0.8,0.1,1.2,0.1,2,0.1 c-0.7,17.5-1.3,35.1-2,52.6c-2.5-17.7-5.1-35.4-7.6-53c0.9,0,1.4,0,2.3,0.1c-0.7-12.5-1.4-25-2.2-37.5c-7-1-10.5-1.5-17.5-2.5 C83.6,283.5,84.3,296.6,85.1,309.6z" class="st5"/><path id="R_00000134932511643902395890000008358939774988066742_" d="M196.5,390c-0.6-10.5-1.1-21-1.7-31.5 c-1.6-3.7-2.4-5.5-4-9.2c1.2-3.2,1.8-4.8,3.1-8c-0.7-12.2-1.3-24.4-2-36.6c-3.6-9.1-5.4-13.6-9.1-22.7c-10.9-1-16.4-1.5-27.3-2.5 c0.6,11.1,1.2,22.2,1.8,33.3c1,0,1.5,0,2.5,0.1c1.5,27.3,3,54.6,4.5,81.9c-1.1,0.2-1.7,0.3-2.8,0.4c0.6,11.2,1.2,22.5,1.9,33.7 c7.2-1.6,10.9-2.3,18.1-3.9c-0.6-10.9-1.2-21.7-1.8-32.6c-1.2,0.2-1.8,0.3-3.1,0.5c-0.6-10.5-0.9-15.8-1.4-26.3 c2.2-0.1,3.3-0.2,5.4-0.3c0.8,1.5,1.1,2.3,1.9,3.8c1,18.1,2,36.1,2.9,54.2c6-1.2,9.1-1.8,15.1-3c-0.5-10.5-1.1-21-1.6-31.5 C198.1,389.8,197.5,389.9,196.5,390z M180.7,330.2c-0.7,1.8-1,2.6-1.7,4.4c-2.2,0.1-3.4,0.2-5.6,0.3c-0.5-8.7-0.7-13-1.2-21.7 c2,0.1,3,0.1,5.1,0.2c1.1,1.8,1.7,2.7,2.8,4.5C180.3,322.8,180.5,325.3,180.7,330.2z" class="st5"/><path id="E_00000171721651988722637080000011829752638189030800_" d="M203.6,313.9c1.2,0,1.9,0,3.1,0.1 c1.3,24.7,2.6,49.4,3.9,74.1c-1.2,0.2-1.8,0.2-3,0.4c0.5,10.4,1.1,20.7,1.6,31.1c11.5-2,23-3.9,34.5-5.8 c-0.6-11.6-1.2-23.2-1.8-34.7c-4.5,0.4-6.8,0.7-11.3,1.1c0.1,2.2,0.2,3.3,0.3,5.4c-3.2,0.4-4.8,0.6-8,1c-0.4-8.8-0.6-13.1-1-21.9 c1.1-0.1,1.6-0.1,2.7-0.2c0.2,2.7,0.2,4,0.4,6.7c4-0.4,5.9-0.6,9.9-0.9c-0.7-13.4-1.3-26.9-2-40.3c-4.1,0-6.2,0-10.3,0 c0.1,2.8,0.2,4.2,0.4,7c-1,0.1-1.5,0.1-2.5,0.1c-0.5-9.1-0.7-13.7-1.2-22.9c3.3,0,5,0.1,8.3,0.1c0.1,2.5,0.2,3.8,0.3,6.3 c4.4-0.1,6.7-0.2,11.1-0.3c-0.6-11.7-1.2-23.3-1.8-35c-11.7-0.7-23.4-1.4-35.1-2.1C202.5,293.6,203.1,303.7,203.6,313.9z" class="st5"/><path id="S_00000043441028037528934380000005351327995351593129_" d="M253.9,286.2c8.5,0.3,12.8,0.4,21.4,0.7 c3.7,7.4,5.5,11.2,9.1,18.6c0.5,9.6,0.7,14.4,1.2,23.9c-5.7,0.3-8.6,0.4-14.3,0.7c-0.2-4.5-0.3-6.8-0.6-11.3 c-0.9-1.7-1.3-2.5-2.1-4.2c-2.1,0-3.2,0-5.4,0c-0.7,1.6-1.1,2.4-1.8,4c0.2,4.8,0.4,7.2,0.6,11.9c0.9,1.8,1.3,2.6,2.2,4.4 c5.3-0.3,7.9-0.4,13.2-0.7c3.7,7.2,5.5,10.8,9.2,18.1c0.6,12.1,1.2,24.1,1.8,36.2c-3,7.8-4.5,11.7-7.4,19.6 c-8.3,1.2-12.5,1.7-20.8,2.9c-3.7-7.4-5.5-11.2-9.3-18.6c-0.5-9.4-0.7-14.1-1.2-23.6c5.7-0.5,8.5-0.8,14.1-1.3 c0.2,4.1,0.3,6.2,0.5,10.3c0.9,1.5,1.3,2.2,2.2,3.7c2.1-0.2,3.2-0.3,5.3-0.6c0.7-1.6,1-2.4,1.7-3.9c-0.2-4.8-0.4-7.2-0.6-11.9 c-0.9-1.7-1.3-2.5-2.1-4.2c-5.7,0.3-8.6,0.5-14.3,0.8c-3.3-7.2-4.9-10.8-8.2-18.1c-0.6-12.4-1.3-24.7-1.9-37.1 C249.5,298.4,251,294.3,253.9,286.2z" class="st5"/><path id="T_00000025427943517171115600000008735107388123542414_" d="M292.9,287.3c0.6,11.4,1.1,22.8,1.7,34.2 c4.5-0.2,6.7-0.3,11.2-0.5c-0.1-2.6-0.2-3.9-0.3-6.4c1.1,0,1.7,0,2.8,0c1,20.9,2.1,41.9,3.1,62.8c-1.4,0.1-2.1,0.2-3.6,0.3 c0.5,10.8,0.8,16.2,1.3,27.1c8.2-0.9,12.3-1.3,20.5-2.2c-0.5-10.6-0.8-15.9-1.3-26.5c-1.2,0.1-1.8,0.1-3,0.2c-1-20.6-2-41.3-3-61.9 c1,0,1.4,0,2.4,0c0.1,2.5,0.2,3.8,0.3,6.3c4.8-0.2,7.1-0.2,11.9-0.4c-0.5-10.9-1-21.8-1.6-32.7C321.2,287.4,307,287.3,292.9,287.3z" class="st5"/><path id="L_00000000944267202995452980000011768045419752993967_" d="M343.7,287.4c0.5,10.6,0.8,15.9,1.3,26.5 c1.2,0,1.8,0,2.9-0.1c1,20.2,1.9,40.3,2.9,60.5c-1.2,0.1-1.8,0.1-2.9,0.2c0.5,10.5,0.7,15.7,1.2,26.2c12.6-1,25.1-2,37.7-2.9 c-0.5-10.8-1-21.5-1.5-32.3c-4.9,0.3-7.4,0.5-12.3,0.9c0.1,2.6,0.2,3.9,0.3,6.4c-3.3,0.2-5,0.2-8.3,0.4 c-0.9-19.9-1.9-39.8-2.8-59.7c1.1,0,1.7,0,2.8-0.1c-0.5-10.5-0.7-15.8-1.2-26.3C355.8,287.2,351.8,287.3,343.7,287.4z" class="st5"/><path id="I_00000182505826748904186650000003983175631336255622_" d="M390,286.4c8.4-0.3,12.6-0.5,21-0.8 c0.5,10.5,0.7,15.8,1.2,26.3c-1.6,0.1-2.3,0.1-3.9,0.2c0.9,19.7,1.8,39.3,2.7,59c1.6-0.1,2.3-0.1,3.9-0.2 c0.5,10.2,0.7,15.3,1.1,25.5c-8.3,0.4-12.5,0.7-20.8,1.1c-0.5-10.2-0.7-15.3-1.2-25.6c1.3-0.1,1.9-0.1,3.1-0.2 c-0.9-19.7-1.8-39.4-2.7-59.1c-1.3,0-1.9,0.1-3.2,0.1C390.7,302.1,390.4,296.9,390,286.4z" class="st5"/><path id="N_00000053533482226783265770000014762752986015487116_" d="M420.2,285.2c0.5,10.5,0.7,15.7,1.2,26.2 c1.1-0.1,1.6-0.1,2.7-0.1c0.9,19.6,1.7,39.2,2.6,58.9c-1.1,0.1-1.6,0.1-2.7,0.1c0.5,10.2,0.7,15.3,1.1,25.5c8-0.2,12-0.3,19.9-0.5 c-0.4-10.3-0.7-15.5-1.1-25.9c-1.2,0.1-1.8,0.1-2.9,0.1c-0.4-8.9-0.6-13.4-1-22.3c5.1,16,10.1,32,15.2,48 c6.8-0.3,10.2-0.5,17.1-0.8c-0.4-10.1-0.6-15.2-1.1-25.3c-1.2,0-1.8,0-3,0.1c-0.8-20-1.7-39.9-2.6-59.9c1.2-0.1,1.8-0.1,3.1-0.2 c-0.5-10.8-0.7-16.1-1.2-26.9c-8,0.5-12,0.8-20,1.4c0.5,10.7,0.7,16,1.2,26.6c1.1-0.1,1.6-0.1,2.7-0.1c0.4,9.8,0.6,14.8,1.1,24.6 c-5.3-16.8-10.7-33.6-16-50.4C430,284.6,426.7,284.8,420.2,285.2z" class="st5"/><path id="G_00000074428762213300602200000006008684355944376977_" d="M485,280.8c8.6-0.8,12.9-1.1,21.4-1.9 c3.5,7.1,5.2,10.6,8.6,17.6c0.4,10.9,0.7,16.4,1.1,27.3c-5.3,0.1-8,0.1-13.3,0.2c-0.2-5.5-0.3-8.2-0.6-13.7c-0.8-1.3-1.2-2-2-3.3 c-2.6,0.2-4,0.3-6.6,0.5c-0.7,1.3-1.1,1.9-1.8,3.2c0.8,18.4,1.5,36.8,2.3,55.1c0.8,1.2,1.1,1.7,1.9,2.9c2.7,0,4,0,6.7-0.1 c0.7-1.3,1.1-1.9,1.8-3.2c-0.2-4.9-0.3-7.4-0.5-12.4c-1.5,0-2.3,0-3.8,0.1c-0.4-8.5-0.5-12.8-0.9-21.3c6.8-0.2,10.2-0.3,17-0.6 c0.6,15.2,1.2,30.5,1.9,45.7c-2.9,7.2-4.4,10.8-7.3,18c-8.5-0.1-12.7-0.1-21.2-0.2c-3.5-7.1-5.3-10.7-8.8-17.9 c-1.1-25.7-2.2-51.4-3.3-77.1C480.6,292.2,482,288.4,485,280.8z" class="st5"/><path id="C_00000002367348737969835140000016607197847301261736_" d="M555.3,273.8c-3.1,8.4-4.6,12.6-7.7,21 c1.1,27.5,2.2,55,3.2,82.5c3.5,7.7,5.2,11.6,8.7,19.3c8,0.4,12,0.6,20,1.1c3-7.3,4.5-11,7.5-18.3c-0.4-9.4-0.7-18.8-1.1-28.3 c-5.1,0.1-7.7,0.1-12.8,0.2c0.2,5.7,0.3,8.5,0.5,14.2c-0.9,1.4-1.3,2.1-2.2,3.5c-2.2,0-3.3-0.1-5.6-0.1c-0.9-1.5-1.3-2.3-2.2-3.8 c-0.8-19.8-1.5-39.6-2.3-59.5c0.5-1.4,0.8-2.1,1.3-3.6c2.6-0.2,3.8-0.4,6.4-0.6c0.9,1.2,1.3,1.9,2.2,3.1c0.3,6.9,0.4,10.3,0.7,17.2 c5.1-0.2,7.7-0.2,12.8-0.4c-0.4-9.8-0.7-19.6-1.1-29.5c-3.5-8.2-5.2-12.3-8.7-20.5C567.1,272.3,563.1,272.8,555.3,273.8z" class="st5"/><path id="L_00000078036074210042978150000013948073627442740152_" d="M591.7,269.1c0.4,10,0.8,19.9,1.1,29.9 c1-0.1,1.5-0.2,2.5-0.3c0.9,23.6,1.8,47.2,2.6,70.8c-1,0-1.5,0-2.5-0.1c0.4,9.7,0.7,19.4,1.1,29.1c11.3,0.9,22.6,1.9,34,2.8 c-0.5-13.2-0.9-26.5-1.4-39.7c-4.3-0.2-6.5-0.3-10.8-0.5c0.1,3.6,0.2,5.5,0.3,9.1c-3.1-0.1-4.6-0.2-7.7-0.3 c-0.9-24.2-1.8-48.4-2.7-72.7c1.2-0.1,1.8-0.2,3-0.3c-0.4-10.2-0.8-20.3-1.1-30.5C602.7,267.6,599.1,268.1,591.7,269.1z" class="st5"/><path id="U_00000179640284007506809890000010725983183671443377_" d="M632,263.2c0.4,10.4,0.8,20.8,1.1,31.2 c1-0.1,1.5-0.2,2.5-0.3c1,29,2.1,58,3.1,87c3.1,8.8,4.7,13.2,7.8,21.9c7.4,0.8,11.1,1.3,18.4,2.1c2.7-8.7,4-13,6.7-21.6 c-1.1-31.3-2.1-62.5-3.2-93.8c0.9-0.1,1.3-0.2,2.1-0.3c-0.4-10.9-0.8-21.7-1.1-32.6c-6.7,1.2-10.1,1.8-16.8,3 c0.3,10.7,0.7,21.3,1,32c1.1-0.1,1.6-0.2,2.7-0.4c0.9,25.1,1.8,50.3,2.7,75.4c-0.7,2.1-1,3.1-1.7,5.2c-1.9-0.1-2.9-0.2-4.8-0.3 c-1.1-1.9-1.6-2.8-2.7-4.7c-0.8-24.8-1.7-49.7-2.5-74.5c1.1-0.1,1.6-0.2,2.7-0.4c-0.4-10.6-0.7-21.2-1.1-31.8 C642.2,261.6,638.8,262.1,632,263.2z" class="st5"/><path id="B_00000176749006258445396110000006993929128217696403_" d="M708,276.3c-2.8-10.3-4.1-15.4-6.9-25.7 c-9.6,1.9-14.5,2.9-24.1,4.8c0.4,10.9,0.8,21.9,1.1,32.8c0.8-0.1,1.3-0.2,2.1-0.3c1,28.6,1.9,57.1,2.9,85.7 c-0.8-0.1-1.3-0.1-2.1-0.1c0.4,11.3,0.8,22.6,1.1,33.9c10,1.6,15,2.3,25,3.9c1.8-8.8,2.7-13.2,4.5-22.1c-0.6-17.7-1.1-35.3-1.7-53 c-1.1-3.5-1.6-5.2-2.7-8.7c0.8-3.8,1.2-5.8,2.1-9.6C708.9,304.1,708.5,290.2,708,276.3z M700.5,371.2c-0.9,1.4-1.3,2.1-2.2,3.6 c-1.8-0.1-2.7-0.2-4.5-0.3c-0.4-11.1-0.6-16.7-0.9-27.8c1.9-0.1,2.9-0.1,4.8-0.1c0.8,1.7,1.3,2.6,2.1,4.3 C700.1,358.9,700.2,363,700.5,371.2z M698.4,307.3c-0.7,1.4-1,2.1-1.7,3.5c-2,0-3,0.1-5,0.1c-0.3-9.9-0.5-14.8-0.8-24.8 c2.1-0.4,3.1-0.5,5.2-0.9c0.7,1.7,1,2.5,1.7,4.2C698,296.7,698.1,300.2,698.4,307.3z" class="st5"/></g><path d="M589.2,244.1c-0.2-12.9,9.9-25.9,20.5-24c3.8,0.7,8.1,2.6,10.8,5.3c7.5,7.7,14.4,15.9,21.3,24.2	c3.1,3.8,3,9.2,0.5,12.5c-3.7,4.9-7.9,6.2-13.4,4.3c-7-2.4-12-7.2-15.6-13.5c-2.3-4-4.8-7.8-7-11.8c-1.8-3.2-3.5-3.6-6.7-1.4	C596.7,241.5,593.2,242.4,589.2,244.1z" class="st6"/><path d="M236.7,254.3c-1.1,3.3-1.4,6.8-3.2,9.3c-6,8.3-12.7,16.1-22.4,20.3c-6.7,2.9-11.9,1.6-16.1-3.9	c-2.5-3.3-2.4-6.7-0.2-10.1c5.3-8.2,10.5-16.5,16-24.6c2.5-3.7,3.7-9.5,9.3-9.3c6.2,0.2,10.4,4.8,13.6,9.7	C235.1,248.2,235.6,251.3,236.7,254.3z" class="st6"/><path d="M134.8,256.9c-4.3-1-9-1.1-12.9-3c-5.8-2.8-11.1-6.9-16.6-10.4c-1.8-1.2-3.5-2.8-5.4-3.4	c-1.7-0.5-3.7,0.2-5.6,0.3c1,1.6,1.7,3.6,3.1,4.7c5.4,4.3,11.4,7.8,16.4,12.5c8.6,8,5.9,19.1-5.3,23c-1.7,0.6-4.5,0-6.1-1.1	c-10.5-7.2-20.7-14.6-31-22c-0.7-0.5-1.4-0.9-2.1-1.3c-8.7-5.1-9.6-6.5-7.2-12.7c4.4-11.3,11.7-17.7,19.4-15	c9.1,3.2,17.8,7.7,26.4,12.1c8.6,4.4,17,9.3,25.5,14.1c0.7,0.4,1.2,0.9,1.8,1.4C135.1,256.3,135,256.6,134.8,256.9z" class="st6"/><path d="M722.2,361.9c11,0.3,20.3,4.9,28.3,12.2c3.2,2.9,3.1,5.5,0,8.8c-10.9,11.7-15.9,13.1-31.7,5.1	c-2.2-1.1-4.3-2.2-6.5-3.4c-8.4-4.4-9.4-10.3-3.4-17.9C712.3,362.3,716.9,361.5,722.2,361.9z" class="st6"/><path d="M743,349c-11.4-1.3-21.7-5.3-30.4-13.2c-3.6-3.3-4.5-7-2.4-11.6c2.1-4.7,6.4-6.8,10.4-5.8	c11,2.7,21.9,6,32.4,10.2c7.3,2.9,7.8,9.6,2.3,15.2C752,347.3,748.1,349.6,743,349z" class="st6"/><path d="M705,281.3c0.3-3,1.6-6.6,5.6-8.6c8.2-4,15.2-9.6,22.6-15c12.5-9.1,27.6-6,32.2,9.3c1,3.1-0.1,5.1-2.5,7.7	c-6,6.6-14.8,7-21.9,10.8c-6.6,3.6-13.6,6.9-20.7,9.1C711.4,297.6,704.9,292,705,281.3z" class="st6"/><path d="M84.1,392.9c9.6,0,15.5,3.2,17.8,10.3c0.5,1.6,0.1,4.6-1,5.6c-8.1,7.2-17.8,11.9-28.2,15	c-5.6,1.7-10.6-0.5-14.7-4.5c-0.8-0.8-1.6-1.7-2.5-2.5c-7.5-7.5-7.6-8.1,0.6-14.3C64.4,396.4,73.6,392.5,84.1,392.9z" class="st6"/><path d="M62.1,379.9c-9.3,0-15.5-4-17.5-10.1c-1.1-3.5-0.7-7,2.6-8.7c11.8-6.1,23.9-11.5,37.4-12	c2.9-0.1,6.9,2.1,8.6,4.5c4.6,6.3,3.9,10.3-2.8,15.1C81.5,375.3,70.9,378,62.1,379.9z" class="st6"/><path d="M87.4,328.2c-6.2-2.8-12.4-5.6-18.7-8.2c-6.5-2.8-13.1-5.4-19.6-8.3c-3-1.4-6.1-2.9-8.3-5.2	c-6-6.2-1.5-18.3,8.2-21.3c8.7-2.7,16.6-0.3,23.9,5.1c5.8,4.3,11.9,8.1,17.9,12.1c1.5,1,3.2,1.7,4.7,2.8c4.8,3.6,6.9,9.1,5.4,13.8	c-1.8,5.3-6.2,8.1-12.9,8.1C87.8,327.4,87.6,327.8,87.4,328.2z" class="st6"/></svg>