<?xml version="1.0" encoding="utf-8"?>
<!-- Generator: Adobe Illustrator 26.0.1, SVG Export Plug-In . SVG Version: 6.00 Build 0)  -->
<svg version="1.1" id="BD-Logo" xmlns="http://www.w3.org/2000/svg" xmlns:xlink="http://www.w3.org/1999/xlink" x="0px" y="0px"
	 viewBox="0 0 1200 1200" style="enable-background:new 0 0 1200 1200;" xml:space="preserve">
<style type="text/css">
	.st0{fill:none;}
	.st1{fill:#999999;}
	.st2{fill:#FDFDFD;}
	.st3{fill:#333333;}
	.st4{fill:#191919;}
	.st5{stroke:#000000;stroke-width:5;stroke-miterlimit:10;}
	.st6{fill:#8E8E8E;stroke:#221F1F;stroke-width:7;stroke-miterlimit:10;}
	.st7{fill:none;stroke:#000000;stroke-width:7;stroke-miterlimit:10;}
	.st8{stroke:#000000;stroke-miterlimit:10;}
	.st9{fill:#FFFFFF;stroke:#000000;stroke-miterlimit:10;}
	.st10{fill:#3A3A3A;}
	.st11{fill:#AFAFAF;stroke:#231F20;stroke-miterlimit:10;}
</style>
<g id="Bulldogs_Wrestling_Club_Logo">
	<rect id="Background" class="st0" width="1200" height="1200"/>
	<g id="BD-Body">
		<path id="Sillowette" d="M1028.7,1043.5c-2.6-2.8-3.1-6.4-3.1-10.2c-0.1-9.8-2.5-19.1-6.3-28c-4.5-10.4-10.5-19.6-19.9-26.4
			c-7.6-5.5-10.5-14.4-13.4-23c-2-6.2-3.5-12.6-6.8-18.3c-11.2-19.7-27.5-34.3-47.3-45c-10.2-5.5-20.7-10.4-31.2-15.4
			c-4.9-2.3-8.5-5.5-10.8-10.6c-8.4-18-20.8-32.8-36.7-44.7c-5.4-4-11.1-7.5-16.9-11.2c3.7-3.4,8-3.6,12.4-3.6
			c7.2-0.1,14.5,1.1,21.7,0.2c12.1-1.4,17.8-12.6,11.6-23.1c-1.8-3.1-3.9-5.9-6.4-8.3c-17.2-16.6-37.6-24-61.5-20.9
			c-15,2-26.5,9.5-33.8,23c-2.6,4.8-2.5,4.8-7.3,2.6c-44-20.5-88.1-40.7-130.8-63.7c-1.1-0.6-2.1-1.3-2.8-2.3
			c-15.1-19.2-32.5-35.9-52.4-50c-40.9-29-85.9-42.5-136.2-34.4c-17.2,2.8-33.6,8-47.8,18.6c-0.9,0.7-1.7,0.6-2.6,0.4
			c-6.3-0.9-12.4,0.2-18.3,2.3c-14.1,5.1-24.5,14.3-31.5,27.6c-0.5,0.9-0.6,2.1-2.3,1.8c-6.2-0.8-12.4-0.7-18.6-0.4
			c-1.8,0.1-3.1-0.3-4.5-1.6c-12.4-11.6-27.1-15.3-43.6-12.9c-11.7,1.7-22.5,6.2-32.9,11.6c-8.3,4.3-16.1,9.4-22.2,16.7
			c-2.9,3.5-5.3,7.2-5.6,11.9c-0.6,8,4.9,13.8,14.2,15.4c3.9,0.7,7.9,0.5,12.2,0.8c-0.6,1.1-1.1,1.9-1.6,2.7
			c-3.7,6.5-6.9,13.3-7.9,20.7c-0.6,4.3-2.3,6.1-6.3,7.6c-11.9,4.4-20.1,12.5-23,25.2c-1.4,5.9-1.2,11.9-0.1,17.9
			c0.4,2.2-0.2,3.2-2.4,4.2c-13.1,5.9-19.7,17.8-17.5,32c0.6,4.1,0.9,7.8-0.9,11.6c-0.6,1.3-0.8,2.8-1,4.2
			c-1.1,8.1,1.8,14.8,6.9,20.8c2.6,3.1,2.6,3.1-0.6,5.7c-1.7,1.5-3.5,3-5.1,4.6c-13.6,13.8-14.8,34.8-2.6,49.3c1.9,2.3,2,3.7,0.4,6
			c-1.4,1.9-2.4,4.1-3.4,6.3c-12.6,28.3-14.6,57.5-7.2,87.4c2.8,11.4,8.1,21.8,18.7,28.3c1.4,0.8,0.6,1.7,0.4,2.7
			c-2.6,13.3-1.6,26.4,2.8,39.2c3.3,9.3,9.5,15.2,19.3,17.4c9.5,2.2,19.1,2.1,28.8,1.7c7.1-0.3,13.9-1.6,20.5-4.5
			c2.8-1.2,4.8-4.9,7.5-4.6c2.8,0.3,5.4,2.9,8.2,4c16.4,6.6,33.4,7.3,50.7,4.8c8.7-1.3,16.7-4.9,24.6-8.2c9-3.8,14.4-11.1,14.6-21.3
			c0.2-6.7-2.4-12.6-6-18c-11.2-17.3-26.5-29.8-45.7-37.3c-8.5-3.3-17.3-6.6-26.6-2c-0.3-4.7,0.1-9.1,1.8-13.3
			c1.7-4.2,4.7-6.4,9.2-6.6c5.3-0.3,10.3,0.7,15.3,2.3c14.5,4.5,28.4,10.7,42.9,15.5c17.5,5.8,35.3,10.5,53.8,12.1
			c19.9,1.8,39.5-0.1,59-4c11.8-2.3,23.3-5.5,34.8-9.3c0.2,0.4,0.3,0.5,0.3,0.6c-0.1,1.5-0.4,3.1-0.5,4.6
			c-0.7,12.4,3.1,22.7,13.9,29.6c7,4.6,15,5.7,23.2,5.4c7.3-0.2,14.2-2.8,21.9-0.4c8.1,2.5,15.8-1.2,22.6-6c1-0.7,1.8-1.5,3.3-0.8
			c3.1,1.4,6.4,1.8,9.7,1.5c2-0.2,3,0.1,2.6,2.6c-0.3,1.7-0.1,3.5,0,5.3c1.4,17.9,14.3,31.1,30.3,30.1c1.6-0.1,1.9,0.9,2.4,1.9
			c3.8,7.7,9.9,12.3,18.2,14c5.4,1.1,10.9,1.1,16.4,0.7c17.8-1.4,35.5-3.2,53.3-3.9c10.7-0.4,21.3-0.5,32,0.8
			c6.8,0.8,13.2,3.3,20,4.2c8.7,1.1,17.4,1.3,25.8-1.4c17-5.4,22.2-20.7,20.5-35.4c-1.3-11.8-8-20.4-17.7-26.9
			c-1.3-0.9-2.2-1.4-1.7-3.3c6.3-22.6,6.2-45.4,2.4-68.4c-0.7-4.1-1.4-8.1-2.2-12.9c8.4,5.9,16.4,11,24.6,15.9
			c13.2,7.9,27.1,13.2,42.8,13c12.3-0.2,24.4-1.2,36.5-3.1c1.1-0.2,2.2-0.9,2.9,0.6c3.3,6.4,6.7,12.8,10.2,19.4
			c-6.3,1.2-12.1,2.5-17.7,4.8c-1,0.4-1.8-0.1-2.7-0.3c-11.3-2.4-22.6-4.1-34.2-2.6c-13,1.7-22.1,8.7-24.7,20.6
			c-3.9,18.2-0.1,35,10.7,50.1c6.7,9.3,15.9,14.7,27.7,13.5c5.4-0.6,10.1-0.1,15.4,1.5c13.8,4.2,27,1.4,39.3-6c1.6-1,2.5-1,3.8,0.4
			c2.2,2.2,4.8,3.9,7.6,5.3c10.4,5.1,21.3,5.7,32.5,3.7c17.5-3.1,32.9-10.2,45.2-23.4C1037.2,1071.1,1037.4,1053.1,1028.7,1043.5z
			 M657,1014.6c-1,0.3-1.8,0.1-2.5-0.8c-0.4-0.6-0.9-1.1-1.3-1.7c-3.8-5.3-3.7-5.9,1.8-9.2c8.1-4.9,15.7-10.4,22.3-17.2
			c0.3-0.3,0.8-0.6,1.4-1.1c1.2,10.4,0.8,20.7,2.8,31.1C673.3,1013.1,665.2,1012.3,657,1014.6z"/>
		<g id="Gray_Parts">
			<g id="Leg_and_Paw_Parts">
				<path id="Leg_and_Paw" class="st1" d="M287.8,1046.7c0.2-0.1,0.3-0.2,0.5-0.4c6-8.5,9.4-9.8,19.5-7.4
					c14.1,3.4,25.8,11.1,36.2,20.8c6.3,5.8,11.9,12.1,15.5,20c4.6,10.2,0.6,19.1-9.9,22.6c-1.4,0.5-2.2,0.2-3.1-1.1
					c-8.1-12.4-18-23.2-29.2-32.9c-3.8-3.2-7.7-6.3-12.1-8.7c-1.1-0.6-2.2-1.1-3.4-1.5c-1.1-0.4-2.3-0.9-3.1,0.3
					c-0.9,1.2,0.3,2.2,1,2.9c3.5,3.4,7,6.8,10.6,10.1c10.5,9.7,19.8,20.3,27.1,32.6c1.1,1.9,1.2,2.7-1.2,3.2
					c-16.6,3.4-33.1,3.5-49.4-1.8c-6.5-2.1-12-5.7-16.2-11.4c-3.8-5.3-7.7-10.5-12.4-15.1c-0.7-0.7-1.5-2-2.5-1.4
					c-1.2,0.6-0.4,2-0.1,3c2.1,6.5,5.1,12.7,8.1,18.8c1.3,2.6,0.6,4-1.7,5.2c-4.2,2.1-8.7,3.3-13.4,3.7c-10,1-20.1,1-30-0.9
					c-6.5-1.3-11-5-13.1-11.4c-4.5-14-5.7-28,0.2-41.9c3.6-8.4,10-13.3,19.5-13.5c1.7,0,3.4-0.3,5.4-0.4c-7.3-6-18.4-5.6-26,0.7
					c-2.2,1.8-4.1,3.8-5.5,6.3c-1,1.7-1.8,1.8-3.2,0.5c-5.9-4.9-9.5-11.4-11.4-18.5c-8.1-30.2-6.2-59.6,8-87.9
					c2-3.9,2.1-3.9,6.1-2.2c5.8,2.4,12,3.2,18.2,3.3c2,0,2.9,0.5,3.4,2.5c7.2,27.4,33.6,46.6,59,49c4.2,0.4,8.3,0.1,12.4-0.5
					c1-0.1,1.7-0.3,2.5,0.6c2.1,2.5,4.3,5,6.6,7.6c-2,0.8-4,1.3-5.8,2.2c-5.6,2.8-8.5,7.7-10.1,13.5c-2.5,9-1.5,17.8,1.5,26.5
					C286.6,1044.8,286.8,1045.9,287.8,1046.7z"/>
				<path id="Paw_Part" class="st1" d="M551.4,1057.6c-8.1,1.2-15.7,1.1-22.6-2.9c-9.3-5.3-11.7-15.6-9.7-25.7c0.3-1.3,1-1.4,2-1.2
					c7.4,1.1,14.8,1.8,22.2,1.9c1.5,0,1.9,0.7,1.8,2.1C544,1041,545.9,1049.5,551.4,1057.6z"/>
				<path id="Paw_Part_00000005254885933849666250000003107378698027715492_" class="st1" d="M892.4,1027.3
					c-18.7,14-23.9,45.5-11.3,64.4c-5.5,0.7-10.1-1.1-14-4.4c-5.6-4.7-9.1-10.9-11.4-17.8c-2.9-8.4-4.3-17-3.2-25.9
					c1.3-9.9,6-15.1,15.8-16.9C876.1,1025.2,884,1025.8,892.4,1027.3z"/>
				<path id="Paw_Part_00000147220389038550254280000011505495240346232962_" class="st1" d="M591.7,1038.3
					c0.2-12.7,0.2-12.5,11.7-15c12.1-2.7,23.8-6.9,35.1-12.1c2.1-0.9,3.3-1.2,4.1,1.4c0.3,1.1,0.8,2.2,1.6,3
					c2.6,2.7,2.2,4.7-0.7,7.1c-3.1,2.4-4.8,5.9-5.9,9.6c-0.4,1.4-1.1,1.9-2.5,2.1c-10.6,1.3-18.7,6.7-24.2,15.9
					c-0.7,1.2-1.5,1.8-2.8,2c-2.7,0.5-5.4,0.6-8,0.3c-4.5-0.6-7.4-4.3-8-10.1C591.7,1040.8,591.7,1039.1,591.7,1038.3z"/>
				<path id="Paw_Part_00000129177242370734486720000006181314005343418518_" class="st1" d="M554.3,1036.3c0-6.5,0-6.4,6.3-6.8
					c6.8-0.5,13.6-1.1,20.4-1.9c2.4-0.3,2.3,0.5,2,2.2c-0.9,5.9-1,11.7,0.5,17.6c0.1,0.5,0.3,1,0.4,1.5c1.7,5,1.7,5-3,7.4
					c-12.5,6.2-24.8-1.2-26.4-15.9C554.4,1038.9,554.3,1037.4,554.3,1036.3z"/>
			</g>
			<g id="Chest">
				<path id="Chest_Part" class="st1" d="M429.5,1031.7c-17,0.3-33.4-3-49.7-7.4c-18.3-5-35.6-12.8-53.6-18.6
					c-8.6-2.8-15.4-7.7-21.7-13.8c-2.1-2-1.5-2.8,0.9-3.7c8.2-3.3,16.9-4.6,25.7-5.8c1.7-0.2,3.6-0.2,5.2-0.7
					c9.4-2.6,17.9,1.4,26.5,3.9c13.6,3.8,27.3,6.8,41.2,9.1c1.5,0.3,2.3,0.8,2.8,2.3c2.8,7.8,6.3,15.3,10.9,22.3
					C420.8,1024.1,424,1028.9,429.5,1031.7z"/>
				<path id="Chest_Part_00000064354729281083990970000012564295147744032405_" class="st1" d="M433.6,1031.9
					c10.3-6.9,11.5-18.2,15-28.5c14.1,8.1,29.1,14.1,45.4,18.9C473.8,1028,454.1,1031.2,433.6,1031.9z"/>
			</g>
			<path id="Tail" class="st1" d="M857.2,798.2c-5.9-0.4-11.8-0.7-17.6,0.5c-4.4,0.9-8.2,2.8-11.1,6.2c-1,1.1-1.7,1.3-3.1,0.7
				c-12.3-5.9-24.7-11.7-37-17.4c-1.9-0.9-2.1-1.7-1.3-3.5c5.1-11.5,14.2-18,26.2-19.9c21.7-3.5,40.2,3.3,55.8,18.5
				c1.9,1.9,3.6,4,4.8,6.5c2.2,4.3,0.2,8-4.6,8.5c-2.1,0.2-4.1,0.3-6.2,0.3C861.1,798.4,859.2,798.3,857.2,798.2z"/>
			<path id="Body" class="st1" d="M1020.5,1048.3c-3.6-4-4.5-9.2-4.5-14.5c-0.1-11-3.4-21.2-8.5-30.8c-3.5-6.6-8.1-12-14.2-16.6
				c-8.9-6.7-13-16.7-16.4-26.9c-2.1-6.3-3.6-12.7-7-18.5c-9.4-15.9-22.5-28.1-38.3-37.4c-11.7-6.9-24.1-12.4-36.3-18.3
				c-5.8-2.8-10.7-6.7-13.4-12.8c-10.8-24.1-28.8-41.5-51.8-53.9c-20.6-11.1-42.1-20.3-63.3-30.2c-35.4-16.6-70.9-33-105.8-50.7
				c-2.4-1.2-4.8-2.5-7.3-3.7c-0.4,1,0,1.3,0.3,1.8c12.7,20.5,21.6,42.6,25.9,66.4c0.7,4,1.6,8,0.6,12.2c-1.6-0.7-1.8-2-2.2-3.1
				c-1.9-5-3.8-10-5.7-15.1c-16.6-45.6-42.3-84.9-80.5-115.5c-26-20.8-54.6-35.8-87.8-41.3c-22-3.7-43.7-3-65.3,2.8
				c-8.4,2.3-16.5,5.4-24.1,9.7c-0.6,0.3-3.2,0.7-0.8,2.3c5.4,3.7,10.8,7.3,16.3,10.9c5.1,3.3,10.6,4.8,16.8,4.2
				c5.6-0.6,11.2-0.6,16.7,0.3c8.8,1.5,13.4,8.1,11.8,16.8c-0.6,3.3-1.9,6.3-3.5,9.2c-0.4,0.8-1.8,1.6-1,2.6c1.1,1.3,2.1-0.1,3-0.5
				c6.7-3.4,13.3-7.2,20.7-9c6.6-1.6,9.5,1.2,8.2,7.8c-1.3,6.5-3.9,12.4-6.8,18.3c-0.9,1.8-0.8,2.8,0.7,4.2
				c17.6,16.3,32.4,34.9,44.9,55.3c0.8,1.4,1.7,1.7,3.3,1.6c4.4-0.4,8.9-0.8,13.3-0.8c5.5,0,11-0.3,16.3,1.5c3.3,1.1,4.2,4,2.4,6.9
				c-1.2,1.9-2.8,3.6-4.5,5.2c-4.1,3.8-8.4,7.4-13.1,10.5c-2.3,1.6-2.7,2.7-1.5,5.4c10.8,22.9,19,46.7,23.6,71.7
				c0.3,1.7,1,2.8,2.7,3.7c6.1,3.3,12.2,6.7,17.3,11.5c4.5,4.2,3.8,7.8-1.9,10.1c-4.7,1.9-9.7,2.9-14.7,3.7
				c-1.6,0.2-2.2,0.8-2.4,2.5c-3.1,23.3-14.2,42.3-31.9,57.6c-1.8,1.5-1.8,2.7-1.2,4.8c2.1,7.1,3.8,14.2,3.4,21.7
				c-0.3,5.8-3.2,7.9-8.9,6.4c-1.3-0.4-2.6-0.8-3.8-1.3c-6.8-2.8-13.2-6.5-19.3-10.6c-1.5-1-2.7-1.2-4.5-0.5
				c-9.6,4-19.5,6.9-29.6,9.1c-8.9,2-17.9,2.8-27.9,3.6c1.4,0.9,2,1.3,2.7,1.6c21.6,10.9,44.5,17.4,68.6,19.5
				c17.5,1.5,35,0.9,52.4-1.8c25.6-4,49.9-12,71.9-26c8-5.1,15.3-11,20.7-19c0.7-1.1,1.5-2.1,1.2-3.7c-1.1-5.9-2.7-11.6-5-17.2
				c-5.7-14.1-26.3-20.5-38-5.3c-0.9,1.1-1.9,2.2-2.7,3.4c-6.4,9.2-15.3,11.8-25.9,10.2c-7.4-1.1-12.6-5.4-16.5-11.5
				c-0.6-0.8-1.3-1.9-0.3-2.8c0.8-0.7,1.8,0,2.6,0.5c2.8,1.6,5.6,3.1,8.3,4.9c8.5,5.4,20.5,1.7,25.3-5.9c1.3-2.1,3-4,4.6-5.8
				c11.1-12.7,24.8-14,39.4-5.4c8.9,5.2,12.7,14.2,15.3,23.7c3.8,13.7,4.2,27.8,5.1,41.9c0.5,8.8,1.5,17.5,4.8,25.8
				c4.5,11.6,11.9,21.3,20.3,30.2c1.1,1.1,2.3,2.2,3.2,4.2c-1-0.4-1.5-0.6-1.9-0.8c-12.3-6.8-21.7-16.5-28.2-29
				c-0.6-1.1-1.1-2.1-2.3-2.8c-6.9-3.5-14-5.7-21.8-4.5c-6.5,0.9-12,3.6-15.6,9.5c-0.9,1.4-0.8,2,1,2.5c5.9,1.8,11.1,5,15.8,9.1
				c1.3,1.1,2.8,2.2,3,4.1c-1.1,0.6-2,0.2-3-0.1c-2.4-0.8-4.9-1.7-7.4-2.4c-8-2.4-16.1-3.4-24.2-1.2c-8.6,2.4-14.1,8.2-16.1,16.9
				c-2.1,9.3,0.1,17.7,6.9,24.6c2.6,2.7,5.9,4.1,9.6,4.8c1.8,0.3,2.9,0.1,2.7-2.3c-0.2-2.4,0.1-4.8,0.4-7.1
				c1.6-17.8,17.8-24.2,32.1-18.6c1.7,0.7,3.4,1.4,4.9,3.3c-2.4-0.2-4.2-0.5-6-0.6c-8-0.1-15.8,0.5-19.9,9c-4.6,9.5-2.9,18.6,2.8,27
				c2.2,3.2,5.7,4.7,9.5,5.4c5.6,1.1,11.1,0.7,16.7,0.3c18.5-1.5,36.9-3.4,55.5-3.8c14.1-0.3,28.1-0.1,41.9,3.9
				c7.6,2.2,15.4,2.8,23.4,1.7c9.9-1.4,16.6-6.8,18.7-15.7c2.8-12.1-0.9-22-10.7-29.7c-1.7-1.3-2.4-1.4-3.6,0.6
				c-4.1,6.6-9.4,12.1-15.7,16.6c-1,0.8-2.4,2.1-3.6,1.1c-1.3-1.1,0-2.5,0.7-3.6c1.2-2.2,2.6-4.2,3.9-6.3
				c7.8-12,12.3-25.3,14.2-39.4c3-22.2,0.7-44-4.7-65.6c-8.2-32.7-22.5-62.6-41.8-90.2c-1-1.5-2.2-2.9-2.3-5.1
				c1.7,0.3,2.8,1.2,3.8,2c5,4,8.9,8.9,12.7,14c14.9,19.6,25.3,41.5,33,64.7c0.5,1.6,1.1,3,2.5,4.1c9.7,7,19.6,14,30,20
				c7.9,4.6,15.8,9.2,24.8,11.1c9.9,2.1,20,1.7,30,1c8.6-0.6,17.1-1.8,25.5-3.4c2.4-0.5,3.8,0.2,5.1,2.6
				c5.4,10.7,11.1,21.3,16.7,31.9c2.3,4.3,2.2,4.4-2.7,4.4c-9.6,0.1-18.7,2.1-27.3,6.2c-18.1,8.7-24,25.1-22.2,42.9
				c0.9,8.5,4.3,15.8,12.5,19.4c12.5,5.5,24.5,3,35.9-3.5c1.4-0.8,1.1-1.7,0.5-2.9c-1.8-3.5-2.8-7.3-3.5-11.2
				c-3.4-18.2,4.1-31.6,21-37.4c3.6-1.3,7.3-2.2,11.2-2.1c0.7,0,1.6,0.1,1.8,0.9c0.2,0.9-0.7,1.2-1.3,1.4c-1.9,0.8-3.9,1.5-5.7,2.4
				c-10.4,5.1-17.3,12.9-18.2,25c-1.1,15.4,7.6,28.4,21.5,31.4c5.7,1.3,11.5,1.6,17.3,0.8c15.8-2.3,29.8-8.2,41.3-19.6
				C1026.2,1069.8,1027.9,1056.6,1020.5,1048.3z"/>
			<g id="Head">
				<path id="Chin" class="st1" d="M309.5,909.6c-17.5,2.3-35.5,2.1-51.8,10.9c-8.5,4.6-17.3,8.9-26.9,11.1
					c-8.1,1.8-16.1,2.2-24.3,0.4c-16.5-3.5-24-20.3-19.1-35.2c6.1-18.3,25.2-27,44-20.3c5.8,2.1,5.8,2.1,1.4,6.3
					c-8.8,8.6-12.7,17.1-14.1,31.2c1.8-2.2,2.6-4.6,3.8-6.8c3-5.8,6.1-11.6,10.1-16.7c5.7-7.4,13.3-11.2,22.7-11.6
					c11.2-0.4,21.7,2.4,32,6.6c14.4,5.9,28.8,12.1,43.7,16.7c15.9,5,32.2,6.5,48.7,2.3c3.8-1,7.3-2.8,11-4.6
					c0.4,8.7,1.2,17,3.1,25.1c2.8,12,7.3,23.3,14.6,33.3c1.9,2.6,1.1,3.2-1.4,4.2c-8.1,3.2-16.6,4.3-25.1,5.2
					c-17.1,1.9-34.2,3.2-51.3,5.1c-11.3,1.3-22.5,3.3-32.9,8.3c-10.5,5-21.2,3.8-31.7-0.3c-17.5-6.8-30-18.7-36.3-36.7
					c-0.8-2.5-0.6-3.4,2.2-3.8c4.4-0.7,8.7-2,12.7-4c2-1,3.2-0.6,4.9,0.8c9.3,7.4,19.7,12.1,32.7,11.5c-4.7-2.7-9.1-4.7-13-7.3
					c-4.2-2.8-8.1-5.7-11.8-9.1c-1.7-1.5-2-2.3,0.2-3.8c10.6-7.2,22.3-11.3,34.9-12.8c4.3-0.5,8.6-1.3,12.6-3.2
					C306.8,911.8,308.4,911.1,309.5,909.6C309.5,909.6,309.5,909.6,309.5,909.6z"/>
				<path id="Cheek" class="st1" d="M443.5,832.6c-2.9-7.9-8.2-13.6-12.9-19.9c2-0.5,3.2,0.8,4.4,1.5c20.4,12.3,39.9,25.7,55.1,44.4
					c9.1,11.2,15.6,23.6,17.2,38.2c2.5,22.2-5.9,38.3-25.7,48.6c-18.7,9.7-38.8,13.2-59.7,13.2c-2,0-2.7-1.2-3.6-2.4
					c-9-11.7-14.2-24.9-16.7-39.3c-2.1-12-1.8-24.1-0.4-36.2c1.9-17.6,1.2-35-4.8-51.8c-3.7-10.4-10-18.8-20.4-23.5
					c-10.9-4.8-22.3-2.5-30.3,6.3c-0.8,0.9-1.8,1.8-2.3,2.9c-5.2,10.5-14.3,13.2-25.2,12.6c-5.2-0.3-10.3-0.2-15.5,0.1
					c-8.4,0.5-14.8,4.1-19.5,11c-1.7,2.6-3.8,5-5.4,7.6c-7.3,11.9-21.9,9.7-29.1,0c-7.1-9.5-6.6-23.2,1.4-33.2
					c5.5-7,12.7-11.5,21.6-12.9c5.2-0.8,10.1,0.6,15,1.9c4.5,1.2,8.9,2.6,13.6,3.1c7,0.8,13.3-0.5,18.3-6.1
					c4.6-5.2,9.4-10.2,13.9-15.5c12.1-14.6,30.4-20.1,49.7-7c13.5,9.2,25,20.4,36.3,32c7.1,7.4,14.3,14.7,21.5,22
					C440.7,831.1,441.5,832.1,443.5,832.6z"/>
				<path id="Upper_Lip" class="st1" d="M215.2,844.4c-2,0.1-5.3-0.6-8.6-1.9c-6.4-2.4-9.8-6.8-9.6-13.8c0.2-8.1,3.6-14.3,10.5-18.6
					c1-0.6,1.6-1,2.3,0.5c5.4,11.5,15,17.7,26.8,21.2c1.5,0.4,2,3.7,0.5,5.2c-1,1.1-2.3,2.1-3.6,2.9
					C228.3,842.9,222.7,844.5,215.2,844.4z"/>
				<path id="Eye_Lid" class="st1" d="M330.9,747.8c5.3-5.7,10.1-10.8,16.7-13.8c5-2.2,10.1-2,15.1-0.3c3,1,4.7,3.6,5.9,6.5
					c2.9,7.2,2,14.2-1.4,21c-0.6,1.3-1.5,1.5-3,1.6c-3.6,0.2-6-0.6-7.9-4.3c-2.9-5.8-8.2-9.1-14.7-10.4
					C338.4,747.3,335,747.8,330.9,747.8z"/>
				<path id="Forehead" class="st1" d="M316.5,692.3c-6,5.1-10.5,10.3-13.8,16.5c-0.6,1.2-1.1,2.4-1.8,4.2c2.1-0.9,2.9-2.2,3.8-3.3
					c10.1-11.4,22.9-17.4,38-18.6c2.2-0.2,3,0.4,2.7,2.6c-0.1,1,0,2.1,0.2,3.1c0.5,2.2,1.2,4.4,1.9,6.8c1.5-2,1.6-4.2,2.3-6.2
					c5.2-17,16.2-28.9,32.3-36c11-4.9,21.6-3.2,31.5,3.5c4.4,3,8.7,6,13.2,8.8c6.3,4,13.3,5.4,20.8,4.8c4.8-0.4,9.7-0.7,14.6,0.2
					c4.4,0.8,5.6,2.7,4.3,7.1c-2.1,7.3-7.1,12.1-13.5,15.4c-10.5,5.3-21.3,6.1-32.4,2.1c-7.5-2.7-15.2-2.9-22.9-0.9
					c-1.3,0.3-2.6,0.7-3.5,2.3c2,0.9,4,0.7,6,0.8c6.6,0.1,12.1,3.2,17.7,6.1c0.9,0.5,1,1.1,1,2c-0.4,15.3,7.9,26.3,17.9,36.5
					c7.4,7.5,16.2,13.2,24.2,19.9c13.4,11.2,21.5,25.5,24.5,42.7c0.3,1.9,1,3.5,2.2,5c9,11.9,13.5,25.5,15.3,40.1
					c0.1,0.5,0,0.9-0.1,2c-6.8-9.5-14.3-17.6-22.6-24.9c-14.9-13.2-31.5-23.9-48.8-33.6c-5.7-3.2-11.3-6.6-17.4-9
					c-5-2-8.7-5.6-12.6-8.9c-4.5-3.9-9.1-7.5-14-10.8c-4.9-3.3-10.1-6.1-15.7-8.2c4.9-7,5.8-14.6,3.9-22.6
					c-2.8-11.8-10.6-16.3-23-15.3c-10.2,0.8-17.2,7.5-23.8,14.5c-8.6,9.1-15.2,19.9-23.5,29.3c-7.5,8.5-15.6,16.3-25.5,22
					c-3.3,1.9-6.9,0.8-10.3,1.6c-1.1,0.3-1.6-1.2-2.1-2c-6.8-10.6-7.5-24.1,3.8-35.7c5-5.1,10.7-9.5,15.1-15.2
					c2.9-3.8,5.7-7.8,6.7-12.7c-6.1,10.2-15.8,16.6-24.3,24.2c-3.6,3.3-7,6.8-9.5,11c-4.7,7.9-4.5,16.1-1.2,24.9
					c-14-4.4-27.6-5.2-41.3,1.1c-0.5-9.3,2.4-16.8,9.6-22.5c1.4-1.1,2.9-2,4.4-2.9c4.5-2.5,7.8-2,11.4,1.7c1.1,1.2,2.1,2.5,3.5,4.1
					c0.6-2.4,0.4-4.6,0.1-6.6c-1.8-17,4.3-31.3,15.5-43.7c11.9-13.2,27.5-20.3,44.3-25C308.9,693.5,312.2,692.3,316.5,692.3z"/>
				<path id="Ear" class="st1" d="M314.2,682.4c-6.9,1.7-13.2,3.2-19.3,5.4c-14.2,5.2-27.2,12.1-38,22.8c-0.7,0.7-1.3,1.3-2.3,1.5
					c-6.5,0.9-13,1.6-19.4,0.1c-5.6-1.3-6.8-4.5-3.6-9.4c2.9-4.6,7-8.2,11.5-11.1c12.2-8,25.3-14.1,39.9-16.3
					C293.9,673.7,304.3,675.5,314.2,682.4z"/>
			</g>
		</g>
		<g id="White_Parts">
			<g id="Spikes">
				<path id="Spike_00000041292950597516356200000002455401688892479400_" class="st2" d="M444.2,987.1c-0.5,10.9-2.8,21.3-7.2,31.3
					c-0.4,0.9-0.9,1.9-1.4,2.8c-3.1,5.2-4.7,5.4-8.5,0.5c-7.5-9.6-12.7-20.3-16-32c-1.6-5.6,0.1-9.7,5.1-12.7
					c6.9-4.2,14.4-5,22.1-2.7c3.7,1.1,5.6,3.7,5.6,7.6C443.8,983.6,444,985.4,444.2,987.1z"/>
				<path id="Spike_00000064318660959273555340000011029414718169988529_" class="st2" d="M547.3,989.6c0.2,3.6-0.2,4-3.5,2.4
					c-11.8-5.7-22.9-12.5-32.6-21.3c-4.1-3.7-4.5-6.8-1.6-11.5c3.3-5.4,8-9.5,13.8-12c5.5-2.4,7.5-1.9,11,3.1c3.7,5.2,6.1,11,8.1,17
					C544.9,974.6,546.9,981.9,547.3,989.6z"/>
				<path id="Spike_00000111175258037863882070000006061723647397937026_" class="st2" d="M597.4,895.7c-4.5,2-9.3,2.7-14.1,3.5
					c-12,1.9-24,3.4-36.1,2.9c-4.8-0.2-7.3-1.9-8.8-6.4c-2-6.1-1.7-12.3,0.6-18.2c1.8-4.8,3.8-5.8,8.9-5c7.2,1.1,14,3.6,20.6,6.5
					c9.2,4,18.2,8.5,26.4,14.4C595.7,894,596.8,894.5,597.4,895.7z"/>
				<path id="Spike" class="st2" d="M570.9,781.6c-2.8,3.2-5.6,5.5-8.5,7.7c-9.7,7.5-19.6,14.6-30.4,20.3c-5.7,3-8.8,2.3-13.2-2.4
					c-3.2-3.5-5.1-7.7-5.8-12.5c-0.4-2.9,0.5-5.1,3.5-6.5c7.7-3.5,16-4.8,24.3-5.8C550.6,781.2,560.4,780.8,570.9,781.6z"/>
				<path id="Spike_00000098943791795790263770000007251386862308892862_" class="st2" d="M497.4,694.3c-2.4,10.3-6.8,19-11.8,27.5
					c-3.2,5.5-6.7,10.7-11.3,15.1c-3.4,3.3-7.2,3.8-11.4,1.8c-5.4-2.5-9.3-6.4-11.8-11.8c-1.5-3.2-1-5.9,1.7-8.4
					c4.3-4,9.3-6.9,14.3-9.7c8.7-5,17.4-10,26.9-13.4C495,695,495.9,694.7,497.4,694.3z"/>
			</g>
			<g id="Teeth">
				<path id="Lower_Big_Teeth" class="st2" d="M392.6,837.6c3.4,14.2,3.6,27.9,2.6,41.9c-0.9,11.7-6.5,16.3-18,19.3
					c-12.7,3.3-25.5,2.3-38.1-0.8c-15.9-3.9-30.8-10.9-46-16.8c-7.4-2.9-14.8-5.7-22.7-7.1c-1-0.2-6.2-0.5-6.2-0.5
					c3.2-0.6,6.2-7.2,8.2-10.6c2.5-4.7,4.1-3.6,5.9-1.5c3,3.3,4.4,5.8,7.1,9c4.5,5.3,7.8,6.3,13.5-2.6c2.7-4.2,5.2-8.7,7.7-12.5
					c1.6-2.2,3.6-1.2,5.8,1c3.5,3.5,6.5,7.5,10.6,10.5c5.1,3.7,8,3.1,11.5-2.2c3.2-5,6.9-10.6,9.8-15.8c0.1-0.3,0.2-0.6,0.4-0.8
					c2.6-3.9,3.6-3.1,5.7-0.8c5.2,5.2,6.7,7.4,10.4,11.3c9.8,10.5,9.9,8.7,17.4-2c5.3-7.8,7.3-10.6,12.8-17
					C391.4,839,391.8,838.5,392.6,837.6z"/>
				<path id="Upper_Big_Teeth" class="st2" d="M316.2,833c3.7,0,7.5,0.2,11.2,0c8.2-0.6,14.4-4.6,18.8-11.5c2-3.2,4.2-6.1,7.2-8.4
					c10.2-7.6,22.2-3.1,29.4,4.9c3.3,3.7,5.2,8.1,7.2,12.6c0.5,1.2,0.4,2.1-0.5,3.1c-5.8,6.8-10.2,13.1-16.7,21.4
					c-2.1,3-2.9,5.4-5.3,3.7c-5.1-4.5-9.7-9.7-14.1-15.2c-5.1-5.9-8.3-4.8-11.4-0.7c-3,5.5-6.9,11.1-10.3,16.9
					c-2.9,5.7-2.9,5.6-7.9,1.7c-3.3-2.6-6.6-6.7-9.6-9.5c-6.2-5.9-7.3-4.9-11.1,0.1c-3,4.4-6.2,10.2-9.3,14.7
					c-1.4,1.9-2.8,3.1-4.3,2c-3.6-4.1-4.7-5.5-8.2-9.9c-1.2-1.4-1.9-2.4-4.3-3.8c1-0.5,5.5-3.8,9.8-11.2c4.5-7.5,11-10.8,19.6-10.5
					c3.2,0.1,6.4,0,9.6,0C316.2,833.2,316.2,833.1,316.2,833z"/>
				<path id="Small_Tooth" class="st2" d="M197.1,843.9c5.4,4.1,11.5,6.4,18.7,6.6c-3.3,0.8-6.9,9.3-9.3,13.8
					c-2.4,4.1-3.2,3-5.7,0.8C195.3,859.4,193.9,851.2,197.1,843.9z"/>
				<path id="Small_Tooth_00000176745456225691667590000008746361511290254734_" class="st2" d="M232.8,870.2c4-0.9,5.6-6.5,9.3-11
					c3-3.8,5-2.4,6.8,1c2.2,4.1,5.5,11.5,8.4,12.8c-1.5-0.1-1-0.2-4.5,0c-2.9,0.1-5.7,0.9-8.4,2.1c-0.9,0.4-1.6,0.1-2.3-0.3
					C239.6,873.1,236.1,871.5,232.8,870.2z"/>
				<path id="Small_Tooth_00000010275980468834045570000004816705062781485477_" class="st2" d="M219.3,850.6
					c7.9-0.8,14.7-3.2,20.6-7.5c0.1,0.1,0.2,0.1,0.3,0.2c1.5,2.5,3.7,6.4,5.6,8.7c-1.8,0.2-4,2-5.9,4.1c-1.8,2-3.8,5.8-5.5,8.2
					c-1.6,2.8-3.4,3.6-6.1-1.3C224.2,856,221.6,851.3,219.3,850.6z"/>
				<path id="Small_Tooth_00000161626082163409758430000011821844150332903344_" class="st2" d="M250.7,855.4
					c7.8,5.2,16.2,3.9,20.2,2.6c-1.2,0.7-4.1,6.3-6,9.4c-0.8,1.4-2.8,3.1-4.1,3c-1.4,0-2.6-2.1-3.7-3.8
					C254.9,863,252.3,856.9,250.7,855.4z"/>
				<path id="Small_Tooth_00000131366063733043193380000002377201516829066120_" class="st2" d="M227.7,868.6
					c-5.6-1.2-13-2.8-19.1-0.9c1.4-0.7,5.7-13,8.1-13.4C219.9,852.7,226.3,867.8,227.7,868.6z"/>
			</g>
			<g id="Eye">
				<path id="Eye_White" class="st2" d="M335.7,753.7c7,0,12,2.6,15.5,8c0.6,0.9,1.3,1.8-0.5,2.3c-11.6,2.9-19.6,10.6-26.7,19.6
					c-2.8,3.6-4.5,5.5-7.3,8.2c2.5-7.4-7.9-12.3-11.9-11.9c1.7-1.8,3.8-3.9,7.4-8.2c2.9-3.5,5.8-7.1,8.4-10.8
					c2.7-4.4,6.7-5.9,11.2-6.8C333.2,753.8,334.8,753.8,335.7,753.7z"/>
				<path id="Eye_White_Small" class="st2" d="M297.3,791.8c2.2,0,3.8,1,4.3,3.3c0.4,2.2-0.7,3.4-2.9,3c-0.8-0.1-1.6-0.3-2.4-0.5
					c-1.4-0.5-3.3-0.4-3-2.8C293.5,792.8,294.9,791.7,297.3,791.8z"/>
			</g>
		</g>
		<path id="Collar" class="st3" d="M449,713c-5.9,5.5-6,11.6-2.7,18c3.3,6.3,8.3,11.1,15,13.7c6.3,2.5,12.2,1.5,17.2-3.3
			c2.1-2,4-4.2,5.7-6.5c1.7-2.3,3.5-4.7,4.9-7.2c1.1-2,1.9-2.1,3.6-0.5c14.1,13.7,26.8,28.7,37.4,45.3c0.9,1.4,2.9,2.8,2.3,4.5
			c-0.5,1.5-2.9,1-4.4,1.4c-4.7,1.2-9.4,2.4-13.9,4.3c-5.3,2.2-8.1,7-7.2,12.6c0.8,5.2,2.6,10,5.8,14.2c5.4,7,12.7,11.6,23.5,5
			c3.5-2.2,7.1-4.2,10.6-6.4c1.8-1.1,2.7-1.2,3.7,1c8.2,18.2,15.1,36.9,19.6,56.4c0.5,2,1.2,4,1.6,6c0.3,1.5,0.1,2.4-1.9,1.6
			c-6-2.4-12.1-4.3-18.4-6c-10.9-2.9-16.7,1.3-19.4,11.9c-1.8,7.2-1.7,14.4,1.5,21.2c2.5,5.4,6.8,8.2,12.7,8.3
			c7.6,0.1,15.1,0.2,22.6-1.1c0.9-0.1,1.9-0.1,2.8-0.2c1.8-0.1,2,0.7,1.7,2.3c-2.6,13.9-8.2,26.3-17.3,37.2
			c-2.7,3.2-5.5,6.1-8.6,8.9c-2,1.8-2.8,1.2-3.7-0.9c-1.6-3.5-3.5-6.8-6-9.7c-4.7-5.5-8.3-6.6-15.1-4.1c-8,3-14.5,8.1-18.7,15.5
			c-4.5,7.9-3.7,13.1,3.7,19.7c2.1,1.9,2.1,2.4-0.7,3.4c-13.1,4.7-26.5,7.8-40.4,9.1c-4.6,0.4-9.1,0.5-13.6,0.6
			c-1.8,0.1-2.9-0.2-2.8-2.5c0.1-2.2-0.1-4.4-0.4-6.5c-1.2-7.2-2.7-8.8-11.6-12.7c3.8-0.7,7.1-1.3,10.5-1.9
			c17.7-3,34.5-8.4,48.8-19.8c11.3-8.9,17.7-20.6,18.9-34.9c0.9-10.5,0.5-20.9-3.5-30.9c-0.6-1.4-0.5-3-0.4-4.6
			c1.1-21.5-3.2-41.7-15.4-59.8c-1.9-2.8-2.9-5.8-3.6-9c-4.3-20.7-16-36.6-33-48.8c-10.7-7.7-20.8-16-27.8-27.4
			c-2.6-4.2-4.5-8.6-4.6-13.6c0-0.9-0.2-2,1.3-2C436,715.2,442.4,714.8,449,713z M402.6,985.1c1.4,0.3,1.7-0.4,2-1.6
			c1-5.1,3.9-8.9,8.2-11.7c2.6-1.7,5.7-2.4,8.3-4c-2.9-1-5.2-0.1-7.5,1.4c-3.1,2-6.6,3.4-10.1,4.3c-9.7,2.4-19.6,3.6-29.6,4.9
			C383.3,981.5,393,983.1,402.6,985.1z"/>
		<path id="Nose_Tip" class="st4" d="M239.2,822.7c0,0-21-1.7-22.4-24c-0.1-2.2,21.4-14.4,43.2-1
			C241.1,807.5,239.2,822.7,239.2,822.7z"/>
	</g>
	<g id="Banner">
		<path id="Banner_Background" class="st5" d="M37.2,293.5v288.3c0,0,477.5-115.2,1126,0.2c0,0,0-187.2,0-287
			C514.3,399.9,37.2,293.5,37.2,293.5z"/>
		<path id="Banner_Border__x28_Gray_Fill_x29_" class="st6" d="M20.6,272.8c-0.2,42.6-0.2,230.7,0,328.2
			c574.9-125.8,1159.5-0.5,1159.5-0.5V272.6C1180.1,272.6,595.5,394,20.6,272.8z"/>
		<path id="Banner_Border" class="st7" d="M20.9,273.6c-0.2,42.6-0.2,230.7,0,328.2c574.6-126.7,1159.5-0.5,1159.5-0.5V273.5
			C1180.4,273.5,595.5,394,20.9,273.6z"/>
		<g id="Wrestling_Club_Text">
			<g id="Wrestling_Club_Text_Black">
				<path id="B_00000026132432193586162720000014623581598586464905_" class="st8" d="M1146.5,360.9l-10.5-37.4l-43.2,7.1v48.3
					l3.6-0.3V498l-3.6-0.3V546l43.2,7.6l10.5-37.2v-68.9l-4.7-12.6l4.7-15.1V360.9z M1127.9,494.5l-4.6,6.5l-7.7-1.5v-39.6l7.7-0.8
					l4.6,7.1V494.5z M1127.9,404.1l-4.6,5.1h-7.7v-31.9l7.7-1.2l4.6,6.9V404.1z"/>
				<polygon id="U_00000111874547503773334280000013978726062138037652_" class="st8" points="1014.3,340.5 1014.3,385.4 
					1018.8,385 1018.8,506.6 1030.9,538 1064.1,542 1075.8,511.5 1075.8,380.6 1080.4,379.9 1079.9,332.1 1050.8,336.5 
					1050.8,382.1 1055.1,381.8 1054.9,487.2 1051.7,494.6 1043.3,494 1040.3,487.2 1040.4,383.3 1044.6,382.8 1044.6,337 				"/>
				<polygon id="L_00000158723950455818536880000000791613935518923409_" class="st8" points="944.3,346.8 944.3,388.8 949.2,388.4 
					949.2,488.2 944.3,488.1 944.3,529 1003.8,534.8 1003.8,478.6 984.4,477.4 984.4,489.4 972.2,488.6 972.2,387.9 976.2,387.6 
					976.2,343.8 				"/>
				<polygon id="C_00000108295256478252071140000017639002741482886036_" class="st8" points="880.8,352 866,381 866,496.3 
					879.8,523.8 916.4,526.5 929.4,497.9 929.4,460.6 906.4,460.3 906.4,481.1 902.5,485.2 892.8,484.7 889.8,480 889.8,396.7 
					891.8,394.3 902.8,392 906.4,395.5 906.4,419.8 929.4,419.8 929.4,378.3 915.8,349.3 				"/>
				<polygon id="G_00000109716329967988781480000005338066187246015106_" class="st8" points="758.4,358.9 796.4,357.2 810.7,382.8 
					810.7,420 785.7,420.6 785.7,400.6 783.1,396 771.6,396.4 768.9,400.6 768.9,477.3 771.4,481.3 783.1,481.7 785.7,477.3 
					785.7,462.5 779.8,462.4 779.8,429.4 810.7,429.6 810.7,493.3 797,519.6 758.4,517.9 744.4,491.8 744.4,384.9 				"/>
				<polygon id="N_00000118357901063282217570000002096814104279375001_" class="st8" points="645.9,362 645.9,398.2 650.7,398 
					650.7,479.1 645.9,479.1 645.9,514.4 681.3,514.9 681.3,479.1 675.5,479.1 675.5,448.4 697.7,515.5 728.2,516.4 728.2,480.5 
					722.9,480.3 722.9,397.4 728.2,397.2 728.2,359.9 693.4,361 693.4,397.7 698.2,397.7 698.2,430.1 674.8,361.5 				"/>
				<polygon id="I_00000101089126215543717640000010795110972726304654_" class="st8" points="594.1,362 629.2,362 629.2,398.2 
					623.7,398.2 623.7,479.3 629.2,479.3 629.2,514.4 594.1,514.4 594.1,479.1 599.5,479.1 599.5,398 594.1,398 				"/>
				<polygon id="L_00000046301387111571194010000005303722547271075970_" class="st8" points="513.2,361 513.2,397.2 518.3,397.2 
					518.3,479.8 513.2,479.8 513.2,515.5 579,514.4 579,470 557.6,470.4 557.6,479.1 543.3,479.1 543.3,397.5 548.2,397.7 
					548.2,361.6 				"/>
				<polygon id="T_00000042694249289536452250000008732268400276868254_" class="st8" points="424.6,357.9 424.6,404.1 444.8,404.1 
					444.8,395.5 449.7,395.7 449.7,481 443.5,481.1 443.5,517.9 479.3,516.5 479.3,480.3 473.9,480.5 473.9,396.2 478.2,396.4 
					478.2,405 498.9,405.1 498.9,360.6 				"/>
				<polygon id="S_00000071552462707189724080000004096006574145635224_" class="st8" points="358.4,354 394.6,356.2 408.9,381.9 
					408.9,415 384.7,415 384.7,399.1 380.8,394.1 371.4,393.8 368,399.9 368,414.2 371.4,420.3 394.4,420.3 408.9,445.4 
					408.9,494.5 394.3,520.3 358.4,522.6 343.9,496.7 343.9,464.1 368,463.5 368,478.1 371.4,483.3 380.8,483 384.7,476.1 
					384.7,461.8 380.8,456.7 357.9,457.5 343.9,430.9 343.9,381 				"/>
				<polygon id="E_00000114046454999161673110000012118120832247439763_" class="st8" points="268,388.7 272.8,388.9 272.8,487.6 
					268.1,487.9 268,529.5 328.7,524.8 328.7,477.9 308.9,478.6 308.9,485.9 295.6,486.5 295.7,457 299.7,457 299.9,466.1 
					317.1,465.6 317.3,411.4 299.5,410.7 299.5,420 295.1,420 295.7,390.1 309.4,390.9 309.4,398.5 328.7,399.1 328.7,351.8 
					268,346.8 				"/>
				<path id="R" class="st8" d="M248.6,488.9v-42.1l-5.4-11l5.4-11.3v-49.9l-12.8-29.4l-48.3-5.1v44.3l4.3,0.3v107.6l-4.9,0.3v45
					l31.9-3.5v-43.7l-4.6,0.3v-34.2h8.7l3.6,6.9v70l26.6-2.7l0.2-42.1L248.6,488.9z M226.9,407.8l-3.5,5.7h-9.7v-27.3l8.9,0.7
					l4.3,4.4V407.8z"/>
				<polygon id="W_00000104674275449307690810000010141395597601347209_" class="st8" points="63,373.3 69.5,374.4 82.1,500.7 
					79,501 79,552.4 114.4,546.7 114.4,498.2 111.1,498.3 118.5,448.3 123.4,497.3 120.3,497.7 120.1,545.9 158.6,541.2 
					158.6,494.8 154.8,495 169.8,384 174.7,384.5 174.7,337 144,333.1 144,381.3 147.6,381.7 139.4,446.1 131,379.5 134.1,379.8 
					134.1,331.8 101.9,327.2 102.2,376.5 105.6,376.8 97.1,446.1 89,375.4 93.1,375.8 93.1,326.1 63,321.5 				"/>
			</g>
			<g id="Wrestling_Club_Text_White_00000114035843102221130390000001570001571695375794_">
				<path id="B_00000103962049014372268210000006778784270000339089_" class="st9" d="M1142.5,356.9l-10.5-37.4l-43.2,7.1v48.3
					l3.6-0.3V494l-3.6-0.3V542l43.2,7.6l10.5-37.2v-68.9l-4.7-12.6l4.7-15.1V356.9z M1123.9,490.5l-4.6,6.5l-7.7-1.5v-39.6l7.7-0.8
					l4.6,7.1V490.5z M1123.9,400.1l-4.6,5.1h-7.7v-31.9l7.7-1.2l4.6,6.9V400.1z"/>
				<polygon id="U_00000083078328289521939890000007822644742349672359_" class="st9" points="1010.3,336.5 1010.3,381.4 
					1014.8,381 1014.8,502.6 1026.9,534 1060.1,538 1071.8,507.5 1071.8,376.6 1076.4,375.9 1075.9,328.1 1046.8,332.5 
					1046.8,378.1 1051.1,377.8 1050.9,483.2 1047.7,490.6 1039.3,490 1036.3,483.2 1036.4,379.3 1040.6,378.8 1040.6,333 				"/>
				<polygon id="L_00000162321025484193656840000007212174267994729644_" class="st9" points="940.3,342.8 940.3,384.8 945.2,384.4 
					945.2,484.2 940.3,484.1 940.3,525 999.8,530.8 999.8,474.6 980.4,473.4 980.4,485.4 968.2,484.6 968.2,383.9 972.2,383.6 
					972.2,339.8 				"/>
				<polygon id="C_00000001652175279307829240000012980046832427844241_" class="st9" points="876.8,348 862,377 862,492.3 
					875.8,519.8 912.4,522.5 925.4,493.9 925.4,456.6 902.4,456.3 902.4,477.1 898.5,481.2 888.8,480.7 885.8,476 885.8,392.7 
					887.8,390.3 898.8,388 902.4,391.5 902.4,415.8 925.4,415.8 925.4,374.3 911.8,345.3 				"/>
				<polygon id="G_00000025414205515153821670000004167688629574799253_" class="st9" points="754.4,354.9 792.4,353.2 806.7,378.8 
					806.7,416 781.7,416.6 781.7,396.6 779.1,392 767.6,392.4 764.9,396.6 764.9,473.3 767.4,477.3 779.1,477.7 781.7,473.3 
					781.7,458.5 775.8,458.4 775.8,425.4 806.7,425.6 806.7,489.3 793,515.6 754.4,513.9 740.4,487.8 740.4,380.9 				"/>
				<polygon id="N_00000095318972303003396170000010359365383045620140_" class="st9" points="641.9,358 641.9,394.2 646.7,394 
					646.7,475.1 641.9,475.1 641.9,510.4 677.3,510.9 677.3,475.1 671.5,475.1 671.5,444.4 693.7,511.5 724.2,512.4 724.2,476.5 
					718.9,476.3 718.9,393.4 724.2,393.2 724.2,355.9 689.4,357 689.4,393.7 694.2,393.7 694.2,426.1 670.8,357.5 				"/>
				<polygon id="I_00000155106524008958364160000000554330150170093459_" class="st9" points="590.1,358 625.2,358 625.2,394.2 
					619.7,394.2 619.7,475.3 625.2,475.3 625.2,510.4 590.1,510.4 590.1,475.1 595.5,475.1 595.5,394 590.1,394 				"/>
				<polygon id="L_00000003102131515770707080000017196687503516158900_" class="st9" points="509.2,357 509.2,393.2 514.3,393.2 
					514.3,475.8 509.2,475.8 509.2,511.5 575,510.4 575,466 553.6,466.4 553.6,475.1 539.3,475.1 539.3,393.5 544.2,393.7 
					544.2,357.6 				"/>
				<polygon id="T_00000176750799815929683390000010054625752962497425_" class="st9" points="420.6,353.9 420.6,400.1 440.8,400.1 
					440.8,391.5 445.7,391.7 445.7,477 439.5,477.1 439.5,513.9 475.3,512.5 475.3,476.3 469.9,476.5 469.9,392.2 474.2,392.4 
					474.2,401 494.9,401.1 494.9,356.6 				"/>
				<polygon id="S_00000086678267124918541930000001129053282623181489_" class="st9" points="354.4,350 390.6,352.2 404.9,377.9 
					404.9,411 380.7,411 380.7,395.1 376.8,390.1 367.4,389.8 364,395.9 364,410.2 367.4,416.3 390.4,416.3 404.9,441.4 
					404.9,490.5 390.3,516.3 354.4,518.6 339.9,492.7 339.9,460.1 364,459.5 364,474.1 367.4,479.3 376.8,479 380.7,472.1 
					380.7,457.8 376.8,452.7 353.9,453.5 339.9,426.9 339.9,377 				"/>
				<polygon id="E_00000006669169744249299570000012728564503127097517_" class="st9" points="264,384.7 268.8,384.9 268.8,483.6 
					264.1,483.9 264,525.5 324.7,520.8 324.7,473.9 304.9,474.6 304.9,481.9 291.6,482.5 291.7,453 295.7,453 295.9,462.1 
					313.1,461.6 313.3,407.4 295.5,406.7 295.5,416 291.1,416 291.7,386.1 305.4,386.9 305.4,394.5 324.7,395.1 324.7,347.8 
					264,342.8 				"/>
				<path id="R_00000169531513897133594360000000177712090332524461_" class="st9" d="M244.6,484.9v-42.1l-5.4-11l5.4-11.3v-49.9
					l-12.8-29.4l-48.3-5.1v44.3l4.3,0.3v107.6l-4.9,0.3v45l31.9-3.5v-43.7l-4.6,0.3v-34.2h8.7l3.6,6.9v70l26.6-2.7l0.2-42.1
					L244.6,484.9z M222.9,403.8l-3.5,5.7h-9.7v-27.3l8.9,0.7l4.3,4.4V403.8z"/>
				<polygon id="W_00000034087020172671993090000014328759623451440794_" class="st9" points="59,369.3 65.5,370.4 78.1,496.7 
					75,497 75,548.4 110.4,542.7 110.4,494.2 107.1,494.3 114.5,444.3 119.4,493.3 116.3,493.7 116.1,541.9 154.6,537.2 
					154.6,490.8 150.8,491 165.8,380 170.7,380.5 170.7,333 140,329.1 140,377.3 143.6,377.7 135.4,442.1 127,375.5 130.1,375.8 
					130.1,327.8 97.9,323.2 98.2,372.5 101.6,372.8 93.1,442.1 85,371.4 89.1,371.8 89.1,322.1 59,317.5 				"/>
			</g>
		</g>
	</g>
	<g id="Bulldogs_Text">
		<g id="Bulldogs_Text_Dark">
			<path id="S_00000004546339839368448630000007185927902318700204_" class="st10" d="M966.7,173.5c2.8-12,5.8-23.9,8.4-34.4
				c7.4-26.2,23.9-40.7,36.6-40.8c6.1,0,70.8,0,70.8,0l-11,54.2h-40l3.1-13.3h-20.4l-6.6,27.3h29.6c22.2,0.8,27.3,13.5,22.2,35.6
				c0,0-5.9,24.4-7.7,32.3c-6.3,25.5-20.1,37.5-36.1,37.4c-22.9,0.3-33.8,0-45.1,0c-10.9,0-17.3,0-25.2,0.2
				c1.8-7.2,10.7-46.8,12.7-54.7l37.4,0.2l-4.1,17.3h22.6l7.4-31c0,0-23.7,0.5-29.6,0.5C966.7,203.6,964.1,184.7,966.7,173.5z"/>
			<path id="G_00000103238432996447080360000018154697045117432737_" class="st10" d="M932.8,271.5c-26.5,0.3-60.8,0-71.3,0
				c-11.2,0-25.5-5.3-18.1-37.5c7.6-30,15.8-66.7,23.1-95c7.2-29.8,21.9-40.2,31.6-41.2c12.7-0.5,56.6,0.5,77.4,0.5
				c-9.9,38.9-13.5,51-13.5,51l-38.9-0.5l2.6-9.9h-20.4l-23.1,95.5h20.9l7.4-32.1h-10.2l9.4-36.9l48.6,0.8L932.8,271.5z"/>
			<path id="O_00000088134212774854240650000013587612055927786681_" class="st10" d="M837.3,98.1c-20.7,0-43.8,0.5-49.7,0.5
				c-12.7,0.2-23.7,7.2-31.5,40.3c-7.2,28.2-15.5,65.4-23.1,95.2c-8.1,31.6,7.9,37.2,18.1,37.4c11.4,0.2,22.2,0.3,45.1,0
				c16,0.2,29.8-12,36.1-37.4c7.1-30.3,16.1-67.7,23.2-95.2C861,117.8,852.9,98.1,837.3,98.1z M792.7,234.4h-20.9l23.1-95.5h20.4
				L792.7,234.4z"/>
			<path id="D_00000006702405924172587300000017815303812820839838_" class="st10" d="M727.1,98.6c-20.9,0-75.7,0-82.2,0l-9.7,40.3
				h8.4l-23.1,95.5h-9.1l-7.7,37c0,0,58.8,0.3,81.8,0c16.1,0.2,30-10.5,36.2-36.2c7.2-30.5,16.8-68.5,23.4-96.3
				C750.2,118.7,742.8,98.6,727.1,98.6z M679.2,234.4h-20.9l23.1-95.5h20.4L679.2,234.4z"/>
			<path id="L_00000056386102673885029660000007111918231088763037_" class="st10" d="M531.4,98.6c6.4,0,59.9,0,59.9,0l-10,40.3
				h-9.9L550,234.4h15l5.8-28.8l36.7-0.3l-14.3,66.2H492.2l7.7-37h10.7l21.4-95.5h-10L531.4,98.6z"/>
			<path id="L_00000034054033382589050580000004397263983453981603_" class="st10" d="M423,98.6c6.4,0,56.6,0,56.6,0l-8.4,40.3h-10
				l-21.4,95.5h15l5.8-28.8l35.1-0.3l-14.3,66.2H380.4l9.4-37h10.7l23.1-95.5h-10.2L423,98.6z"/>
			<path id="U_00000057116293265474259200000017225705484017856917_" class="st10" d="M292.8,98.6l-11,40.3h10.9
				c0,0-18.6,73.9-24.2,101.6c-2.6,12.7,0.5,31.1,14.5,31.1c14.2,0,42.3,0,56.3,0c23.4,0,30-29.6,30-29.6l25.2-102.9h8.9l9.4-40.3
				h-49.2L331,234.6h-20.1l31.6-136H292.8L292.8,98.6z"/>
			<path id="B_00000025430119880610519190000016050450327695027076_" class="st10" d="M253.9,98.4c-29.8,0.3-85,0-85,0l-9.6,40.5
				h10.9l-22.9,95.5h-11l-9.7,36.4c0,0,62.4,1,85.1,0.7c21.9,0.2,30.5-14.7,33.9-26.7c1.2-5.3,8.7-36.1,10-41.2
				c3.5-11.4,0.7-19.4-13.7-21.9c14.7,0.2,19.3-2.3,22.1-12.7c2.3-7.9,5.8-20.9,7.9-30.1C277,119.2,278.4,99.6,253.9,98.4z
				 M208.3,234.4h-20.1l7.2-31.8l20.1-0.3L208.3,234.4z M223.6,169.4h-20.3l7.4-30.5h20.4L223.6,169.4z"/>
		</g>
		<g id="Bulldogs_Text_Light_00000131368841772057814070000001757261180452183474_">
			<path id="S" class="st11" d="M957.2,164.4c2.8-12,5.8-23.9,8.4-34.4c7.4-26.2,23.9-40.7,36.6-40.8c6.1,0,70.8,0,70.8,0l-11,54.2
				h-40l3.1-13.3h-20.6l-6.6,27.3h29.6c22.2,0.8,27.3,13.5,22.2,35.6c0,0-5.9,24.4-7.7,32.3c-6.3,25.5-20.1,37.5-36.1,37.4
				c-22.9,0.3-33.8,0-45.1,0c-10.9,0-17.3,0-25.2,0.2c1.8-7.2,10.7-46.8,12.7-54.7l37.4,0.2l-4.1,17.3h22.6l7.4-31
				c0,0-23.7,0.5-29.6,0.5C957.2,194.7,954.5,175.6,957.2,164.4z"/>
			<path id="G" class="st11" d="M923.2,262.6c-26.5,0.3-60.8,0-71.3,0c-11.2,0-25.5-5.3-18.1-37.5c7.6-30,15.8-66.7,23.1-95
				c7.2-29.8,21.9-40.2,31.6-41.2c12.7-0.5,56.6,0.5,77.4,0.5c-9.9,38.9-13.5,51-13.5,51l-38.7-0.5l2.6-9.9h-20.4l-23.1,95.5h20.9
				l7.4-32.1H891l9.4-36.9l48.4,0.7L923.2,262.6z"/>
			<path id="O" class="st11" d="M827.7,89.2c-20.7,0-43.8,0.5-49.7,0.5c-12.7,0.2-23.7,7.2-31.5,40.3c-7.2,28.2-15.5,65.4-23.1,95.2
				c-8.1,31.6,7.9,37.2,18.1,37.4c11.4,0.2,22.2,0.3,45.1,0c16,0.2,29.8-12,36.1-37.4c7.1-30.3,16.1-67.7,23.2-95.2
				C851.5,108.8,843.4,89.2,827.7,89.2z M783.1,225.5h-20.9l23.1-95.5h20.4L783.1,225.5z"/>
			<path id="D" class="st11" d="M717.6,89.7c-20.9,0-75.7,0-82.2,0l-9.7,40.3h8.4l-23.1,95.5H602l-7.7,37c0,0,58.8,0.3,81.8,0
				c16.1,0.2,30-10.5,36.2-36.2c7.2-30.5,17-68.5,23.5-96.3C740.6,109.8,733.2,89.7,717.6,89.7z M669.7,225.5h-20.9l23.1-95.5h20.4
				L669.7,225.5z"/>
			<path id="L" class="st11" d="M521.8,89.7c6.4,0,59.9,0,59.9,0l-10,40.3h-9.9l-21.4,95.5h15l5.8-28.8l36.7-0.3l-14.3,66.2H482.6
				l7.7-37h10.7l21.4-95.5h-10L521.8,89.7z"/>
			<path id="L_00000005961750670012436270000000948459104063206293_" class="st11" d="M413.3,89.7c6.4,0,56.6,0,56.6,0l-8.4,40.3
				h-10l-21.6,95.5h15l5.8-28.8l35.1-0.3l-14.3,66.2H370.5l9.4-37h10.7l23.1-95.5h-10L413.3,89.7z"/>
			<path id="U" class="st11" d="M283,89.7L272.2,130H283c0,0-18.6,73.9-24.2,101.6c-2.6,12.7,0.5,31.1,14.5,31.1
				c14.2,0,42.3,0,56.3,0c23.4,0,30-29.6,30-29.6L384.5,130h8.9l9.4-40.3h-49.2l-32.6,135.8h-20.1l32.1-135.8H283z"/>
			<path id="B" class="st11" d="M244.3,89.5c-29.8,0.3-85,0-85,0l-9.6,40.5h10.9l-22.9,95.5h-11l-9.7,36.4c0,0,62.4,1,85.1,0.7
				c21.9,0.2,30.5-14.7,33.9-26.7c1.2-5.3,8.7-36.1,10-41.2c3.5-11.4,0.7-19.4-13.7-21.9c14.7,0.2,19.3-2.3,22.1-12.7
				c2.3-7.9,5.8-20.9,7.9-30.1C267.4,110.1,268.9,90.7,244.3,89.5z M198.7,225.5h-20.1l7.2-31.8l20.1-0.3L198.7,225.5z M214.1,160.5
				h-20.3l7.4-30.5h20.4L214.1,160.5z"/>
		</g>
	</g>
</g>
</svg>
