<?xml version="1.0" encoding="utf-8"?>
<!-- Generator: Adobe Illustrator 26.0.1, SVG Export Plug-In . SVG Version: 6.00 Build 0)  -->
<svg version="1.1" id="BD-Body" xmlns="http://www.w3.org/2000/svg" xmlns:xlink="http://www.w3.org/1999/xlink" x="0px" y="0px"
	 viewBox="0 0 1200 1200" style="enable-background:new 0 0 1200 1200;" xml:space="preserve">
<style type="text/css">
	.st0{display:none;fill-rule:evenodd;clip-rule:evenodd;fill:#FFFFFF;}
	.st1{fill-rule:evenodd;clip-rule:evenodd;stroke:#000000;stroke-width:3;stroke-miterlimit:10;}
	.st2{fill-rule:evenodd;clip-rule:evenodd;fill:#999999;}
	.st3{fill-rule:evenodd;clip-rule:evenodd;fill:#FFFFFF;}
	.st4{fill-rule:evenodd;clip-rule:evenodd;fill:#FEFEFE;}
	.st5{fill-rule:evenodd;clip-rule:evenodd;fill:#333333;}
</style>
<rect id="Background" class="st0" width="1200" height="1200"/>
<g id="Bulldog">
	<path id="Sillowette_00000051377105102562720930000017066519321996059011_" class="st1" d="M1181.3,817.7
		c-2.8-9.1-4.5-14.9-7.3-24.8c-3.6-12.6-11-25.7-14.2-31.7c-6.7-11.7-15.6-17.1-24.8-26.6c-6.1-6.3-10.7-16.5-13-25.1
		c-10.3-39.2-36.9-64.3-72.6-81.2c-10.3-5-20.7-10.4-31.5-14c-20.9-6.8-31.3-23-41.1-40.4c-7-12.2-17.3-22.5-28.7-31
		c-20.3-16.7-30.4-14.7-29.1-25.6c5.2-14.7,32.4-7.4,43.5-3.6c19.3,6.7,25.1-8.6,19.3-23.5c-3.1-7.9-10.3-14-17.5-18.9
		c-21.1-14.7-44.7-21.2-70.6-20.1c-19.3,0.9-35.1,6.8-46.5,23.2c-3.4,4.7-7.2,13.3-16.9,9c-30.6-13.3-61.4-26.6-92.2-40.1
		c-16-7-36.2-15.3-64.3-29.1c-17.3-8.3-26.2-21.1-41.6-35.7c-9-8.5-25.1-22.1-36.7-30.3c-31.8-22.3-58.1-39.7-95.7-50.5
		c-25.9-7.4-52.8-7.9-79.8-7.7c-26.3,0-50.4,7-74,17.4c-8.5,3.8-16.4,9.5-26.3,9.9c-22,0.9-39.8,9.5-53.3,26.6
		c-2.7,3.4-3.8,8.3-8.8,9.7c-14.4,3.6-28.6,5.2-41.4-4.3c-10.3-7.7-21.6-11.5-34.6-12.2c-21.4-1.1-40.5,5.6-58.9,14.7
		c-11.2,5.6-22.3,12-30.6,21.4c-11.5,13.1-17.3,30,7.4,35.4c4.9,1.1,12.4-0.2,14.8,5.2c2.2,5.2-2.2,10.6-3.1,16
		c-2.2,12-7.9,20.1-20.5,23.2c-4.3,1.1-8.5,3.8-12.1,7.2c-11.7,11-15.1,24.4-13.5,39.5c0.4,5,0.7,10.4-4.5,12.6
		c-17.1,7.7-22.5,22.5-24.1,38.8c-1.3,12.4-3.8,25.5,5.2,36.8c7.9,9.7,7.2,11-0.9,20.1c-17.8,19.6-26.5,32.5-8.3,59.3
		c4.5,6.5,4.5,13.1,1.1,20.1c-3.8,7.9-7.6,15.8-10.6,23.9c-7,18.9-8.8,38.6-7.4,58.4c1.6,23.7,6.5,46,26.1,62.2
		c4,3.4,5.2,7.2,5.4,12.4c0.4,10.8-4,21.4-0.4,32.5c5.6,16.5,14.2,28.6,31.9,30.2c21.4,2,44.2,2.2,64.8-4.9c4.9-2.9,10.3-5.9,16.6-2
		c7,4.5,14.6,7,23.2,7.7c30.8,2.9,61.2,6.1,89.3-9.9c5.8-3.4,11-5.4,13.5-12.8c4-12.9-0.2-23.7-6.3-34c-10.1-17.6-26.3-28.4-42.9-39
		c-13.5-8.6-27.9-14-44.1-14.2c-3.8,0-9.2,2-11-1.4c-2.2-4.3,1.1-8.6,3.6-12.9c3.6-6.1,7.2-11.1,13.3-8.4c2.5,1.1,4.9,1.8,7.6,2.3
		c40.9,9.2,81.2,21,122.1,30c18.2,4.1,35.8,5.2,54.4,2.9c29-3.8,47.1-5.8,75.6-12.2c7.5-2,16.6,3.4,18.9,12
		c2.1,6.7,7.1,13.2,11.6,17.6c7.2,7.1,19.5,12,34.7,13c9.7,0.7,14-2,24.3-0.4c12.8,2,16.1,6.9,27.3-0.7c5.8-3.1,10-7.6,15.2-5.7
		c11,7.5,20.3,1.8,23.3,18.7c2.2,13.1,6.7,22.7,16.5,25.5c10,2.6,19.4,6.3,27.3,12.6c0.7,0.6,1.3,1.3,1.6,2.2
		c2.4,6.3,14.2,10.2,23.7,9.5c7.4-0.5,15.1,3.4,22.5,3.9c20.2,1.1,40.7,0.7,60.9,1.6c34,1.8,87.2,0.6,102.1-2.3
		c3.5-0.7,13.1-5.2,16.5-6.8c9.1-6.7,14.8-8.8,19-30.5c-1.3-14.2-6.1-26.4-17.5-34c-9-6.1-10.3-12.4-7.4-21
		c4.9-15.1,3.7-31.8,3.9-47.6c-1.8-21.4-4.4-35.6,4.9-37.7c2.9-0.7,13.5,0.5,22.7,5.9c18.9,11.3,39,17.7,60.8,18.8
		c15.1,0.9,29.7-2.2,44.6-4.2c2.5-0.2,8,5.4,9.7,8.1c3.6,5.6,7.4,11.3,10.6,17.1c1.6,3.2-0.9,6.3-6.8,7.2c-4.5,0.5-8.8,1.4-13.3,1.4
		c-19.3,0.7-36.2-1.8-55.5,1.8c-13.9,2.7-20.7,9-25.8,23c-7.4,19.8-4.7,30.4,3,47.8c5.9,9.2,16.7,25.6,40.8,28.8
		c5.3,0.7,18.5,2.6,18.5,2.6c23,9.6,37.1,1.2,49.7-2.4c5.4-1.6,18.1-5.3,22.6-2.1c17.7,10,25.2,12.4,45.4,10.1
		c22.3-5,43.6-11,59.3-28.8C1187,849.7,1187.2,836.9,1181.3,817.7z M710,775.5c0,5.6-0.9,10.8-14.6,6.8c-4.5-0.7-8.3-0.7-24.3,2.9
		c0,0-0.2-2.9-4.9-7.7c-1.8-1.8-8.8-6.8-5.6-8.3c13.5-7.2,32.4-17.6,46.5-28.9C709.3,755.9,709.8,760.6,710,775.5z"/>
	<path id="body_00000013907705827169741480000007212644437454940333_" class="st2" d="M464.8,378c1.1-5.4,2.7-9.9,1.3-14.9
		c-4.5-4.7-11-1.1-16,0.7c-8.1,3.4-15.7,7.7-25.2,12.4c1.8-5.6,2.9-10.1,4.7-14.4c4.3-9.5-3.1-24.8-15.5-23.9
		c-4,0.2-8.1-0.7-11.9,0.2c-20.9,3.8-36.7-7.4-53.1-16.7c-3.6-2-3.4-3.8,0.7-5.9c19.6-10.6,40.5-16.2,62.7-17.1
		c12.4-0.7,24.3-1.6,36.9-0.5c21.8,2,42.7,7,63,14.4c26.8,9.7,51.3,23.5,74.2,40.1c24.1,17.6,45.9,37.7,63,62.2
		c21.6,31.1,37.3,65.2,55.3,98.3c0.4,0.9,0.2,2.3,0.2,4.5c5.6-5.6,2-11.3,0.9-15.8c-6.1-24.1-17.2-41.9-29.3-63.8
		c-3.4-6.5-1-12,1.4-12.2c2.5-0.3,5.3,1.1,6.9,1.8c46.3,19.6,91.1,38.6,137,59.3c26.8,12.2,53.7,23.7,79.6,37.4
		c19.3,10.1,37.6,21,53.5,35.9c10.8,9.9,17.1,22.5,23.6,35c6.3,12.2,17.5,18.3,29,23.2c19.1,8.3,38.7,15.8,55.5,28.4
		c20.5,15.6,38,32.9,44.7,59.1c4,16.5,13.3,32,26.5,42.8c22.5,18,27.9,43.3,35.3,68.3c0.9,2.7,1.1,5.6,1.8,8.6
		c4.3,18.9,0.9,26.2-15.7,37.7c-15.7,10.8-33.1,17.6-51.7,19.2c-26.1,2-49-15.9-50-43.1c-0.5-13.6,11.8-23,27.1-28.8
		c1.6-0.7,2.8-1.1,4.9-1.8c1.4-0.9,4-2.5,2.5-5c-1.1-2-3.1-2.9-5.6-2.3c-14.2,3.8-26.8,10.1-35.5,22.1c-7,9.5-6.3,21-2,30.4
		c6.7,15.3,4,18.5-13.3,24.1c-17.8,5.9-35.1,0.5-44.3-13.3c-13.5-20.3-4.9-47.1,13.9-61.3c15.7-12,34.2-16,54.4-14.7
		c-4.5-13.3-13-23.7-18.7-35.2c-0.7-1.4-1.6-2.5-2.2-3.8c-5.8-10.4-10.3-12-22.5-9.7c-13.3,2.5-26.3,5-40,5.4
		c-14.6,0.5-28.1-4.3-41.1-9.7c-17.5-7.2-34.4-16.2-50.6-26.6c-9.2-5.9-14.6-14.7-18.2-24.4c-5.8-16-10.6-32.7-20.2-46.9
		c-9.2-13.8-18.4-27.7-30.6-39.2c-2.2-2.3-4.7-3.6-8.1-4.7c-0.2,9.7,6.7,14.4,11.2,20.3c19.8,25.5,32.6,54.3,42.3,84.6
		c5.2,15.8,9.4,31.8,11.7,48.3c4.5,31.3,3.8,61.8-12.4,90.4c-4.3,7.7-8.3,15.3-13.5,22.3c-0.7,0.9-6.1,6.2-0.7,5.4
		c12.4-5.6,21.4-13.5,28.8-23c2.7-3.4,3.6-2.3,6.1-1.1c8.3,4.3,16.6,18.9,14.6,26.4c-5.4,20.1-15.7,21.1-27,26.2
		c-10.3,4.6-34.1,5.1-62.2,4.6c-28.3-0.6-60.8-1.5-85.3-2c-21.5-0.4-24.3-4.2-40.5-4.3c-14.4-0.1-14.6-8.1-17.3-15.3
		c-6.7-17.4,4.5-32.2,23.4-34c5.8-0.5,12.1,2.5,18-1.4c-20.9-12-44.7-8.6-51.7,10.6c-1.8,5.2-1.8,10.8-3.1,16.2
		c-0.9,4.1-2.2,6.1-7.9,4.1c-15.3-6.1-19.1-18.7-17.8-37.4c0.7-9.2,16.6-20.5,27.4-20.7c13.5-0.2,26.5,2,39.6,5.2
		c1.8-2.9-0.7-4.1-2.2-5c-4.7-3.2-9.4-5.9-14.4-8.8c-2.9-1.8-7.2-1.9-7.9-5.6c0.7-5.2,5.4-7.7,9.9-9.7c18-7.4,36.4-2.3,46.3,13.1
		c13.5,20.7,19.3,22.3,37.6,32.2c-2.5-9.5-10.1-14.2-15.3-20.1c-14.2-16-21.4-33.6-22.5-54.8c-1.1-19.4-1.6-39-7.2-57.7
		c-8.5-29.1-40.7-45.1-65.9-30c-8.3,5-14.4,12.4-20.2,19.6c-6.7,8.6-13.9,8.1-22.9,6.3c-7.6-1.6-14.6-5.6-24.5-6.3
		c11.2,9.5,20.7,17.6,35.3,16.7c8.1-0.5,14.6-3.4,20.2-8.1c6.1-5,12.1-9.9,17.5-15.6c10.3-10.6,28.3-5.4,36.2,1.8
		c7.9,7,12.4,16.5,14.6,26.6c2,9-5.8,14.9-11.7,19.6c-20,16.2-42.7,27.5-67.7,35.4c-32.2,10.1-65.2,15.3-98.5,15.3
		c-34,0-67.5-6.5-98.9-20.1c-5.4-2.3-10.8-4.5-17.3-7.2c10.3,0,17.5-1.4,25.4-2.3c15.5-1.8,32.8-9.9,46.8-15.1
		c7.6,3.8,11.7,6.8,22.5,10.4c5.8,2.7,12.4,4.1,18,5.9c8.3,2.7,13.5-0.5,14.4-9.2c0.9-8.8,0.9-8.1-0.4-16.5
		c-0.4-3.4-3.6-14.9-3.6-14.9s39.1-45.5,43.4-73.7c9.9-2.3,18.4-6.3,18.4-6.3c5.4-1.6,0.2,0,4.9-2.3c7.9-3.4,8.5-9.7,1.6-15.1
		c-3.4-2.5-4.3-3.8-9.9-7.4c-5.4-3.8-5.4-3.8-18.2-11c-4.5-24.1-20.2-67.4-32.8-88.6c7-4.7,11.5-10.6,14.6-12.9
		c5.4-4.1,7.6-6.8,12.6-11.7c2.7-2.9,3.1-2.5,1.1-7.4c-2-5.4-6.3-6.1-11.5-6.8c-7-0.9-12.4-2.7-20.9-3.6c-11.2-1.1-5.8-0.9-18-1.6
		c-8.3-14.9-22.5-34.5-36-45.1c-5.2-4.1-17.1-14.9-22-19.2"/>
	<g id="paws_00000092441128072467212480000002696648199779311518_">
		<path id="paw-right_00000038376607707895293240000001532017445204863925_" class="st2" d="M128.8,856.2
			c4.3,9.5,8.1,18.9,12.8,28.2c1.3,2.7,2,3.8-0.9,5.2c-6.3,2.7-13.3,6.3-20.5,6.9c-10.8,0.9-21.7-0.1-33-0.3
			c-19.6-0.3-25.5-9.5-28.7-21.5c-3.1-11.7-1-24.1,0.8-36.1c2.5-16.9,9-23.2,26.8-26.6c2.7-0.5,5.4-1.8,8.3-2.7
			c-5.8-7.9-14.2-8.8-26.3-3.2c-4.3,2-8.3,4.5-11.7,7.9c-5.8,5.4-9.7,4.7-13.5-2c-2.7-4.7-4.3-10.1-6.3-15.3
			c-11.7-30.2-10.8-60.2-0.7-90.4c0.9-2.7,2.7-5.9,3.6-8.3c8.2-17,11.1-20.1,40.9-12.6c4,2.5,6.7,6.1,7.6,10.1
			c4,17.1,14.6,29.3,29,38.8c14.4,9.2,29.7,17.4,47.9,16.2c5.6-0.5,10.8-2.7,16.4,0c3.1,1.6,5.6,2.9,6.5,6.5
			c0.9,3.8-2.2,4.3-4.3,5.6c-16.9,13.5-20.7,29.8-12.6,48.3c1.6,3.4,3.4,3.6,5.2,2.3c12.6-10.1,25.6-7.4,38.2-1.1
			c20.7,10.6,40.7,22.1,53.7,41.9c9.2,14,7.2,24.4-7,32.9c-3.8,2.3-7,1.4-9.4-2c-6.7-9-12.4-19.2-20.7-26.6
			c-10.1-9.2-20-19.6-33.3-25c-2-0.9-4.3-2.5-5.8-0.7c-2,2.3,1.1,3.6,2.2,5c8.8,9.9,18,19.6,26.5,29.8c6.3,7.4,12.8,14.4,19.8,21.4
			c2.5,2.5,1.3,5.4-2,6.1c-14.2,2.5-28.3,3.4-42.5,1.6c-11-1.4-22.3-3.4-32.4-8.6c-5.4-2.7-9.7-6.3-13-11.7
			c-5.2-8.3-12.4-15.1-20-21.2C130.4,855.3,129.7,855.8,128.8,856.2z"/>
		<g id="paw-toes_00000047030029552864662680000005376807253747256238_">
			<g id="paw-toes-left_00000122682841443805705350000012763492288742703763_">
				<path id="paw-toes-left-1_00000036248485556972423400000000837098078996501939_" class="st2" d="M992.5,792
					c-12.8,11.3-19.6,24.4-22.5,38.8c-3.1,14.9-1.3,32.5,13.5,46.8c-31.1-4.4-38.6-21.7-44.8-39.1c-1.9-9.1-2.7-19.1,2.8-30.2
					c4.5-8.8,12.6-15.8,22.9-16c0.7,0,1.1,0,1.8,0C974.1,792,982.2,792,992.5,792z"/>
			</g>
			<g id="paw-toes-right_00000084509558482019129000000013704815964530598831_">
				<path id="paw-toes-right-3_00000075857392263791441160000002876631792138438024_" class="st2" d="M612.3,829.4
					c-17.1-1.1-22.8-8.2-24.6-14.5c-2-6.5-3.1-13.5-0.2-20.3c0.9-2,1.8-4.1,5.4-5c19.1-5,38-10.4,56.7-16c4.3-1.1,5.8,2,7.9,3.8
					c2.5,2.3,8.1,7.4,6.1,10.3c-18,15,3.1,13.8-26.4,19.7c-7.5,1.5-14.4,7.8-17.1,10.6C615.7,822.9,613.6,826.5,612.3,829.4z"/>
				<path id="paw-toes-right-2_00000032610351453092376730000014914980746441384616_" class="st2" d="M575.9,814.5
					c0.2,6.3,1.3,12.6-6.3,15.3c-8.3,2.9-16,2.7-23.4-2.9c-6.7-5.4-9.2-12.6-10.6-20.5c-1.3-7.7,0.2-12.6,9.9-11
					c8.5,0.5,15-2.3,23.4-1.8c3.4,0.5,5-0.1,5.4,4.7C575.4,806.3,575,809.8,575.9,814.5z"/>
				<path id="paw-toes-right-1_00000061470648692540854070000011928694922226470836_" class="st2" d="M530.2,831
					c-21.8,2.7-34.6-4.1-40.7-17.8c-1.4-5.3-1.3-10.6-1.3-15.8c0-3.4,3.1-4.7,5.8-3.8c8.1,2.7,16.2,1.4,24.3,1.6
					c2.7,0,5.2,0,4.5,3.6C520.8,810.5,526.8,820.2,530.2,831z"/>
			</g>
		</g>
	</g>
	<path id="tail_00000111174609829595913010000011642395459761310353_" class="st2" d="M953.2,503.6c-11.2-2.4-17.1-2.9-20.7-3.2
		c-3.1-0.3-9.8,0.1-13.5,3.6c-11.9,11.2-8.9,12.7-32.6,1.1c-11.2-6.5-20.6-10.4-34.9-17.1c-2.5-1.6-1.8-3.3,1.1-6.7
		c12.7-18.5,26.8-23.5,45.2-23.5c26.8,0,55.1,11.4,71.6,27.7c5.4,6.3,5.4,17.4-2.3,20.4C961.7,506.8,957,504.3,953.2,503.6z"/>
	<g id="chest_00000026885449926032977850000010076055566580535218_">
		<path id="chest-2_00000165952253446638241890000008969043608305526668_" class="st2" d="M449,787.7c0,1.5-30.1,5-45.2,8.1
			c-8.8,1.2-9.8,1-17.4,1.6c-10.9,0.8-10.2-2.7-7.8-5.4c6.1-7,9.4-15.3,13.5-23.2c1.1-2.3,1.8-4.5,5.8-2.7
			c15.7,6.3,31.7,12.2,47.4,18.3C449.1,785.7,449,785.7,449,787.7z"/>
		<path id="chest-1_00000181771963485606630440000005887233539136595865_" class="st2" d="M364,796.2c-14,3.3-20.1,2.6-47.2-3.6
			c-19.8-5-39.6-9.2-58.9-15.6c-20.7-6.8-42.3-12.4-58.7-27.7c-1.1-1.1-2.9-2.9-2.7-4.1c0.2-1.6,2.7-1.8,4.3-2.5
			c30.6-12.9,60.9-10.1,91.7-1.1c10.8,3.2,21.6,5.9,32.4,8.6c7.6,2,12.1,7,15.7,13.8c4.7,8.8,9.9,17.1,15.3,25.5
			C358,792.4,360.2,795.3,364,796.2z"/>
	</g>
	<g id="face_00000177455204033984656170000009626555614290128542_">
		<path id="forehead_00000155840145733009905060000011039410694344309649_" class="st2" d="M329.6,382c2.7,0.9,5.2,2,7.9,2.9
			c11.9,4.7,20.7,11.3,18.2,26.2c-1.1,7.2,4.3,13.1,9.2,18.3c14.4,15.3,30.4,29.1,47.7,41c7.6,5.2,12.8,11.7,17.1,19.2
			c12.1,21,23.2,42.4,31.3,64.9c1.8,5,2.2,10.1,3.6,15.8c-7.6-0.7-11.2-6.5-15.5-10.1c-34-28.2-71.7-50.7-110.4-71.9
			c-14.4-7.9-29.5-14.7-42.5-24.8c-5.2-4.1-4.9-6.8-3.8-11.7c2.5-9.2,4.3-18-0.2-28.2c-3.6-7.7-9.4-11-15.5-12.9
			c-16.4-4.7-31,3.2-42.5,16.5c-19.6,22.8-38.9,46.2-64.1,63.6c-5.6,3.8-12.6,6.8-19.3,4.1c-7.6-2.9-8.8-11-9.9-18
			c-2-12.6,4.7-21.2,14.4-28.4c6.1-4.5,12.8-8.8,16.6-15.6c1.6-2.9,2.5-6.1,2.9-9.7c-16.2,14-39.3,24.2-42.3,43
			c0,0.2-0.9,5.3-0.6,9.7c0.5,6.7,1.8,8.1-2.5,10.2c-3.6,2-9.9-0.9-14.8-1.1c-10.6-0.7-21.1,0-30.8,4.5c-4.9,2.3-5.8,0.2-5.6-4.1
			c0.4-9,12.8-25.3,21.6-27.3c3.6-0.7,7.4-1.4,11.2,1.8c5.8,5,8.1,2.5,7.9-4.3c-1.3-38.1,25-63.6,55.3-75.8c11-4.5,22-7.9,34-10.8
			c-0.7,7.7-9.4,10.8-10.3,19.2c9-5.6,17.3-9.9,24.7-15.3c8.5-6.5,18.9-4.1,28.1-6.8c3.1-0.9,2,2.9,2.2,4.7
			c0.7,4.7-1.3,10.1,2.5,15.1c7.6-20.3,15.5-39.5,35.1-50.7c16.2-9.2,32.2-14.9,49.7-2.5c6.7,4.7,15.3,7.2,22.7,11.5
			c11.2,6.8,23.6,7.7,36.2,7.2c2.2,0,4.3-0.2,6.5,0c3.6,0.5,9.2-2.3,10.6,1.8c1.3,4.1,0.9,8.6-2.5,13.3
			c-7.4,10.4-17.8,15.3-29.7,17.1c-9.7,1.4-19.8,1.8-29.2-0.2c-8.3-1.8-16.6,0.7-24.3-3.2C329.9,380.5,329.6,381.4,329.6,382z"/>
		<path id="cheek-right_00000036244452293168381320000002161273620112944778_" class="st2" d="M375.7,525.2
			c13,4.7,23.8,10.8,34.2,17.6c16.2,10.6,30.6,23.7,41.6,39.2c16.4,23.2,28.8,47.6,16.2,77.3c-5.8,14-17.1,22.3-29.2,28.6
			c-22.7,11.7-47.4,18-73.8,16.9c-6.1-0.2-10.6,0-15.1-6.8c-8.1-12.6-16.4-24.8-20.9-39.5c-4.7-15.6-1.6-30.4-0.2-45.5
			c2.7-32.9,3.6-65.4-20.2-93.1c-15.1-17.4-42.9-17.1-56.2,2c-11.7,17.1-29,18.5-46.8,16.5c-17.8-2-30.8,4.1-40.9,17.8
			c-0.9,1.1-1.6,2.5-2.2,3.6c-4.5,8.1-11.2,14.2-20.7,12.9c-10.8-1.4-19.3-7.2-23.4-18.3c-5.6-15.6,0.2-30.9,13.3-41.3
			c16.6-13.3,34-11.5,51.9-5.4c7.2,2.5,14.8,2.7,21.8,3.4c8.3,0.7,12.8-7.9,17.8-13.5c9-10.6,17.8-21.9,30.1-28.4
			c15.3-8.3,30.6-4.1,45.2,2.9c13.3,6.5,23.6,16.9,35.1,25.9c16.4,12.9,29.2,29.5,45.9,42.2c0.9,0.7,0.4,2.9,2.7,1.1
			c1.1-1.1,0.7-1.8-0.2-2.7C378.2,534.9,377.8,530.6,375.7,525.2z"/>
		<path id="chin_00000129914079773397711610000014557996126624464809_" class="st2" d="M202.2,645.4c-9-3.6-17.8-0.5-26.3,0.5
			c-26.5,2.7-50.4,13.3-74.7,23.7c-19.8,8.6-38.9,5.9-54.4-8.8C32.2,647,34,625.6,49.8,610.9c14.6-13.5,31.9-16,50.6-9
			c3.6,1.4,3.8,3.6-0.9,7.7c-9.4,8.1-13.3,18.7-15.7,30.2c7.2-4.5,11.7-11.7,16.2-18.3c12.8-18.7,30.4-19.8,50.6-15.6
			c31.3,6.8,60.9,17.6,90.4,29.3c21.6,8.8,43.6,7.4,65-1.1c7.2-2.9,10.3-1.8,10.3,6.8c0,21,6.5,40.1,18.2,57.5
			c5.6,8.3,5.4,8.1-4.3,9.9c-20.9,3.8-41.8,8.3-62.7,12.2c-22.7,4.1-45.9,7.4-68.6,11.3c-9.9,1.6-19.8,5.2-29.7,5.2
			c-24.7,0-44.7-11-60.3-29.8c-4.5-5.4-7.2-12-11-17.8c-3.1-5-0.7-6.5,3.6-8.3c11.7-5,21.8-4.1,32.4,3.4c9.4,6.8,22.7,9.5,30.6,8.1
			c-8.1-7.7-17.8-12-26.1-18.3c-6.3-4.7-2.7-6.3,0.2-9c9-7.7,20.7-9.7,31.5-12.2C180.6,651,191.2,647.7,202.2,645.4z"/>
		<path id="ear-left_00000145035805505775521710000011320170355788854958_" class="st2" d="M116.2,394c-3.8,0.5-7.6-0.2-11.2-1.6
			c-3.8-1.6-9.9-1.6-10.1-6.5c-0.2-4.1,4.3-7,7.4-9.9c20.7-18,45.9-27.3,72.4-31.8c10.6-1.8,21.8,3.8,31.9,8.3
			c1.3,0.7,2,1.8,1.3,2.7c-1.1,1.8-2.9,2.7-5.4,2.7c-8.8,0-16.6,3.2-25,5.6c-15.7,5-27.2,16.9-41.6,24.4
			C130.2,391.3,123.9,395.1,116.2,394z"/>
		<path id="cheek-left_00000157275383172021572860000001093684150265109419_" class="st2" d="M81.2,560.6c-28.8-2-34.2-16.2-25.2-35
			c3.8-7.7,10.1-7.7,16-1.4c7.2,7.9,14.8,15.6,26.1,18c3.4,0.7,7.9,1.8,7.6,7.2c-0.2,5.2-4.7,5-7.4,6.1
			C91.5,558.1,85,560.8,81.2,560.6z"/>
		<path id="eye-brow_00000150078990560721797480000000981936441674829759_" class="st2" d="M287.4,440.9c-0.3,3.2-2.3,8.7-4.3,13.5
			c-1.3,4.3-10.3,3.4-13.5-1.4c-7-10.6-16.6-15.6-29-15.6c-3.1,0-5.8-0.5-4.3-4.3c2.7-6.8,28.6-17.1,36.2-14.9
			C282.2,421,287.6,429.2,287.4,440.9z"/>
		<g id="Teeth_00000113332231940062772100000001402100256831319968_">
			<path id="tooth-6l_00000061451870237768258860000002679706345031106998_" class="st3" d="M202.9,573.1
				c6.3,4.9,12.6,10.3,18.4,15.1c10.1,7.8,10.6,7.7,16.9-2.5c4.3-7.7,8.4-15.3,12.6-23c1.6-2.8,1-4,6.1-0.2
				c7.4,5.6,13.9,10.4,21.1,16.2c8.3,5,5.1,4.9,11.4-0.1c7.9-7.6,13.9-13.3,22.1-21.3c1.1-1.3,2.6-3.1,3.6-2.9
				c1.5,0.2,3.3-0.4,3.8,1.7c3.2,10.1,3.8,17.4,3.8,30.1c0.2,22.5-9.4,45.3-38.7,46.7c-31.5,1.6-59-11.9-87.5-21.3
				c-14.1-4.1-23.6-7.2-39-11.8c-12-3-13.5-1.3-11-4.5c3.5-4.7,7.5-11.7,10.3-14.5c2.2-1.6,7.9,3.8,11.2,7.2
				c1.1,1.1,6.7,6.6,7.8,7.5c5.2,5.3,4.1,5.2,9-0.5C189.7,589.5,197.7,578.7,202.9,573.1z"/>
			<path id="tooth-6u_00000137128354568402637910000004953789283468164772_" class="st4" d="M211.6,545.8c5.1,0.7,15.6-0.5,22.4-1.8
				c11.4-2.2,19.9-10.3,25.2-17.9c9.7-14.1,32.5-18.2,47.8,3.1c9.5,13.4,9.3,14.6-2.6,26.3c-5.4,5.4-11,10.8-16.4,16.2
				c-5,4.1-2.3,4.9-8.1,0.9c-8.7-6.4-16-12.2-23.8-18.5c-6.9-5-5.6-5.2-9.4,1.6c-5.4,9.5-8.6,16.2-14,26c-1.9,3.3-1.9,5.8-9.1,0.4
				c-6.3-5.6-10.8-9-17.8-14.4c-3.1-2.7-4.7-1.8-6.5,0.7c-3.8,4.5-12.8,16.6-16.6,21.1c-2.8,3-2.1,4-6.3,0c-3.2-3-4-3.7-10.1-9.5
				c-3.7-2.6-4.2-2.7,0.4-11.1c4.6-8.1,8.7-13.7,15.6-19C189.2,544.3,201,544.2,211.6,545.8z"/>
			<path id="tooth-1" class="st4" d="M54.6,559.9c5.3,4.9,12.1,4.5,17.9,7.5c2,1.2,0.5,2.7-1.5,5.4c-1.4,2-4.9,8.2-5.3,8.9
				c-1.8,3.1-3.7,6.1-6.6,6.6c-3.1,1.2-7.6-8.9-10.6-14.9c-1.8-2.5-3.1-9.2-1.5-15.8C47.6,555.4,49.5,555.3,54.6,559.9z"/>
			<path id="tooth-4_00000039828959215540321100000008377642815147229349_" class="st4" d="M114.7,599.9c-0.2,0-2.7-2.4-6.2-3.4
				c-7.9-2.3-5.3-3.8-1.2-8.1c1.1-1.3,5.3-6.2,6.5-7.4c3.4-4,5.3-6.7,6.1-6.7c3.3,0,2.8,2.8,9.6,18.8
				C131.8,599.1,127.9,595.3,114.7,599.9z"/>
			<path id="tooth-3_00000036940557002536098050000008281444222795778967_" class="st4" d="M114.2,571.5c-4,6.1-10.2,13.2-13,16.3
				c-3,3.3-3.2-0.2-5.8-6.1c-1.8-3.4-3.3-5.5-5.5-9.5c-1.7-2.6-2.4-4.2,1.9-5c5.8-0.7,17.1-5.5,18-5
				C110.8,561.8,115.9,567.7,114.2,571.5z"/>
			<path id="tooth-5_00000098189625145229142810000010944889076856265602_" class="st4" d="M148.5,584.7c-0.9,2-4,4.8-7,9.2
				c-3.9,5.1-4.1,6-5.9,1.9c-1.8-5.5-6.6-12.3-5.7-14.4c1.2-3,3.4-0.8,11.2,0C146.4,581.2,151.3,578.4,148.5,584.7z"/>
			<path id="tooth-2_00000054947229185627745950000010507294449910758049_" class="st4" d="M92.8,588.8c0.8,5-0.9,3.1-10.1,2.3
				c-7.9-0.7-20.2,4.6-14.4-4.3c7.9-12.1,9.2-16.6,12.1-18C82.6,567.8,91.9,583.6,92.8,588.8z"/>
		</g>
		<g id="eye_00000072259997409892475340000008813713415222902165_">
			<path id="eye-white_00000181061965576766756040000011963357067078954404_" class="st4" d="M264,457.7
				c-6.1,0.7-12.8,1.9-25.6,11.2c-7,5.6-11.2,10.8-15.7,15.8c-4.3,4.5-9.9,14.7-9.7,1.1c0.2-18-26.5,0.9-11.9-13.5
				c10.3-10.4,31-33.1,49.5-25.7C255.2,448.3,258.8,450.2,264,457.7z"/>
			<path id="eye-white-sm_00000070808068883679698700000006733239468750148996_" class="st4" d="M179.6,494.6
				c5.8-4.1,13.7-1.1,12.6,6.8c-0.2,1.4-1.3,0.5-6.5-0.7C181.7,499.7,180.8,498.6,179.6,494.6z"/>
		</g>
	</g>
	<g id="collar_00000176035132441505447110000011235949398208499635_">
		<g id="collar-spikes_00000117658664115201232390000012488713534279656337_">
			<path id="spike-5_00000111877598068923292580000013079547129479818640_" class="st4" d="M386.7,743.7
				c-1.3,14.9-4.9,28.9-12.6,41.9c-4,6.8-5.8,6.8-10.8,0.7c-8.1-10.6-16-21.2-20.2-33.6c-7-19.4-1.3-23.9,19.6-29.5
				c4.5-1.1,9.9-0.7,14.4,0.7C386.7,727,388.1,734.9,386.7,743.7z"/>
			<path id="spike-3_00000080194431084880616640000001404381608824017849_" class="st4" d="M591.1,627.4c-22.7,5-39.4,8.1-61.2,7.2
				c-12.1-0.5-18.2-6.5-18.4-18.5c-0.2-4.5,1.1-9,2.5-12.9c2-5.9,6.7-11,14.4-8.6c20.7,6.8,40.9,14.4,60,25
				C591.1,621.5,596.3,625.6,591.1,627.4z"/>
			<path id="spike-4_00000085233072057058735600000014578272772658604954_" class="st4" d="M523.5,748.4c-6.7-0.9-11.5-2.7-16.2-5.6
				c-10.6-6.5-21.1-13.1-30.1-21.9c-4.7-4.5-5.4-9.2-2-14.2c2.7-4.1,6.1-7.9,9.9-10.8c14.4-11.3,19.8-9.5,28.8,6.3
				c7,12.4,10.3,25.9,14.2,39.2C529.1,744.8,530,750.3,523.5,748.4z"/>
			<path id="spike-2_00000024704070868414922670000015174697021652124331_" class="st4" d="M498.1,525.4c-6.3-0.2-22.3-12.2-22.5-25
				c-0.7-7.9,3.1-18.5,7-19.8c9.2-3.6,19.1-3.2,29-4.1c14.4-1.4,23.8-0.9,36.7,0.5c1.6,0.2,6.5,1.4,7.2,3.6c0.4,1.4,0.9,2.7-0.9,3.8
				c-14.8,14-29.9,25.7-50.1,37.4C501.6,523.4,499.9,525.2,498.1,525.4z"/>
			<path id="spike-1_00000112593506153219050130000002540187088222672309_" class="st4" d="M455.8,370.3c1.6,2.3-1.3,10.1-3.1,14
				c-7,15.1-13,30.9-27.2,41.5c-4.7,3.6-9.4,4.1-13.9,0.7c-24.3-18.7-22.9-20.3-0.2-35.2C424.7,382.3,452,369.2,455.8,370.3z"/>
		</g>
		<path id="collar_00000039109993591735694780000000425070608043292552_" class="st5" d="M360.7,392.4c0,0,7.2,6.1,5.2,15.3
			c-3.4,15.1,45,45.1,59.4,57.9c23.8,21.2,53.1,104.6,53.1,104.6s9,69.2,0,90.6c-5.6,13.5-18.7,30.2-40.7,39.5
			c-12.1,5.2-43.8,18.5-87,14.7c-10.3-0.9-47.7,9.2-74.7,12c21.4,6.8,34.6,11.5,52.2,13.5c5.8,0.7-0.7-2.5,5.8-10.8
			c19.8-25.9,58-8.3,60.7-4.5c3.8,5.4,2.2,23.2,2.2,23.2s31.7-0.7,40.9-2.7c8.3-1.8,32.4-12,32.4-12s-8.8-7.9-9.9-11.5
			c-0.9-2.9,0-9.5,1.1-12.2c2.9-6.1,11.5-17.4,16.9-21.6c4.9-4.1,16-12.4,22.5-13.3c4-0.5,13,1.1,16.2,3.8c2.7,2.3,5.4,8.8,6.7,12
			c1.3,2.9,4.7,13.1,4.7,13.1s11.7-10.4,22.5-28.9c8.5-14.7,11.9-31.1,11.9-31.1s-20.9,5.4-27.9,6.1c-4.5,0.5-13.9,1.1-18-0.7
			c-5.2-2-13.7-9.9-16.2-14.9c-3.1-6.3-4.3-21-2.7-28c1.3-6.3,8.8-17.4,13.3-22.1c2.7-2.9,9.4-8.1,13.3-6.8c6.7,2.5,12.6,5,16.9,6.8
			c5.4,2.3,14.2,7.4,14.2,7.4l-9.9-31.3l-10.8-29.8l-5.2-12.2c0,0-9.7,8.1-13,10.8c-3.1,2.7-8.8,9.2-12.8,10.6
			c-2.5,0.9-8.3,0.9-11,0c-4.5-1.4-11.7-7.4-15.1-10.6c-4.3-4.3-12.1-14.2-13.9-20.1c-2-6.3-1.8-19.6,0-25.9
			c1.1-3.8,5.2-11,8.5-13.1c3.1-2,11.2-1.8,14.8-2.5c3.4-0.5,13.9-1.1,13.9-1.1s-8.3-17.8-13.9-24.8c-11.9-14.7-24.3-23.9-33.3-28.2
			c0,0-3.8,8.6-5.4,11.3c-1.8,3.2-5.4,9.5-7.9,12.2c-2,2-6.5,6.1-9.2,7c-1.6,0.5-5.2,0.5-6.7,0c-4-0.9-11.2-4.7-14.6-7
			c-6.5-4.1-18.7-13.8-23.4-19.6c-3.4-4.3-6.3-13.1-1.3-16.9c7.9-6.1,5.4-12.9-4.9-8.6C376.9,394.2,360.7,392.4,360.7,392.4z"/>
	</g>
</g>
</svg>
