<?xml version="1.0" encoding="utf-8"?>
<!-- Generator: Adobe Illustrator 26.0.1, SVG Export Plug-In . SVG Version: 6.00 Build 0)  -->
<svg version="1.1" id="BD-Body-Mat" xmlns="http://www.w3.org/2000/svg" xmlns:xlink="http://www.w3.org/1999/xlink" x="0px"
	 y="0px" viewBox="0 0 1200 1200" style="enable-background:new 0 0 1200 1200;" xml:space="preserve">
<style type="text/css">
	.st0{fill:none;}
	.st1{fill-rule:evenodd;clip-rule:evenodd;fill:#333333;}
	.st2{fill-rule:evenodd;clip-rule:evenodd;fill:#8D8988;}
	.st3{fill-rule:evenodd;clip-rule:evenodd;fill:#8D8988;stroke:#000000;stroke-width:3;stroke-miterlimit:10;}
	.st4{fill-rule:evenodd;clip-rule:evenodd;fill:#333333;stroke:#000000;stroke-width:3;stroke-miterlimit:10;}
	.st5{fill:#999999;}
	.st6{fill:#FDFDFD;}
	.st7{fill:#333333;}
	.st8{fill:#191919;}
	.st9{fill:#3A3A3A;}
	.st10{fill:#AFAFAF;stroke:#231F20;stroke-miterlimit:10;}
</style>
<rect id="Background" class="st0" width="1200" height="1200"/>
<g id="BD-Body-Mat_00000101813199170212160490000006184207999383905677_">
	<g id="Mat">
		<path class="st1" d="M19.8,747.4c21.6-11.4,43.7-21.9,65.6-32.6c37.2-18.1,74.3-36.2,111.5-54.3c20.2-9.9,40.4-19.8,60.7-29.7
			c48.1-23.6,96.3-47.2,144.4-70.7c29.5-14.4,59-28.7,88.5-43c25.8-12.6,51.6-25.2,77.3-37.9c2.7-1.3,5-1.5,7.8-0.8
			c18.1,4.5,36.1,9.1,54.3,13.2c29.3,6.5,58.5,13.8,87.7,20.7c33.2,7.8,66.3,15.8,99.5,23.8c13.9,3.3,27.9,6.6,41.8,9.9
			c56.5,13.5,113,27,169.4,40.6c50.7,12.2,101.3,24.5,151.9,36.8c0.5,0.1,0.9,0.4,1.3,0.5c-1.1,2-2.6,3.6-4.2,5.2
			c-21.5,20.8-42.8,41.7-64.3,62.5c-21.9,21.3-43.8,42.6-65.9,63.7c-18.5,17.6-36.6,35.8-55.3,53.3c-13.8,13-26.9,26.8-40.6,40.1
			c-21.9,21.4-43.5,43-65.3,64.4c-11.2,11-22.8,21.4-33.5,33c-10.2,11.1-21.7,21.3-32.4,32c-11.2,11.2-22.6,22.2-33.8,33.5
			c-9.4,9.5-18.5,19.3-28,28.7c-10.6,10.4-21.6,20.3-32.3,30.5c-7.6,7.3-15.2,14.7-22.7,22.1c-1.7,1.7-3.3,2.5-5.9,1.2
			c-30.1-14.9-60.2-29.9-90.5-44.4c-19.3-9.2-38.1-19.4-57.8-28.1c-19.6-8.7-38.4-19.1-57.8-28.3c-6.4-3-11.8-7.6-18.3-10.5
			c-12.8-5.8-25.2-12.3-37.7-18.7c-21.8-11.1-43.6-22.3-65.2-33.7c-23.1-12.1-46.1-24.5-69.2-36.7c-13-6.9-26.4-13-39.6-19.5
			c-16-7.8-31.5-16.4-47.3-24.5c-14.4-7.4-28.8-14.7-43.2-22c-19.1-9.8-38.1-19.8-57.3-29.3c-10.2-5-20-10.6-30.1-15.8
			c-18.2-9.5-36.3-19-54.3-28.9C25.8,751.9,21.4,751.6,19.8,747.4z M906.8,683.2c0.2-15.2-5.9-28-14.6-39.7
			c-10.9-14.6-24.8-25.9-40.1-35.4c-14.3-8.9-29.3-16.2-45-22.4c-11.8-4.7-23.8-8.7-36.1-11.6c-20.1-4.7-40.6-7.5-61.3-9.2
			c-23.2-2-46.4-2.8-69.7-2.4c-17.4,0.3-34.7,1.2-52,3.2c-16.1,1.9-32.2,3.6-48.1,6.7c-20.9,4.1-41.8,8.3-62.2,14.8
			c-16.4,5.3-32.7,10.9-48.4,18.1c-13.7,6.3-27.4,13-40.1,21.4c-26.5,17.5-50.1,37.5-63.8,67.3c-8.1,17.6-9.5,35.9-3.5,53.9
			c6.9,20.6,21.2,36.2,39,48.5c21.8,15,46.4,24.7,71.1,33.2c25.7,8.8,52.3,14.1,79.4,17.6c31.9,4,63.7,4.3,95.6,2.9
			c12.5-0.6,25-1.9,37.4-3.2c25.1-2.8,49.8-7.4,74.3-13c24.6-5.6,48.6-13.2,71.6-23.4c21.4-9.5,41.7-20.9,60.6-35.2
			c15.2-11.5,29-24.1,39.9-39.8C901.9,719.6,908.9,702.7,906.8,683.2z"/>
		<path class="st2" d="M19.8,747.4c1.6,4.2,6,4.5,9.2,6.3c18,9.8,36.1,19.4,54.3,28.9c10.1,5.2,19.9,10.8,30.1,15.8
			c19.2,9.5,38.2,19.6,57.3,29.3c14.4,7.4,28.8,14.6,43.2,22c15.8,8.1,31.4,16.7,47.3,24.5c13.2,6.5,26.6,12.6,39.6,19.5
			c23.1,12.2,46,24.6,69.2,36.7c21.7,11.4,43.4,22.5,65.2,33.7c12.5,6.4,25,12.9,37.7,18.7c6.5,3,11.9,7.5,18.3,10.5
			c19.4,9.1,38.2,19.6,57.8,28.3s38.5,18.8,57.8,28.1c30.3,14.5,60.4,29.5,90.5,44.4c2.6,1.3,4.2,0.5,5.9-1.2
			c7.6-7.4,15.1-14.8,22.7-22.1c10.7-10.2,21.7-20.2,32.3-30.5c9.5-9.4,18.6-19.2,28-28.7c11.2-11.2,22.6-22.3,33.8-33.5
			c10.7-10.8,22.2-20.9,32.4-32c10.6-11.6,22.3-22,33.5-33c21.8-21.5,43.4-43.1,65.3-64.4c13.6-13.3,26.7-27.1,40.6-40.1
			c18.7-17.5,36.7-35.6,55.3-53.3c22.1-21,44-42.4,65.9-63.7c21.5-20.8,42.8-41.7,64.3-62.5c1.6-1.6,3.1-3.2,4.2-5.2
			c2,3.9,2.1,7.1-1.5,10.6c-50.6,49.3-101.1,98.7-151.5,148.1c-43.5,42.5-86.9,85.1-130.3,127.7C857,950.8,816,991.4,774.8,1032
			c-23.2,22.8-46.4,45.5-69.6,68.3c-2.9,2.9-5.3,3.6-9.2,1.6c-20.7-10.7-41.8-20.7-62.3-31.8c-27.2-14.7-55.3-27.4-83.3-40.6
			c-29.1-13.8-57.7-28.4-86.3-43.2c-37.6-19.4-75.2-38.8-112.6-58.5c-20.7-10.8-40.7-23-61.7-33.1c-34.8-16.7-68.7-34.9-103.1-52.4
			C131.6,814.2,76.9,785,22.2,756.1C17.5,753.6,16.8,750.8,19.8,747.4z"/>
		<path class="st3" d="M906.8,683.2c2,19.4-4.9,36.4-15.8,52.1c-10.9,15.6-24.7,28.3-39.9,39.8c-18.8,14.2-39.2,25.6-60.6,35.2
			c-23,10.2-47,17.9-71.6,23.4c-24.5,5.6-49.2,10.2-74.3,13c-12.5,1.4-25,2.7-37.4,3.2c-31.9,1.5-63.8,1.2-95.6-2.9
			c-27.1-3.4-53.7-8.7-79.4-17.6c-24.8-8.5-49.3-18.2-71.1-33.2c-17.8-12.2-32.1-27.8-39-48.5c-6-18-4.6-36.3,3.5-53.9
			c13.6-29.7,37.3-49.8,63.8-67.3c12.7-8.4,26.3-15.1,40.1-21.4c15.6-7.2,32-12.8,48.4-18.1c20.4-6.6,41.3-10.7,62.2-14.8
			c15.9-3.1,32-4.8,48.1-6.7c17.3-2,34.6-3,52-3.2c23.2-0.4,46.5,0.5,69.7,2.4c20.7,1.7,41.2,4.5,61.3,9.2
			c12.2,2.9,24.3,6.9,36.1,11.6c15.7,6.2,30.7,13.6,45,22.4c15.3,9.5,29.3,20.9,40.1,35.4C900.9,655.2,907.1,668,906.8,683.2z
			 M621,567.9c-9.9,0.9-17.2,1.4-24.6,2c-22.1,1.9-43.9,5.4-65.7,9.5c-21.8,4.1-43.1,10.2-63.9,17.6c-18.7,6.7-36.7,15.3-54.1,24.9
			c-20.1,11.1-38.9,24.3-54.5,41c-11.4,12.1-20.7,26.1-24.4,42.8c-4.3,19.4-1.6,37.7,9.7,54.2c13.5,19.7,32.2,33.2,53.6,43
			c15.8,7.3,31.8,14.3,48.5,19.7c12.4,4,25,6.9,37.7,9.6c14.9,3.2,30,5.1,45.2,6.4c11.5,1,23,2.2,34.6,2.4c8.7,0.2,17.4-0.5,26-0.2
			c18.6,0.6,36.9-2.1,55.3-3.7c14-1.2,27.7-5.1,41.6-7.1c18.4-2.7,36.1-7.6,53.8-12.6c17.9-5.1,35-12.7,52-20.3
			c4.3-1.9,8.9-3.5,13-5.9c14.4-8.3,28.4-17.2,41.8-27.2c15.7-11.8,28.6-25.6,37.9-42.7c12.7-23.6,13-47.3-0.7-70.6
			c-8.3-14.1-20.5-24.6-33.7-33.9c-13.8-9.7-28.6-17.5-44.2-24c-17.8-7.4-36.1-13.4-55-17c-20.2-3.8-40.6-5.7-61.1-7
			C666,567.4,642.3,567.6,621,567.9z"/>
		<path class="st4" d="M621,567.9c21.3-0.3,45-0.5,68.7,1.1c20.5,1.3,40.9,3.2,61.1,7c18.9,3.6,37.1,9.6,55,17
			c15.6,6.5,30.5,14.3,44.2,24c13.2,9.3,25.4,19.8,33.7,33.9c13.7,23.3,13.4,47,0.7,70.6c-9.3,17.1-22.2,30.9-37.9,42.7
			c-13.4,10-27.4,18.9-41.8,27.2c-4.1,2.4-8.7,3.9-13,5.9c-17,7.6-34.1,15.2-52,20.3c-17.7,5.1-35.4,9.9-53.8,12.6
			c-13.9,2-27.6,5.9-41.6,7.1c-18.4,1.6-36.7,4.3-55.3,3.7c-8.7-0.3-17.3,0.4-26,0.2c-11.6-0.3-23.1-1.5-34.6-2.4
			c-15.2-1.3-30.3-3.2-45.2-6.4c-12.6-2.7-25.3-5.5-37.7-9.6c-16.7-5.4-32.6-12.5-48.5-19.7c-21.4-9.8-40.1-23.3-53.6-43
			c-11.3-16.5-14-34.8-9.7-54.2c3.7-16.7,13-30.7,24.4-42.8c15.7-16.7,34.4-29.9,54.5-41c17.4-9.6,35.4-18.3,54.1-24.9
			c20.8-7.4,42.1-13.5,63.9-17.6c21.8-4.1,43.6-7.6,65.7-9.5C603.8,569.3,611.1,568.8,621,567.9z M604.6,741
			c1.7-0.2,3.2-1.4,4.8-2.5c2.9-2,5.7-4.2,8.6-6.2c15.6-10.7,31.3-21.2,46.9-32c17.5-12.1,35-24.3,52.4-36.4
			c1.3-0.9,4.1-1.6,2.6-3.7c-1-1.4-3.4-1.8-5.6-0.3c-10,7-20.1,13.7-30.1,20.6c-11,7.6-22,15.4-33,23
			c-16.1,11.1-32.2,22.3-48.3,33.4c-0.9,0.6-2.1,1.2-1.5,2.6C601.9,740.6,603,741.1,604.6,741z M553.1,721c0.8-0.4,1.9-0.7,2.8-1.3
			c12.4-8,24.8-16.1,37.2-24.2c14.7-9.7,29.6-19.1,44.1-29.2c10.3-7.2,21.3-13,31.6-20.2c0.8-0.5,1.9-0.9,1.6-2.1
			c-0.3-1.3-1.6-1.6-2.6-1.8c-1.6-0.3-2.7,0.8-3.9,1.6c-5.2,3.4-10.5,6.8-15.7,10.2c-20.7,13.4-41.5,26.8-62.2,40.2
			c-11.4,7.4-22.9,14.9-34.3,22.3c-1.1,0.7-3.3,0.1-3,2.3C548.9,721.4,551.3,720.4,553.1,721z"/>
		<path class="st3" d="M604.6,741c-1.6,0.1-2.6-0.4-3.2-1.5c-0.7-1.4,0.5-2,1.5-2.6c16.1-11.1,32.2-22.2,48.3-33.4
			c11-7.6,22-15.4,33-23c10-6.9,20.1-13.6,30.1-20.6c2.2-1.5,4.6-1.2,5.6,0.3c1.4,2-1.3,2.7-2.6,3.7c-17.4,12.2-34.9,24.4-52.4,36.4
			c-15.6,10.7-31.3,21.3-46.9,32c-2.9,2-5.7,4.2-8.6,6.2C607.8,739.6,606.2,740.8,604.6,741z"/>
		<path class="st3" d="M553.1,721c-1.8-0.6-4.2,0.4-4.6-2.2c-0.3-2.1,1.9-1.6,3-2.3c11.4-7.4,22.9-14.9,34.3-22.3
			c20.7-13.4,41.5-26.8,62.2-40.2c5.2-3.4,10.5-6.8,15.7-10.2c1.2-0.8,2.4-1.8,3.9-1.6c1.1,0.2,2.3,0.5,2.6,1.8
			c0.3,1.2-0.8,1.6-1.6,2.1c-10.2,7.2-21.3,13-31.6,20.2c-14.5,10.1-29.4,19.5-44.1,29.2c-12.4,8.1-24.8,16.1-37.2,24.2
			C555,720.3,553.9,720.6,553.1,721z"/>
	</g>
	<g id="BD-Body">
		<path id="Sillowette" d="M1000.3,693.5c-2.2-2.4-2.7-5.6-2.7-8.8c-0.1-8.5-2.2-16.5-5.5-24.2c-3.9-9-9.1-16.9-17.3-22.9
			c-6.6-4.8-9.1-12.4-11.6-19.9c-1.7-5.4-3.1-10.9-5.9-15.8c-9.7-17.1-23.8-29.7-41-39c-8.8-4.7-18-9-27-13.3
			c-4.2-2-7.3-4.8-9.4-9.2c-7.2-15.6-18-28.4-31.8-38.7c-4.6-3.5-9.6-6.5-14.6-9.7c3.2-3,7-3.1,10.7-3.2c6.3-0.1,12.6,0.9,18.8,0.2
			c10.5-1.2,15.4-10.9,10-20c-1.6-2.6-3.4-5.1-5.6-7.2c-14.9-14.3-32.6-20.8-53.3-18.1c-13,1.7-23,8.2-29.3,19.9
			c-2.2,4.1-2.2,4.1-6.3,2.2c-38.1-17.8-76.3-35.2-113.3-55.2c-1-0.5-1.8-1.1-2.5-2c-13-16.6-28.2-31.1-45.4-43.4
			c-35.5-25.1-74.5-36.9-118-29.8c-14.9,2.4-29.1,7-41.4,16.1c-0.8,0.6-1.5,0.5-2.2,0.4c-5.5-0.8-10.8,0.2-15.9,2
			c-12.2,4.4-21.3,12.4-27.3,23.9c-0.4,0.8-0.5,1.8-2,1.6c-5.4-0.7-10.8-0.6-16.1-0.3c-1.5,0.1-2.7-0.3-3.9-1.4
			c-10.7-10.1-23.5-13.2-37.8-11.2c-10.2,1.4-19.5,5.4-28.5,10c-7.2,3.7-14,8.1-19.2,14.5c-2.5,3-4.6,6.3-4.9,10.3
			c-0.5,6.9,4.2,11.9,12.3,13.4c3.4,0.6,6.9,0.4,10.6,0.7c-0.6,1-1,1.6-1.3,2.3c-3.2,5.6-6,11.5-6.8,18c-0.5,3.7-2,5.3-5.4,6.6
			c-10.3,3.8-17.4,10.8-19.9,21.8c-1.2,5.2-1,10.4-0.1,15.5c0.3,1.9-0.2,2.8-2,3.6c-11.3,5.1-17.1,15.4-15.2,27.7
			c0.5,3.5,0.8,6.8-0.8,10.1c-0.5,1.1-0.7,2.4-0.8,3.7c-1,7,1.6,12.8,6,18.1c2.3,2.7,2.3,2.7-0.5,5c-1.5,1.3-3,2.6-4.4,4
			c-11.8,12-12.8,30.1-2.2,42.8c1.6,2,1.7,3.2,0.3,5.2c-1.2,1.7-2.1,3.6-2.9,5.4c-10.9,24.5-12.6,49.9-6.2,75.7
			c2.5,9.9,7,18.9,16.2,24.5c1.2,0.7,0.5,1.5,0.4,2.3c-2.2,11.5-1.4,22.8,2.5,33.9c2.8,8.1,8.3,13.2,16.7,15.1
			c8.2,1.9,16.6,1.8,24.9,1.4c6.1-0.3,12.1-1.4,17.8-3.9c2.5-1.1,4.1-4.3,6.5-4c2.4,0.3,4.6,2.5,7.1,3.5c14.2,5.7,29,6.3,43.9,4.1
			c7.5-1.1,14.4-4.2,21.3-7.1c7.8-3.3,12.5-9.6,12.7-18.4c0.1-5.8-2.1-10.9-5.2-15.6c-9.7-15-23-25.8-39.6-32.3
			c-7.3-2.9-15-5.8-23.1-1.8c-0.2-4,0.1-7.9,1.6-11.5c1.4-3.6,4.1-5.5,8-5.7c4.6-0.2,8.9,0.6,13.2,2c12.6,3.9,24.6,9.3,37.2,13.4
			c15.2,5,30.6,9.1,46.6,10.5c17.2,1.5,34.2-0.1,51.1-3.5c10.2-2,20.2-4.7,30.1-8.1c0.2,0.4,0.3,0.5,0.2,0.5c-0.1,1.3-0.3,2.7-0.4,4
			c-0.6,10.7,2.7,19.6,12,25.7c6.1,4,13,4.9,20.1,4.7c6.3-0.2,12.3-2.4,18.9-0.4c7,2.2,13.7-1,19.6-5.2c0.9-0.6,1.5-1.3,2.9-0.7
			c2.6,1.2,5.5,1.6,8.4,1.3c1.8-0.2,2.6,0.1,2.2,2.2c-0.3,1.5-0.1,3,0,4.6c1.2,15.5,12.4,26.9,26.3,26.1c1.4-0.1,1.6,0.8,2,1.6
			c3.3,6.7,8.6,10.6,15.8,12.2c4.7,1,9.5,1,14.2,0.6c15.4-1.2,30.8-2.8,46.2-3.4c9.3-0.4,18.5-0.4,27.7,0.7
			c5.9,0.7,11.5,2.9,17.3,3.7c7.6,1,15,1.1,22.4-1.2c14.7-4.7,19.2-17.9,17.8-30.7c-1.2-10.2-6.9-17.7-15.3-23.3
			c-1.1-0.7-1.9-1.2-1.5-2.9c5.5-19.6,5.4-39.4,2.1-59.3c-0.6-3.5-1.2-7-1.9-11.1c7.3,5.1,14.2,9.5,21.3,13.8
			c11.4,6.8,23.5,11.4,37.1,11.3c10.6-0.1,21.2-1,31.6-2.7c0.9-0.1,1.9-0.8,2.5,0.6c2.9,5.6,5.8,11.1,8.8,16.8
			c-5.5,1-10.5,2.2-15.3,4.2c-0.9,0.4-1.6-0.1-2.3-0.2c-9.8-2.1-19.6-3.5-29.6-2.2c-11.3,1.4-19.2,7.6-21.4,17.9
			c-3.3,15.7-0.1,30.3,9.3,43.4c5.8,8.1,13.8,12.7,24,11.7c4.7-0.5,8.8-0.1,13.3,1.3c12,3.7,23.4,1.2,34-5.2
			c1.4-0.9,2.2-0.8,3.3,0.3c1.9,1.9,4.2,3.3,6.6,4.6c9,4.5,18.5,4.9,28.1,3.2c15.1-2.7,28.5-8.8,39.2-20.3
			C1007.8,717.5,1007.9,701.8,1000.3,693.5z M678.3,668.5c-0.9,0.2-1.6,0.1-2.1-0.7c-0.4-0.5-0.8-1-1.2-1.5c-3.3-4.6-3.2-5.1,1.5-8
			c7-4.2,13.6-9,19.3-14.9c0.3-0.3,0.7-0.5,1.2-1c1,9,0.7,17.9,2.5,27C692.4,667.2,685.4,666.5,678.3,668.5z"/>
		<g id="Gray_Parts">
			<g id="Leg_and_Paw_Parts">
				<path id="Leg_and_Paw" class="st5" d="M358.3,696.3c0.1-0.1,0.3-0.2,0.4-0.3c5.2-7.4,8.2-8.5,16.9-6.4
					c12.2,2.9,22.3,9.6,31.4,18c5.4,5,10.3,10.5,13.4,17.3c4,8.8,0.6,16.6-8.6,19.6c-1.2,0.4-1.9,0.2-2.6-0.9
					c-7-10.8-15.6-20.1-25.3-28.5c-3.3-2.8-6.7-5.4-10.5-7.5c-0.9-0.5-1.9-1-2.9-1.3c-0.9-0.3-2-0.8-2.7,0.2
					c-0.7,1.1,0.2,1.9,0.9,2.5c3,2.9,6.1,5.9,9.2,8.7c9.1,8.4,17.1,17.6,23.5,28.3c1,1.6,1,2.4-1,2.8c-14.4,2.9-28.7,3-42.8-1.5
					c-5.7-1.8-10.4-4.9-14-9.9c-3.3-4.6-6.7-9.1-10.8-13.1c-0.6-0.6-1.3-1.7-2.2-1.3c-1,0.6-0.4,1.7-0.1,2.6c1.8,5.6,4.4,11,7,16.3
					c1.1,2.3,0.5,3.5-1.5,4.5c-3.6,1.9-7.6,2.8-11.6,3.2c-8.7,0.8-17.4,0.9-26-0.8c-5.6-1.1-9.6-4.3-11.4-9.9
					c-3.9-12.1-4.9-24.3,0.2-36.3c3.1-7.3,8.7-11.5,16.9-11.7c1.5,0,3-0.2,4.7-0.4c-6.3-5.2-16-4.9-22.5,0.6
					c-1.9,1.6-3.6,3.3-4.8,5.4c-0.8,1.5-1.5,1.5-2.8,0.5c-5.1-4.3-8.2-9.9-9.9-16c-7-26.2-5.4-51.7,6.9-76.1
					c1.7-3.4,1.8-3.3,5.3-1.9c5.1,2.1,10.4,2.8,15.8,2.8c1.7,0,2.5,0.4,2.9,2.1c6.3,23.7,29.1,40.4,51.1,42.5
					c3.6,0.3,7.2,0.1,10.7-0.4c0.8-0.1,1.5-0.2,2.2,0.5c1.8,2.2,3.8,4.3,5.7,6.6c-1.7,0.7-3.5,1.1-5,1.9c-4.8,2.4-7.4,6.7-8.8,11.7
					c-2.2,7.8-1.3,15.5,1.3,23C357.2,694.7,357.5,695.7,358.3,696.3z"/>
				<path id="Paw_Part" class="st5" d="M586.7,705.8c-7,1-13.6,1-19.6-2.5c-8.1-4.6-10.1-13.5-8.4-22.2c0.2-1.1,0.9-1.2,1.7-1.1
					c6.4,0.9,12.8,1.6,19.3,1.6c1.3,0,1.7,0.6,1.5,1.8C580.3,691.4,582,698.7,586.7,705.8z"/>
				<path id="Paw_Part_00000005254885933849666250000003107378698027715492_" class="st5" d="M882.2,679.5
					c-16.2,12.1-20.7,39.4-9.8,55.8c-4.7,0.6-8.7-0.9-12.2-3.8c-4.9-4.1-7.9-9.5-9.9-15.4c-2.5-7.3-3.8-14.7-2.8-22.5
					c1.1-8.6,5.2-13.1,13.7-14.6C868.1,677.7,874.9,678.2,882.2,679.5z"/>
				<path id="Paw_Part_00000147220389038550254280000011505495240346232962_" class="st5" d="M621.6,689c0.2-11,0.2-10.8,10.1-13
					c10.5-2.3,20.6-6,30.4-10.5c1.8-0.8,2.9-1,3.5,1.2c0.3,0.9,0.7,1.9,1.4,2.6c2.3,2.4,1.9,4.1-0.6,6.1c-2.7,2.1-4.2,5.1-5.1,8.4
					c-0.4,1.2-0.9,1.6-2.2,1.8c-9.2,1.2-16.2,5.8-21,13.8c-0.6,1-1.3,1.5-2.4,1.8c-2.3,0.5-4.7,0.6-7,0.2c-3.9-0.6-6.4-3.8-6.9-8.8
					C621.7,691.2,621.7,689.7,621.6,689z"/>
				<path id="Paw_Part_00000129177242370734486720000006181314005343418518_" class="st5" d="M589.2,687.3c0-5.7,0-5.5,5.4-5.9
					c5.9-0.4,11.8-0.9,17.7-1.7c2.1-0.3,2,0.5,1.8,1.9c-0.7,5.1-0.8,10.2,0.5,15.2c0.1,0.4,0.2,0.9,0.4,1.3c1.5,4.3,1.5,4.3-2.6,6.4
					c-10.8,5.4-21.5-1-22.8-13.7C589.3,689.5,589.3,688.3,589.2,687.3z"/>
			</g>
			<g id="Chest">
				<path id="Chest_Part" class="st5" d="M481.1,683.3c-14.8,0.3-29-2.6-43-6.4c-15.9-4.3-30.9-11.1-46.5-16.1
					c-7.5-2.4-13.4-6.7-18.8-12c-1.8-1.7-1.3-2.4,0.7-3.2c7.1-2.9,14.7-3.9,22.2-5c1.5-0.2,3.1-0.2,4.5-0.6c8.2-2.3,15.5,1.3,23,3.4
					c11.7,3.3,23.7,5.9,35.7,7.9c1.3,0.2,2,0.7,2.4,2c2.4,6.8,5.5,13.3,9.4,19.3C473.5,676.7,476.3,680.9,481.1,683.3z"/>
				<path id="Chest_Part_00000064354729281083990970000012564295147744032405_" class="st5" d="M484.6,683.5c8.9-6,9.9-15.8,13-24.7
					c12.3,7,25.2,12.2,39.4,16.4C519.5,680.1,502.4,682.9,484.6,683.5z"/>
			</g>
			<path id="Tail" class="st5" d="M851.8,480.9c-5.1-0.3-10.2-0.6-15.3,0.4c-3.8,0.8-7.1,2.4-9.6,5.4c-0.8,1-1.4,1.2-2.7,0.6
				c-10.7-5.1-21.4-10.1-32.1-15.1c-1.7-0.8-1.8-1.5-1.1-3c4.4-9.9,12.3-15.6,22.7-17.3c18.8-3,34.8,2.9,48.3,16
				c1.7,1.6,3.1,3.5,4.2,5.6c1.9,3.7,0.2,6.9-3.9,7.4c-1.8,0.2-3.6,0.2-5.4,0.2C855.2,481.2,853.5,481,851.8,480.9z"/>
			<path id="Body" class="st5" d="M993.2,697.7c-3.1-3.4-3.9-8-3.9-12.6c-0.1-9.5-3-18.3-7.3-26.7c-3-5.7-7-10.4-12.3-14.4
				c-7.7-5.8-11.3-14.4-14.2-23.3c-1.8-5.4-3.1-11-6.1-16.1c-8.1-13.8-19.5-24.3-33.2-32.4c-10.1-6-20.9-10.7-31.5-15.8
				c-5.1-2.5-9.3-5.8-11.6-11.1c-9.4-20.9-25-36-44.9-46.7c-17.9-9.6-36.5-17.6-54.9-26.2c-30.7-14.4-61.5-28.6-91.7-43.9
				c-2.1-1.1-4.2-2.2-6.3-3.2c-0.4,0.8,0,1.1,0.2,1.5c11,17.8,18.7,36.9,22.4,57.5c0.6,3.4,1.4,6.9,0.5,10.6
				c-1.4-0.6-1.5-1.8-1.9-2.7c-1.7-4.3-3.3-8.7-4.9-13.1c-14.4-39.5-36.7-73.6-69.8-100.1c-22.5-18-47.3-31-76.1-35.8
				c-19-3.2-37.9-2.6-56.6,2.4c-7.3,2-14.3,4.7-20.9,8.4c-0.5,0.3-2.7,0.6-0.7,2c4.7,3.2,9.4,6.3,14.1,9.4c4.4,2.9,9.2,4.2,14.6,3.6
				c4.8-0.5,9.7-0.5,14.5,0.3c7.7,1.3,11.6,7,10.2,14.6c-0.5,2.9-1.7,5.5-3,8c-0.4,0.7-1.6,1.4-0.8,2.3c0.9,1.1,1.8-0.1,2.6-0.5
				c5.8-2.9,11.5-6.2,18-7.8c5.8-1.4,8.3,1,7.1,6.8c-1.1,5.6-3.4,10.8-5.9,15.8c-0.8,1.6-0.7,2.5,0.6,3.6
				c15.3,14.1,28.1,30.2,38.9,47.9c0.7,1.2,1.5,1.5,2.8,1.4c3.8-0.3,7.7-0.7,11.5-0.7c4.7,0,9.5-0.2,14.1,1.3c2.8,1,3.7,3.4,2.1,6
				c-1,1.7-2.4,3.1-3.9,4.5c-3.5,3.3-7.3,6.4-11.3,9.1c-2,1.4-2.4,2.4-1.3,4.7c9.4,19.9,16.5,40.5,20.5,62.1
				c0.3,1.5,0.9,2.4,2.3,3.2c5.3,2.8,10.6,5.8,15,10c3.9,3.6,3.3,6.8-1.6,8.8c-4.1,1.7-8.4,2.5-12.7,3.2c-1.4,0.2-1.9,0.7-2.1,2.2
				c-2.7,20.2-12.3,36.7-27.6,49.9c-1.5,1.3-1.6,2.4-1,4.1c1.8,6.1,3.3,12.3,2.9,18.8c-0.3,5.1-2.8,6.9-7.7,5.5
				c-1.1-0.3-2.2-0.7-3.3-1.1c-5.9-2.4-11.4-5.6-16.7-9.1c-1.3-0.9-2.4-1-3.9-0.4c-8.3,3.4-16.9,5.9-25.7,7.9
				c-7.7,1.7-15.5,2.4-24.1,3.1c1.3,0.7,1.8,1.1,2.3,1.4c18.7,9.4,38.5,15,59.4,16.9c15.2,1.3,30.3,0.8,45.4-1.6
				c22.2-3.5,43.2-10.4,62.3-22.5c6.9-4.4,13.3-9.5,18-16.4c0.6-0.9,1.3-1.8,1.1-3.2c-1-5.1-2.3-10.1-4.3-14.9
				c-4.9-12.2-22.8-17.8-32.9-4.6c-0.8,1-1.6,1.9-2.4,2.9c-5.5,7.9-13.2,10.2-22.4,8.8c-6.4-1-10.9-4.7-14.3-10
				c-0.5-0.7-1.1-1.7-0.3-2.4c0.7-0.6,1.5,0,2.2,0.4c2.4,1.4,4.9,2.7,7.2,4.2c7.4,4.7,17.8,1.4,21.9-5.1c1.1-1.8,2.6-3.4,4-5.1
				c9.6-11,21.5-12.2,34.1-4.7c7.7,4.5,11,12.3,13.3,20.5c3.3,11.9,3.7,24.1,4.4,36.3c0.5,7.6,1.3,15.2,4.1,22.4
				c3.9,10.1,10.3,18.4,17.6,26.2c0.9,1,2,1.9,2.8,3.7c-0.9-0.4-1.3-0.5-1.7-0.7c-10.7-5.9-18.8-14.3-24.4-25.1c-0.5-1-1-1.9-2-2.4
				c-5.9-3.1-12.2-4.9-18.9-3.9c-5.6,0.8-10.4,3.2-13.5,8.3c-0.7,1.2-0.7,1.7,0.9,2.2c5.2,1.5,9.6,4.4,13.7,7.9
				c1.1,1,2.4,1.9,2.6,3.6c-0.9,0.5-1.7,0.2-2.6-0.1c-2.1-0.7-4.2-1.5-6.4-2.1c-6.9-2.1-13.9-2.9-21-1c-7.4,2.1-12.2,7.1-14,14.6
				c-1.8,8.1,0.1,15.3,6,21.3c2.3,2.3,5.1,3.5,8.3,4.1c1.6,0.3,2.5,0.1,2.3-2c-0.2-2,0.1-4.1,0.3-6.2c1.4-15.5,15.5-21,27.8-16.1
				c1.4,0.6,2.9,1.2,4.3,2.9c-2.1-0.2-3.6-0.5-5.2-0.5c-6.9-0.1-13.7,0.5-17.2,7.8c-3.9,8.3-2.5,16.1,2.4,23.4
				c1.9,2.8,4.9,4.1,8.2,4.7c4.8,1,9.7,0.6,14.5,0.2c16-1.3,32-2.9,48.1-3.3c12.2-0.3,24.4-0.1,36.3,3.3c6.6,1.9,13.4,2.4,20.3,1.5
				c8.6-1.2,14.4-5.9,16.2-13.6c2.4-10.5-0.7-19.1-9.3-25.7c-1.5-1.1-2.1-1.2-3.1,0.5c-3.5,5.7-8.1,10.5-13.6,14.4
				c-0.9,0.7-2,1.8-3.1,1c-1.1-0.9,0-2.2,0.6-3.1c1.1-1.9,2.2-3.7,3.4-5.5c6.8-10.4,10.6-21.9,12.3-34.1c2.6-19.2,0.6-38.1-4.1-56.8
				c-7.1-28.4-19.5-54.3-36.2-78.2c-0.9-1.3-1.9-2.5-2-4.4c1.5,0.3,2.4,1,3.3,1.7c4.3,3.5,7.7,7.7,11,12.1
				c12.9,17,21.9,35.9,28.6,56.1c0.5,1.4,0.9,2.6,2.2,3.5c8.4,6.1,17,12.1,26,17.3c6.8,4,13.7,8,21.5,9.7c8.6,1.9,17.3,1.4,26,0.8
				c7.4-0.5,14.8-1.5,22.1-3c2.1-0.4,3.3,0.2,4.4,2.3c4.7,9.3,9.6,18.5,14.5,27.7c2,3.8,1.9,3.8-2.3,3.8c-8.3,0.1-16.2,1.8-23.7,5.4
				c-15.7,7.5-20.8,21.8-19.2,37.2c0.7,7.4,3.7,13.7,10.8,16.8c10.8,4.7,21.2,2.6,31.1-3.1c1.2-0.7,0.9-1.5,0.4-2.5
				c-1.5-3.1-2.4-6.3-3.1-9.7c-3-15.8,3.5-27.4,18.2-32.4c3.1-1.1,6.4-1.9,9.7-1.8c0.6,0,1.4,0.1,1.6,0.8c0.2,0.8-0.6,1-1.2,1.3
				c-1.6,0.7-3.3,1.3-4.9,2.1c-9.1,4.5-15,11.2-15.8,21.7c-1,13.4,6.6,24.6,18.6,27.3c4.9,1.1,9.9,1.4,15,0.7
				c13.7-2,25.8-7.1,35.8-17C998.2,716.3,999.7,704.9,993.2,697.7z"/>
			<g id="Head">
				<path id="Chin" class="st5" d="M377.1,577.5c-15.2,2-30.8,1.8-44.9,9.4c-7.4,4-15,7.7-23.3,9.6c-7,1.6-14,1.9-21.1,0.4
					c-14.3-3-20.8-17.6-16.5-30.5c5.3-15.8,21.8-23.4,38.2-17.6c5,1.8,5,1.8,1.2,5.5c-7.6,7.5-11,14.8-12.2,27
					c1.5-1.9,2.3-4,3.3-5.9c2.6-5,5.3-10,8.8-14.5c5-6.4,11.5-9.7,19.7-10c9.7-0.4,18.8,2,27.7,5.7c12.5,5.1,25,10.5,37.9,14.5
					c13.8,4.3,27.9,5.7,42.2,2c3.3-0.8,6.3-2.4,9.6-3.9c0.4,7.5,1,14.7,2.7,21.8c2.4,10.4,6.3,20.2,12.6,28.9c1.6,2.2,1,2.8-1.2,3.6
					c-7,2.7-14.4,3.7-21.8,4.5c-14.8,1.6-29.7,2.7-44.5,4.4c-9.8,1.1-19.5,2.9-28.5,7.2c-9.1,4.3-18.4,3.3-27.5-0.2
					c-15.2-5.9-26-16.2-31.4-31.8c-0.7-2.1-0.5-2.9,1.9-3.3c3.8-0.6,7.5-1.7,11-3.4c1.7-0.9,2.8-0.5,4.3,0.7
					c8.1,6.5,17.1,10.5,28.4,9.9c-4.1-2.3-7.8-4.1-11.3-6.3c-3.6-2.4-7-4.9-10.2-7.9c-1.5-1.3-1.7-2,0.2-3.3
					c9.2-6.3,19.3-9.8,30.3-11.1c3.7-0.5,7.5-1.1,10.9-2.8C374.8,579.4,376.1,578.8,377.1,577.5
					C377.1,577.5,377.1,577.5,377.1,577.5z"/>
				<path id="Cheek" class="st5" d="M493.2,510.8c-2.5-6.8-7.1-11.8-11.2-17.2c1.7-0.4,2.8,0.7,3.8,1.3
					c17.7,10.6,34.6,22.2,47.7,38.5c7.9,9.7,13.5,20.5,14.9,33.1c2.1,19.2-5.1,33.2-22.2,42.1c-16.2,8.4-33.7,11.4-51.8,11.5
					c-1.7,0-2.3-1.1-3.1-2.1c-7.8-10.1-12.3-21.6-14.4-34.1c-1.8-10.4-1.5-20.9-0.4-31.4c1.7-15.2,1.1-30.3-4.2-44.9
					c-3.2-9-8.6-16.3-17.7-20.3c-9.4-4.2-19.3-2.1-26.3,5.5c-0.7,0.8-1.6,1.6-2,2.5c-4.5,9.1-12.4,11.4-21.8,10.9
					c-4.5-0.3-9-0.2-13.5,0.1c-7.3,0.4-12.8,3.6-16.9,9.5c-1.5,2.2-3.3,4.3-4.7,6.6c-6.4,10.3-19,8.4-25.3,0
					c-6.1-8.2-5.7-20.1,1.2-28.8c4.8-6.1,11-10,18.7-11.2c4.5-0.7,8.7,0.5,13,1.7c3.9,1,7.8,2.3,11.8,2.7c6.1,0.7,11.5-0.4,15.9-5.3
					c4-4.5,8.2-8.8,12-13.4c10.5-12.7,26.4-17.4,43.1-6.1c11.7,8,21.7,17.7,31.4,27.7c6.2,6.4,12.4,12.7,18.6,19.1
					C490.8,509.5,491.5,510.3,493.2,510.8z"/>
				<path id="Upper_Lip" class="st5" d="M295.4,521c-1.8,0.1-4.6-0.6-7.4-1.6c-5.6-2.1-8.5-5.9-8.3-12c0.2-7,3.1-12.4,9.1-16.1
					c0.9-0.5,1.4-0.9,2,0.4c4.7,10,13,15.4,23.2,18.4c1.3,0.4,1.7,3.2,0.5,4.5c-0.9,1-2,1.8-3.2,2.5
					C306.8,519.7,301.9,521.1,295.4,521z"/>
				<path id="Eye_Lid" class="st5" d="M395.7,437.3c4.6-4.9,8.7-9.4,14.5-11.9c4.4-1.9,8.7-1.7,13.1-0.3c2.6,0.9,4.1,3.1,5.1,5.6
					c2.5,6.2,1.8,12.3-1.2,18.2c-0.6,1.1-1.3,1.3-2.6,1.4c-3.2,0.2-5.2-0.5-6.9-3.7c-2.5-5-7.1-7.9-12.7-9
					C402.1,436.9,399.2,437.3,395.7,437.3z"/>
				<path id="Forehead" class="st5" d="M383.2,389.2c-5.2,4.4-9.1,8.9-11.9,14.3c-0.5,1-0.9,2.1-1.6,3.6c1.8-0.7,2.5-1.9,3.3-2.9
					c8.8-9.9,19.8-15.1,32.9-16.1c1.9-0.1,2.6,0.3,2.4,2.3c-0.1,0.9,0,1.8,0.2,2.7c0.5,1.9,1.1,3.8,1.6,5.9c1.3-1.7,1.4-3.6,2-5.4
					c4.5-14.7,14-25.1,28-31.2c9.6-4.2,18.7-2.8,27.3,3c3.8,2.6,7.5,5.2,11.4,7.7c5.5,3.4,11.5,4.7,18,4.1c4.2-0.4,8.4-0.6,12.6,0.2
					c3.8,0.7,4.8,2.4,3.8,6.1c-1.8,6.3-6.1,10.5-11.7,13.3c-9.1,4.6-18.4,5.3-28.1,1.8c-6.5-2.3-13.2-2.6-19.8-0.7
					c-1.1,0.3-2.3,0.6-3,2c1.7,0.8,3.5,0.6,5.2,0.7c5.7,0.1,10.5,2.8,15.4,5.3c0.8,0.4,0.9,1,0.9,1.7c-0.4,13.3,6.8,22.8,15.5,31.7
					c6.4,6.5,14,11.5,21,17.3c11.6,9.7,18.6,22.1,21.2,37c0.3,1.7,0.9,3,1.9,4.3c7.8,10.3,11.7,22.1,13.3,34.8c0,0.4,0,0.8-0.1,1.7
					c-5.9-8.2-12.4-15.2-19.6-21.6c-12.9-11.4-27.3-20.7-42.3-29.1c-4.9-2.8-9.8-5.7-15-7.8c-4.3-1.7-7.5-4.8-10.9-7.7
					c-3.9-3.3-7.9-6.5-12.1-9.4c-4.2-2.8-8.7-5.3-13.6-7.1c4.3-6.1,5-12.6,3.3-19.6c-2.5-10.2-9.2-14.2-19.9-13.3
					c-8.8,0.7-14.9,6.5-20.7,12.6c-7.5,7.9-13.2,17.3-20.4,25.4c-6.5,7.4-13.5,14.1-22.1,19.1c-2.8,1.6-6,0.7-8.9,1.4
					c-0.9,0.2-1.4-1-1.8-1.8c-5.9-9.2-6.5-20.9,3.3-30.9c4.3-4.4,9.3-8.2,13.1-13.2c2.6-3.3,4.9-6.8,5.8-11
					c-5.3,8.8-13.7,14.4-21.1,21c-3.2,2.8-6,5.9-8.2,9.6c-4.1,6.9-3.9,14-1,21.6c-12.1-3.8-23.9-4.5-35.8,0.9
					c-0.4-8.1,2.1-14.6,8.4-19.5c1.2-0.9,2.5-1.7,3.8-2.5c3.9-2.2,6.8-1.7,9.9,1.5c1,1,1.9,2.1,3,3.5c0.5-2.1,0.3-4,0.1-5.8
					c-1.5-14.8,3.7-27.2,13.4-37.8c10.4-11.4,23.8-17.6,38.4-21.7C376.6,390.2,379.4,389.2,383.2,389.2z"/>
				<path id="Ear" class="st5" d="M381.2,380.6c-6,1.5-11.4,2.8-16.7,4.7c-12.3,4.5-23.6,10.5-33,19.7c-0.6,0.6-1.1,1.2-2,1.3
					c-5.6,0.8-11.3,1.4-16.9,0.1c-4.8-1.1-5.9-3.9-3.2-8.1c2.5-4,6.1-7.1,10-9.6c10.6-6.9,22-12.2,34.6-14.1
					C363.6,373.1,372.6,374.7,381.2,380.6z"/>
			</g>
		</g>
		<g id="White_Parts">
			<g id="Spikes">
				<path id="Spike_00000041292950597516356200000002455401688892479400_" class="st6" d="M493.8,644.7c-0.4,9.4-2.4,18.5-6.2,27.1
					c-0.4,0.8-0.8,1.6-1.2,2.4c-2.7,4.5-4.1,4.6-7.4,0.4c-6.5-8.3-11-17.6-13.8-27.7c-1.4-4.8,0.1-8.4,4.4-11
					c6-3.6,12.4-4.3,19.2-2.4c3.2,1,4.8,3.2,4.8,6.6C493.5,641.6,493.7,643.2,493.8,644.7z"/>
				<path id="Spike_00000064318660959273555340000011029414718169988529_" class="st6" d="M583.2,646.9c0.1,3.2-0.2,3.5-3.1,2.1
					c-10.2-4.9-19.8-10.8-28.2-18.4c-3.6-3.2-3.9-5.9-1.4-10c2.9-4.7,6.9-8.2,12-10.4c4.8-2.1,6.5-1.6,9.5,2.7
					c3.2,4.5,5.3,9.5,7,14.7C581.1,633.8,582.9,640.2,583.2,646.9z"/>
				<path id="Spike_00000111175258037863882070000006061723647397937026_" class="st6" d="M626.6,565.5c-3.9,1.7-8.1,2.4-12.2,3
					c-10.4,1.7-20.8,2.9-31.3,2.5c-4.2-0.2-6.3-1.7-7.6-5.6c-1.7-5.3-1.5-10.6,0.5-15.8c1.6-4.1,3.3-5,7.7-4.3
					c6.2,1,12.1,3.1,17.9,5.6c8,3.5,15.8,7.3,22.8,12.4C625.2,564,626.1,564.4,626.6,565.5z"/>
				<path id="Spike" class="st6" d="M603.6,466.6c-2.4,2.8-4.9,4.7-7.3,6.6c-8.4,6.5-17,12.6-26.4,17.5c-4.9,2.6-7.6,2-11.4-2.1
					c-2.8-3.1-4.5-6.7-5-10.8c-0.3-2.5,0.4-4.5,3-5.6c6.7-3,13.9-4.1,21.1-5C586.1,466.2,594.6,465.9,603.6,466.6z"/>
				<path id="Spike_00000098943791795790263770000007251386862308892862_" class="st6" d="M540,390.9c-2.1,8.9-5.9,16.5-10.2,23.8
					c-2.8,4.7-5.8,9.2-9.8,13.1c-3,2.9-6.2,3.3-9.8,1.6c-4.6-2.2-8.1-5.6-10.2-10.2c-1.3-2.8-0.8-5.2,1.4-7.3
					c3.7-3.5,8.1-6,12.4-8.4c7.5-4.3,15.1-8.7,23.3-11.6C537.8,391.5,538.7,391.3,540,390.9z"/>
			</g>
			<g id="Teeth">
				<path id="Lower_Big_Teeth" class="st6" d="M449.1,515.1c3,12.3,3.1,24.2,2.2,36.3c-0.8,10.2-5.6,14.1-15.6,16.7
					c-11,2.9-22.1,2-33-0.7c-13.8-3.4-26.7-9.4-39.8-14.6c-6.4-2.5-12.9-5-19.7-6.2c-0.9-0.2-5.4-0.5-5.4-0.5
					c2.8-0.5,5.4-6.3,7.1-9.2c2.2-4,3.5-3.2,5.2-1.3c2.6,2.9,3.9,5,6.2,7.8c3.9,4.6,6.7,5.5,11.7-2.2c2.4-3.6,4.5-7.5,6.7-10.8
					c1.4-1.9,3.1-1.1,5,0.8c3,3.1,5.7,6.5,9.2,9.1c4.4,3.2,7,2.7,10-1.9c2.8-4.3,6-9.2,8.5-13.7c0.1-0.2,0.2-0.5,0.4-0.7
					c2.3-3.4,3.1-2.7,4.9-0.7c4.5,4.5,5.8,6.4,9,9.8c8.5,9.1,8.6,7.5,15.1-1.7c4.6-6.8,6.3-9.2,11.1-14.8
					C448.1,516.3,448.4,515.9,449.1,515.1z"/>
				<path id="Upper_Big_Teeth" class="st6" d="M382.9,511.2c3.2,0,6.5,0.2,9.7,0c7.1-0.5,12.5-4,16.3-10c1.7-2.7,3.7-5.3,6.3-7.3
					c8.8-6.6,19.2-2.7,25.5,4.2c2.8,3.2,4.5,7.1,6.3,10.9c0.5,1,0.3,1.8-0.4,2.7c-5,5.9-8.9,11.3-14.5,18.5
					c-1.8,2.6-2.5,4.7-4.6,3.2c-4.4-3.9-8.4-8.4-12.3-13.1c-4.4-5.1-7.2-4.2-9.9-0.6c-2.6,4.8-6,9.6-8.9,14.7
					c-2.5,4.9-2.5,4.8-6.8,1.5c-2.8-2.2-5.7-5.8-8.3-8.3c-5.4-5.1-6.3-4.2-9.6,0.1c-2.6,3.8-5.4,8.8-8.1,12.7
					c-1.2,1.7-2.4,2.7-3.7,1.7c-3.1-3.6-4-4.8-7.1-8.6c-1-1.2-1.6-2-3.7-3.3c0.9-0.4,4.8-3.3,8.5-9.7c3.9-6.5,9.6-9.4,17-9.1
					c2.8,0.1,5.6,0,8.3,0C382.9,511.3,382.9,511.2,382.9,511.2z"/>
				<path id="Small_Tooth" class="st6" d="M279.7,520.6c4.7,3.5,9.9,5.6,16.2,5.7c-2.9,0.7-6,8.1-8.1,11.9c-2.1,3.5-2.8,2.6-4.9,0.7
					C278.1,534,276.9,526.9,279.7,520.6z"/>
				<path id="Small_Tooth_00000176745456225691667590000008746361511290254734_" class="st6" d="M310.7,543.3c3.5-0.8,4.9-5.6,8-9.5
					c2.6-3.3,4.3-2.1,5.9,0.9c1.9,3.6,4.7,10,7.3,11.1c-1.3-0.1-0.8-0.2-3.9,0c-2.5,0.1-5,0.8-7.3,1.8c-0.8,0.4-1.4,0.1-2-0.3
					C316.5,545.8,313.5,544.5,310.7,543.3z"/>
				<path id="Small_Tooth_00000010275980468834045570000004816705062781485477_" class="st6" d="M299,526.4
					c6.9-0.7,12.7-2.8,17.9-6.5c0.1,0.1,0.2,0.1,0.2,0.2c1.3,2.2,3.2,5.6,4.9,7.5c-1.5,0.2-3.4,1.7-5.1,3.5c-1.6,1.7-3.3,5-4.8,7.1
					c-1.4,2.4-3,3.1-5.3-1.1C303.2,531.1,300.9,527,299,526.4z"/>
				<path id="Small_Tooth_00000161626082163409758430000011821844150332903344_" class="st6" d="M326.1,530.5
					c6.7,4.5,14.1,3.3,17.5,2.3c-1,0.6-3.6,5.5-5.2,8.1c-0.7,1.2-2.4,2.7-3.5,2.6c-1.2,0-2.3-1.9-3.2-3.3
					C329.8,537.1,327.6,531.9,326.1,530.5z"/>
				<path id="Small_Tooth_00000131366063733043193380000002377201516829066120_" class="st6" d="M306.2,542
					c-4.9-1.1-11.3-2.4-16.6-0.8c1.2-0.6,4.9-11.3,7-11.7C299.5,528.2,305,541.3,306.2,542z"/>
			</g>
			<g id="Eye">
				<path id="Eye_White" class="st6" d="M399.8,442.4c6.1,0,10.4,2.2,13.5,6.9c0.5,0.8,1.1,1.6-0.4,2c-10.1,2.5-17,9.2-23.2,17
					c-2.4,3.1-3.9,4.7-6.3,7.1c2.2-6.4-6.8-10.7-10.3-10.3c1.5-1.5,3.3-3.4,6.4-7.1c2.5-3.1,5-6.1,7.2-9.4c2.3-3.8,5.8-5.1,9.7-5.9
					C397.7,442.5,399,442.5,399.8,442.4z"/>
				<path id="Eye_White_Small" class="st6" d="M366.5,475.4c1.9,0,3.3,0.9,3.7,2.8c0.4,1.9-0.6,2.9-2.5,2.6
					c-0.7-0.1-1.4-0.2-2.1-0.5c-1.2-0.4-2.8-0.4-2.6-2.4C363.2,476.3,364.5,475.4,366.5,475.4z"/>
			</g>
		</g>
		<path id="Collar" class="st7" d="M498,407.2c-5.1,4.7-5.2,10-2.3,15.6c2.9,5.5,7.2,9.6,13,11.9c5.5,2.2,10.5,1.3,14.9-2.9
			c1.8-1.8,3.5-3.6,5-5.7c1.5-2,3-4,4.2-6.2c1-1.7,1.7-1.8,3.1-0.4c12.2,11.9,23.2,24.8,32.4,39.2c0.8,1.2,2.5,2.4,2,3.9
			c-0.5,1.3-2.5,0.8-3.9,1.2c-4.1,1-8.1,2.1-12,3.7c-4.6,1.9-7,6.1-6.3,10.9c0.7,4.5,2.2,8.6,5,12.3c4.6,6,11,10,20.4,4.3
			c3-1.9,6.2-3.6,9.2-5.5c1.5-1,2.3-1,3.2,0.9c7.1,15.8,13.1,31.9,17,48.8c0.4,1.7,1,3.4,1.4,5.2c0.3,1.3,0.1,2.1-1.7,1.4
			c-5.2-2.1-10.5-3.8-15.9-5.2c-9.4-2.5-14.5,1.1-16.8,10.3c-1.6,6.2-1.5,12.4,1.3,18.4c2.2,4.6,5.9,7.1,11,7.2
			c6.6,0.1,13.1,0.1,19.6-0.9c0.8-0.1,1.6-0.1,2.4-0.1c1.5-0.1,1.8,0.6,1.5,2c-2.3,12-7.1,22.8-15,32.3c-2.3,2.8-4.8,5.3-7.4,7.7
			c-1.7,1.5-2.4,1.1-3.2-0.7c-1.4-3-3-5.9-5.2-8.4c-4.1-4.7-7.2-5.7-13.1-3.6c-6.9,2.6-12.5,7-16.2,13.5c-3.9,6.9-3.2,11.3,3.2,17.1
			c1.8,1.6,1.8,2.1-0.6,3c-11.3,4.1-23,6.8-35,7.9c-3.9,0.4-7.9,0.4-11.8,0.6c-1.6,0.1-2.5-0.2-2.4-2.2c0.1-1.9-0.1-3.8-0.4-5.6
			c-1-6.3-2.3-7.6-10-11c3.3-0.6,6.2-1.1,9.1-1.6c15.4-2.6,29.9-7.3,42.3-17.1c9.8-7.7,15.3-17.9,16.4-30.3c0.8-9.1,0.5-18.1-3-26.8
			c-0.5-1.2-0.4-2.6-0.3-4c0.9-18.6-2.8-36.1-13.4-51.8c-1.6-2.4-2.5-5-3.1-7.8c-3.8-18-13.9-31.7-28.6-42.3
			c-9.2-6.7-18-13.9-24.1-23.7c-2.2-3.6-3.9-7.5-4-11.8c0-0.8-0.1-1.8,1.1-1.7C486.7,409,492.3,408.7,498,407.2z M457.8,643
			c1.2,0.3,1.5-0.4,1.7-1.4c0.9-4.4,3.4-7.7,7.1-10.2c2.2-1.5,4.9-2,7.2-3.4c-2.5-0.8-4.5-0.1-6.5,1.3c-2.7,1.7-5.7,3-8.8,3.7
			c-8.4,2-17,3.1-25.7,4.3C441.1,639.8,449.5,641.2,457.8,643z"/>
		<path id="Nose_Tip" class="st8" d="M316.2,502.2c0,0-18.2-1.4-19.4-20.8c-0.1-1.9,18.5-12.5,37.5-0.9
			C317.8,489,316.2,502.2,316.2,502.2z"/>
	</g>
	<g id="Bulldogs_Text">
		<g id="Bulldogs_Text_Dark">
			<path id="S_00000004546339839368448630000007185927902318700204_" class="st9" d="M1023.6,194.8c3.2-13.9,6.6-27.5,9.7-39.7
				c8.5-30.2,27.5-46.9,42.1-47.1c7,0,81.6,0,81.6,0l-12.7,62.5h-46.1l3.6-15.4h-23.5l-7.6,31.5h34.2c25.6,0.9,31.5,15.6,25.6,41
				c0,0-6.8,28.1-8.9,37.2c-7.2,29.4-23.2,43.3-41.6,43.1c-26.4,0.4-38.9,0-52,0c-12.5,0-19.9,0-29,0.2c2.1-8.4,12.3-53.9,14.6-63
				l43.1,0.2l-4.7,19.9h26l8.5-35.7c0,0-27.3,0.6-34.2,0.6C1023.6,229.6,1020.5,207.8,1023.6,194.8z"/>
			<path id="G_00000103238432996447080360000018154697045117432737_" class="st9" d="M984.4,307.8c-30.6,0.4-70,0-82.2,0
				c-12.9,0-29.4-6.1-20.9-43.3c8.7-34.6,18.2-76.9,26.6-109.5c8.4-34.4,25.2-46.3,36.4-47.5c14.6-0.6,65.3,0.6,89.2,0.6
				c-11.4,44.8-15.6,58.8-15.6,58.8l-44.8-0.6l3-11.4h-23.5L926,265h24.1l8.5-37h-11.8l10.8-42.5l56,0.9L984.4,307.8z"/>
			<path id="O_00000088134212774854240650000013587612055927786681_" class="st9" d="M874.3,107.9c-23.9,0-50.5,0.6-57.3,0.6
				c-14.6,0.2-27.3,8.4-36.3,46.5c-8.4,32.5-17.8,75.4-26.6,109.7c-9.3,36.4,9.1,42.9,20.9,43.1c13.1,0.2,25.6,0.4,52,0
				c18.4,0.2,34.4-13.9,41.6-43.1c8.2-34.9,18.6-78,26.8-109.7C901.7,130.7,892.4,107.9,874.3,107.9z M822.9,265.1h-24.1L825.4,155
				h23.5L822.9,265.1z"/>
			<path id="D_00000006702405924172587300000017815303812820839838_" class="st9" d="M747.3,108.5c-24.1,0-87.3,0-94.7,0L641.4,155
				h9.7l-26.6,110.1h-10.4l-8.9,42.7c0,0,67.8,0.4,94.3,0C718,308,734,295.7,741.2,266c8.4-35.1,19.4-79,27-111.1
				C773.9,131.6,765.4,108.5,747.3,108.5z M692.1,265.1H668L694.6,155h23.5L692.1,265.1z"/>
			<path id="L_00000056386102673885029660000007111918231088763037_" class="st9" d="M521.6,108.5c7.4,0,69.1,0,69.1,0L579.1,155
				h-11.4L543,265.1h17.3l6.6-33.2l42.3-0.4l-16.5,76.3H476.4l8.9-42.7h12.3L522.4,155h-11.6L521.6,108.5z"/>
			<path id="L_00000034054033382589050580000004397263983453981603_" class="st9" d="M396.7,108.5c7.4,0,65.3,0,65.3,0l-9.7,46.5
				h-11.6L416,265.1h17.3l6.6-33.2l40.4-0.4l-16.5,76.3H347.5l10.8-42.7h12.3L397.3,155h-11.8L396.7,108.5z"/>
			<path id="U_00000057116293265474259200000017225705484017856917_" class="st9" d="M246.5,108.5L233.8,155h12.5
				c0,0-21.5,85.2-27.9,117.1c-3,14.6,0.6,35.9,16.7,35.9c16.3,0,48.8,0,64.9,0c27,0,34.6-34.2,34.6-34.2l29-118.6h10.3l10.8-46.5
				h-56.8l-37.4,156.6h-23.2l36.4-156.8L246.5,108.5L246.5,108.5z"/>
			<path id="B_00000025430119880610519190000016050450327695027076_" class="st9" d="M201.7,108.3c-34.4,0.4-98,0-98,0l-11,46.7
				h12.5L78.9,265.1H66.2l-11.2,42c0,0,71.9,1.1,98.1,0.8c25.2,0.2,35.1-16.9,39.1-30.8c1.3-6.1,10.1-41.6,11.6-47.5
				c4-13.1,0.8-22.4-15.8-25.2c16.9,0.2,22.2-2.7,25.4-14.6c2.7-9.1,6.6-24.1,9.1-34.7C228.3,132.2,230,109.6,201.7,108.3z
				 M149.2,265.1H126l8.4-36.6l23.2-0.4L149.2,265.1z M166.8,190.1h-23.3L152,155h23.5L166.8,190.1z"/>
		</g>
		<g id="Bulldogs_Text_Light_00000131368841772057814070000001757261180452183474_">
			<path id="S" class="st10" d="M1012.5,184.4c3.2-13.9,6.6-27.5,9.7-39.7c8.5-30.2,27.5-46.9,42.1-47.1c7,0,81.6,0,81.6,0
				l-12.7,62.5h-46.1l3.6-15.4H1067l-7.6,31.5h34.2c25.6,0.9,31.5,15.6,25.6,41c0,0-6.8,28.1-8.9,37.2
				c-7.2,29.4-23.2,43.3-41.6,43.1c-26.4,0.4-38.9,0-52,0c-12.5,0-19.9,0-29,0.2c2.1-8.4,12.3-53.9,14.6-63l43.1,0.2l-4.7,19.9h26
				l8.5-35.7c0,0-27.3,0.6-34.2,0.6C1012.5,219.3,1009.5,197.3,1012.5,184.4z"/>
			<path id="G" class="st10" d="M973.4,297.5c-30.6,0.4-70,0-82.2,0c-12.9,0-29.4-6.1-20.9-43.3c8.7-34.6,18.2-76.9,26.6-109.5
				c8.4-34.4,25.2-46.3,36.4-47.5c14.6-0.6,65.3,0.6,89.2,0.6c-11.4,44.8-15.6,58.8-15.6,58.8l-44.6-0.6l3-11.4h-23.5l-26.6,110.1
				h24.3l8.5-37h-11.8l10.8-42.5l55.8,0.8L973.4,297.5z"/>
			<path id="O" class="st10" d="M863.3,97.6c-23.9,0-50.5,0.6-57.3,0.6c-14.6,0.2-27.3,8.4-36.3,46.5
				c-8.4,32.5-17.8,75.4-26.6,109.7c-9.3,36.4,9.1,42.9,20.9,43.1c13.1,0.2,25.6,0.4,52,0c18.4,0.2,34.4-13.9,41.6-43.1
				c8.2-34.9,18.6-78,26.8-109.7C890.7,120.2,881.4,97.6,863.3,97.6z M811.9,254.8h-24.1l26.6-110.1h23.5L811.9,254.8z"/>
			<path id="D" class="st10" d="M736.3,98.2c-24.1,0-87.3,0-94.7,0l-11.2,46.5h9.7l-26.6,110.1h-10.4l-8.9,42.7c0,0,67.8,0.4,94.3,0
				c18.6,0.2,34.6-12.1,41.8-41.8c8.4-35.1,19.6-79,27.1-111.1C762.9,121.4,754.4,98.2,736.3,98.2z M681.1,254.8H657l26.6-110.1
				h23.5L681.1,254.8z"/>
			<path id="L" class="st10" d="M510.6,98.2c7.4,0,69.1,0,69.1,0l-11.6,46.5h-11.4L532,254.8h17.3l6.6-33.2l42.3-0.4l-16.5,76.3
				H465.4l8.9-42.7h12.3l24.7-110.1h-11.6L510.6,98.2z"/>
			<path id="L_00000005961750670012436270000000948459104063206293_" class="st10" d="M385.5,98.2c7.4,0,65.3,0,65.3,0l-9.7,46.5
				h-11.6l-24.9,110.1h17.3l6.6-33.2l40.4-0.4l-16.4,76.3H336.2l10.8-42.7h12.3l26.6-110.1h-11.6L385.5,98.2z"/>
			<path id="U" class="st10" d="M235.3,98.2l-12.5,46.5h12.5c0,0-21.5,85.2-27.9,117.1c-3,14.6,0.6,35.9,16.7,35.9
				c16.3,0,48.8,0,64.9,0c27,0,34.6-34.2,34.6-34.2l28.7-118.8h10.2l10.8-46.5h-56.8l-37.6,156.6h-23.2l37-156.6L235.3,98.2
				L235.3,98.2z"/>
			<path id="B" class="st10" d="M190.7,98c-34.4,0.4-98,0-98,0l-11,46.7h12.5L67.9,254.8H55.2l-11.2,42c0,0,71.9,1.1,98.1,0.8
				c25.2,0.2,35.1-16.9,39.1-30.8c1.3-6.1,10.1-41.6,11.6-47.5c4-13.1,0.8-22.4-15.8-25.2c16.9,0.2,22.2-2.7,25.4-14.6
				c2.7-9.1,6.6-24.1,9.1-34.7C217.3,121.8,219,99.4,190.7,98z M138.2,254.8H115l8.4-36.6l23.2-0.4L138.2,254.8z M155.8,179.8h-23.3
				l8.5-35.1h23.5L155.8,179.8z"/>
		</g>
	</g>
</g>
</svg>
