<?xml version="1.0" encoding="utf-8"?>
<!-- Generator: Adobe Illustrator 26.0.1, SVG Export Plug-In . SVG Version: 6.00 Build 0)  -->
<svg version="1.1" id="Bulldogs" xmlns="http://www.w3.org/2000/svg" xmlns:xlink="http://www.w3.org/1999/xlink" x="0px" y="0px"
	 viewBox="0 0 1200 1200" style="enable-background:new 0 0 1200 1200;" xml:space="preserve">
<style type="text/css">
	.st0{fill:#FFFFFF;}
	.st1{stroke:#000000;stroke-miterlimit:10;}
	.st2{fill:#FFFFFF;stroke:#000000;stroke-miterlimit:10;}
	.st3{fill:#666666;stroke:#000000;stroke-miterlimit:10;}
	.st4{fill:#333333;stroke:#000000;stroke-miterlimit:10;}
</style>
<rect class="st0" width="1200" height="1200"/>
<path id="Sillowette" class="st1" d="M1006.6,1057.1c15-17.4,11.9-29.3-4.2-47.9c-4-4.6-8.4-8.1-13.2-11.9
	c-9.4-7.5-13.9-10.8-13.9-10.8c0.6-26.2-13.2-40.9-25.7-47.7c-1.2-4.7-7.4-14.9-10.2-18.3C918.6,895.3,905,900,892,903.7
	c-1.6,0.5-2.8,1.3-4.1-0.3c2.2-18.4-4.2-34.7-14.1-52.3c15.6,5.9,29.5,5.4,43.2,1.9c40.5-10.1,60.6-39.7,71.7-77.1
	c4.7-15.8,2.1-20.6-1.5-29.4c6.9-14.4,7.1-30,6.9-35.7c-0.4-10.5-4.4-20.7-7.6-30.2c-3.1-9.1-12.6-13.8-22-15
	c-7.2-0.9-7.5-3.5-5.7-9.1c8.6-27.4,0.4-51.1-16.3-72.9c-13.7-18-30.8-32.1-49.3-44.7c-6.7-4.5-10.6-10.2-10.4-18.7
	c0.2-12.1-3.8-23.9-9.5-33.9c-6.9-12-14.4-24.8-28.9-30.3c-2.1-0.8-3.6-2.2-4.6-4.4c-6.5-13.4-9.1-26.1,0.7-39.9
	c12.2-17.1,8.6-32.4-8.8-45.1c-2.8-2-3.1-4.4-3.4-7.2c-1.5-12.1-5.6-24.2-14.3-32c-9.5-8.5-13-17.7-14.2-29.6
	c-1.6-17-7.4-31.8-25.5-38.1c-6.4-2.2-9.9-7.3-12.4-13.3c-3.1-7.3-4.4-15.1-5-22.9c-1.1-16.1,4.4-30.4,14.6-42.6
	c7.2-8.6,17.4-4.9,26.5-5.4c15.3-0.8,30.4-4.1,42.7-12.6c19.1-13.3,26.2-48.6,17.1-71.1c-3.5-8.6-9.4-12.5-17.6-13.1
	c-7.9-0.6-13.9,3-18.2,10.4c-7.2,12.3-12.1,13.7-25.3,9.3c-1.8-0.6-3.6-1.1-5.4-1.5c-22.6-5.4-43.6-3.7-61.2,13.7
	c-4.3,4.2-4.7,10.8-10.2,15.3c-6.1-7.7-16.9-7.1-23-14c-9.2-10.6-20.9-15.7-34.3-17.8c-13.7-2.2-27.8-2.2-40.7-8.8
	c-8.7-4.4-20-4.8-27.6-1.1c-9.9,4.9-13.3,0.2-18.5-5.3c-7-7.6-16.7-11.3-26-14.6c-20.9-7.4-44.8-7.9-59.4-28.5
	c-1.2-1.6-3.6-2.5-5.6-3.4c-8.2-3.9-25.3,1.6-27.8,10.1c-2.3,7.9-5.2,15.7-7.1,23.8c-2.7,11.5-0.7,22.6,1.9,34.1
	c2.4,10.7,7.5,19,14.8,26.7c11.6,12.2,25.5,20.8,40.3,28.3c3.2,1.6,6.7,5.5,4.9,7.8c-4.7,6-6,13.6-10.5,19.7
	c-6.1,8.3-17.9,13.6-15.4,27.2c0.4,2.4-3.4,4.9-7.7,4.7c-5.6-0.2-10.3,0.5-14.5,6.8c-6.4,9.5-15.2,16.2-29.1,15.8
	c-21.5-0.7-42.4,4.9-62.1,13.6c-25.2,11.2-48.6,24.7-65.8,47.7c-22.3,29.8-33.1,62.7-34.9,99.8c-1,21.5-6.1,42.5-18.9,61.2
	c-17.5,25.8-33.2,52.8-45.8,81.4c-10.1,22.8-17.1,46.4-20.1,71.3c-3.4,27.8,0.1,53.9,16.2,77.5c9.1,13.2,21.4,21.9,37.7,21.6
	c12.7-0.3,25.5-2.4,38.9-1.5c-0.3,13.2,5.6,24.9,12.8,35.6c4.9,7.3,11.7,14.6,19.4,18.3c8.8,4.3,13.4,10.5,17,18.6
	c5.3,12.1,3.9,24.2,1.5,36.7c-5.5,28.6-11.6,57.1-10.5,86.5c0.3,10,3,19.9,0.7,30.1c-4.7,21.3-19.1,35.5-35.4,48
	c-20.4,15.7-30.8,35.8-28.7,61.7c1.3,15.4,1.7,31.2,13.8,43.4c9.5,9.6,21.3,13,34.2,13.7c20.2,1.1,40-1.5,56.5-14.1
	c13.8-10.6,19.3-11.8,30.6,0.6c19,20.8,42.3,26,68.6,19.7c35.9-8.6,49.4-40.7,42.7-64.8c-3.3-11.7-9.7-21.9-17.5-31
	c-7.3-8.4-14.7-16.8-22.1-25c-11.9-13.3-16.2-31.2-14.6-49.2c2.1-23.5,4.6-47,10.3-72.1c20.6,30.4,45.4,54.5,71.4,77.6
	c4,3.6,7.2,7.7,12.3,10.5c11.3,6.2,21.4,14.5,32.2,21.6c17.6,11.6,35.7,22.5,55.9,28.9c11.5,3.6,13.2,6.5,8.7,18.1
	c-2.1,5.2-4.2,10.6-5.2,16.1c-3.5,18.7,2.8,38.8,28.2,40.9c8.7,0.7,17.6,1.2,26.3-1.2c16.3-4.6,31.5-2.2,46.2,5.9
	c8.5,4.7,17.3,8.9,25.9,13.6c22.8,12.4,45.9,23,72.5,24.7c31.3,2,61.6,0.5,88.5-18.1c3.3-2.3,6.4-1.6,9.9-1.9
	c28.1-2,55.2-17.9,60.9-36C998.8,1064.8,1002.9,1061.4,1006.6,1057.1z M785,841.1c7.4-13.1,11.9-27.1,18.8-40.4
	c6.5,9.2,12.2,17.7,21.4,24.1C812.3,832.2,795.9,829.6,785,841.1z"/>
<path id="Bone" class="st2" d="M444.2,750.4c-6.4-5.5-13.1-10.7-19.3-16.5c-12.3-11.5-22.4-24.5-25.9-41.5
	c-2.1-10.3-4.9-11.9-14.8-7c-28.1,14-56.9,25.3-89.7,22c1.1,17.9,8.2,31.4,21.2,42.3c11.2,9.4,24.3,15.6,36.6,23.1
	c2.8,1.7,7.8,2.5,5.4,7.8c-3.5,2.3-7.3-0.7-10.5,0.4c1.3,8.2,10.3,11,11.7,18.4c-5,2.6-9-1.7-14.1-0.3c0.1,15.6-2.9,31-6.1,46.3
	c-6,28.7-3.8,57.7-4,86.6c-0.1,19-5.8,36.1-15.8,52.1c-3.2-2.7-3.2-2.6-11,1.8c-28.3,16-42.4,50.7-33.5,81.5
	c2.7,9.4,8.2,14,18.1,14.7c15,0.9,29.5-1.1,43.4-6.7c0.5,0.5,1,1,1.5,1.6c-3,4.6-8.3,6.3-13.1,10.6c11.5-1,20.6-5.2,29.3-10.9
	c9.2-6,17.1-13.9,27.6-17.9c6-2.3,11.9-4.9,18.7-1.8c-2.3,3.6-4.2,6.7-6.4,10.3c14.2,4.1,25.5,12,36.3,20.8
	c-9.2-1.9-17.2-6.8-27.1-8.2c14.6,14.1,34.6,18.6,55.7,13.1c29.7-7.7,40.8-35.1,24.1-60.8c-11.2-17.2-26-31.7-37.5-50.3
	c-0.9,6-1.5,10.3-2.2,14.6c-0.7,4.2-1.5,8.5-2.3,12.7c-10.5-31.8-4-63.6-1.3-95.1c2.8-32.1,8.8-63.8,22.8-93.5
	C443.7,814.9,427.6,772,444.2,750.4z"/>
<path id="Bone_Mark" class="st1" d="M430.7,883.5c-5.4-19.5-6.4-38.4-17-55.7C429.3,837.2,439.3,869,430.7,883.5z"/>
<path id="Bone_Mark_00000176007979203973834860000010065140520654925970_" class="st1" d="M415.5,967.2c-1.4-13.1,1.9-25.9,3.2-38.6
	c1.3-13.1,0.7-25.8,0-38.9c-0.8-13.7-3.8-26.5-7.5-39.5c0.6-0.4,1.2-0.9,1.8-1.3c12.1,19,15.5,40,14.4,62.1
	c-0.9,18.2-6.4,35.5-9.3,53.2C417.8,965.4,416.9,966.4,415.5,967.2z"/>
<path id="Bone_Mark_00000180334156519043910390000010031797486994346142_" class="st1" d="M457.9,1053c11.9,10.8,8.6,28.3-5.7,35.8
	c-3.4,1.8-3.4,1.8-8-3.7c16.3-11.6,16.4-12.5,4.3-27.8c-8-10-15.8-20.1-23.5-30.4c-2.3-3.1-5.2-6.2-4.7-11.7
	C432.7,1028.8,445,1041.2,457.9,1053z"/>
<path id="Bone_Mark_00000174584888798322519050000007743382818783716027_" class="st1" d="M434.9,851.6c-5-12.9-10.1-25.9-15.1-38.8
	c13.2,9.4,16,23.3,17.9,37.7C436.8,850.9,435.9,851.2,434.9,851.6z"/>
<path id="Foot_00000081643486053922714120000011459404294529888911_" class="st3" d="M930.3,933.6c-15.1-19.7-23.4-22.6-36.3-13.9
	c-5.5,3.7-6.3,16.9-1.3,26C902.6,935.5,914.5,930.6,930.3,933.6z"/>
<path id="Foot" class="st3" d="M926.7,978.3c-13.8-4-27.9-2.9-40.7,4.7c-8.4,5-16.7,10.1-24.9,15.2c-23.5,14.8-48.7,22.6-76.7,17.5
	c-6.2-1.1-12.8-1.6-18.5-7.2c5.8,0.5,10.5,0.8,15.2,1.2c-6.8-5.3-12.8-10.7-18.1-16.9c-25.5,21.9-55.2,28.8-87.4,26.3
	c-15.6-1.2-19.3,0.4-25.5,14.4c-3.6,8.2-2.1,23.9,3.1,26.6c11.3,5.8,23.6,8,36.1,5.9c13.7-2.3,27.4-3.9,41.2-2.9
	c5.5,0.4,11.4,0.8,16.5,5.2c-4,2.1-8.4,0.2-11.4,4.2c17.9,8.1,35.3,16.4,53,24c12.4,5.4,25.4,8.6,39,10.1c26,2.9,51.3-1.3,76.5-6.8
	c19.7-4.3,29.1-18.3,22.7-33.3c-6.6-15.4-17.7-25.4-34.8-28.4c-12.2-2.2-24.3-2.1-37.9-0.9c11.6-11.7,40.8-13.9,56.3-5
	c18.1,10.5,34.9,30.8,27.4,57.4c12.7-4.1,24.3-7.9,33.7-16.3c9.8-8.7,11.4-16.2,6.1-28.2c-11.2-25.3-55-55.7-88.7-43.9
	c-3,1.1-6.1,2.1-9.8,0.3c8.5-6.6,16.6-11.8,26.8-12.5c37.9-2.7,80.2,27.8,85.1,65.1c17.2-14.1,13.5-21.1,0.7-36.3
	C974.6,997.5,951.8,985.6,926.7,978.3z"/>
<path id="Foot_00000133502550924220092970000003843349173849489029_" class="st3" d="M904.9,947.4c-8.5,3.7-11.8,9.3-9.3,19.8
	c23.5-6.9,43.4,3.4,64,11.6C957.2,953,928.5,937,904.9,947.4z"/>
<path id="Hand" class="st3" d="M933.9,706.4c12.7,10.6,13.2,27.4,13.6,30c6-1.6,11.6-1.8,14.7-1.7c5.8,0.3,9.5,1.1,13.9,3.4
	c5.3-14.4,4.6-27.2-0.1-39.7c-5.2-13.6-16.9-18.7-28.4-12.9C941.4,694.3,940.1,697,933.9,706.4z"/>
<path class="st3" d="M976.5,765.2c-2.8-16.4-10-20.1-28.9-17.3c-4.9,29.6-16.2,54-50.9,58c1.9,9.7,6.9,17.6,11.3,26.5
	c-10.2-0.8-16.7-5.6-21.3-13c-17.2,9.4-25.8,8.9-34.9-1.9c14.4,0.8,19.5-1.7,23.4-11.2c-9.5-0.6-18.8-1.5-25.3-12
	c12.8,0,24.1,0.3,35.3-0.1c19.8-0.6,35.9-7.2,44.6-26.8c6.9-15.6,4.1-36.2-6.9-44.8c-29.5,32.2-57.8,48-75.5,43.7
	c2.9-1.4,4.4-1.9,5.7-2.8c15.4-11.4,31.2-22.7,44.8-35.8c14.4-13.9,26.7-30.5,37.1-48.1c21.1-35.8,19.6-60.3-6.4-92.5
	c-13.6-16.8-30.6-29.8-47.3-43.2c-7.1-5.7-14.2-11.4-17.9-20.8c9.7-4.5,3.7-11.1,2.3-17.1c-3.3-15.1-15.6-32.5-27.4-37.8
	c8,28.9,2.2,53.5-21.2,72.6c-3.5,2.9-2.8,6.5-0.9,9.3c10.3,14.8,19.1,30.6,28.1,47.6c6.4-11.2,13.3-20,26-23.8
	c-3.9,6.5-7.3,11.8-10.2,17.3c-6.7,12.3-8.8,25.2-5.2,39.1c6.7,25.8,5.8,51.5-1.8,77c-8,26.8-20.6,51.3-36.2,74.4
	c-1.9,2.8-5.4,5.3-2.7,10c13.9,23.8,34,40.7,59.6,49.3c23.4,7.8,46.3,1.6,66.7-11.6c3.9-2.5,12.3-9.8,15.4-13.5
	c9-10.8,12.7-17.6,17.3-31.1C975.5,778.7,977.6,771.5,976.5,765.2z"/>
<path id="Arm" class="st3" d="M397.8,663.2c1.8-6.6,4.7-12.8,12.3-16.3c-7.3,62.5,25.1,96.3,81.7,112.8c-7.5,7.4-8.1,15.2-6.4,24.4
	c-9.3-5.9-15.7-13.6-25.3-16.6c-6.8-2.2-9.3,0.6-9.9,6.8c-1.5,14.6,6.3,28.7,20.4,36.5c15.6,8.6,32.4,11.9,50.1,10.1
	c25.5-2.5,36.1-21,25.1-44c-3.9-8.1-3.9-16.2-3-24.8c0.4-3.6,5.2-14.1,5.2-18.5c0.1-10.9-1.2-13.3-3.1-25.1
	c11.9,11.2,13.2,30.5,9.4,45.3c-1.8,7-3,13.7,0.7,20.1c7.2,12.3,10.1,24.9,5,38.6c-0.2,0.6,0.6,1.5,1.1,2.6c8-1.7,15.4-4.5,21.7-9.2
	c16.4-12.3,21.4-29.7,4.8-43.9c-3.8-3.2-7.4-7.3-6.1-12.3c1.3-5.2,0.8-15.6,0.2-20.5c-1.3-12.2-6.3-17.6-12.4-28.2
	c3.3-1.5,4.7,0.8,6.2,2.1c12.2,10.2,17.8,21.6,16.6,37.4c-0.3,4.3,0.2,8.2,3.7,11.3c7.1,6.4,13.9,14.6,16.8,25.3
	c4.6-4.9,6-8.9,5.3-13.5c-1-6.7-5.9-11.3-10.7-16.5c-3.6-3.8-6.1-3.2-6.4-18.2c-0.2-16.8-10.2-27.9-24.4-34.9
	c-10.4-5.1-14.4-13.2-16.5-23.2c-3-14.9-8.2-29-15.1-42.4c-22.7-44.2-59.8-67-108.6-69.3c-20.2-0.9-40.1-2-59.8-6.5
	c-20.6-4.7-44.2-16.3-53.8-26.3c14.2,1.8,26.6,8.6,41.7,11.8c-11.6-17.7-28.9-26.1-45.5-38.5c29.2-0.2,44.1,18,58.4,36.9
	c5.9-3.4,2.2-6-0.1-8.9c-24.9-31.5-38.6-67.4-41.5-107.3c-1.7-23.4,3.1-45,20.9-62.2c6-5.8,10.7-12.9,12.1-21.4
	c5.1-30.1,19.9-54.6,42.3-74.9c2.3-2.1,5.4-3.7,6.7-7.3c-92.9,10.2-134,82.1-134.3,157.6c3-2.8,3.8-7.4,7.8-9.7
	c1.7,4.2-0.8,7.2-2,10.2c-11.6,31.1-29.3,59.1-45.8,87.7c-20.2,35-37.4,71.3-41.5,112.2c-2.6,25.6-0.4,50.4,16.7,71.5
	c9.3,11.5,25.1,15.2,38.6,10.2c8.5-3.1,17.4-4.9,26.1-7.2c0.7,1,1.3,1.9,2,2.9c-1.5,0.6-3.1,1.1-4.5,2c-1.3,0.8-2.6,1.8-1.6,3.9
	c2.2,1.6,4.8,0.8,7.2,0.7c37.3-1.2,72.1-12.7,106.5-26.1C396.3,668.9,396.9,666.5,397.8,663.2z"/>
<path class="st3" d="M722.9,622.9c6.2,15.2,12.1,30.4,18.5,45.4"/>
<path class="st3" d="M654.3,632.4c17.4-0.8,52.1-6.2,68.6-11.3c17.2-5.3,27.4-11.4,29.6-12.7c26.7-15.3,27.4-20.9,40.7-49.8
	c3.9-8.4,6.2-9,11.4-1.6c17,24.3,32.9,49.4,39.8,78.6c7,29.4,0.5,57.8-9.9,85.4c-17.9,47.3-47.5,88.3-71.8,132.1
	c-6.9,12.4-16.3,23.5-18.8,38.5c-21.3-9.2-40.2-20-60.6-27.6c-0.6,0.6-1.3,1.2-1.9,1.7c9.9,11.4,22.6,18.8,35.8,25.6
	c17.8,9.1,36.3,16.8,55,23.9c2.9,1.1,6.5,0.2,10.3-1.8c-7.6-4.4-15.1-8.8-23.9-13.9c11.4-1.7,21.3,2.3,33,2.4
	c-9.9-8.6-20.7-10.6-31.1-13.5c10.6-28.1,46.7-51.8,74-48.7c11,1.3,19.2,7.1,26,15.4c15.3,18.8,20.2,40.8,16.3,63.8
	c-2.5,14.9,1.9,27.5,6.3,40.7c2.3,6.9,0.8,11.2-5.3,15.3c-17.8,11.9-35.1,24.3-57.2,27.1c-10.7,1.3-20.8,0.1-29.5-6.6
	c-10.3-7.9-11.1-20.9-2.2-30.3c3.9-4.1,7.6-8.3,12.8-14c-8.2,1.4-12.5,5.4-17,8.7c-9.4,6.8-18.6,14-27.7,21.2
	c-35.9,28.4-75.2,32-117.2,15.9c-18.4-7.1-35.6-16-52.5-26.5C541.4,942,504.2,905.3,472,862.6c-7.5-10-10.5-18.7-3.4-29.5
	c1.2-1.8,1.7-4,2.8-6.7c13.5,4.8,26.9,8.6,41.2,8.1c7.6-0.3,15.1-1.1,22.1-4c4-1.7,7.8-1.8,12-1.1c24,3.6,48.1-7.5,60.4-28.2
	c2.2-3.7,4.9-6.2,8.6-8.2c15.7-8.8,19.6-23.7,10.1-39.1c-2.6-4.3-7.1-11.2-10.9-15c-4.5-4.5-3.8-5.1-4.4-14.2
	c-1.4-19.2-7.8-31.1-29.5-43.6c-6.1-3.5-8.9-9.4-11.5-15.3c-6.1-14.1-7.4-29.9-15.3-44.8c15.2,1.9,29.4-1.9,44,3.4
	C615.6,630.8,634.2,632.1,654.3,632.4"/>
<path id="Collar_00000178196241292709082860000018187596727032000430_" class="st4" d="M776.5,559.4c-10.6,3.8-20.7,1.6-27.8,7.6
	c-13.1,11.2-26.3,22.3-42.1,30.6c2.4,4.2,4.4,8,6.8,12.2C751.7,597.2,776,582.8,776.5,559.4z"/>
<path id="Collar_00000094619982965328068470000016289682828134147742_" class="st4" d="M673.1,609.7c-18.7,4.1-36.5,1.1-53.5-7.2
	c-4,3.1-7.6,5.9-12.5,9.6c24.9,6.7,48.7,8.8,73.1,3.2C681,610.2,678.1,608.6,673.1,609.7z"/>
<path id="Collar" class="st4" d="M382.9,337.4c11.9-4.4,21.6-8.1,26.7-20.8c8-19.8,19.3-38,33.4-54.2c1.8-2.1,4.2-4,2.5-7.9
	C412.8,272.9,390.8,298.9,382.9,337.4z"/>
<path id="Eye_White_00000145040380864957177490000008527527379892383645_" class="st2" d="M737.5,271.5c1.6-13,0-25.7-4.2-37.8
	c-2.2-6.2-9.4-7.9-15.8-7.7c-6.5,0.2-6.8,5.1-6.6,10.1c16.5,2.8,26.5,14.8,17.2,40.1C733.1,277.2,736.7,277.7,737.5,271.5z"/>
<path id="Eye_White" class="st2" d="M674.7,261.9c1.8-19.7-1.5-38.2-10.4-55.5c-4.8-9.3-14.2-14-23.3-12.2
	c-11.4,2.3-18.4,9.9-24.6,20.4c14.8-2.5,25.7,1.6,33.4,12.8c8.3,12,6.7,24.1-1,36.6C657.8,263.2,666.1,262.6,674.7,261.9z"/>
<path id="Ear" class="st3" d="M735.1,149.6c4.9,4.1,8.9,8.9,11.6,14.7c3.1,6.7,6.3,6.7,10.8,0.9c10.2-13.4,24.3-21.5,39.9-27.1
	c8.5-3.1,14.4,0.2,17.8,9c-10.8,6-21.1,11.7-31.5,17.5c0.3,0.7,0.7,1.4,1,2.1c12.4-3.7,25.5-3.5,37.7-8.5c22.9-9.5,38.1-32.5,21-61
	c-3.4-5.7-7.3-6.7-11.8-1.5c-3.1,3.5-5.4,7.7-8.5,11.2c-7.4,8.2-15.2,16.1-27.9,13.4c-2.1-0.5-5.8-1.2-5-3.1c3.7-9-4.3-7.3-7.7-8.3
	c-22.4-6.6-41.9,11.2-50,25C728.8,140.1,729.9,145.3,735.1,149.6z"/>
<path id="Cheek" class="st3" d="M785.9,293.6c-0.2-11.2-4.6-18.5-13.6-21.5c-6.8-2.3-14.3-2.1-21.2,5.1
	C764.1,280.9,774.4,287.1,785.9,293.6z"/>
<path id="Cheek_00000058569667277570371790000014775697302787848383_" class="st3" d="M829.6,491.1c-0.9-21.1-8.8-41.3-9.3-63.2
	c-18.7,41.8-32.4,85.5-59.8,125c15.6-5.4,29.7-9.7,42.3-17.3C819.5,525.5,830.4,511.4,829.6,491.1z"/>
<path id="Nose_Shine" class="st4" d="M694.9,292.3c20,8.2,38.8,18.8,55.9,47.5c0.3,0.4,0-0.6,0-0.6c1.2-20.5-13.9-32.3-26.4-47.1
	c13.1-0.4,24.6-0.7,36.1,1.1C739.4,281.5,694.9,292.3,694.9,292.3z"/>
<path id="Tooth" class="st2" d="M555.5,293.6c-3,15.9-1.5,27.9,4.3,37.4c4.9,8,11.2,8.5,17.2,1.4c1.6-1.9,3.3-3.7,4.9-5.6
	C577.6,312.1,566.9,303.1,555.5,293.6z"/>
<path id="Face" class="st3" d="M440,285.8c-16.9,22-25.1,49.1-39.6,72.4c-5.3-5.9-0.2-12.2-1.5-19c-8.8,6.4-17.4,12.3-25.5,18.6
	c-20.1,15.4-26.8,36.9-24.9,61c3.9,47.7,23.7,88.1,58.5,121.2c5.9,5.6,12.4,8.7,20.8,8.8c5.7,0.1,11-2.4,16.6-1.7
	c35.3,4.4,67.2,17,89.1,45.6c11.4,14.9,23.9,18.4,40.3,16.9c3.1-0.3,6.3-0.1,9.4-0.4c18.5-1.6,27.7-9.8,31.6-27.8
	c2.9-13.2,1.8-26.4-1.7-39.1c-12.4-45-31.3-87.4-54.9-127.6c-13.7-23.3-28.6-45.9-37.2-71.8c-5.3-16-7.4-32.1-2.1-48.8
	c0.8,0.7,1.6,1,1.6,1.5c0.5,3.1,1,6.2,1.2,9.3c1.5,22,10.5,41.7,20.3,60.8c10.3,20.1,23.4,38.7,34.1,58.6
	c14.8,27.2,28.7,54.9,39,84.2c9.6,27.4,17,55,9.3,84.2c15.4,7.2,31,7.3,46.5,4.2c40.1-7.9,69.2-31.8,90.5-65.6
	c18-28.5,28.5-60.7,42-91.4c0.3-0.6-0.4-1.7-0.6-2.6c-8.5,1.8-16.9,3.6-26.6,5.7c2.8-5.9,6.9-6.3,10.1-7.9
	c13.8-7.4,27.7-14.8,39.4-25.3c10.5-9.4,10-20.9-0.4-26.7c-6.3,8.9-13.9,15.8-24.9,19c-10.8,3.2-22.3,3.3-32.3,1.8
	c-15.6-2.4-29.9-2.1-44.8,2.9c-16.5,5.5-32.8,11.4-51.3,8.4c-35.3-5.7-59.4-25.4-75.9-55.9c-3.2-6-6.2-12.3-12.3-16.6
	c-1.5,1.1-2.7,1.9-4,2.9c-12.5,9.3-18.6,7.5-27.1-5.6c-9.5-14.7-13.4-31-15.7-47.8c-1.3-9.7-3.7-16.8-14.8-18.1
	c-2.6-0.3-5.7-0.8-7.6-3.9c4.4-3.8,8.9-7.7,13.8-11.9c-8.4-1.9-16.5,1-25.1-2.7c10.1-9,21-9.4,32.3-6.7c4.8,1.1,11,2.4,11.9,7.9
	c1.1,6-5.3,7.4-9.5,9.7c-0.6,0.3-0.9,1.4-1.7,2.9c14.4,7.8,28.7,15.6,37.6,30.4c2.6-6-2.9-10.8-0.6-16.7c4.6,5.5,7,11.5,9,17.8
	c5.8,17.9,12,35.8,22,51.8c14.1,22.8,31.6,41.6,59.4,48c21,4.8,41.1,1.5,61-5.2c13.3-4.5,26.6-9.2,40.8-14.2c-0.7,5-6.4,4.6-6.4,7.9
	c13.1,4.4,26.2,2.7,39.2,2.1c4.4-0.2,9.4-1.2,12.1-6.1c8-14.4,3.1-37.5-10.3-48c-11,20.1-31.2,34.1-49.9,34.2
	c-0.7-2.2-1.4-4.6-2.1-7c-5.8-20-16.7-36.6-33.9-48.6c-16.6-11.6-35.3-18.2-55.2-22.3c-13.4-2.7-27.1,4-40.6-2.7
	c17-7.7,34.8-6.6,52-4.7c10.5,1.2,18.9,0,27.1-6.6c-6.1-5.2-13.6-4.7-20.4-6.5c-6.9-1.8-13.9-0.9-20.8-1.4
	c-7.4-0.6-15.3-1.9-22.4,1.3c-6.2,2.7-11.6,7.9-20.3,5.1c2.2-1.4,3.4-2.2,4.7-3c10.3-6.8,10.1-11.5-0.7-17.5
	c-8.3-4.6-17.4-6.9-26.6-9.2c-6.9-1.7-14.3-0.5-21.6-4c6.6-5.1,14.2-3.9,21.9-5.5c-11.7-14.5-27.8-22.6-42.7-32.7
	c16.2-5.2,26.9,7.2,39.7,11.8c1.3-4.7-2.8-7.6,0.9-10.6c4.2,2.5,9,4.1,13.1,9.3c7.9-14.2,16.9-26.2,31.4-32.2
	c14.5-6.1,28.7-6.3,44,2.9c-7,2.1-12.2-1.7-17.3,1c22.3,18.1,22.7,32.7,23.6,60.5c0.5,15.3,1.5,17.7,18.1,17.9
	c-1.5-16-2.6-32,2.9-47.4c4.8-13.3,14.6-16.3,26.6-8.7c-0.4,0.5-0.8,1-1.3,1.5c-3.6-0.6-7.2-1.7-10.8,2.4
	c22.9,8.8,25.3,29.1,27.9,49.3c3.1-1,5.7-1.4,7.6-3.7c-4.6-10.8-6.3-21.9-7.8-33.2c-1.5-11.5-3-23-4.8-34.5
	c-1.7-10.9-4.1-21.6-11-30.7c-7.5-9.7-18.4-11.4-30.1-11.5c2.2-4,6.3-3.7,8.7-6.5c2-2.4,3.2-4.9,1.1-6.2c-4.3-2.7-7-8.7-13.1-8
	c-5.7,0.7-9.6-2.8-13-5.9c-16.8-15.3-35.9-19.7-57.8-13.8c-5.3,1.4-10.8,1.9-16.5,2.9c2.7-8.1,11.6-5.6,16.3-10.7
	c-10-3-19.6-3.1-29.2-2.1c-7,0.7-13.1,3.2-9.2,12.6c0.7,1.7,0.6,3.7,0.7,5.6c0.1,1.9,0,3.8,0,5.7c-10.8-36.6-36.2-51.6-72.4-51.6
	c2.2,1.9,4.5,3.9,6.8,5.9c-0.4,0.5-0.8,1-1.3,1.4c-14.7-6.2-29-12.7-37.8-27.4c-4.4-7.3-13.9-5.4-18.5,3
	c-10.5,19.5-6.9,44.3,8.8,59.9c12.1,12,26.1,21.7,40.3,31c7.5,5,14.8,10.2,19.7,18.5c-8.1,5.7-15.5,11.4-17.3,21.9
	c6.8,2,14,1.6,19.8,6.1c-6.3,3.6-7,3.7-14.4,2.4c-12-2.2-21,5.5-20.3,18.1c22.1-1.1,43,3.1,61.3,16.5c-17.6-5.4-35.4-8.1-53.8-7.3
	c-31.5,1.4-53.3,20.4-59,51.6c-1.4,7.9-3.7,15.6-6,25C443.7,293.2,446,288.1,440,285.8z"/>
<path id="Eye_Shine" class="st2" d="M614.7,225.9c-0.2,2.7,0.9,4,3.6,4.2c2.8-0.1,4.9-1.3,4.8-4.3c0-2.4-1.6-3.8-4.2-3.7
	C616.2,222.2,614.9,223.3,614.7,225.9z"/>
<path id="Nose_Shine_00000055668078120311551500000004209131587575843225_" class="st2" d="M750.4,304c-4.1,1.8-6.3-0.8-8.9-4.2
	c4.2-2.9,7.4-3.2,10.2-0.2C753.4,301.4,752.3,303.2,750.4,304z"/>
<path id="Inner_Ear" class="st1" d="M552.2,162.7c-1-7.7-0.8-14.7,6.5-20.2c4.9-3.7,4.9-9.6,0.9-14.3c-7.4-8.7-16.4-14.4-27.6-18.2
	c-18.9-6.4-39.8-9.8-53.6-28.2c-0.7,6.7,0.6,12.6,4.7,15.7c15.7,12.1,27.7,27.4,39.4,43.1c1.2,1.7,3.5,2.6,5.3,3.8
	c6.6,4.5,14.8,7,18.2,15.4C546.7,161.6,548.8,164.1,552.2,162.7z"/>
<path id="Forehead_Mark_00000026156634231584717750000008778578453349433506_" class="st1" d="M693.3,229.8c2.3,0.2,3.6-1.1,4.2-3
	c6.2-21.1,7.1-42.2-1.2-63c0.1,12.5,0.1,24.9-2.2,37.3c-1.5,8-2.7,16-3.9,24C689.9,227.4,690.2,229.6,693.3,229.8z"/>
<path id="Forehead_Mark" class="st1" d="M642.5,130.4c12.6-1.6,24.4,4.8,34.1,13.2c2.1,1.8,3.3,3.1,6.5,2
	c-8.2-16.5-22.6-25.8-39.3-26.4c-18-0.6-34,7.8-45.5,26.8c4.1-2.1,6-2.9,7.7-4.1C616.8,134.2,630,132,642.5,130.4z"/>
<path id="Eye_Shine_00000008861450529380184620000002457143722448461731_" class="st2" d="M707.3,248c-0.2,2.7,0.9,4,3.6,4.2
	c2.8-0.1,4.9-1.3,4.8-4.3c0-2.4-1.6-3.8-4.2-3.7C708.8,244.3,707.5,245.4,707.3,248z"/>
</svg>
